<?xml version="1.0" encoding="UTF-8"?>
<svg xmlns="http://www.w3.org/2000/svg" xmlns:xlink="http://www.w3.org/1999/xlink" width="1000pt" height="1000pt" viewBox="0 0 1000 1000" version="1.1">
<defs>
<clipPath id="clip1">
  <path d="M 646 314.980469 L 657 314.980469 L 657 685.023438 L 646 685.023438 Z M 646 314.980469 "/>
</clipPath>
<clipPath id="clip2">
  <path d="M 594 325.257812 L 617 325.257812 L 617 674.742188 L 594 674.742188 Z M 594 325.257812 "/>
</clipPath>
<clipPath id="clip3">
  <path d="M 477 407.488281 L 529 407.488281 L 529 592.507812 L 477 592.507812 Z M 477 407.488281 "/>
</clipPath>
<clipPath id="clip4">
  <path d="M 473 412.628906 L 475 412.628906 L 475 587.371094 L 473 587.371094 Z M 473 412.628906 "/>
</clipPath>
<clipPath id="clip5">
  <path d="M 316 376.652344 L 364 376.652344 L 364 623.347656 L 316 623.347656 Z M 316 376.652344 "/>
</clipPath>
<clipPath id="clip6">
  <path d="M 288 380.078125 L 300 380.078125 L 300 619.917969 L 288 619.917969 Z M 288 380.078125 "/>
</clipPath>
<clipPath id="clip7">
  <path d="M 259 380.078125 L 271 380.078125 L 271 619.917969 L 259 619.917969 Z M 259 380.078125 "/>
</clipPath>
</defs>
<g id="surface1">
<rect x="0" y="0" width="1000" height="1000" style="fill:rgb(15%,15%,15%);fill-opacity:1;stroke:none;"/>
<path style="fill:none;stroke-width:1;stroke-linecap:round;stroke-linejoin:bevel;stroke:rgb(100%,100%,100%);stroke-opacity:0.5;stroke-miterlimit:10;" d="M 0 500 L 1000 500 "/>
<path style="fill:none;stroke-width:0.04;stroke-linecap:round;stroke-linejoin:bevel;stroke:rgb(5%,5%,5%);stroke-opacity:1;stroke-miterlimit:10;" d="M -20 -999.999684 L -20 999.999684 " transform="matrix(3.42631,0,0,3.42631,68.526193,500)"/>
<path style="fill:none;stroke-width:0.04;stroke-linecap:round;stroke-linejoin:bevel;stroke:rgb(5%,5%,5%);stroke-opacity:1;stroke-miterlimit:10;" d="M -10.000402 -999.999684 L -10.000402 999.999684 " transform="matrix(3.42631,0,0,3.42631,68.526193,500)"/>
<path style="fill:none;stroke-width:0.04;stroke-linecap:round;stroke-linejoin:bevel;stroke:rgb(5%,5%,5%);stroke-opacity:1;stroke-miterlimit:10;" d="M 0.000335711 -999.999684 L 0.000335711 999.999684 " transform="matrix(3.42631,0,0,3.42631,68.526193,500)"/>
<path style="fill:none;stroke-width:0.04;stroke-linecap:round;stroke-linejoin:bevel;stroke:rgb(5%,5%,5%);stroke-opacity:1;stroke-miterlimit:10;" d="M 9.999934 -999.999684 L 9.999934 999.999684 " transform="matrix(3.42631,0,0,3.42631,68.526193,500)"/>
<path style="fill:none;stroke-width:0.04;stroke-linecap:round;stroke-linejoin:bevel;stroke:rgb(5%,5%,5%);stroke-opacity:1;stroke-miterlimit:10;" d="M 19.999531 -999.999684 L 19.999531 999.999684 " transform="matrix(3.42631,0,0,3.42631,68.526193,500)"/>
<path style="fill:none;stroke-width:0.04;stroke-linecap:round;stroke-linejoin:bevel;stroke:rgb(5%,5%,5%);stroke-opacity:1;stroke-miterlimit:10;" d="M 30.000269 -999.999684 L 30.000269 999.999684 " transform="matrix(3.42631,0,0,3.42631,68.526193,500)"/>
<path style="fill:none;stroke-width:0.04;stroke-linecap:round;stroke-linejoin:bevel;stroke:rgb(5%,5%,5%);stroke-opacity:1;stroke-miterlimit:10;" d="M 39.999867 -999.999684 L 39.999867 999.999684 " transform="matrix(3.42631,0,0,3.42631,68.526193,500)"/>
<path style="fill:none;stroke-width:0.04;stroke-linecap:round;stroke-linejoin:bevel;stroke:rgb(5%,5%,5%);stroke-opacity:1;stroke-miterlimit:10;" d="M 49.999465 -999.999684 L 49.999465 999.999684 " transform="matrix(3.42631,0,0,3.42631,68.526193,500)"/>
<path style="fill:none;stroke-width:0.04;stroke-linecap:round;stroke-linejoin:bevel;stroke:rgb(5%,5%,5%);stroke-opacity:1;stroke-miterlimit:10;" d="M 60.000203 -999.999684 L 60.000203 999.999684 " transform="matrix(3.42631,0,0,3.42631,68.526193,500)"/>
<path style="fill:none;stroke-width:0.04;stroke-linecap:round;stroke-linejoin:bevel;stroke:rgb(5%,5%,5%);stroke-opacity:1;stroke-miterlimit:10;" d="M 69.999801 -999.999684 L 69.999801 999.999684 " transform="matrix(3.42631,0,0,3.42631,68.526193,500)"/>
<path style="fill:none;stroke-width:0.04;stroke-linecap:round;stroke-linejoin:bevel;stroke:rgb(5%,5%,5%);stroke-opacity:1;stroke-miterlimit:10;" d="M 80.000538 -999.999684 L 80.000538 999.999684 " transform="matrix(3.42631,0,0,3.42631,68.526193,500)"/>
<path style="fill:none;stroke-width:0.04;stroke-linecap:round;stroke-linejoin:bevel;stroke:rgb(5%,5%,5%);stroke-opacity:1;stroke-miterlimit:10;" d="M 90.000136 -999.999684 L 90.000136 999.999684 " transform="matrix(3.42631,0,0,3.42631,68.526193,500)"/>
<path style="fill:none;stroke-width:0.04;stroke-linecap:round;stroke-linejoin:bevel;stroke:rgb(5%,5%,5%);stroke-opacity:1;stroke-miterlimit:10;" d="M 99.999734 -999.999684 L 99.999734 999.999684 " transform="matrix(3.42631,0,0,3.42631,68.526193,500)"/>
<path style="fill:none;stroke-width:0.04;stroke-linecap:round;stroke-linejoin:bevel;stroke:rgb(5%,5%,5%);stroke-opacity:1;stroke-miterlimit:10;" d="M 110.000472 -999.999684 L 110.000472 999.999684 " transform="matrix(3.42631,0,0,3.42631,68.526193,500)"/>
<path style="fill:none;stroke-width:0.04;stroke-linecap:round;stroke-linejoin:bevel;stroke:rgb(5%,5%,5%);stroke-opacity:1;stroke-miterlimit:10;" d="M 120.00007 -999.999684 L 120.00007 999.999684 " transform="matrix(3.42631,0,0,3.42631,68.526193,500)"/>
<path style="fill:none;stroke-width:0.04;stroke-linecap:round;stroke-linejoin:bevel;stroke:rgb(5%,5%,5%);stroke-opacity:1;stroke-miterlimit:10;" d="M 129.999668 -999.999684 L 129.999668 999.999684 " transform="matrix(3.42631,0,0,3.42631,68.526193,500)"/>
<path style="fill:none;stroke-width:0.04;stroke-linecap:round;stroke-linejoin:bevel;stroke:rgb(5%,5%,5%);stroke-opacity:1;stroke-miterlimit:10;" d="M 140.000406 -999.999684 L 140.000406 999.999684 " transform="matrix(3.42631,0,0,3.42631,68.526193,500)"/>
<path style="fill:none;stroke-width:0.04;stroke-linecap:round;stroke-linejoin:bevel;stroke:rgb(5%,5%,5%);stroke-opacity:1;stroke-miterlimit:10;" d="M 150.000003 -999.999684 L 150.000003 999.999684 " transform="matrix(3.42631,0,0,3.42631,68.526193,500)"/>
<path style="fill:none;stroke-width:0.04;stroke-linecap:round;stroke-linejoin:bevel;stroke:rgb(5%,5%,5%);stroke-opacity:1;stroke-miterlimit:10;" d="M 159.999601 -999.999684 L 159.999601 999.999684 " transform="matrix(3.42631,0,0,3.42631,68.526193,500)"/>
<path style="fill:none;stroke-width:0.04;stroke-linecap:round;stroke-linejoin:bevel;stroke:rgb(5%,5%,5%);stroke-opacity:1;stroke-miterlimit:10;" d="M 170.000339 -999.999684 L 170.000339 999.999684 " transform="matrix(3.42631,0,0,3.42631,68.526193,500)"/>
<path style="fill:none;stroke-width:0.04;stroke-linecap:round;stroke-linejoin:bevel;stroke:rgb(5%,5%,5%);stroke-opacity:1;stroke-miterlimit:10;" d="M 179.999937 -999.999684 L 179.999937 999.999684 " transform="matrix(3.42631,0,0,3.42631,68.526193,500)"/>
<path style="fill:none;stroke-width:0.04;stroke-linecap:round;stroke-linejoin:bevel;stroke:rgb(5%,5%,5%);stroke-opacity:1;stroke-miterlimit:10;" d="M 189.999535 -999.999684 L 189.999535 999.999684 " transform="matrix(3.42631,0,0,3.42631,68.526193,500)"/>
<path style="fill:none;stroke-width:0.04;stroke-linecap:round;stroke-linejoin:bevel;stroke:rgb(5%,5%,5%);stroke-opacity:1;stroke-miterlimit:10;" d="M 200.000273 -999.999684 L 200.000273 999.999684 " transform="matrix(3.42631,0,0,3.42631,68.526193,500)"/>
<path style="fill:none;stroke-width:0.04;stroke-linecap:round;stroke-linejoin:bevel;stroke:rgb(5%,5%,5%);stroke-opacity:1;stroke-miterlimit:10;" d="M 209.99987 -999.999684 L 209.99987 999.999684 " transform="matrix(3.42631,0,0,3.42631,68.526193,500)"/>
<path style="fill:none;stroke-width:0.04;stroke-linecap:round;stroke-linejoin:bevel;stroke:rgb(5%,5%,5%);stroke-opacity:1;stroke-miterlimit:10;" d="M 219.999468 -999.999684 L 219.999468 999.999684 " transform="matrix(3.42631,0,0,3.42631,68.526193,500)"/>
<path style="fill:none;stroke-width:0.04;stroke-linecap:round;stroke-linejoin:bevel;stroke:rgb(5%,5%,5%);stroke-opacity:1;stroke-miterlimit:10;" d="M 230.000206 -999.999684 L 230.000206 999.999684 " transform="matrix(3.42631,0,0,3.42631,68.526193,500)"/>
<path style="fill:none;stroke-width:0.04;stroke-linecap:round;stroke-linejoin:bevel;stroke:rgb(5%,5%,5%);stroke-opacity:1;stroke-miterlimit:10;" d="M 239.999804 -999.999684 L 239.999804 999.999684 " transform="matrix(3.42631,0,0,3.42631,68.526193,500)"/>
<path style="fill:none;stroke-width:0.04;stroke-linecap:round;stroke-linejoin:bevel;stroke:rgb(5%,5%,5%);stroke-opacity:1;stroke-miterlimit:10;" d="M 250.000542 -999.999684 L 250.000542 999.999684 " transform="matrix(3.42631,0,0,3.42631,68.526193,500)"/>
<path style="fill:none;stroke-width:0.04;stroke-linecap:round;stroke-linejoin:bevel;stroke:rgb(5%,5%,5%);stroke-opacity:1;stroke-miterlimit:10;" d="M 260.00014 -999.999684 L 260.00014 999.999684 " transform="matrix(3.42631,0,0,3.42631,68.526193,500)"/>
<path style="fill:none;stroke-width:0.04;stroke-linecap:round;stroke-linejoin:bevel;stroke:rgb(5%,5%,5%);stroke-opacity:1;stroke-miterlimit:10;" d="M 269.999737 -999.999684 L 269.999737 999.999684 " transform="matrix(3.42631,0,0,3.42631,68.526193,500)"/>
<path style="fill:none;stroke-width:0.04;stroke-linecap:round;stroke-linejoin:bevel;stroke:rgb(5%,5%,5%);stroke-opacity:1;stroke-miterlimit:10;" d="M -1000.000489 -140.00007 L 1000.00002 -140.00007 " transform="matrix(3.42631,0,0,3.42631,68.526193,500)"/>
<path style="fill:none;stroke-width:0.04;stroke-linecap:round;stroke-linejoin:bevel;stroke:rgb(5%,5%,5%);stroke-opacity:1;stroke-miterlimit:10;" d="M -1000.000489 -130.000472 L 1000.00002 -130.000472 " transform="matrix(3.42631,0,0,3.42631,68.526193,500)"/>
<path style="fill:none;stroke-width:0.04;stroke-linecap:round;stroke-linejoin:bevel;stroke:rgb(5%,5%,5%);stroke-opacity:1;stroke-miterlimit:10;" d="M -1000.000489 -119.999734 L 1000.00002 -119.999734 " transform="matrix(3.42631,0,0,3.42631,68.526193,500)"/>
<path style="fill:none;stroke-width:0.04;stroke-linecap:round;stroke-linejoin:bevel;stroke:rgb(5%,5%,5%);stroke-opacity:1;stroke-miterlimit:10;" d="M -1000.000489 -110.000136 L 1000.00002 -110.000136 " transform="matrix(3.42631,0,0,3.42631,68.526193,500)"/>
<path style="fill:none;stroke-width:0.04;stroke-linecap:round;stroke-linejoin:bevel;stroke:rgb(5%,5%,5%);stroke-opacity:1;stroke-miterlimit:10;" d="M -1000.000489 -100.000538 L 1000.00002 -100.000538 " transform="matrix(3.42631,0,0,3.42631,68.526193,500)"/>
<path style="fill:none;stroke-width:0.04;stroke-linecap:round;stroke-linejoin:bevel;stroke:rgb(5%,5%,5%);stroke-opacity:1;stroke-miterlimit:10;" d="M -1000.000489 -89.999801 L 1000.00002 -89.999801 " transform="matrix(3.42631,0,0,3.42631,68.526193,500)"/>
<path style="fill:none;stroke-width:0.04;stroke-linecap:round;stroke-linejoin:bevel;stroke:rgb(5%,5%,5%);stroke-opacity:1;stroke-miterlimit:10;" d="M -1000.000489 -80.000203 L 1000.00002 -80.000203 " transform="matrix(3.42631,0,0,3.42631,68.526193,500)"/>
<path style="fill:none;stroke-width:0.04;stroke-linecap:round;stroke-linejoin:bevel;stroke:rgb(5%,5%,5%);stroke-opacity:1;stroke-miterlimit:10;" d="M -1000.000489 -69.999465 L 1000.00002 -69.999465 " transform="matrix(3.42631,0,0,3.42631,68.526193,500)"/>
<path style="fill:none;stroke-width:0.04;stroke-linecap:round;stroke-linejoin:bevel;stroke:rgb(5%,5%,5%);stroke-opacity:1;stroke-miterlimit:10;" d="M -1000.000489 -59.999867 L 1000.00002 -59.999867 " transform="matrix(3.42631,0,0,3.42631,68.526193,500)"/>
<path style="fill:none;stroke-width:0.04;stroke-linecap:round;stroke-linejoin:bevel;stroke:rgb(5%,5%,5%);stroke-opacity:1;stroke-miterlimit:10;" d="M -1000.000489 -50.000269 L 1000.00002 -50.000269 " transform="matrix(3.42631,0,0,3.42631,68.526193,500)"/>
<path style="fill:none;stroke-width:0.04;stroke-linecap:round;stroke-linejoin:bevel;stroke:rgb(5%,5%,5%);stroke-opacity:1;stroke-miterlimit:10;" d="M -1000.000489 -39.999531 L 1000.00002 -39.999531 " transform="matrix(3.42631,0,0,3.42631,68.526193,500)"/>
<path style="fill:none;stroke-width:0.04;stroke-linecap:round;stroke-linejoin:bevel;stroke:rgb(5%,5%,5%);stroke-opacity:1;stroke-miterlimit:10;" d="M -1000.000489 -29.999934 L 1000.00002 -29.999934 " transform="matrix(3.42631,0,0,3.42631,68.526193,500)"/>
<path style="fill:none;stroke-width:0.04;stroke-linecap:round;stroke-linejoin:bevel;stroke:rgb(5%,5%,5%);stroke-opacity:1;stroke-miterlimit:10;" d="M -1000.000489 -20.000336 L 1000.00002 -20.000336 " transform="matrix(3.42631,0,0,3.42631,68.526193,500)"/>
<path style="fill:none;stroke-width:0.04;stroke-linecap:round;stroke-linejoin:bevel;stroke:rgb(5%,5%,5%);stroke-opacity:1;stroke-miterlimit:10;" d="M -1000.000489 -9.999598 L 1000.00002 -9.999598 " transform="matrix(3.42631,0,0,3.42631,68.526193,500)"/>
<path style="fill:none;stroke-width:0.04;stroke-linecap:round;stroke-linejoin:bevel;stroke:rgb(5%,5%,5%);stroke-opacity:1;stroke-miterlimit:10;" d="M -1000.000489 0.000000000000028422 L 1000.00002 0.000000000000028422 " transform="matrix(3.42631,0,0,3.42631,68.526193,500)"/>
<path style="fill:none;stroke-width:0.04;stroke-linecap:round;stroke-linejoin:bevel;stroke:rgb(5%,5%,5%);stroke-opacity:1;stroke-miterlimit:10;" d="M -1000.000489 9.999598 L 1000.00002 9.999598 " transform="matrix(3.42631,0,0,3.42631,68.526193,500)"/>
<path style="fill:none;stroke-width:0.04;stroke-linecap:round;stroke-linejoin:bevel;stroke:rgb(5%,5%,5%);stroke-opacity:1;stroke-miterlimit:10;" d="M -1000.000489 20.000336 L 1000.00002 20.000336 " transform="matrix(3.42631,0,0,3.42631,68.526193,500)"/>
<path style="fill:none;stroke-width:0.04;stroke-linecap:round;stroke-linejoin:bevel;stroke:rgb(5%,5%,5%);stroke-opacity:1;stroke-miterlimit:10;" d="M -1000.000489 29.999934 L 1000.00002 29.999934 " transform="matrix(3.42631,0,0,3.42631,68.526193,500)"/>
<path style="fill:none;stroke-width:0.04;stroke-linecap:round;stroke-linejoin:bevel;stroke:rgb(5%,5%,5%);stroke-opacity:1;stroke-miterlimit:10;" d="M -1000.000489 39.999531 L 1000.00002 39.999531 " transform="matrix(3.42631,0,0,3.42631,68.526193,500)"/>
<path style="fill:none;stroke-width:0.04;stroke-linecap:round;stroke-linejoin:bevel;stroke:rgb(5%,5%,5%);stroke-opacity:1;stroke-miterlimit:10;" d="M -1000.000489 50.000269 L 1000.00002 50.000269 " transform="matrix(3.42631,0,0,3.42631,68.526193,500)"/>
<path style="fill:none;stroke-width:0.04;stroke-linecap:round;stroke-linejoin:bevel;stroke:rgb(5%,5%,5%);stroke-opacity:1;stroke-miterlimit:10;" d="M -1000.000489 59.999867 L 1000.00002 59.999867 " transform="matrix(3.42631,0,0,3.42631,68.526193,500)"/>
<path style="fill:none;stroke-width:0.04;stroke-linecap:round;stroke-linejoin:bevel;stroke:rgb(5%,5%,5%);stroke-opacity:1;stroke-miterlimit:10;" d="M -1000.000489 69.999465 L 1000.00002 69.999465 " transform="matrix(3.42631,0,0,3.42631,68.526193,500)"/>
<path style="fill:none;stroke-width:0.04;stroke-linecap:round;stroke-linejoin:bevel;stroke:rgb(5%,5%,5%);stroke-opacity:1;stroke-miterlimit:10;" d="M -1000.000489 80.000203 L 1000.00002 80.000203 " transform="matrix(3.42631,0,0,3.42631,68.526193,500)"/>
<path style="fill:none;stroke-width:0.04;stroke-linecap:round;stroke-linejoin:bevel;stroke:rgb(5%,5%,5%);stroke-opacity:1;stroke-miterlimit:10;" d="M -1000.000489 89.999801 L 1000.00002 89.999801 " transform="matrix(3.42631,0,0,3.42631,68.526193,500)"/>
<path style="fill:none;stroke-width:0.04;stroke-linecap:round;stroke-linejoin:bevel;stroke:rgb(5%,5%,5%);stroke-opacity:1;stroke-miterlimit:10;" d="M -1000.000489 100.000538 L 1000.00002 100.000538 " transform="matrix(3.42631,0,0,3.42631,68.526193,500)"/>
<path style="fill:none;stroke-width:0.04;stroke-linecap:round;stroke-linejoin:bevel;stroke:rgb(5%,5%,5%);stroke-opacity:1;stroke-miterlimit:10;" d="M -1000.000489 110.000136 L 1000.00002 110.000136 " transform="matrix(3.42631,0,0,3.42631,68.526193,500)"/>
<path style="fill:none;stroke-width:0.04;stroke-linecap:round;stroke-linejoin:bevel;stroke:rgb(5%,5%,5%);stroke-opacity:1;stroke-miterlimit:10;" d="M -1000.000489 119.999734 L 1000.00002 119.999734 " transform="matrix(3.42631,0,0,3.42631,68.526193,500)"/>
<path style="fill:none;stroke-width:0.04;stroke-linecap:round;stroke-linejoin:bevel;stroke:rgb(5%,5%,5%);stroke-opacity:1;stroke-miterlimit:10;" d="M -1000.000489 130.000472 L 1000.00002 130.000472 " transform="matrix(3.42631,0,0,3.42631,68.526193,500)"/>
<path style="fill:none;stroke-width:0.04;stroke-linecap:round;stroke-linejoin:bevel;stroke:rgb(5%,5%,5%);stroke-opacity:1;stroke-miterlimit:10;" d="M -1000.000489 140.00007 L 1000.00002 140.00007 " transform="matrix(3.42631,0,0,3.42631,68.526193,500)"/>
<path style="fill-rule:nonzero;fill:rgb(40.000001%,40.000001%,40.000001%);fill-opacity:1;stroke-width:0.04;stroke-linecap:round;stroke-linejoin:bevel;stroke:rgb(80.000001%,80.000001%,80.000001%);stroke-opacity:1;stroke-miterlimit:10;" d="M 23.747702 -7.400781 L 23.848484 -7.104844 L 23.944734 -6.80875 L 24.036609 -6.512656 L 24.123952 -6.216719 L 24.206765 -5.920625 L 24.285515 -5.624688 L 24.359734 -5.328594 L 24.42989 -5.0325 L 24.495671 -4.736562 L 24.55739 -4.440469 L 24.61489 -4.144531 L 24.668327 -3.848437 L 24.717702 -3.552344 L 24.763015 -3.256406 L 24.804421 -2.960313 L 24.841609 -2.664375 L 24.875046 -2.368281 L 24.904421 -2.072187 L 24.929734 -1.77625 L 24.951296 -1.480156 L 24.968796 -1.184062 L 24.98239 -0.888125 L 24.992234 -0.592031 L 24.998015 -0.296094 L 25.000046 0 L 24.998015 0.296094 L 24.992234 0.592031 L 24.98239 0.888125 L 24.968796 1.184062 L 24.951296 1.480156 L 24.929734 1.77625 L 24.904421 2.072188 L 24.875046 2.368281 L 24.841609 2.664375 L 24.804421 2.960313 L 24.763015 3.256406 L 24.717702 3.552344 L 24.668327 3.848437 L 24.61489 4.144531 L 24.55739 4.440469 L 24.495671 4.736563 L 24.42989 5.0325 L 24.359734 5.328594 L 24.285515 5.624688 L 24.206765 5.920625 L 24.123952 6.216719 L 24.036609 6.512656 L 23.944734 6.80875 L 23.848484 7.104844 L 23.747702 7.400781 L 23.135671 7.400781 L 23.163796 7.104844 L 23.190671 6.80875 L 23.216609 6.512656 L 23.241296 6.216719 L 23.264734 5.920625 L 23.287077 5.624688 L 23.308327 5.328594 L 23.328327 5.0325 L 23.347234 4.736563 L 23.365046 4.440469 L 23.381609 4.144531 L 23.397077 3.848437 L 23.411452 3.552344 L 23.424577 3.256406 L 23.436609 2.960313 L 23.447546 2.664375 L 23.457234 2.368281 L 23.465827 2.072188 L 23.473171 1.77625 L 23.479421 1.480156 L 23.484577 1.184062 L 23.48864 0.888125 L 23.491452 0.592031 L 23.493171 0.296094 L 23.493796 0 L 23.493171 -0.296094 L 23.491452 -0.592031 L 23.48864 -0.888125 L 23.484577 -1.184062 L 23.479421 -1.480156 L 23.473171 -1.77625 L 23.465827 -2.072187 L 23.457234 -2.368281 L 23.447546 -2.664375 L 23.436609 -2.960313 L 23.424577 -3.256406 L 23.411452 -3.552344 L 23.397077 -3.848437 L 23.381609 -4.144531 L 23.365046 -4.440469 L 23.347234 -4.736562 L 23.328327 -5.0325 L 23.308327 -5.328594 L 23.287077 -5.624688 L 23.264734 -5.920625 L 23.241296 -6.216719 L 23.216609 -6.512656 L 23.190671 -6.80875 L 23.163796 -7.104844 L 23.135671 -7.400781 Z M 23.747702 -7.400781 " transform="matrix(25,0,0,25,68.526193,500)"/>
<g clip-path="url(#clip1)" clip-rule="nonzero">
<path style="fill:none;stroke-width:0.04;stroke-linecap:round;stroke-linejoin:bevel;stroke:rgb(70%,70%,70%);stroke-opacity:1;stroke-miterlimit:10;" d="M 23.135671 -7.400781 L 23.163796 -7.104844 L 23.190671 -6.80875 L 23.216609 -6.512656 L 23.241296 -6.216719 L 23.264734 -5.920625 L 23.287077 -5.624688 L 23.308327 -5.328594 L 23.328327 -5.0325 L 23.347234 -4.736562 L 23.365046 -4.440469 L 23.381609 -4.144531 L 23.397077 -3.848437 L 23.411452 -3.552344 L 23.424577 -3.256406 L 23.436609 -2.960313 L 23.447546 -2.664375 L 23.457234 -2.368281 L 23.465827 -2.072187 L 23.473171 -1.77625 L 23.479421 -1.480156 L 23.484577 -1.184062 L 23.48864 -0.888125 L 23.491452 -0.592031 L 23.493171 -0.296094 L 23.493796 0 L 23.493171 0.296094 L 23.491452 0.592031 L 23.48864 0.888125 L 23.484577 1.184062 L 23.479421 1.480156 L 23.473171 1.77625 L 23.465827 2.072188 L 23.457234 2.368281 L 23.447546 2.664375 L 23.436609 2.960313 L 23.424577 3.256406 L 23.411452 3.552344 L 23.397077 3.848437 L 23.381609 4.144531 L 23.365046 4.440469 L 23.347234 4.736563 L 23.328327 5.0325 L 23.308327 5.328594 L 23.287077 5.624688 L 23.264734 5.920625 L 23.241296 6.216719 L 23.216609 6.512656 L 23.190671 6.80875 L 23.163796 7.104844 L 23.135671 7.400781 " transform="matrix(25,0,0,25,68.526193,500)"/>
</g>
<path style="fill-rule:nonzero;fill:rgb(40.000001%,40.000001%,40.000001%);fill-opacity:1;stroke-width:0.04;stroke-linecap:round;stroke-linejoin:bevel;stroke:rgb(80.000001%,80.000001%,80.000001%);stroke-opacity:1;stroke-miterlimit:10;" d="M 21.54864 -6.989688 L 21.709734 -6.710156 L 21.862234 -6.430469 L 22.006452 -6.150937 L 22.142702 -5.87125 L 22.271296 -5.591719 L 22.392234 -5.312188 L 22.50614 -5.0325 L 22.612859 -4.752969 L 22.712546 -4.473437 L 22.805671 -4.19375 L 22.892077 -3.914219 L 22.972077 -3.634687 L 23.045827 -3.355 L 23.113171 -3.075469 L 23.174421 -2.795938 L 23.229577 -2.51625 L 23.278796 -2.236719 L 23.321921 -1.957031 L 23.359421 -1.6775 L 23.390827 -1.397969 L 23.416609 -1.118281 L 23.436609 -0.83875 L 23.450827 -0.559219 L 23.459421 -0.279531 L 23.462234 0 L 23.459421 0.279531 L 23.450827 0.559219 L 23.436609 0.83875 L 23.416609 1.118281 L 23.390827 1.397969 L 23.359421 1.6775 L 23.321921 1.957031 L 23.278796 2.236719 L 23.229577 2.51625 L 23.174421 2.795938 L 23.113171 3.075469 L 23.045827 3.355 L 22.972077 3.634688 L 22.892077 3.914219 L 22.805671 4.19375 L 22.712546 4.473437 L 22.612859 4.752969 L 22.50614 5.0325 L 22.392234 5.312188 L 22.271296 5.591719 L 22.142702 5.87125 L 22.006452 6.150938 L 21.862234 6.430469 L 21.709734 6.710156 L 21.54864 6.989688 L 21.04614 6.989688 L 21.113327 6.710156 L 21.177859 6.430469 L 21.239421 6.150938 L 21.298015 5.87125 L 21.353796 5.591719 L 21.406921 5.312188 L 21.457077 5.0325 L 21.504421 4.752969 L 21.549109 4.473437 L 21.590984 4.19375 L 21.630046 3.914219 L 21.666452 3.634688 L 21.700046 3.355 L 21.730984 3.075469 L 21.759109 2.795938 L 21.784577 2.51625 L 21.80739 2.236719 L 21.827546 1.957031 L 21.84489 1.6775 L 21.859577 1.397969 L 21.871609 1.118281 L 21.880984 0.83875 L 21.887702 0.559219 L 21.891765 0.279531 L 21.893015 0 L 21.891765 -0.279531 L 21.887702 -0.559219 L 21.880984 -0.83875 L 21.871609 -1.118281 L 21.859577 -1.397969 L 21.84489 -1.6775 L 21.827546 -1.957031 L 21.80739 -2.236719 L 21.784577 -2.51625 L 21.759109 -2.795938 L 21.730984 -3.075469 L 21.700046 -3.355 L 21.666452 -3.634687 L 21.630046 -3.914219 L 21.590984 -4.19375 L 21.549109 -4.473437 L 21.504421 -4.752969 L 21.457077 -5.0325 L 21.406921 -5.312188 L 21.353796 -5.591719 L 21.298015 -5.87125 L 21.239421 -6.150937 L 21.177859 -6.430469 L 21.113327 -6.710156 L 21.04614 -6.989688 Z M 21.54864 -6.989688 " transform="matrix(25,0,0,25,68.526193,500)"/>
<g clip-path="url(#clip2)" clip-rule="nonzero">
<path style="fill:none;stroke-width:0.04;stroke-linecap:round;stroke-linejoin:bevel;stroke:rgb(70%,70%,70%);stroke-opacity:1;stroke-miterlimit:10;" d="M 21.04614 -6.989688 L 21.113327 -6.710156 L 21.177859 -6.430469 L 21.239421 -6.150937 L 21.298015 -5.87125 L 21.353796 -5.591719 L 21.406921 -5.312188 L 21.457077 -5.0325 L 21.504421 -4.752969 L 21.549109 -4.473437 L 21.590984 -4.19375 L 21.630046 -3.914219 L 21.666452 -3.634687 L 21.700046 -3.355 L 21.730984 -3.075469 L 21.759109 -2.795938 L 21.784577 -2.51625 L 21.80739 -2.236719 L 21.827546 -1.957031 L 21.84489 -1.6775 L 21.859577 -1.397969 L 21.871609 -1.118281 L 21.880984 -0.83875 L 21.887702 -0.559219 L 21.891765 -0.279531 L 21.893015 0 L 21.891765 0.279531 L 21.887702 0.559219 L 21.880984 0.83875 L 21.871609 1.118281 L 21.859577 1.397969 L 21.84489 1.6775 L 21.827546 1.957031 L 21.80739 2.236719 L 21.784577 2.51625 L 21.759109 2.795938 L 21.730984 3.075469 L 21.700046 3.355 L 21.666452 3.634688 L 21.630046 3.914219 L 21.590984 4.19375 L 21.549109 4.473437 L 21.504421 4.752969 L 21.457077 5.0325 L 21.406921 5.312188 L 21.353796 5.591719 L 21.298015 5.87125 L 21.239421 6.150938 L 21.177859 6.430469 L 21.113327 6.710156 L 21.04614 6.989688 " transform="matrix(25,0,0,25,68.526193,500)"/>
</g>
<path style="fill-rule:nonzero;fill:rgb(40.000001%,40.000001%,40.000001%);fill-opacity:1;stroke-width:0.04;stroke-linecap:round;stroke-linejoin:bevel;stroke:rgb(80.000001%,80.000001%,80.000001%);stroke-opacity:1;stroke-miterlimit:10;" d="M 19.537234 -5.619219 L 19.752859 -5.394375 L 19.952546 -5.169688 L 20.137702 -4.944844 L 20.309734 -4.720156 L 20.469421 -4.495312 L 20.617859 -4.270625 L 20.755827 -4.045781 L 20.88364 -3.821094 L 21.002077 -3.59625 L 21.111609 -3.371562 L 21.212702 -3.146719 L 21.305359 -2.922031 L 21.390202 -2.697187 L 21.467546 -2.4725 L 21.53739 -2.247656 L 21.600046 -2.022969 L 21.655671 -1.798125 L 21.704421 -1.573438 L 21.746296 -1.348594 L 21.781765 -1.123906 L 21.810515 -0.899062 L 21.832859 -0.674375 L 21.848796 -0.449531 L 21.858327 -0.224844 L 21.861452 0 L 21.858327 0.224844 L 21.848796 0.449531 L 21.832859 0.674375 L 21.810515 0.899062 L 21.781765 1.123906 L 21.746296 1.348594 L 21.704421 1.573438 L 21.655671 1.798125 L 21.600046 2.022969 L 21.53739 2.247656 L 21.467546 2.4725 L 21.390202 2.697188 L 21.305359 2.922031 L 21.212702 3.146719 L 21.111609 3.371562 L 21.002077 3.59625 L 20.88364 3.821094 L 20.755827 4.045781 L 20.617859 4.270625 L 20.469421 4.495313 L 20.309734 4.720156 L 20.137702 4.944844 L 19.952546 5.169688 L 19.752859 5.394375 L 19.537234 5.619219 L 18.670984 5.619219 L 18.674577 5.394375 L 18.677859 5.169688 L 18.68114 4.944844 L 18.684265 4.720156 L 18.687234 4.495313 L 18.690046 4.270625 L 18.692702 4.045781 L 18.695202 3.821094 L 18.697702 3.59625 L 18.69989 3.371562 L 18.701921 3.146719 L 18.703952 2.922031 L 18.705671 2.697188 L 18.70739 2.4725 L 18.708952 2.247656 L 18.710359 2.022969 L 18.711452 1.798125 L 18.712546 1.573438 L 18.713484 1.348594 L 18.714265 1.123906 L 18.715046 0.899062 L 18.715515 0.674375 L 18.715827 0.449531 L 18.71614 0.224844 L 18.71614 -0.224844 L 18.715827 -0.449531 L 18.715515 -0.674375 L 18.715046 -0.899062 L 18.714265 -1.123906 L 18.713484 -1.348594 L 18.712546 -1.573438 L 18.711452 -1.798125 L 18.710359 -2.022969 L 18.708952 -2.247656 L 18.70739 -2.4725 L 18.705671 -2.697187 L 18.703952 -2.922031 L 18.701921 -3.146719 L 18.69989 -3.371562 L 18.697702 -3.59625 L 18.695202 -3.821094 L 18.692702 -4.045781 L 18.690046 -4.270625 L 18.687234 -4.495312 L 18.684265 -4.720156 L 18.68114 -4.944844 L 18.677859 -5.169688 L 18.674577 -5.394375 L 18.670984 -5.619219 Z M 19.537234 -5.619219 " transform="matrix(25,0,0,25,68.526193,500)"/>
<path style="fill-rule:nonzero;fill:rgb(40.000001%,40.000001%,40.000001%);fill-opacity:1;stroke-width:0.04;stroke-linecap:round;stroke-linejoin:bevel;stroke:rgb(80.000001%,80.000001%,80.000001%);stroke-opacity:1;stroke-miterlimit:10;" d="M 18.670984 -5.619219 L 18.674577 -5.394375 L 18.677859 -5.169688 L 18.68114 -4.944844 L 18.684265 -4.720156 L 18.687234 -4.495312 L 18.690046 -4.270625 L 18.692702 -4.045781 L 18.695202 -3.821094 L 18.697702 -3.59625 L 18.69989 -3.371562 L 18.701921 -3.146719 L 18.703952 -2.922031 L 18.705671 -2.697187 L 18.70739 -2.4725 L 18.708952 -2.247656 L 18.710359 -2.022969 L 18.711452 -1.798125 L 18.712546 -1.573438 L 18.713484 -1.348594 L 18.714265 -1.123906 L 18.715046 -0.899062 L 18.715515 -0.674375 L 18.715827 -0.449531 L 18.71614 -0.224844 L 18.71614 0.224844 L 18.715827 0.449531 L 18.715515 0.674375 L 18.715046 0.899062 L 18.714265 1.123906 L 18.713484 1.348594 L 18.712546 1.573438 L 18.711452 1.798125 L 18.710359 2.022969 L 18.708952 2.247656 L 18.70739 2.4725 L 18.705671 2.697188 L 18.703952 2.922031 L 18.701921 3.146719 L 18.69989 3.371562 L 18.697702 3.59625 L 18.695202 3.821094 L 18.692702 4.045781 L 18.690046 4.270625 L 18.687234 4.495313 L 18.684265 4.720156 L 18.68114 4.944844 L 18.677859 5.169688 L 18.674577 5.394375 L 18.670984 5.619219 L 16.375515 3.700469 L 16.585515 3.552344 L 16.772234 3.404375 L 16.940359 3.256406 L 17.092702 3.108281 L 17.231296 2.960313 L 17.358015 2.812344 L 17.474109 2.664375 L 17.580515 2.51625 L 17.678015 2.368281 L 17.76739 2.220313 L 17.849265 2.072188 L 17.923796 1.924219 L 17.991765 1.77625 L 18.053171 1.628125 L 18.108484 1.480156 L 18.158015 1.332187 L 18.201765 1.184062 L 18.23989 1.036094 L 18.272859 0.888125 L 18.300359 0.740156 L 18.322859 0.592031 L 18.340359 0.444063 L 18.352702 0.296094 L 18.360046 0.147969 L 18.362546 0 L 18.360046 -0.147969 L 18.352702 -0.296094 L 18.340359 -0.444063 L 18.322859 -0.592031 L 18.300359 -0.740156 L 18.272859 -0.888125 L 18.23989 -1.036094 L 18.201765 -1.184062 L 18.158015 -1.332187 L 18.108484 -1.480156 L 18.053171 -1.628125 L 17.991765 -1.77625 L 17.923796 -1.924219 L 17.849265 -2.072187 L 17.76739 -2.220312 L 17.678015 -2.368281 L 17.580515 -2.51625 L 17.474109 -2.664375 L 17.358015 -2.812344 L 17.231296 -2.960313 L 17.092702 -3.108281 L 16.940359 -3.256406 L 16.772234 -3.404375 L 16.585515 -3.552344 L 16.375515 -3.700469 Z M 18.670984 -5.619219 " transform="matrix(25,0,0,25,68.526193,500)"/>
<g clip-path="url(#clip3)" clip-rule="nonzero">
<path style="fill:none;stroke-width:0.04;stroke-linecap:round;stroke-linejoin:bevel;stroke:rgb(70%,70%,70%);stroke-opacity:1;stroke-miterlimit:10;" d="M 16.375515 -3.700469 L 16.585515 -3.552344 L 16.772234 -3.404375 L 16.940359 -3.256406 L 17.092702 -3.108281 L 17.231296 -2.960313 L 17.358015 -2.812344 L 17.474109 -2.664375 L 17.580515 -2.51625 L 17.678015 -2.368281 L 17.76739 -2.220312 L 17.849265 -2.072187 L 17.923796 -1.924219 L 17.991765 -1.77625 L 18.053171 -1.628125 L 18.108484 -1.480156 L 18.158015 -1.332187 L 18.201765 -1.184062 L 18.23989 -1.036094 L 18.272859 -0.888125 L 18.300359 -0.740156 L 18.322859 -0.592031 L 18.340359 -0.444063 L 18.352702 -0.296094 L 18.360046 -0.147969 L 18.362546 0 L 18.360046 0.147969 L 18.352702 0.296094 L 18.340359 0.444063 L 18.322859 0.592031 L 18.300359 0.740156 L 18.272859 0.888125 L 18.23989 1.036094 L 18.201765 1.184062 L 18.158015 1.332187 L 18.108484 1.480156 L 18.053171 1.628125 L 17.991765 1.77625 L 17.923796 1.924219 L 17.849265 2.072188 L 17.76739 2.220313 L 17.678015 2.368281 L 17.580515 2.51625 L 17.474109 2.664375 L 17.358015 2.812344 L 17.231296 2.960313 L 17.092702 3.108281 L 16.940359 3.256406 L 16.772234 3.404375 L 16.585515 3.552344 L 16.375515 3.700469 " transform="matrix(25,0,0,25,68.526193,500)"/>
</g>
<g clip-path="url(#clip4)" clip-rule="nonzero">
<path style="fill:none;stroke-width:0.04;stroke-linecap:round;stroke-linejoin:bevel;stroke:rgb(70%,70%,70%);stroke-opacity:1;stroke-miterlimit:10;" d="M 16.215827 -3.494844 L 16.215827 -3.355 L 16.215984 -3.215312 L 16.215984 -2.656094 L 16.21614 -2.51625 L 16.21614 -1.6775 L 16.216296 -1.537656 L 16.216296 1.537656 L 16.21614 1.6775 L 16.21614 2.51625 L 16.215984 2.656094 L 16.215984 3.215312 L 16.215827 3.355 L 16.215827 3.494844 " transform="matrix(25,0,0,25,68.526193,500)"/>
</g>
<path style="fill-rule:nonzero;fill:rgb(40.000001%,40.000001%,40.000001%);fill-opacity:1;stroke-width:0.04;stroke-linecap:round;stroke-linejoin:bevel;stroke:rgb(80.000001%,80.000001%,80.000001%);stroke-opacity:1;stroke-miterlimit:10;" d="M 15.347234 -3.42625 L 15.242702 -3.289219 L 15.14489 -3.152188 L 15.053015 -3.015156 L 14.966921 -2.878125 L 14.88614 -2.741094 L 14.810671 -2.604063 L 14.740202 -2.466875 L 14.674265 -2.329844 L 14.613015 -2.192812 L 14.55614 -2.055781 L 14.503484 -1.91875 L 14.45489 -1.781719 L 14.410359 -1.644687 L 14.369577 -1.5075 L 14.332702 -1.370469 L 14.299577 -1.233438 L 14.270046 -1.096406 L 14.244265 -0.959375 L 14.221921 -0.822344 L 14.203015 -0.685312 L 14.187702 -0.548281 L 14.175827 -0.411094 L 14.16739 -0.274062 L 14.162234 -0.137031 L 14.160515 0 L 14.162234 0.137031 L 14.16739 0.274062 L 14.175827 0.411094 L 14.187702 0.548281 L 14.203015 0.685313 L 14.221921 0.822344 L 14.244265 0.959375 L 14.270046 1.096406 L 14.299577 1.233438 L 14.332702 1.370469 L 14.369577 1.5075 L 14.410359 1.644687 L 14.45489 1.781719 L 14.503484 1.91875 L 14.55614 2.055781 L 14.613015 2.192812 L 14.674265 2.329844 L 14.740202 2.466875 L 14.810671 2.604063 L 14.88614 2.741094 L 14.966921 2.878125 L 15.053015 3.015156 L 15.14489 3.152188 L 15.242702 3.289219 L 15.347234 3.42625 L 13.320671 4.933906 L 13.35739 4.736563 L 13.392546 4.539219 L 13.42614 4.341875 L 13.458327 4.144531 L 13.488796 3.947031 L 13.517859 3.749688 L 13.545359 3.552344 L 13.571296 3.355 L 13.595827 3.157656 L 13.618796 2.960313 L 13.640359 2.762969 L 13.660202 2.565625 L 13.678796 2.368281 L 13.695827 2.170938 L 13.711296 1.973594 L 13.725359 1.77625 L 13.737859 1.578906 L 13.748952 1.381563 L 13.758484 1.184062 L 13.766609 0.986719 L 13.773171 0.789375 L 13.778327 0.592031 L 13.782077 0.394687 L 13.784265 0.197344 L 13.785046 0 L 13.784265 -0.197344 L 13.782077 -0.394687 L 13.778327 -0.592031 L 13.773171 -0.789375 L 13.766609 -0.986719 L 13.758484 -1.184062 L 13.748952 -1.381563 L 13.737859 -1.578906 L 13.725359 -1.77625 L 13.711296 -1.973594 L 13.695827 -2.170938 L 13.678796 -2.368281 L 13.660202 -2.565625 L 13.640359 -2.762969 L 13.618796 -2.960313 L 13.595827 -3.157656 L 13.571296 -3.355 L 13.545359 -3.552344 L 13.517859 -3.749688 L 13.488796 -3.947031 L 13.458327 -4.144531 L 13.42614 -4.341875 L 13.392546 -4.539219 L 13.35739 -4.736562 L 13.320671 -4.933906 Z M 15.347234 -3.42625 " transform="matrix(25,0,0,25,68.526193,500)"/>
<path style="fill-rule:nonzero;fill:rgb(40.000001%,40.000001%,40.000001%);fill-opacity:1;stroke-width:0.04;stroke-linecap:round;stroke-linejoin:bevel;stroke:rgb(80.000001%,80.000001%,80.000001%);stroke-opacity:1;stroke-miterlimit:10;" d="M 13.320671 -4.933906 L 13.35739 -4.736562 L 13.392546 -4.539219 L 13.42614 -4.341875 L 13.458327 -4.144531 L 13.488796 -3.947031 L 13.517859 -3.749688 L 13.545359 -3.552344 L 13.571296 -3.355 L 13.595827 -3.157656 L 13.618796 -2.960313 L 13.640359 -2.762969 L 13.660202 -2.565625 L 13.678796 -2.368281 L 13.695827 -2.170938 L 13.711296 -1.973594 L 13.725359 -1.77625 L 13.737859 -1.578906 L 13.748952 -1.381563 L 13.758484 -1.184062 L 13.766609 -0.986719 L 13.773171 -0.789375 L 13.778327 -0.592031 L 13.782077 -0.394687 L 13.784265 -0.197344 L 13.785046 0 L 13.784265 0.197344 L 13.782077 0.394687 L 13.778327 0.592031 L 13.773171 0.789375 L 13.766609 0.986719 L 13.758484 1.184062 L 13.748952 1.381563 L 13.737859 1.578906 L 13.725359 1.77625 L 13.711296 1.973594 L 13.695827 2.170938 L 13.678796 2.368281 L 13.660202 2.565625 L 13.640359 2.762969 L 13.618796 2.960313 L 13.595827 3.157656 L 13.571296 3.355 L 13.545359 3.552344 L 13.517859 3.749688 L 13.488796 3.947031 L 13.458327 4.144531 L 13.42614 4.341875 L 13.392546 4.539219 L 13.35739 4.736563 L 13.320671 4.933906 L 11.774421 4.933906 L 11.612077 4.736563 L 11.460359 4.539219 L 11.318484 4.341875 L 11.185984 4.144531 L 11.062077 3.947031 L 10.946452 3.749688 L 10.838484 3.552344 L 10.738015 3.355 L 10.644421 3.157656 L 10.557859 2.960313 L 10.477702 2.762969 L 10.403952 2.565625 L 10.336296 2.368281 L 10.274734 2.170938 L 10.218796 1.973594 L 10.16864 1.77625 L 10.124109 1.578906 L 10.08489 1.381563 L 10.05114 1.184062 L 10.022702 0.986719 L 9.999577 0.789375 L 9.981609 0.592031 L 9.968796 0.394687 L 9.96114 0.197344 L 9.958484 0 L 9.96114 -0.197344 L 9.968796 -0.394687 L 9.981609 -0.592031 L 9.999577 -0.789375 L 10.022702 -0.986719 L 10.05114 -1.184062 L 10.08489 -1.381563 L 10.124109 -1.578906 L 10.16864 -1.77625 L 10.218796 -1.973594 L 10.274734 -2.170938 L 10.336296 -2.368281 L 10.403952 -2.565625 L 10.477702 -2.762969 L 10.557859 -2.960313 L 10.644421 -3.157656 L 10.738015 -3.355 L 10.838484 -3.552344 L 10.946452 -3.749688 L 11.062077 -3.947031 L 11.185984 -4.144531 L 11.318484 -4.341875 L 11.460359 -4.539219 L 11.612077 -4.736562 L 11.774421 -4.933906 Z M 13.320671 -4.933906 " transform="matrix(25,0,0,25,68.526193,500)"/>
<g clip-path="url(#clip5)" clip-rule="nonzero">
<path style="fill:none;stroke-width:0.04;stroke-linecap:round;stroke-linejoin:bevel;stroke:rgb(70%,70%,70%);stroke-opacity:1;stroke-miterlimit:10;" d="M 11.774421 -4.933906 L 11.612077 -4.736562 L 11.460359 -4.539219 L 11.318484 -4.341875 L 11.185984 -4.144531 L 11.062077 -3.947031 L 10.946452 -3.749688 L 10.838484 -3.552344 L 10.738015 -3.355 L 10.644421 -3.157656 L 10.557859 -2.960313 L 10.477702 -2.762969 L 10.403952 -2.565625 L 10.336296 -2.368281 L 10.274734 -2.170938 L 10.218796 -1.973594 L 10.16864 -1.77625 L 10.124109 -1.578906 L 10.08489 -1.381563 L 10.05114 -1.184062 L 10.022702 -0.986719 L 9.999577 -0.789375 L 9.981609 -0.592031 L 9.968796 -0.394687 L 9.96114 -0.197344 L 9.958484 0 L 9.96114 0.197344 L 9.968796 0.394687 L 9.981609 0.592031 L 9.999577 0.789375 L 10.022702 0.986719 L 10.05114 1.184062 L 10.08489 1.381563 L 10.124109 1.578906 L 10.16864 1.77625 L 10.218796 1.973594 L 10.274734 2.170938 L 10.336296 2.368281 L 10.403952 2.565625 L 10.477702 2.762969 L 10.557859 2.960313 L 10.644421 3.157656 L 10.738015 3.355 L 10.838484 3.552344 L 10.946452 3.749688 L 11.062077 3.947031 L 11.185984 4.144531 L 11.318484 4.341875 L 11.460359 4.539219 L 11.612077 4.736563 L 11.774421 4.933906 " transform="matrix(25,0,0,25,68.526193,500)"/>
</g>
<path style="fill-rule:nonzero;fill:rgb(40.000001%,40.000001%,40.000001%);fill-opacity:1;stroke-width:0.04;stroke-linecap:round;stroke-linejoin:bevel;stroke:rgb(80.000001%,80.000001%,80.000001%);stroke-opacity:1;stroke-miterlimit:10;" d="M 9.488327 -4.796875 L 9.523015 -4.605 L 9.55614 -4.413125 L 9.588015 -4.22125 L 9.618171 -4.029375 L 9.647077 -3.8375 L 9.674577 -3.645625 L 9.700515 -3.45375 L 9.725046 -3.261875 L 9.748171 -3.07 L 9.76989 -2.878125 L 9.790202 -2.68625 L 9.809109 -2.494375 L 9.826609 -2.3025 L 9.842702 -2.110625 L 9.857234 -1.91875 L 9.870515 -1.726875 L 9.88239 -1.535 L 9.892859 -1.343125 L 9.901921 -1.15125 L 9.909577 -0.959375 L 9.915827 -0.7675 L 9.920671 -0.575625 L 9.924265 -0.38375 L 9.926296 -0.191875 L 9.926921 0 L 9.926296 0.191875 L 9.924265 0.38375 L 9.920671 0.575625 L 9.915827 0.7675 L 9.909577 0.959375 L 9.901921 1.15125 L 9.892859 1.343125 L 9.88239 1.535 L 9.870515 1.726875 L 9.857234 1.91875 L 9.842702 2.110625 L 9.826609 2.3025 L 9.809109 2.494375 L 9.790202 2.68625 L 9.76989 2.878125 L 9.748171 3.07 L 9.725046 3.261875 L 9.700515 3.45375 L 9.674577 3.645625 L 9.647077 3.8375 L 9.618171 4.029375 L 9.588015 4.22125 L 9.55614 4.413125 L 9.523015 4.605 L 9.488327 4.796875 L 9.208171 4.796875 L 9.17864 4.605 L 9.150359 4.413125 L 9.123171 4.22125 L 9.09739 4.029375 L 9.072702 3.8375 L 9.049265 3.645625 L 9.027077 3.45375 L 9.00614 3.261875 L 8.986296 3.07 L 8.967702 2.878125 L 8.950359 2.68625 L 8.934265 2.494375 L 8.919265 2.3025 L 8.905515 2.110625 L 8.893015 1.91875 L 8.881609 1.726875 L 8.871452 1.535 L 8.862546 1.343125 L 8.854734 1.15125 L 8.848171 0.959375 L 8.842859 0.7675 L 8.83864 0.575625 L 8.835671 0.38375 L 8.833952 0.191875 L 8.833327 0 L 8.833952 -0.191875 L 8.835671 -0.38375 L 8.83864 -0.575625 L 8.842859 -0.7675 L 8.848171 -0.959375 L 8.854734 -1.15125 L 8.862546 -1.343125 L 8.871452 -1.535 L 8.881609 -1.726875 L 8.893015 -1.91875 L 8.905515 -2.110625 L 8.919265 -2.3025 L 8.934265 -2.494375 L 8.950359 -2.68625 L 8.967702 -2.878125 L 8.986296 -3.07 L 9.00614 -3.261875 L 9.027077 -3.45375 L 9.049265 -3.645625 L 9.072702 -3.8375 L 9.09739 -4.029375 L 9.123171 -4.22125 L 9.150359 -4.413125 L 9.17864 -4.605 L 9.208171 -4.796875 Z M 9.488327 -4.796875 " transform="matrix(25,0,0,25,68.526193,500)"/>
<g clip-path="url(#clip6)" clip-rule="nonzero">
<path style="fill:none;stroke-width:0.04;stroke-linecap:round;stroke-linejoin:bevel;stroke:rgb(70%,70%,70%);stroke-opacity:1;stroke-miterlimit:10;" d="M 9.208171 -4.796875 L 9.17864 -4.605 L 9.150359 -4.413125 L 9.123171 -4.22125 L 9.09739 -4.029375 L 9.072702 -3.8375 L 9.049265 -3.645625 L 9.027077 -3.45375 L 9.00614 -3.261875 L 8.986296 -3.07 L 8.967702 -2.878125 L 8.950359 -2.68625 L 8.934265 -2.494375 L 8.919265 -2.3025 L 8.905515 -2.110625 L 8.893015 -1.91875 L 8.881609 -1.726875 L 8.871452 -1.535 L 8.862546 -1.343125 L 8.854734 -1.15125 L 8.848171 -0.959375 L 8.842859 -0.7675 L 8.83864 -0.575625 L 8.835671 -0.38375 L 8.833952 -0.191875 L 8.833327 0 L 8.833952 0.191875 L 8.835671 0.38375 L 8.83864 0.575625 L 8.842859 0.7675 L 8.848171 0.959375 L 8.854734 1.15125 L 8.862546 1.343125 L 8.871452 1.535 L 8.881609 1.726875 L 8.893015 1.91875 L 8.905515 2.110625 L 8.919265 2.3025 L 8.934265 2.494375 L 8.950359 2.68625 L 8.967702 2.878125 L 8.986296 3.07 L 9.00614 3.261875 L 9.027077 3.45375 L 9.049265 3.645625 L 9.072702 3.8375 L 9.09739 4.029375 L 9.123171 4.22125 L 9.150359 4.413125 L 9.17864 4.605 L 9.208171 4.796875 " transform="matrix(25,0,0,25,68.526193,500)"/>
</g>
<path style="fill-rule:nonzero;fill:rgb(40.000001%,40.000001%,40.000001%);fill-opacity:1;stroke-width:0.04;stroke-linecap:round;stroke-linejoin:bevel;stroke:rgb(80.000001%,80.000001%,80.000001%);stroke-opacity:1;stroke-miterlimit:10;" d="M 8.31739 -4.796875 L 8.355827 -4.605 L 8.392546 -4.413125 L 8.427546 -4.22125 L 8.46114 -4.029375 L 8.493015 -3.8375 L 8.523171 -3.645625 L 8.551921 -3.45375 L 8.579109 -3.261875 L 8.604577 -3.07 L 8.628484 -2.878125 L 8.650984 -2.68625 L 8.671765 -2.494375 L 8.690984 -2.3025 L 8.708796 -2.110625 L 8.72489 -1.91875 L 8.739577 -1.726875 L 8.752702 -1.535 L 8.764109 -1.343125 L 8.774109 -1.15125 L 8.782546 -0.959375 L 8.789577 -0.7675 L 8.79489 -0.575625 L 8.79864 -0.38375 L 8.800984 -0.191875 L 8.801765 0 L 8.800984 0.191875 L 8.79864 0.38375 L 8.79489 0.575625 L 8.789577 0.7675 L 8.782546 0.959375 L 8.774109 1.15125 L 8.764109 1.343125 L 8.752702 1.535 L 8.739577 1.726875 L 8.72489 1.91875 L 8.708796 2.110625 L 8.690984 2.3025 L 8.671765 2.494375 L 8.650984 2.68625 L 8.628484 2.878125 L 8.604577 3.07 L 8.579109 3.261875 L 8.551921 3.45375 L 8.523171 3.645625 L 8.493015 3.8375 L 8.46114 4.029375 L 8.427546 4.22125 L 8.392546 4.413125 L 8.355827 4.605 L 8.31739 4.796875 L 8.055046 4.796875 L 8.022234 4.605 L 7.990827 4.413125 L 7.960827 4.22125 L 7.932077 4.029375 L 7.904734 3.8375 L 7.878796 3.645625 L 7.854265 3.45375 L 7.830984 3.261875 L 7.808952 3.07 L 7.788484 2.878125 L 7.769265 2.68625 L 7.751296 2.494375 L 7.734734 2.3025 L 7.719577 2.110625 L 7.705671 1.91875 L 7.693015 1.726875 L 7.681765 1.535 L 7.671921 1.343125 L 7.663327 1.15125 L 7.65614 0.959375 L 7.650202 0.7675 L 7.645515 0.575625 L 7.642234 0.38375 L 7.640202 0.191875 L 7.639577 0 L 7.640202 -0.191875 L 7.642234 -0.38375 L 7.645515 -0.575625 L 7.650202 -0.7675 L 7.65614 -0.959375 L 7.663327 -1.15125 L 7.671921 -1.343125 L 7.681765 -1.535 L 7.693015 -1.726875 L 7.705671 -1.91875 L 7.719577 -2.110625 L 7.734734 -2.3025 L 7.751296 -2.494375 L 7.769265 -2.68625 L 7.788484 -2.878125 L 7.808952 -3.07 L 7.830984 -3.261875 L 7.854265 -3.45375 L 7.878796 -3.645625 L 7.904734 -3.8375 L 7.932077 -4.029375 L 7.960827 -4.22125 L 7.990827 -4.413125 L 8.022234 -4.605 L 8.055046 -4.796875 Z M 8.31739 -4.796875 " transform="matrix(25,0,0,25,68.526193,500)"/>
<g clip-path="url(#clip7)" clip-rule="nonzero">
<path style="fill:none;stroke-width:0.04;stroke-linecap:round;stroke-linejoin:bevel;stroke:rgb(70%,70%,70%);stroke-opacity:1;stroke-miterlimit:10;" d="M 8.055046 -4.796875 L 8.022234 -4.605 L 7.990827 -4.413125 L 7.960827 -4.22125 L 7.932077 -4.029375 L 7.904734 -3.8375 L 7.878796 -3.645625 L 7.854265 -3.45375 L 7.830984 -3.261875 L 7.808952 -3.07 L 7.788484 -2.878125 L 7.769265 -2.68625 L 7.751296 -2.494375 L 7.734734 -2.3025 L 7.719577 -2.110625 L 7.705671 -1.91875 L 7.693015 -1.726875 L 7.681765 -1.535 L 7.671921 -1.343125 L 7.663327 -1.15125 L 7.65614 -0.959375 L 7.650202 -0.7675 L 7.645515 -0.575625 L 7.642234 -0.38375 L 7.640202 -0.191875 L 7.639577 0 L 7.640202 0.191875 L 7.642234 0.38375 L 7.645515 0.575625 L 7.650202 0.7675 L 7.65614 0.959375 L 7.663327 1.15125 L 7.671921 1.343125 L 7.681765 1.535 L 7.693015 1.726875 L 7.705671 1.91875 L 7.719577 2.110625 L 7.734734 2.3025 L 7.751296 2.494375 L 7.769265 2.68625 L 7.788484 2.878125 L 7.808952 3.07 L 7.830984 3.261875 L 7.854265 3.45375 L 7.878796 3.645625 L 7.904734 3.8375 L 7.932077 4.029375 L 7.960827 4.22125 L 7.990827 4.413125 L 8.022234 4.605 L 8.055046 4.796875 " transform="matrix(25,0,0,25,68.526193,500)"/>
</g>
<path style=" stroke:none;fill-rule:nonzero;fill:rgb(50%,50%,50%);fill-opacity:1;" d="M 65.101562 440.039062 L 65.101562 559.960938 L 68.527344 559.960938 L 68.527344 440.039062 Z M 65.101562 440.039062 "/>
<path style="fill:none;stroke-width:0.04;stroke-linecap:round;stroke-linejoin:bevel;stroke:rgb(50%,50%,50%);stroke-opacity:1;stroke-miterlimit:10;" d="M 37.879264 6.039531 L 24.174108 6.039531 L 23.263483 5.937031 L 22.181139 5.789219 L 21.357858 5.571562 L 19.978796 5.138906 L 18.687389 4.479687 L 16.705202 3.459375 L 16.215671 3.390937 L 15.214889 3.25125 L 13.537546 3.609531 L 11.194421 4.1575 L 9.600827 4.140937 L 9.107546 4.105937 L 8.471921 3.964687 L 7.906765 3.852031 L 0.00004601 -0.0151562 " transform="matrix(25.000001,0,0,25.000001,68.526193,500)"/>
<path style="fill:none;stroke-width:0.04;stroke-linecap:round;stroke-linejoin:bevel;stroke:rgb(50%,50%,50%);stroke-opacity:1;stroke-miterlimit:10;" d="M 37.955826 5.757812 L 24.25067 5.757812 L 23.284889 5.654531 L 22.300045 5.526719 L 21.408483 5.303125 L 20.150358 4.928906 L 18.690671 4.226406 L 16.853327 3.334844 L 16.215671 3.247031 L 15.105202 3.094219 L 13.566296 3.394844 L 11.053014 3.932031 L 9.636452 3.908906 L 9.076608 3.869219 L 8.507546 3.746562 L 7.87614 3.625469 L 0.00004601 -0.015 " transform="matrix(25.000001,0,0,25.000001,68.526193,500)"/>
<path style="fill:none;stroke-width:0.04;stroke-linecap:round;stroke-linejoin:bevel;stroke:rgb(50%,50%,50%);stroke-opacity:1;stroke-miterlimit:10;" d="M 38.029264 5.473125 L 24.323952 5.473125 L 23.305514 5.369844 L 22.413952 5.260312 L 21.45692 5.033125 L 20.315514 4.712344 L 18.693483 3.977969 L 16.996452 3.203437 L 16.215671 3.098281 L 15.001764 2.934844 L 13.592389 3.186094 L 10.922389 3.707031 L 9.669577 3.680469 L 9.048171 3.637031 L 8.540515 3.53125 L 7.848015 3.404219 L 0.00004601 -0.0140625 " transform="matrix(25.000001,0,0,25.000001,68.526193,500)"/>
<path style="fill:none;stroke-width:0.04;stroke-linecap:round;stroke-linejoin:bevel;stroke:rgb(50%,50%,50%);stroke-opacity:1;stroke-miterlimit:10;" d="M 38.099264 5.185781 L 24.394108 5.185781 L 23.325045 5.083281 L 22.522702 4.99 L 21.503014 4.761719 L 20.473795 4.489062 L 18.696139 3.734062 L 17.134108 3.065469 L 16.215827 2.945312 L 14.905046 2.77375 L 13.616296 2.983125 L 10.802389 3.483281 L 9.700202 3.455781 L 9.022077 3.409062 L 8.57114 3.319062 L 7.82239 3.187969 L 0.00004601 -0.0126562 " transform="matrix(25.000001,0,0,25.000001,68.526193,500)"/>
<path style="fill:none;stroke-width:0.04;stroke-linecap:round;stroke-linejoin:bevel;stroke:rgb(50%,50%,50%);stroke-opacity:1;stroke-miterlimit:10;" d="M 38.165983 4.895469 L 24.460827 4.895469 L 23.343639 4.794687 L 22.626295 4.71625 L 21.546764 4.488906 L 20.624889 4.259687 L 18.698639 3.494531 L 17.266139 2.921094 L 16.215827 2.788437 L 14.814733 2.611719 L 13.637858 2.785312 L 10.692702 3.261406 L 9.728483 3.234531 L 8.998015 3.185625 L 8.599421 3.109531 L 7.798796 2.976562 L 0.00004601 -0.0109375 " transform="matrix(25.000001,0,0,25.000001,68.526193,500)"/>
<path style="fill:none;stroke-width:0.04;stroke-linecap:round;stroke-linejoin:bevel;stroke:rgb(50%,50%,50%);stroke-opacity:1;stroke-miterlimit:10;" d="M 38.229264 4.602812 L 24.524108 4.602812 L 23.361295 4.504375 L 22.72442 4.439062 L 21.587858 4.215 L 20.768483 4.024219 L 18.700983 3.25875 L 17.391921 2.770469 L 16.215827 2.628125 L 14.731139 2.44875 L 13.657702 2.592344 L 10.592702 3.041719 L 9.754421 3.016562 L 8.97614 2.96625 L 8.625515 2.902656 L 7.77739 2.769844 L 0.00004601 -0.00921875 " transform="matrix(25.000001,0,0,25.000001,68.526193,500)"/>
<path style="fill:none;stroke-width:0.04;stroke-linecap:round;stroke-linejoin:bevel;stroke:rgb(50%,50%,50%);stroke-opacity:1;stroke-miterlimit:10;" d="M 38.288951 4.3075 L 24.583639 4.307656 L 23.378014 4.212187 L 22.81692 4.158437 L 21.626608 3.939687 L 20.90442 3.782969 L 18.703014 3.026562 L 17.511452 2.613906 L 16.215827 2.464844 L 14.653796 2.285156 L 13.675514 2.403594 L 10.502077 2.824375 L 9.778171 2.801875 L 8.95614 2.750937 L 8.649577 2.698437 L 7.758015 2.567187 L 0.00004601 -0.0075 " transform="matrix(25.000001,0,0,25.000001,68.526193,500)"/>
<path style="fill:none;stroke-width:0.04;stroke-linecap:round;stroke-linejoin:bevel;stroke:rgb(50%,50%,50%);stroke-opacity:1;stroke-miterlimit:10;" d="M 38.344889 4.01 L 24.639733 4.01 L 23.393483 3.918437 L 22.903795 3.874844 L 21.662858 3.663281 L 21.032077 3.536406 L 18.704889 2.7975 L 17.624108 2.451719 L 16.215827 2.298906 L 14.582858 2.121406 L 13.691764 2.218594 L 10.419889 2.609687 L 9.79989 2.590156 L 8.937858 2.539219 L 8.671608 2.496406 L 7.740358 2.368437 L 0.00004601 -0.00578125 " transform="matrix(25.000001,0,0,25.000001,68.526193,500)"/>
<path style="fill:none;stroke-width:0.04;stroke-linecap:round;stroke-linejoin:bevel;stroke:rgb(50%,50%,50%);stroke-opacity:1;stroke-miterlimit:10;" d="M 38.397076 3.710312 L 24.69192 3.710312 L 23.40817 3.623125 L 22.984733 3.588437 L 21.696452 3.385781 L 21.151608 3.284844 L 18.706764 2.571562 L 17.729577 2.284375 L 16.215983 2.130312 L 14.517858 1.9575 L 13.706452 2.037031 L 10.345983 2.397656 L 9.819577 2.381094 L 8.921452 2.331094 L 8.691608 2.296719 L 7.724421 2.173281 L 0.00004601 -0.004375 " transform="matrix(25.000001,0,0,25.000001,68.526193,500)"/>
<path style="fill:none;stroke-width:0.04;stroke-linecap:round;stroke-linejoin:bevel;stroke:rgb(50%,50%,50%);stroke-opacity:1;stroke-miterlimit:10;" d="M 38.445514 3.408594 L 24.740202 3.408594 L 23.421608 3.326406 L 23.059733 3.299219 L 21.727545 3.107187 L 21.262545 3.028437 L 18.708327 2.348125 L 17.827858 2.112031 L 16.215983 1.959687 L 14.458952 1.793594 L 13.719577 1.858281 L 10.279733 2.187969 L 9.83739 2.174375 L 8.906608 2.125937 L 8.70989 2.09875 L 7.710046 1.981406 L 0.00004601 -0.003125 " transform="matrix(25.000001,0,0,25.000001,68.526193,500)"/>
<path style="fill:none;stroke-width:0.04;stroke-linecap:round;stroke-linejoin:bevel;stroke:rgb(50%,50%,50%);stroke-opacity:1;stroke-miterlimit:10;" d="M 38.489889 3.104844 L 24.784733 3.104844 L 23.433952 3.028437 L 23.128639 3.0075 L 21.756139 2.827812 L 21.364577 2.7675 L 18.709733 2.127344 L 17.918483 1.935156 L 16.215983 1.787187 L 14.405671 1.629844 L 13.731452 1.682031 L 10.220827 1.980781 L 9.853483 1.97 L 8.893327 1.92375 L 8.726296 1.902656 L 7.697233 1.792344 L 0.00004601 -0.00203125 " transform="matrix(25.000001,0,0,25.000001,68.526193,500)"/>
<path style="fill:none;stroke-width:0.04;stroke-linecap:round;stroke-linejoin:bevel;stroke:rgb(50%,50%,50%);stroke-opacity:1;stroke-miterlimit:10;" d="M 38.530358 2.799375 L 24.825202 2.799375 L 23.445202 2.729062 L 23.191295 2.713437 L 21.78192 2.5475 L 21.457545 2.502656 L 18.710983 1.908594 L 18.001296 1.754062 L 16.215983 1.612969 L 14.358014 1.466094 L 13.741921 1.508125 L 10.16864 1.775937 L 9.867858 1.7675 L 8.881452 1.724219 L 8.740983 1.708125 L 7.685827 1.606094 L 0.00004601 -0.00109375 " transform="matrix(25.000001,0,0,25.000001,68.526193,500)"/>
<path style="fill:none;stroke-width:0.04;stroke-linecap:round;stroke-linejoin:bevel;stroke:rgb(50%,50%,50%);stroke-opacity:1;stroke-miterlimit:10;" d="M 38.566764 2.4925 L 24.861452 2.4925 L 23.455358 2.42875 L 23.247702 2.417344 L 21.805202 2.266406 L 21.541295 2.234062 L 18.712077 1.691719 L 18.075983 1.569062 L 16.215983 1.437187 L 14.315827 1.302656 L 13.751296 1.336094 L 10.122858 1.573125 L 9.880515 1.566875 L 8.87114 1.527031 L 8.753952 1.515 L 7.675827 1.422031 L 0.00004601 -0.00046875 " transform="matrix(25.000001,0,0,25.000001,68.526193,500)"/>
<path style="fill:none;stroke-width:0.04;stroke-linecap:round;stroke-linejoin:bevel;stroke:rgb(50%,50%,50%);stroke-opacity:1;stroke-miterlimit:10;" d="M 38.598951 2.184062 L 24.893795 2.184062 L 23.464264 2.127344 L 23.297545 2.119375 L 21.82567 1.984687 L 21.61567 1.962187 L 18.713014 1.476719 L 18.142389 1.380625 L 16.215983 1.260312 L 14.278952 1.139219 L 13.759264 1.165781 L 10.083171 1.372187 L 9.891608 1.367812 L 8.862077 1.331719 L 8.765202 1.322969 L 7.667077 1.239844 L 0.00004601 0.000000000000003553 " transform="matrix(25.000001,0,0,25.000001,68.526193,500)"/>
<path style="fill:none;stroke-width:0.04;stroke-linecap:round;stroke-linejoin:bevel;stroke:rgb(50%,50%,50%);stroke-opacity:1;stroke-miterlimit:10;" d="M 38.627076 1.874375 L 24.921764 1.874375 L 23.472077 1.825 L 23.341139 1.819687 L 21.843483 1.702344 L 21.680514 1.687344 L 18.713796 1.262969 L 18.200358 1.189062 L 16.215983 1.082187 L 14.247233 0.976094 L 13.766139 0.996875 L 10.049421 1.172969 L 9.90114 1.17 L 8.854265 1.138281 L 8.775046 1.132187 L 7.659733 1.059687 L 0.00004601 0.0003125 " transform="matrix(25.000001,0,0,25.000001,68.526193,500)"/>
<path style="fill:none;stroke-width:0.04;stroke-linecap:round;stroke-linejoin:bevel;stroke:rgb(50%,50%,50%);stroke-opacity:1;stroke-miterlimit:10;" d="M 38.650826 1.563594 L 24.945514 1.563594 L 23.478639 1.522031 L 23.378014 1.518594 L 21.858639 1.419375 L 21.735514 1.41 L 18.714577 1.050625 L 18.249577 0.995 L 16.215983 0.903125 L 14.220514 0.813125 L 13.772077 0.829062 L 10.021296 0.975156 L 9.909108 0.973281 L 8.847858 0.94625 L 8.783327 0.942187 L 7.653483 0.880781 L 0.00004601 0.000625 " transform="matrix(25.000001,0,0,25.000001,68.526193,500)"/>
<path style="fill:none;stroke-width:0.04;stroke-linecap:round;stroke-linejoin:bevel;stroke:rgb(50%,50%,50%);stroke-opacity:1;stroke-miterlimit:10;" d="M 38.670358 1.252031 L 24.965202 1.252031 L 23.484108 1.218437 L 23.408327 1.21625 L 21.870983 1.136094 L 21.780827 1.130469 L 18.715202 0.839219 L 18.290046 0.798594 L 16.216139 0.723437 L 14.198796 0.650312 L 13.776764 0.662187 L 9.998483 0.77875 L 9.915515 0.7775 L 8.842546 0.755625 L 8.78989 0.752812 L 7.648483 0.703125 L 0.00004601 0.000625 " transform="matrix(25.000001,0,0,25.000001,68.526193,500)"/>
<path style="fill:none;stroke-width:0.04;stroke-linecap:round;stroke-linejoin:bevel;stroke:rgb(50%,50%,50%);stroke-opacity:1;stroke-miterlimit:10;" d="M 38.68567 0.939687 L 24.980358 0.939687 L 23.488327 0.914219 L 23.43192 0.913125 L 21.88067 0.852344 L 21.815983 0.849375 L 18.715514 0.62875 L 18.321764 0.600469 L 16.216139 0.543125 L 14.182077 0.487656 L 13.780358 0.495937 L 9.980827 0.583125 L 9.920515 0.5825 L 8.838483 0.565781 L 8.795202 0.564062 L 7.644577 0.526562 L 0.00004601 0.00046875 " transform="matrix(25.000001,0,0,25.000001,68.526193,500)"/>
<path style="fill:none;stroke-width:0.04;stroke-linecap:round;stroke-linejoin:bevel;stroke:rgb(50%,50%,50%);stroke-opacity:1;stroke-miterlimit:10;" d="M 38.696451 0.626719 L 24.991295 0.626719 L 23.491295 0.609687 L 23.448795 0.609062 L 21.887545 0.568437 L 21.841295 0.567031 L 18.715827 0.41875 L 18.344421 0.401094 L 16.216139 0.362344 L 14.170046 0.325 L 13.783014 0.330312 L 9.968483 0.388281 L 9.924108 0.387969 L 8.835671 0.376875 L 8.798796 0.375781 L 7.641765 0.350625 L 0.00004601 0.00046875 " transform="matrix(25.000001,0,0,25.000001,68.526193,500)"/>
<path style="fill:none;stroke-width:0.04;stroke-linecap:round;stroke-linejoin:bevel;stroke:rgb(50%,50%,50%);stroke-opacity:1;stroke-miterlimit:10;" d="M 38.703014 0.313437 L 24.997858 0.313437 L 23.49317 0.304844 L 23.458952 0.304687 L 21.891608 0.284219 L 21.856452 0.28375 L 18.716139 0.209375 L 18.358014 0.200781 L 16.216139 0.18125 L 14.162858 0.1625 L 13.784421 0.165156 L 9.960983 0.194062 L 9.926296 0.193906 L 8.833952 0.188281 L 8.800983 0.187812 L 7.640046 0.175156 L 0.00004601 0.00015625 " transform="matrix(25.000001,0,0,25.000001,68.526193,500)"/>
<path style="fill:none;stroke-width:0.04;stroke-linecap:round;stroke-linejoin:bevel;stroke:rgb(50%,50%,50%);stroke-opacity:1;stroke-miterlimit:10;" d="M 38.703014 -0.313437 L 24.997858 -0.313437 L 23.49317 -0.304844 L 23.458952 -0.304687 L 21.891608 -0.284219 L 21.856452 -0.28375 L 18.716139 -0.209375 L 18.358014 -0.200781 L 16.216139 -0.18125 L 14.162858 -0.1625 L 13.784421 -0.165156 L 9.960983 -0.194062 L 9.926296 -0.193906 L 8.833952 -0.188281 L 8.800983 -0.187812 L 7.640046 -0.175156 L 0.00004601 -0.00015625 " transform="matrix(25.000001,0,0,25.000001,68.526193,500)"/>
<path style="fill:none;stroke-width:0.04;stroke-linecap:round;stroke-linejoin:bevel;stroke:rgb(50%,50%,50%);stroke-opacity:1;stroke-miterlimit:10;" d="M 38.696451 -0.626719 L 24.991295 -0.626719 L 23.491295 -0.609687 L 23.448795 -0.609062 L 21.887545 -0.568437 L 21.841295 -0.567031 L 18.715827 -0.41875 L 18.344421 -0.401094 L 16.216139 -0.362344 L 14.170046 -0.325 L 13.783014 -0.330312 L 9.968483 -0.388281 L 9.924108 -0.387969 L 8.835671 -0.376875 L 8.798796 -0.375781 L 7.641765 -0.350625 L 0.00004601 -0.00046875 " transform="matrix(25.000001,0,0,25.000001,68.526193,500)"/>
<path style="fill:none;stroke-width:0.04;stroke-linecap:round;stroke-linejoin:bevel;stroke:rgb(50%,50%,50%);stroke-opacity:1;stroke-miterlimit:10;" d="M 38.68567 -0.939687 L 24.980358 -0.939687 L 23.488327 -0.914219 L 23.43192 -0.913125 L 21.88067 -0.852344 L 21.815983 -0.849375 L 18.715514 -0.62875 L 18.321764 -0.600469 L 16.216139 -0.543125 L 14.182077 -0.487656 L 13.780358 -0.495937 L 9.980827 -0.583125 L 9.920515 -0.5825 L 8.838483 -0.565781 L 8.795202 -0.564062 L 7.644577 -0.526562 L 0.00004601 -0.00046875 " transform="matrix(25.000001,0,0,25.000001,68.526193,500)"/>
<path style="fill:none;stroke-width:0.04;stroke-linecap:round;stroke-linejoin:bevel;stroke:rgb(50%,50%,50%);stroke-opacity:1;stroke-miterlimit:10;" d="M 38.670358 -1.252031 L 24.965202 -1.252031 L 23.484108 -1.218437 L 23.408327 -1.21625 L 21.870983 -1.136094 L 21.780827 -1.130469 L 18.715202 -0.839219 L 18.290046 -0.798594 L 16.216139 -0.723437 L 14.198796 -0.650312 L 13.776764 -0.662187 L 9.998483 -0.77875 L 9.915515 -0.7775 L 8.842546 -0.755625 L 8.78989 -0.752812 L 7.648483 -0.703125 L 0.00004601 -0.000625 " transform="matrix(25.000001,0,0,25.000001,68.526193,500)"/>
<path style="fill:none;stroke-width:0.04;stroke-linecap:round;stroke-linejoin:bevel;stroke:rgb(50%,50%,50%);stroke-opacity:1;stroke-miterlimit:10;" d="M 38.650826 -1.563594 L 24.945514 -1.563594 L 23.478639 -1.522031 L 23.378014 -1.518594 L 21.858639 -1.419375 L 21.735514 -1.41 L 18.714577 -1.050625 L 18.249577 -0.995 L 16.215983 -0.903125 L 14.220514 -0.813125 L 13.772077 -0.829062 L 10.021296 -0.975156 L 9.909108 -0.973281 L 8.847858 -0.94625 L 8.783327 -0.942187 L 7.653483 -0.880781 L 0.00004601 -0.000625 " transform="matrix(25.000001,0,0,25.000001,68.526193,500)"/>
<path style="fill:none;stroke-width:0.04;stroke-linecap:round;stroke-linejoin:bevel;stroke:rgb(50%,50%,50%);stroke-opacity:1;stroke-miterlimit:10;" d="M 38.627076 -1.874375 L 24.921764 -1.874375 L 23.472077 -1.825 L 23.341139 -1.819687 L 21.843483 -1.702344 L 21.680514 -1.687344 L 18.713796 -1.262969 L 18.200358 -1.189062 L 16.215983 -1.082187 L 14.247233 -0.976094 L 13.766139 -0.996875 L 10.049421 -1.172969 L 9.90114 -1.17 L 8.854265 -1.138281 L 8.775046 -1.132187 L 7.659733 -1.059687 L 0.00004601 -0.0003125 " transform="matrix(25.000001,0,0,25.000001,68.526193,500)"/>
<path style="fill:none;stroke-width:0.04;stroke-linecap:round;stroke-linejoin:bevel;stroke:rgb(50%,50%,50%);stroke-opacity:1;stroke-miterlimit:10;" d="M 38.598951 -2.184062 L 24.893795 -2.184062 L 23.464264 -2.127344 L 23.297545 -2.119375 L 21.82567 -1.984687 L 21.61567 -1.962187 L 18.713014 -1.476719 L 18.142389 -1.380625 L 16.215983 -1.260312 L 14.278952 -1.139219 L 13.759264 -1.165781 L 10.083171 -1.372187 L 9.891608 -1.367812 L 8.862077 -1.331719 L 8.765202 -1.322969 L 7.667077 -1.239844 L 0.00004601 0.000000000000003553 " transform="matrix(25.000001,0,0,25.000001,68.526193,500)"/>
<path style="fill:none;stroke-width:0.04;stroke-linecap:round;stroke-linejoin:bevel;stroke:rgb(50%,50%,50%);stroke-opacity:1;stroke-miterlimit:10;" d="M 38.566764 -2.4925 L 24.861452 -2.4925 L 23.455358 -2.42875 L 23.247702 -2.417344 L 21.805202 -2.266406 L 21.541295 -2.234062 L 18.712077 -1.691719 L 18.075983 -1.569062 L 16.215983 -1.437187 L 14.315827 -1.302656 L 13.751296 -1.336094 L 10.122858 -1.573125 L 9.880515 -1.566875 L 8.87114 -1.527031 L 8.753952 -1.515 L 7.675827 -1.422031 L 0.00004601 0.00046875 " transform="matrix(25.000001,0,0,25.000001,68.526193,500)"/>
<path style="fill:none;stroke-width:0.04;stroke-linecap:round;stroke-linejoin:bevel;stroke:rgb(50%,50%,50%);stroke-opacity:1;stroke-miterlimit:10;" d="M 38.530358 -2.799375 L 24.825202 -2.799375 L 23.445202 -2.729062 L 23.191295 -2.713437 L 21.78192 -2.5475 L 21.457545 -2.502656 L 18.710983 -1.908594 L 18.001296 -1.754062 L 16.215983 -1.612969 L 14.358014 -1.466094 L 13.741921 -1.508125 L 10.16864 -1.775937 L 9.867858 -1.7675 L 8.881452 -1.724219 L 8.740983 -1.708125 L 7.685827 -1.606094 L 0.00004601 0.00109375 " transform="matrix(25.000001,0,0,25.000001,68.526193,500)"/>
<path style="fill:none;stroke-width:0.04;stroke-linecap:round;stroke-linejoin:bevel;stroke:rgb(50%,50%,50%);stroke-opacity:1;stroke-miterlimit:10;" d="M 38.489889 -3.104844 L 24.784733 -3.104844 L 23.433952 -3.028437 L 23.128639 -3.0075 L 21.756139 -2.827812 L 21.364577 -2.7675 L 18.709733 -2.127344 L 17.918483 -1.935156 L 16.215983 -1.787187 L 14.405671 -1.629844 L 13.731452 -1.682031 L 10.220827 -1.980781 L 9.853483 -1.97 L 8.893327 -1.92375 L 8.726296 -1.902656 L 7.697233 -1.792344 L 0.00004601 0.00203125 " transform="matrix(25.000001,0,0,25.000001,68.526193,500)"/>
<path style="fill:none;stroke-width:0.04;stroke-linecap:round;stroke-linejoin:bevel;stroke:rgb(50%,50%,50%);stroke-opacity:1;stroke-miterlimit:10;" d="M 38.445514 -3.408594 L 24.740202 -3.408594 L 23.421608 -3.326406 L 23.059733 -3.299219 L 21.727545 -3.107187 L 21.262545 -3.028437 L 18.708327 -2.348125 L 17.827858 -2.112031 L 16.215983 -1.959687 L 14.458952 -1.793594 L 13.719577 -1.858281 L 10.279733 -2.187969 L 9.83739 -2.174375 L 8.906608 -2.125937 L 8.70989 -2.09875 L 7.710046 -1.981406 L 0.00004601 0.003125 " transform="matrix(25.000001,0,0,25.000001,68.526193,500)"/>
<path style="fill:none;stroke-width:0.04;stroke-linecap:round;stroke-linejoin:bevel;stroke:rgb(50%,50%,50%);stroke-opacity:1;stroke-miterlimit:10;" d="M 38.397076 -3.710312 L 24.69192 -3.710312 L 23.40817 -3.623125 L 22.984733 -3.588437 L 21.696452 -3.385781 L 21.151608 -3.284844 L 18.706764 -2.571562 L 17.729577 -2.284375 L 16.215983 -2.130312 L 14.517858 -1.9575 L 13.706452 -2.037031 L 10.345983 -2.397656 L 9.819577 -2.381094 L 8.921452 -2.331094 L 8.691608 -2.296719 L 7.724421 -2.173281 L 0.00004601 0.004375 " transform="matrix(25.000001,0,0,25.000001,68.526193,500)"/>
<path style="fill:none;stroke-width:0.04;stroke-linecap:round;stroke-linejoin:bevel;stroke:rgb(50%,50%,50%);stroke-opacity:1;stroke-miterlimit:10;" d="M 38.344889 -4.01 L 24.639733 -4.01 L 23.393483 -3.918437 L 22.903795 -3.874844 L 21.662858 -3.663281 L 21.032077 -3.536406 L 18.704889 -2.7975 L 17.624108 -2.451719 L 16.215827 -2.298906 L 14.582858 -2.121406 L 13.691764 -2.218594 L 10.419889 -2.609687 L 9.79989 -2.590156 L 8.937858 -2.539219 L 8.671608 -2.496406 L 7.740358 -2.368437 L 0.00004601 0.00578125 " transform="matrix(25.000001,0,0,25.000001,68.526193,500)"/>
<path style="fill:none;stroke-width:0.04;stroke-linecap:round;stroke-linejoin:bevel;stroke:rgb(50%,50%,50%);stroke-opacity:1;stroke-miterlimit:10;" d="M 38.288951 -4.3075 L 24.583639 -4.307656 L 23.378014 -4.212187 L 22.81692 -4.158437 L 21.626608 -3.939687 L 20.90442 -3.782969 L 18.703014 -3.026562 L 17.511452 -2.613906 L 16.215827 -2.464844 L 14.653796 -2.285156 L 13.675514 -2.403594 L 10.502077 -2.824375 L 9.778171 -2.801875 L 8.95614 -2.750937 L 8.649577 -2.698437 L 7.758015 -2.567187 L 0.00004601 0.0075 " transform="matrix(25.000001,0,0,25.000001,68.526193,500)"/>
<path style="fill:none;stroke-width:0.04;stroke-linecap:round;stroke-linejoin:bevel;stroke:rgb(50%,50%,50%);stroke-opacity:1;stroke-miterlimit:10;" d="M 38.229264 -4.602812 L 24.524108 -4.602812 L 23.361295 -4.504375 L 22.72442 -4.439062 L 21.587858 -4.215 L 20.768483 -4.024219 L 18.700983 -3.25875 L 17.391921 -2.770469 L 16.215827 -2.628125 L 14.731139 -2.44875 L 13.657702 -2.592344 L 10.592702 -3.041719 L 9.754421 -3.016562 L 8.97614 -2.96625 L 8.625515 -2.902656 L 7.77739 -2.769844 L 0.00004601 0.00921875 " transform="matrix(25.000001,0,0,25.000001,68.526193,500)"/>
<path style="fill:none;stroke-width:0.04;stroke-linecap:round;stroke-linejoin:bevel;stroke:rgb(50%,50%,50%);stroke-opacity:1;stroke-miterlimit:10;" d="M 38.165983 -4.895469 L 24.460827 -4.895469 L 23.343639 -4.794687 L 22.626295 -4.71625 L 21.546764 -4.488906 L 20.624889 -4.259687 L 18.698639 -3.494531 L 17.266139 -2.921094 L 16.215827 -2.788437 L 14.814733 -2.611719 L 13.637858 -2.785312 L 10.692702 -3.261406 L 9.728483 -3.234531 L 8.998015 -3.185625 L 8.599421 -3.109531 L 7.798796 -2.976562 L 0.00004601 0.0109375 " transform="matrix(25.000001,0,0,25.000001,68.526193,500)"/>
<path style="fill:none;stroke-width:0.04;stroke-linecap:round;stroke-linejoin:bevel;stroke:rgb(50%,50%,50%);stroke-opacity:1;stroke-miterlimit:10;" d="M 38.099264 -5.185781 L 24.394108 -5.185781 L 23.325045 -5.083281 L 22.522702 -4.99 L 21.503014 -4.761719 L 20.473795 -4.489062 L 18.696139 -3.734062 L 17.134108 -3.065469 L 16.215827 -2.945312 L 14.905046 -2.77375 L 13.616296 -2.983125 L 10.802389 -3.483281 L 9.700202 -3.455781 L 9.022077 -3.409062 L 8.57114 -3.319062 L 7.82239 -3.187969 L 0.00004601 0.0126562 " transform="matrix(25.000001,0,0,25.000001,68.526193,500)"/>
<path style="fill:none;stroke-width:0.04;stroke-linecap:round;stroke-linejoin:bevel;stroke:rgb(50%,50%,50%);stroke-opacity:1;stroke-miterlimit:10;" d="M 38.029264 -5.473125 L 24.323952 -5.473125 L 23.305514 -5.369844 L 22.413952 -5.260312 L 21.45692 -5.033125 L 20.315514 -4.712344 L 18.693483 -3.977969 L 16.996452 -3.203437 L 16.215671 -3.098281 L 15.001764 -2.934844 L 13.592389 -3.186094 L 10.922389 -3.707031 L 9.669577 -3.680469 L 9.048171 -3.637031 L 8.540515 -3.53125 L 7.848015 -3.404219 L 0.00004601 0.0140625 " transform="matrix(25.000001,0,0,25.000001,68.526193,500)"/>
<path style="fill:none;stroke-width:0.04;stroke-linecap:round;stroke-linejoin:bevel;stroke:rgb(50%,50%,50%);stroke-opacity:1;stroke-miterlimit:10;" d="M 37.955826 -5.757812 L 24.25067 -5.757812 L 23.284889 -5.654531 L 22.300045 -5.526719 L 21.408483 -5.303125 L 20.150358 -4.928906 L 18.690671 -4.226406 L 16.853327 -3.334844 L 16.215671 -3.247031 L 15.105202 -3.094219 L 13.566296 -3.394844 L 11.053014 -3.932031 L 9.636452 -3.908906 L 9.076608 -3.869219 L 8.507546 -3.746562 L 7.87614 -3.625469 L 0.00004601 0.015 " transform="matrix(25.000001,0,0,25.000001,68.526193,500)"/>
<path style="fill:none;stroke-width:0.04;stroke-linecap:round;stroke-linejoin:bevel;stroke:rgb(50%,50%,50%);stroke-opacity:1;stroke-miterlimit:10;" d="M 37.879264 -6.039531 L 24.174108 -6.039531 L 23.263483 -5.937031 L 22.181139 -5.789219 L 21.357858 -5.571562 L 19.978796 -5.138906 L 18.687389 -4.479687 L 16.705202 -3.459375 L 16.215671 -3.390937 L 15.214889 -3.25125 L 13.537546 -3.609531 L 11.194421 -4.1575 L 9.600827 -4.140937 L 9.107546 -4.105937 L 8.471921 -3.964687 L 7.906765 -3.852031 L 0.00004601 0.0151562 " transform="matrix(25.000001,0,0,25.000001,68.526193,500)"/>
</g>
</svg>
