<?xml version="1.0" encoding="UTF-8"?>
<svg xmlns="http://www.w3.org/2000/svg" xmlns:xlink="http://www.w3.org/1999/xlink" width="900pt" height="550pt" viewBox="0 0 900 550" version="1.2">
<defs>
<clipPath id="clip1">
  <path d="M 521 134.234375 L 666 134.234375 L 666 415.769531 L 521 415.769531 Z M 521 134.234375 "/>
</clipPath>
<clipPath id="clip2">
  <path d="M 492 172 L 550 172 L 550 378 L 492 378 Z M 492 172 "/>
</clipPath>
<clipPath id="clip3">
  <path d="M 448 172 L 454 172 L 454 378 L 448 378 Z M 448 172 "/>
</clipPath>
<clipPath id="clip4">
  <path d="M 398 180.582031 L 410 180.582031 L 410 369.414062 L 398 369.414062 Z M 398 180.582031 "/>
</clipPath>
<clipPath id="clip5">
  <path d="M 369 197.75 L 372 197.75 L 372 352.25 L 369 352.25 Z M 369 197.75 "/>
</clipPath>
<clipPath id="clip6">
  <path d="M 279 180.582031 L 313 180.582031 L 313 369.414062 L 279 369.414062 Z M 279 180.582031 "/>
</clipPath>
<clipPath id="clip7">
  <path d="M 212 172 L 237 172 L 237 378 L 212 378 Z M 212 172 "/>
</clipPath>
</defs>
<g id="surface53">
<rect x="0" y="0" width="900" height="550" style="fill:rgb(15.000001%,15.000001%,15.000001%);fill-opacity:1;stroke:none;"/>
<path style="fill:none;stroke-width:4;stroke-linecap:round;stroke-linejoin:bevel;stroke:rgb(82.499999%,82.499999%,82.499999%);stroke-opacity:0.5;stroke-miterlimit:10;" d="M 0 275 L 900 275 "/>
<path style="fill:none;stroke-width:0.1;stroke-linecap:round;stroke-linejoin:bevel;stroke:rgb(60%,60%,60%);stroke-opacity:1;stroke-miterlimit:10;" d="M 3786.404524 1.055256 L 31.710489 1.160653 L 30.788188 1.145455 L 27.234069 1.645881 L 26.389609 1.681392 L 24.33691 2.43054 L 23.165887 2.513494 L 22.883785 2.538494 L 22.203103 2.538636 L 21.457506 2.546307 L 20.827819 2.627983 L 20.256086 2.67642 L 19.644864 2.755682 L 19.178529 2.816193 L 17.806938 2.981818 L 16.775546 2.866051 L 16.021853 2.778267 L 14.998131 2.833239 L -0.000021922 -0.00482955 " transform="matrix(27.5,0,0,27.5,-186.327522,275)"/>
<path style="fill:none;stroke-width:0.1;stroke-linecap:round;stroke-linejoin:bevel;stroke:rgb(60%,60%,60%);stroke-opacity:1;stroke-miterlimit:10;" d="M 3786.405802 1.024148 L 31.711768 1.127557 L 30.795575 1.112926 L 27.239467 1.597727 L 26.409495 1.631392 L 24.360347 2.346307 L 23.162052 2.428409 L 22.896285 2.451278 L 22.192734 2.45142 L 21.470149 2.458807 L 20.827819 2.539347 L 20.256086 2.586222 L 19.644864 2.662784 L 19.169012 2.722301 L 17.752677 2.887642 L 16.785489 2.785227 L 15.961626 2.69375 L 14.96958 2.74446 L -0.000021922 -0.00610795 " transform="matrix(27.5,0,0,27.5,-186.327522,275)"/>
<path style="fill:none;stroke-width:0.1;stroke-linecap:round;stroke-linejoin:bevel;stroke:rgb(60%,60%,60%);stroke-opacity:1;stroke-miterlimit:10;" d="M 3786.40708 0.995028 L 31.713046 1.09446 L 30.802819 1.080256 L 27.24458 1.549574 L 26.428529 1.581676 L 24.382364 2.264205 L 23.158501 2.34517 L 22.908217 2.366051 L 22.182933 2.366335 L 21.481938 2.373295 L 20.827819 2.452415 L 20.256086 2.497727 L 19.644864 2.571591 L 19.160063 2.630256 L 17.701114 2.794602 L 16.795291 2.703977 L 15.904381 2.609517 L 14.942024 2.65625 L -0.000021922 -0.00752841 " transform="matrix(27.5,0,0,27.5,-186.327522,275)"/>
<path style="fill:none;stroke-width:0.1;stroke-linecap:round;stroke-linejoin:bevel;stroke:rgb(60%,60%,60%);stroke-opacity:1;stroke-miterlimit:10;" d="M 3786.408359 0.964347 L 31.714325 1.061222 L 30.809779 1.047585 L 27.249694 1.501562 L 26.446711 1.532102 L 24.403103 2.183807 L 23.155092 2.263636 L 22.919296 2.282528 L 22.1737 2.282955 L 21.49316 2.289489 L 20.827819 2.367045 L 20.256086 2.410795 L 19.644864 2.482102 L 19.151399 2.539631 L 17.652393 2.702557 L 16.804666 2.622159 L 15.849836 2.52571 L 14.915745 2.56875 L -0.000021922 -0.00894886 " transform="matrix(27.5,0,0,27.5,-186.327522,275)"/>
<path style="fill:none;stroke-width:0.1;stroke-linecap:round;stroke-linejoin:bevel;stroke:rgb(60%,60%,60%);stroke-opacity:1;stroke-miterlimit:10;" d="M 3786.409495 0.933807 L 31.715461 1.028125 L 30.816455 1.014915 L 27.254524 1.453693 L 26.464325 1.48267 L 24.422563 2.105256 L 23.151825 2.183523 L 22.92995 2.20071 L 22.165035 2.201136 L 21.503671 2.207386 L 20.827819 2.283239 L 20.256086 2.325284 L 19.644864 2.393892 L 19.143302 2.450284 L 17.606086 2.611364 L 16.813899 2.540199 L 15.798131 2.442045 L 14.890603 2.481818 L -0.000021922 -0.0100852 " transform="matrix(27.5,0,0,27.5,-186.327522,275)"/>
<path style="fill:none;stroke-width:0.1;stroke-linecap:round;stroke-linejoin:bevel;stroke:rgb(60%,60%,60%);stroke-opacity:1;stroke-miterlimit:10;" d="M 3786.410631 0.905114 L 31.716597 0.994886 L 30.822989 0.982244 L 27.259211 1.405824 L 26.481228 1.433381 L 24.441029 2.027983 L 23.1487 2.104687 L 22.939893 2.120312 L 22.156796 2.120739 L 21.513756 2.126562 L 20.827819 2.20071 L 20.256086 2.241193 L 19.644864 2.307244 L 19.135631 2.362216 L 17.562052 2.520881 L 16.822847 2.457955 L 15.748984 2.358949 L 14.866597 2.395597 L -0.000021922 -0.0109375 " transform="matrix(27.5,0,0,27.5,-186.327522,275)"/>
<path style="fill:none;stroke-width:0.1;stroke-linecap:round;stroke-linejoin:bevel;stroke:rgb(60%,60%,60%);stroke-opacity:1;stroke-miterlimit:10;" d="M 3786.411768 0.874858 L 31.717734 0.96179 L 30.829381 0.949574 L 27.263756 1.358239 L 26.497421 1.384375 L 24.458359 1.952131 L 23.145717 2.026989 L 22.94941 2.041193 L 22.148984 2.041477 L 21.523274 2.047017 L 20.827819 2.119176 L 20.256086 2.158239 L 19.644864 2.221733 L 19.128245 2.275426 L 17.520433 2.43125 L 16.831512 2.37571 L 15.702251 2.276136 L 14.843586 2.309943 L -0.000021922 -0.0115057 " transform="matrix(27.5,0,0,27.5,-186.327522,275)"/>
<path style="fill:none;stroke-width:0.1;stroke-linecap:round;stroke-linejoin:bevel;stroke:rgb(60%,60%,60%);stroke-opacity:1;stroke-miterlimit:10;" d="M 3786.412762 0.843324 L 31.718728 0.928551 L 30.835489 0.916903 L 27.26816 1.310653 L 26.512904 1.335369 L 24.474836 1.877273 L 23.143018 1.950426 L 22.958359 1.963068 L 22.141455 1.963494 L 21.532222 1.968608 L 20.827819 2.03892 L 20.256086 2.076278 L 19.645006 2.137216 L 19.121285 2.189489 L 17.480802 2.34233 L 16.839893 2.293324 L 15.657933 2.19375 L 14.821711 2.225 L -0.000021922 -0.0119318 " transform="matrix(27.5,0,0,27.5,-186.327522,275)"/>
<path style="fill:none;stroke-width:0.1;stroke-linecap:round;stroke-linejoin:bevel;stroke:rgb(60%,60%,60%);stroke-opacity:1;stroke-miterlimit:10;" d="M 3786.413899 0.813494 L 31.719864 0.895455 L 30.841313 0.884233 L 27.272279 1.263068 L 26.527819 1.286506 L 24.490461 1.803693 L 23.140319 1.874716 L 22.966881 1.886222 L 22.134495 1.886506 L 21.540745 1.891335 L 20.827819 1.959517 L 20.256086 1.995455 L 19.645006 2.053835 L 19.114609 2.104545 L 17.44316 2.253977 L 16.847989 2.210795 L 15.615887 2.11179 L 14.80083 2.140625 L -0.000021922 -0.0120739 " transform="matrix(27.5,0,0,27.5,-186.327522,275)"/>
<path style="fill:none;stroke-width:0.1;stroke-linecap:round;stroke-linejoin:bevel;stroke:rgb(60%,60%,60%);stroke-opacity:1;stroke-miterlimit:10;" d="M 3786.414893 0.783807 L 31.720859 0.862216 L 30.846995 0.851562 L 27.276256 1.215625 L 26.542024 1.237926 L 24.505234 1.730824 L 23.137904 1.799858 L 22.974978 1.810227 L 22.127819 1.810511 L 21.548842 1.814915 L 20.827819 1.880966 L 20.256086 1.915483 L 19.645006 1.971449 L 19.108217 2.020597 L 17.407506 2.166335 L 16.85566 2.128267 L 15.575972 2.030256 L 14.780944 2.056818 L -0.000021922 -0.0120739 " transform="matrix(27.5,0,0,27.5,-186.327522,275)"/>
<path style="fill:none;stroke-width:0.1;stroke-linecap:round;stroke-linejoin:bevel;stroke:rgb(60%,60%,60%);stroke-opacity:1;stroke-miterlimit:10;" d="M 3786.415745 0.754119 L 31.721711 0.829119 L 30.852535 0.818892 L 27.280234 1.168324 L 26.55566 1.189347 L 24.519154 1.658949 L 23.135489 1.725852 L 22.982649 1.735085 L 22.121427 1.735369 L 21.556512 1.739489 L 20.827961 1.803409 L 20.256086 1.836222 L 19.645006 1.889773 L 19.102251 1.937358 L 17.3737 2.079119 L 16.863188 2.045881 L 15.538188 1.949006 L 14.76191 1.97358 L -0.000021922 -0.0117898 " transform="matrix(27.5,0,0,27.5,-186.327522,275)"/>
<path style="fill:none;stroke-width:0.1;stroke-linecap:round;stroke-linejoin:bevel;stroke:rgb(60%,60%,60%);stroke-opacity:1;stroke-miterlimit:10;" d="M 3786.416739 0.723437 L 31.722705 0.795881 L 30.857649 0.78608 L 27.283927 1.121023 L 26.568728 1.140909 L 24.532364 1.587784 L 23.133217 1.652415 L 22.989893 1.660795 L 22.115461 1.660937 L 21.563756 1.664773 L 20.827961 1.72642 L 20.256086 1.757812 L 19.645006 1.809091 L 19.096569 1.854972 L 17.341739 1.992472 L 16.870291 1.963352 L 15.502535 1.868182 L 14.744012 1.890909 L -0.000021922 -0.0115057 " transform="matrix(27.5,0,0,27.5,-186.327522,275)"/>
<path style="fill:none;stroke-width:0.1;stroke-linecap:round;stroke-linejoin:bevel;stroke:rgb(60%,60%,60%);stroke-opacity:1;stroke-miterlimit:10;" d="M 3786.417592 0.693892 L 31.723558 0.762784 L 30.862762 0.753409 L 27.287478 1.073722 L 26.581086 1.092614 L 24.544864 1.517472 L 23.131086 1.579687 L 22.996853 1.587216 L 22.109779 1.587358 L 21.570575 1.590909 L 20.827961 1.650284 L 20.256086 1.680256 L 19.645006 1.728977 L 19.091171 1.773295 L 17.311342 1.906392 L 16.877251 1.880966 L 15.468586 1.787784 L 14.726825 1.808665 L -0.000021922 -0.0110795 " transform="matrix(27.5,0,0,27.5,-186.327522,275)"/>
<path style="fill:none;stroke-width:0.1;stroke-linecap:round;stroke-linejoin:bevel;stroke:rgb(60%,60%,60%);stroke-opacity:1;stroke-miterlimit:10;" d="M 3786.418444 0.663494 L 31.72441 0.729545 L 30.86745 0.720739 L 27.290887 1.026705 L 26.592876 1.044318 L 24.556654 1.447727 L 23.128955 1.50767 L 23.003245 1.514205 L 22.104524 1.514347 L 21.577109 1.517614 L 20.827961 1.574574 L 20.256086 1.603125 L 19.645006 1.649574 L 19.086058 1.692187 L 17.282649 1.820739 L 16.883785 1.79858 L 15.436626 1.70767 L 14.710631 1.726989 L -0.000021922 -0.0105114 " transform="matrix(27.5,0,0,27.5,-186.327522,275)"/>
<path style="fill:none;stroke-width:0.1;stroke-linecap:round;stroke-linejoin:bevel;stroke:rgb(60%,60%,60%);stroke-opacity:1;stroke-miterlimit:10;" d="M 3786.419296 0.633097 L 31.725262 0.696449 L 30.872137 0.688068 L 27.294154 0.979545 L 26.604097 0.996307 L 24.567734 1.378551 L 23.127109 1.43608 L 23.009353 1.441903 L 22.09941 1.442045 L 21.583217 1.445028 L 20.827961 1.499574 L 20.256086 1.526705 L 19.645006 1.570881 L 19.081086 1.611648 L 17.255518 1.735369 L 16.890035 1.716193 L 15.406512 1.627841 L 14.695291 1.645739 L -0.000021922 -0.00994318 " transform="matrix(27.5,0,0,27.5,-186.327522,275)"/>
<path style="fill:none;stroke-width:0.1;stroke-linecap:round;stroke-linejoin:bevel;stroke:rgb(60%,60%,60%);stroke-opacity:1;stroke-miterlimit:10;" d="M 3786.420006 0.602841 L 31.725972 0.66321 L 30.876399 0.655256 L 27.297137 0.932528 L 26.614751 0.948295 L 24.578245 1.309801 L 23.125262 1.364915 L 23.015177 1.37017 L 22.09458 1.37017 L 21.588899 1.373011 L 20.827961 1.425142 L 20.256086 1.450852 L 19.645006 1.492756 L 19.076541 1.531676 L 17.22995 1.650426 L 16.896001 1.633949 L 15.378103 1.548295 L 14.68066 1.564773 L -0.000021922 -0.00923295 " transform="matrix(27.5,0,0,27.5,-186.327522,275)"/>
<path style="fill:none;stroke-width:0.1;stroke-linecap:round;stroke-linejoin:bevel;stroke:rgb(60%,60%,60%);stroke-opacity:1;stroke-miterlimit:10;" d="M 3786.420717 0.572727 L 31.726683 0.630114 L 30.880518 0.622585 L 27.30012 0.885653 L 26.624694 0.900284 L 24.588046 1.241761 L 23.123558 1.294318 L 23.020717 1.298864 L 22.090035 1.298864 L 21.594438 1.30142 L 20.827961 1.351136 L 20.256086 1.375568 L 19.645006 1.415199 L 19.072279 1.452273 L 17.205944 1.565909 L 16.901683 1.551847 L 15.351399 1.469176 L 14.667024 1.484375 L -0.000021922 -0.00866477 " transform="matrix(27.5,0,0,27.5,-186.327522,275)"/>
<path style="fill:none;stroke-width:0.1;stroke-linecap:round;stroke-linejoin:bevel;stroke:rgb(60%,60%,60%);stroke-opacity:1;stroke-miterlimit:10;" d="M 3786.421427 0.542614 L 31.727393 0.596875 L 30.884495 0.589773 L 27.302819 0.838636 L 26.634211 0.852415 L 24.597421 1.174006 L 23.121995 1.224006 L 23.02583 1.228125 L 22.085916 1.227983 L 21.599552 1.230398 L 20.827961 1.277699 L 20.256086 1.30071 L 19.645006 1.338068 L 19.06816 1.373295 L 17.183217 1.481676 L 16.90708 1.469602 L 15.326256 1.390199 L 14.654097 1.404119 L -0.000021922 -0.00795455 " transform="matrix(27.5,0,0,27.5,-186.327522,275)"/>
<path style="fill:none;stroke-width:0.1;stroke-linecap:round;stroke-linejoin:bevel;stroke:rgb(60%,60%,60%);stroke-opacity:1;stroke-miterlimit:10;" d="M 3786.422137 0.512642 L 31.728103 0.563778 L 30.888188 0.557102 L 27.305518 0.791761 L 26.64316 0.804688 L 24.606086 1.106818 L 23.120433 1.154119 L 23.03066 1.15767 L 22.081938 1.15767 L 21.604381 1.159801 L 20.827961 1.204545 L 20.256086 1.226136 L 19.645006 1.261364 L 19.064325 1.294886 L 17.162052 1.397727 L 16.912194 1.3875 L 15.302677 1.311648 L 14.642024 1.324432 L -0.000021922 -0.00724432 " transform="matrix(27.5,0,0,27.5,-186.327522,275)"/>
<path style="fill:none;stroke-width:0.1;stroke-linecap:round;stroke-linejoin:bevel;stroke:rgb(60%,60%,60%);stroke-opacity:1;stroke-miterlimit:10;" d="M 3786.422705 0.48196 L 31.728671 0.530682 L 30.891739 0.52429 L 27.307933 0.745028 L 26.651683 0.75696 L 24.614183 1.039915 L 23.119012 1.084659 L 23.035063 1.087784 L 22.078103 1.087642 L 21.608785 1.089631 L 20.827961 1.131818 L 20.256086 1.152131 L 19.645006 1.185227 L 19.060774 1.216761 L 17.142166 1.314205 L 16.917024 1.30554 L 15.280802 1.233239 L 14.63066 1.244886 L -0.000021922 -0.00653409 " transform="matrix(27.5,0,0,27.5,-186.327522,275)"/>
<path style="fill:none;stroke-width:0.1;stroke-linecap:round;stroke-linejoin:bevel;stroke:rgb(60%,60%,60%);stroke-opacity:1;stroke-miterlimit:10;" d="M 3786.423274 0.452131 L 31.729239 0.497443 L 30.895006 0.491619 L 27.310205 0.698295 L 26.659495 0.709375 L 24.621711 0.973437 L 23.117734 1.015483 L 23.039325 1.018182 L 22.074694 1.01804 L 21.613046 1.019886 L 20.827961 1.059517 L 20.256086 1.078551 L 19.645006 1.109375 L 19.057506 1.13892 L 17.1237 1.230824 L 16.921427 1.22358 L 15.260347 1.154972 L 14.620006 1.165767 L -0.000021922 -0.00596591 " transform="matrix(27.5,0,0,27.5,-186.327522,275)"/>
<path style="fill:none;stroke-width:0.1;stroke-linecap:round;stroke-linejoin:bevel;stroke:rgb(60%,60%,60%);stroke-opacity:1;stroke-miterlimit:10;" d="M 3786.423842 0.422443 L 31.729808 0.464347 L 30.898131 0.458807 L 27.312478 0.651562 L 26.666881 0.66179 L 24.628813 0.907102 L 23.116455 0.946591 L 23.04316 0.948864 L 22.071427 0.948722 L 21.616881 0.950426 L 20.827961 0.9875 L 20.256086 1.005114 L 19.645006 1.033807 L 19.054381 1.061648 L 17.106512 1.147727 L 16.925688 1.141761 L 15.241313 1.076989 L 14.610205 1.08679 L -0.000021922 -0.00539773 " transform="matrix(27.5,0,0,27.5,-186.327522,275)"/>
<path style="fill:none;stroke-width:0.1;stroke-linecap:round;stroke-linejoin:bevel;stroke:rgb(60%,60%,60%);stroke-opacity:1;stroke-miterlimit:10;" d="M 3786.42441 0.391903 L 31.730234 0.431108 L 30.900972 0.425994 L 27.314467 0.60483 L 26.6737 0.614347 L 24.635347 0.841193 L 23.115319 0.877841 L 23.046853 0.879972 L 22.068444 0.87983 L 21.620433 0.881392 L 20.827961 0.915767 L 20.256086 0.932102 L 19.645006 0.958665 L 19.051541 0.984517 L 17.090603 1.064773 L 16.929524 1.059943 L 15.223842 0.99929 L 14.600972 1.008239 L -0.000021922 -0.00482955 " transform="matrix(27.5,0,0,27.5,-186.327522,275)"/>
<path style="fill:none;stroke-width:0.1;stroke-linecap:round;stroke-linejoin:bevel;stroke:rgb(60%,60%,60%);stroke-opacity:1;stroke-miterlimit:10;" d="M 3786.424836 0.361648 L 31.730802 0.398011 L 30.903529 0.393324 L 27.316313 0.558239 L 26.67995 0.566903 L 24.641313 0.775568 L 23.114325 0.809517 L 23.05012 0.811222 L 22.065745 0.81108 L 21.623842 0.8125 L 20.827961 0.844318 L 20.256086 0.859375 L 19.645006 0.883807 L 19.048842 0.90767 L 17.075972 0.982102 L 16.933217 0.978125 L 15.207649 0.921733 L 14.592592 0.92983 L -0.000021922 -0.00426136 " transform="matrix(27.5,0,0,27.5,-186.327522,275)"/>
<path style="fill:none;stroke-width:0.1;stroke-linecap:round;stroke-linejoin:bevel;stroke:rgb(60%,60%,60%);stroke-opacity:1;stroke-miterlimit:10;" d="M 3786.425262 0.331392 L 31.731228 0.364773 L 30.906086 0.360511 L 27.318018 0.511506 L 26.685631 0.51946 L 24.646711 0.710227 L 23.11333 0.741335 L 23.053103 0.742756 L 22.063188 0.742614 L 21.626825 0.743892 L 20.827961 0.773153 L 20.256086 0.786932 L 19.645006 0.809233 L 19.046427 0.83125 L 17.062478 0.899716 L 16.936484 0.896449 L 15.192876 0.844318 L 14.584921 0.851562 L -0.000021922 -0.00369318 " transform="matrix(27.5,0,0,27.5,-186.327522,275)"/>
<path style="fill:none;stroke-width:0.1;stroke-linecap:round;stroke-linejoin:bevel;stroke:rgb(60%,60%,60%);stroke-opacity:1;stroke-miterlimit:10;" d="M 3786.425688 0.301278 L 31.731654 0.331676 L 30.908217 0.327699 L 27.31958 0.464915 L 26.690887 0.472017 L 24.651683 0.644886 L 23.112478 0.673295 L 23.055944 0.674574 L 22.060916 0.674432 L 21.629666 0.675568 L 20.827961 0.702131 L 20.256086 0.714631 L 19.645006 0.734943 L 19.044154 0.754972 L 17.050404 0.81733 L 16.939467 0.814773 L 15.179524 0.767045 L 14.577961 0.77358 L -0.000021922 -0.00326705 " transform="matrix(27.5,0,0,27.5,-186.327522,275)"/>
<path style="fill:none;stroke-width:0.1;stroke-linecap:round;stroke-linejoin:bevel;stroke:rgb(60%,60%,60%);stroke-opacity:1;stroke-miterlimit:10;" d="M 3786.425972 0.271165 L 31.731938 0.298438 L 30.910205 0.295028 L 27.321001 0.418324 L 26.695717 0.424716 L 24.656228 0.579972 L 23.111626 0.60554 L 23.058501 0.606534 L 22.058927 0.606392 L 21.63208 0.607386 L 20.827961 0.631392 L 20.256086 0.642614 L 19.645006 0.660795 L 19.042166 0.678835 L 17.039467 0.735227 L 16.942166 0.733239 L 15.16745 0.689915 L 14.571569 0.695739 L -0.000021922 -0.00284091 " transform="matrix(27.5,0,0,27.5,-186.327522,275)"/>
<path style="fill:none;stroke-width:0.1;stroke-linecap:round;stroke-linejoin:bevel;stroke:rgb(60%,60%,60%);stroke-opacity:1;stroke-miterlimit:10;" d="M 3786.426256 0.241051 L 31.732222 0.265341 L 30.912052 0.262216 L 27.322137 0.371875 L 26.699978 0.377415 L 24.660205 0.515057 L 23.110916 0.537784 L 23.060631 0.538778 L 22.05708 0.538636 L 21.634353 0.539489 L 20.827961 0.560795 L 20.256086 0.570739 L 19.645006 0.586932 L 19.040461 0.602983 L 17.029666 0.653125 L 16.944722 0.651562 L 15.156654 0.612926 L 14.565887 0.61804 L -0.000021922 -0.00241477 " transform="matrix(27.5,0,0,27.5,-186.327522,275)"/>
<path style="fill:none;stroke-width:0.1;stroke-linecap:round;stroke-linejoin:bevel;stroke:rgb(60%,60%,60%);stroke-opacity:1;stroke-miterlimit:10;" d="M 3786.426541 0.21108 L 31.732506 0.232102 L 30.913614 0.229403 L 27.323274 0.325284 L 26.703671 0.330256 L 24.663756 0.450426 L 23.110347 0.470313 L 23.06262 0.471023 L 22.055376 0.470881 L 21.6362 0.471733 L 20.827961 0.490341 L 20.256086 0.499006 L 19.645006 0.51321 L 19.038899 0.527273 L 17.021001 0.571307 L 16.946853 0.570028 L 15.147279 0.53608 L 14.561058 0.540483 L -0.000021922 -0.00198864 " transform="matrix(27.5,0,0,27.5,-186.327522,275)"/>
<path style="fill:none;stroke-width:0.1;stroke-linecap:round;stroke-linejoin:bevel;stroke:rgb(60%,60%,60%);stroke-opacity:1;stroke-miterlimit:10;" d="M 3786.426825 0.180966 L 31.732791 0.199006 L 30.915035 0.196733 L 27.324268 0.278835 L 26.706938 0.282955 L 24.666739 0.385795 L 23.109779 0.402983 L 23.064325 0.403551 L 22.054097 0.403409 L 21.637904 0.403977 L 20.827961 0.420028 L 20.256086 0.427557 L 19.645006 0.439631 L 19.03762 0.451705 L 17.013614 0.489489 L 16.9487 0.488494 L 15.139183 0.459375 L 14.556654 0.463068 L -0.000021922 -0.00170455 " transform="matrix(27.5,0,0,27.5,-186.327522,275)"/>
<path style="fill:none;stroke-width:0.1;stroke-linecap:round;stroke-linejoin:bevel;stroke:rgb(60%,60%,60%);stroke-opacity:1;stroke-miterlimit:10;" d="M 3786.427109 0.15071 L 31.732933 0.165767 L 30.916171 0.16392 L 27.32512 0.232386 L 26.709637 0.235795 L 24.669296 0.321307 L 23.109353 0.335653 L 23.065745 0.33608 L 22.052819 0.335938 L 21.639325 0.336506 L 20.827961 0.349858 L 20.256086 0.356108 L 19.645006 0.366193 L 19.036484 0.376136 L 17.007364 0.40767 L 16.950262 0.407102 L 15.132222 0.38267 L 14.553103 0.385653 L -0.000021922 -0.00127841 " transform="matrix(27.5,0,0,27.5,-186.327522,275)"/>
<path style="fill:none;stroke-width:0.1;stroke-linecap:round;stroke-linejoin:bevel;stroke:rgb(60%,60%,60%);stroke-opacity:1;stroke-miterlimit:10;" d="M 3786.427251 0.120597 L 31.733217 0.13267 L 30.917166 0.131108 L 27.325688 0.185795 L 26.711768 0.188636 L 24.671427 0.25696 L 23.108927 0.268324 L 23.066881 0.26875 L 22.051825 0.26875 L 21.640461 0.269034 L 20.827961 0.27983 L 20.256086 0.284801 L 19.645006 0.292756 L 19.035489 0.300852 L 17.002251 0.326136 L 16.951541 0.32571 L 15.126683 0.306108 L 14.55012 0.308523 L -0.000021922 -0.000994318 " transform="matrix(27.5,0,0,27.5,-186.327522,275)"/>
<path style="fill:none;stroke-width:0.1;stroke-linecap:round;stroke-linejoin:bevel;stroke:rgb(60%,60%,60%);stroke-opacity:1;stroke-miterlimit:10;" d="M 3786.427393 0.090483 L 31.733359 0.0994318 L 30.917876 0.0982955 L 27.326256 0.139347 L 26.713614 0.141477 L 24.672989 0.192614 L 23.108643 0.201278 L 23.067734 0.201562 L 22.051114 0.20142 L 21.641455 0.201705 L 20.827961 0.209801 L 20.256086 0.213494 L 19.645006 0.21946 L 19.034779 0.225568 L 16.998274 0.24446 L 16.952535 0.244176 L 15.122279 0.229545 L 14.547847 0.23125 L -0.000021922 -0.000710227 " transform="matrix(27.5,0,0,27.5,-186.327522,275)"/>
<path style="fill:none;stroke-width:0.1;stroke-linecap:round;stroke-linejoin:bevel;stroke:rgb(60%,60%,60%);stroke-opacity:1;stroke-miterlimit:10;" d="M 3786.427393 0.0602273 L 31.733359 0.0663352 L 30.918444 0.065625 L 27.326683 0.0928977 L 26.714751 0.0943182 L 24.674268 0.128409 L 23.108501 0.134091 L 23.068444 0.134375 L 22.050546 0.134233 L 21.642024 0.134517 L 20.827961 0.139773 L 20.256086 0.14233 L 19.645006 0.146307 L 19.034211 0.150284 L 16.995433 0.162926 L 16.953245 0.162784 L 15.119154 0.152983 L 14.546143 0.154119 L -0.000021922 -0.000568182 " transform="matrix(27.5,0,0,27.5,-186.327522,275)"/>
<path style="fill:none;stroke-width:0.1;stroke-linecap:round;stroke-linejoin:bevel;stroke:rgb(60%,60%,60%);stroke-opacity:1;stroke-miterlimit:10;" d="M 3786.427535 0.0301136 L 31.733501 0.0330966 L 30.918728 0.0328125 L 27.326825 0.0464489 L 26.715603 0.0471591 L 24.674836 0.0642045 L 23.108359 0.0670455 L 23.06887 0.0671875 L 21.64245 0.0671875 L 20.827961 0.0698864 L 20.256086 0.0711648 L 19.033927 0.075142 L 16.993728 0.0815341 L 16.953671 0.081392 L 15.117308 0.0764205 L 14.545291 0.0771307 L -0.000021922 -0.000284091 " transform="matrix(27.5,0,0,27.5,-186.327522,275)"/>
<path style="fill:none;stroke-width:0.1;stroke-linecap:round;stroke-linejoin:bevel;stroke:rgb(60%,60%,60%);stroke-opacity:1;stroke-miterlimit:10;" d="M 3786.427535 0 L -0.000021922 0 " transform="matrix(27.5,0,0,27.5,-186.327522,275)"/>
<path style="fill:none;stroke-width:0.1;stroke-linecap:round;stroke-linejoin:bevel;stroke:rgb(60%,60%,60%);stroke-opacity:1;stroke-miterlimit:10;" d="M 3786.427535 -0.0301136 L 31.733501 -0.0330966 L 30.918728 -0.0328125 L 27.326825 -0.0464489 L 26.715603 -0.0471591 L 24.674836 -0.0642045 L 23.108359 -0.0670455 L 23.06887 -0.0671875 L 21.64245 -0.0671875 L 20.827961 -0.0698864 L 20.256086 -0.0711648 L 19.033927 -0.075142 L 16.993728 -0.0815341 L 16.953671 -0.081392 L 15.117308 -0.0764205 L 14.545291 -0.0771307 L -0.000021922 0.000284091 " transform="matrix(27.5,0,0,27.5,-186.327522,275)"/>
<path style="fill:none;stroke-width:0.1;stroke-linecap:round;stroke-linejoin:bevel;stroke:rgb(60%,60%,60%);stroke-opacity:1;stroke-miterlimit:10;" d="M 3786.427393 -0.0602273 L 31.733359 -0.0663352 L 30.918444 -0.065625 L 27.326683 -0.0928977 L 26.714751 -0.0943182 L 24.674268 -0.128409 L 23.108501 -0.134091 L 23.068444 -0.134375 L 22.050546 -0.134233 L 21.642024 -0.134517 L 20.827961 -0.139773 L 20.256086 -0.14233 L 19.645006 -0.146307 L 19.034211 -0.150284 L 16.995433 -0.162926 L 16.953245 -0.162784 L 15.119154 -0.152983 L 14.546143 -0.154119 L -0.000021922 0.000568182 " transform="matrix(27.5,0,0,27.5,-186.327522,275)"/>
<path style="fill:none;stroke-width:0.1;stroke-linecap:round;stroke-linejoin:bevel;stroke:rgb(60%,60%,60%);stroke-opacity:1;stroke-miterlimit:10;" d="M 3786.427393 -0.090483 L 31.733359 -0.0994318 L 30.917876 -0.0982955 L 27.326256 -0.139347 L 26.713614 -0.141477 L 24.672989 -0.192614 L 23.108643 -0.201278 L 23.067734 -0.201562 L 22.051114 -0.20142 L 21.641455 -0.201705 L 20.827961 -0.209801 L 20.256086 -0.213494 L 19.645006 -0.21946 L 19.034779 -0.225568 L 16.998274 -0.24446 L 16.952535 -0.244176 L 15.122279 -0.229545 L 14.547847 -0.23125 L -0.000021922 0.000710227 " transform="matrix(27.5,0,0,27.5,-186.327522,275)"/>
<path style="fill:none;stroke-width:0.1;stroke-linecap:round;stroke-linejoin:bevel;stroke:rgb(60%,60%,60%);stroke-opacity:1;stroke-miterlimit:10;" d="M 3786.427251 -0.120597 L 31.733217 -0.13267 L 30.917166 -0.131108 L 27.325688 -0.185795 L 26.711768 -0.188636 L 24.671427 -0.25696 L 23.108927 -0.268324 L 23.066881 -0.26875 L 22.051825 -0.26875 L 21.640461 -0.269034 L 20.827961 -0.27983 L 20.256086 -0.284801 L 19.645006 -0.292756 L 19.035489 -0.300852 L 17.002251 -0.326136 L 16.951541 -0.32571 L 15.126683 -0.306108 L 14.55012 -0.308523 L -0.000021922 0.000994318 " transform="matrix(27.5,0,0,27.5,-186.327522,275)"/>
<path style="fill:none;stroke-width:0.1;stroke-linecap:round;stroke-linejoin:bevel;stroke:rgb(60%,60%,60%);stroke-opacity:1;stroke-miterlimit:10;" d="M 3786.427109 -0.15071 L 31.732933 -0.165767 L 30.916171 -0.16392 L 27.32512 -0.232386 L 26.709637 -0.235795 L 24.669296 -0.321307 L 23.109353 -0.335653 L 23.065745 -0.33608 L 22.052819 -0.335938 L 21.639325 -0.336506 L 20.827961 -0.349858 L 20.256086 -0.356108 L 19.645006 -0.366193 L 19.036484 -0.376136 L 17.007364 -0.40767 L 16.950262 -0.407102 L 15.132222 -0.38267 L 14.553103 -0.385653 L -0.000021922 0.00127841 " transform="matrix(27.5,0,0,27.5,-186.327522,275)"/>
<path style="fill:none;stroke-width:0.1;stroke-linecap:round;stroke-linejoin:bevel;stroke:rgb(60%,60%,60%);stroke-opacity:1;stroke-miterlimit:10;" d="M 3786.426825 -0.180966 L 31.732791 -0.199006 L 30.915035 -0.196733 L 27.324268 -0.278835 L 26.706938 -0.282955 L 24.666739 -0.385795 L 23.109779 -0.402983 L 23.064325 -0.403551 L 22.054097 -0.403409 L 21.637904 -0.403977 L 20.827961 -0.420028 L 20.256086 -0.427557 L 19.645006 -0.439631 L 19.03762 -0.451705 L 17.013614 -0.489489 L 16.9487 -0.488494 L 15.139183 -0.459375 L 14.556654 -0.463068 L -0.000021922 0.00170455 " transform="matrix(27.5,0,0,27.5,-186.327522,275)"/>
<path style="fill:none;stroke-width:0.1;stroke-linecap:round;stroke-linejoin:bevel;stroke:rgb(60%,60%,60%);stroke-opacity:1;stroke-miterlimit:10;" d="M 3786.426541 -0.21108 L 31.732506 -0.232102 L 30.913614 -0.229403 L 27.323274 -0.325284 L 26.703671 -0.330256 L 24.663756 -0.450426 L 23.110347 -0.470313 L 23.06262 -0.471023 L 22.055376 -0.470881 L 21.6362 -0.471733 L 20.827961 -0.490341 L 20.256086 -0.499006 L 19.645006 -0.51321 L 19.038899 -0.527273 L 17.021001 -0.571307 L 16.946853 -0.570028 L 15.147279 -0.53608 L 14.561058 -0.540483 L -0.000021922 0.00198864 " transform="matrix(27.5,0,0,27.5,-186.327522,275)"/>
<path style="fill:none;stroke-width:0.1;stroke-linecap:round;stroke-linejoin:bevel;stroke:rgb(60%,60%,60%);stroke-opacity:1;stroke-miterlimit:10;" d="M 3786.426256 -0.241051 L 31.732222 -0.265341 L 30.912052 -0.262216 L 27.322137 -0.371875 L 26.699978 -0.377415 L 24.660205 -0.515057 L 23.110916 -0.537784 L 23.060631 -0.538778 L 22.05708 -0.538636 L 21.634353 -0.539489 L 20.827961 -0.560795 L 20.256086 -0.570739 L 19.645006 -0.586932 L 19.040461 -0.602983 L 17.029666 -0.653125 L 16.944722 -0.651563 L 15.156654 -0.612926 L 14.565887 -0.61804 L -0.000021922 0.00241477 " transform="matrix(27.5,0,0,27.5,-186.327522,275)"/>
<path style="fill:none;stroke-width:0.1;stroke-linecap:round;stroke-linejoin:bevel;stroke:rgb(60%,60%,60%);stroke-opacity:1;stroke-miterlimit:10;" d="M 3786.425972 -0.271165 L 31.731938 -0.298438 L 30.910205 -0.295028 L 27.321001 -0.418324 L 26.695717 -0.424716 L 24.656228 -0.579972 L 23.111626 -0.60554 L 23.058501 -0.606534 L 22.058927 -0.606392 L 21.63208 -0.607386 L 20.827961 -0.631392 L 20.256086 -0.642614 L 19.645006 -0.660795 L 19.042166 -0.678835 L 17.039467 -0.735227 L 16.942166 -0.733239 L 15.16745 -0.689915 L 14.571569 -0.695739 L -0.000021922 0.00284091 " transform="matrix(27.5,0,0,27.5,-186.327522,275)"/>
<path style="fill:none;stroke-width:0.1;stroke-linecap:round;stroke-linejoin:bevel;stroke:rgb(60%,60%,60%);stroke-opacity:1;stroke-miterlimit:10;" d="M 3786.425688 -0.301278 L 31.731654 -0.331676 L 30.908217 -0.327699 L 27.31958 -0.464915 L 26.690887 -0.472017 L 24.651683 -0.644886 L 23.112478 -0.673295 L 23.055944 -0.674574 L 22.060916 -0.674432 L 21.629666 -0.675568 L 20.827961 -0.702131 L 20.256086 -0.714631 L 19.645006 -0.734943 L 19.044154 -0.754972 L 17.050404 -0.81733 L 16.939467 -0.814773 L 15.179524 -0.767045 L 14.577961 -0.77358 L -0.000021922 0.00326705 " transform="matrix(27.5,0,0,27.5,-186.327522,275)"/>
<path style="fill:none;stroke-width:0.1;stroke-linecap:round;stroke-linejoin:bevel;stroke:rgb(60%,60%,60%);stroke-opacity:1;stroke-miterlimit:10;" d="M 3786.425262 -0.331392 L 31.731228 -0.364773 L 30.906086 -0.360511 L 27.318018 -0.511506 L 26.685631 -0.51946 L 24.646711 -0.710227 L 23.11333 -0.741335 L 23.053103 -0.742756 L 22.063188 -0.742614 L 21.626825 -0.743892 L 20.827961 -0.773153 L 20.256086 -0.786932 L 19.645006 -0.809233 L 19.046427 -0.83125 L 17.062478 -0.899716 L 16.936484 -0.896449 L 15.192876 -0.844318 L 14.584921 -0.851562 L -0.000021922 0.00369318 " transform="matrix(27.5,0,0,27.5,-186.327522,275)"/>
<path style="fill:none;stroke-width:0.1;stroke-linecap:round;stroke-linejoin:bevel;stroke:rgb(60%,60%,60%);stroke-opacity:1;stroke-miterlimit:10;" d="M 3786.424836 -0.361648 L 31.730802 -0.398011 L 30.903529 -0.393324 L 27.316313 -0.558239 L 26.67995 -0.566903 L 24.641313 -0.775568 L 23.114325 -0.809517 L 23.05012 -0.811222 L 22.065745 -0.81108 L 21.623842 -0.8125 L 20.827961 -0.844318 L 20.256086 -0.859375 L 19.645006 -0.883807 L 19.048842 -0.90767 L 17.075972 -0.982102 L 16.933217 -0.978125 L 15.207649 -0.921733 L 14.592592 -0.92983 L -0.000021922 0.00426136 " transform="matrix(27.5,0,0,27.5,-186.327522,275)"/>
<path style="fill:none;stroke-width:0.1;stroke-linecap:round;stroke-linejoin:bevel;stroke:rgb(60%,60%,60%);stroke-opacity:1;stroke-miterlimit:10;" d="M 3786.42441 -0.391903 L 31.730234 -0.431108 L 30.900972 -0.425994 L 27.314467 -0.60483 L 26.6737 -0.614347 L 24.635347 -0.841193 L 23.115319 -0.877841 L 23.046853 -0.879972 L 22.068444 -0.87983 L 21.620433 -0.881392 L 20.827961 -0.915767 L 20.256086 -0.932102 L 19.645006 -0.958665 L 19.051541 -0.984517 L 17.090603 -1.064773 L 16.929524 -1.059943 L 15.223842 -0.99929 L 14.600972 -1.008239 L -0.000021922 0.00482955 " transform="matrix(27.5,0,0,27.5,-186.327522,275)"/>
<path style="fill:none;stroke-width:0.1;stroke-linecap:round;stroke-linejoin:bevel;stroke:rgb(60%,60%,60%);stroke-opacity:1;stroke-miterlimit:10;" d="M 3786.423842 -0.422443 L 31.729808 -0.464347 L 30.898131 -0.458807 L 27.312478 -0.651563 L 26.666881 -0.66179 L 24.628813 -0.907102 L 23.116455 -0.946591 L 23.04316 -0.948864 L 22.071427 -0.948722 L 21.616881 -0.950426 L 20.827961 -0.9875 L 20.256086 -1.005114 L 19.645006 -1.033807 L 19.054381 -1.061648 L 17.106512 -1.147727 L 16.925688 -1.141761 L 15.241313 -1.076989 L 14.610205 -1.08679 L -0.000021922 0.00539773 " transform="matrix(27.5,0,0,27.5,-186.327522,275)"/>
<path style="fill:none;stroke-width:0.1;stroke-linecap:round;stroke-linejoin:bevel;stroke:rgb(60%,60%,60%);stroke-opacity:1;stroke-miterlimit:10;" d="M 3786.423274 -0.452131 L 31.729239 -0.497443 L 30.895006 -0.491619 L 27.310205 -0.698295 L 26.659495 -0.709375 L 24.621711 -0.973438 L 23.117734 -1.015483 L 23.039325 -1.018182 L 22.074694 -1.01804 L 21.613046 -1.019886 L 20.827961 -1.059517 L 20.256086 -1.078551 L 19.645006 -1.109375 L 19.057506 -1.13892 L 17.1237 -1.230824 L 16.921427 -1.22358 L 15.260347 -1.154972 L 14.620006 -1.165767 L -0.000021922 0.00596591 " transform="matrix(27.5,0,0,27.5,-186.327522,275)"/>
<path style="fill:none;stroke-width:0.1;stroke-linecap:round;stroke-linejoin:bevel;stroke:rgb(60%,60%,60%);stroke-opacity:1;stroke-miterlimit:10;" d="M 3786.422705 -0.48196 L 31.728671 -0.530682 L 30.891739 -0.52429 L 27.307933 -0.745028 L 26.651683 -0.75696 L 24.614183 -1.039915 L 23.119012 -1.084659 L 23.035063 -1.087784 L 22.078103 -1.087642 L 21.608785 -1.089631 L 20.827961 -1.131818 L 20.256086 -1.152131 L 19.645006 -1.185227 L 19.060774 -1.216761 L 17.142166 -1.314205 L 16.917024 -1.30554 L 15.280802 -1.233239 L 14.63066 -1.244886 L -0.000021922 0.00653409 " transform="matrix(27.5,0,0,27.5,-186.327522,275)"/>
<path style="fill:none;stroke-width:0.1;stroke-linecap:round;stroke-linejoin:bevel;stroke:rgb(60%,60%,60%);stroke-opacity:1;stroke-miterlimit:10;" d="M 3786.422137 -0.512642 L 31.728103 -0.563778 L 30.888188 -0.557102 L 27.305518 -0.791761 L 26.64316 -0.804688 L 24.606086 -1.106818 L 23.120433 -1.154119 L 23.03066 -1.15767 L 22.081938 -1.15767 L 21.604381 -1.159801 L 20.827961 -1.204545 L 20.256086 -1.226136 L 19.645006 -1.261364 L 19.064325 -1.294886 L 17.162052 -1.397727 L 16.912194 -1.3875 L 15.302677 -1.311648 L 14.642024 -1.324432 L -0.000021922 0.00724432 " transform="matrix(27.5,0,0,27.5,-186.327522,275)"/>
<path style="fill:none;stroke-width:0.1;stroke-linecap:round;stroke-linejoin:bevel;stroke:rgb(60%,60%,60%);stroke-opacity:1;stroke-miterlimit:10;" d="M 3786.421427 -0.542614 L 31.727393 -0.596875 L 30.884495 -0.589773 L 27.302819 -0.838636 L 26.634211 -0.852415 L 24.597421 -1.174006 L 23.121995 -1.224006 L 23.02583 -1.228125 L 22.085916 -1.227983 L 21.599552 -1.230398 L 20.827961 -1.277699 L 20.256086 -1.30071 L 19.645006 -1.338068 L 19.06816 -1.373295 L 17.183217 -1.481676 L 16.90708 -1.469602 L 15.326256 -1.390199 L 14.654097 -1.404119 L -0.000021922 0.00795455 " transform="matrix(27.5,0,0,27.5,-186.327522,275)"/>
<path style="fill:none;stroke-width:0.1;stroke-linecap:round;stroke-linejoin:bevel;stroke:rgb(60%,60%,60%);stroke-opacity:1;stroke-miterlimit:10;" d="M 3786.420717 -0.572727 L 31.726683 -0.630114 L 30.880518 -0.622585 L 27.30012 -0.885653 L 26.624694 -0.900284 L 24.588046 -1.241761 L 23.123558 -1.294318 L 23.020717 -1.298864 L 22.090035 -1.298864 L 21.594438 -1.30142 L 20.827961 -1.351136 L 20.256086 -1.375568 L 19.645006 -1.415199 L 19.072279 -1.452273 L 17.205944 -1.565909 L 16.901683 -1.551847 L 15.351399 -1.469176 L 14.667024 -1.484375 L -0.000021922 0.00866477 " transform="matrix(27.5,0,0,27.5,-186.327522,275)"/>
<path style="fill:none;stroke-width:0.1;stroke-linecap:round;stroke-linejoin:bevel;stroke:rgb(60%,60%,60%);stroke-opacity:1;stroke-miterlimit:10;" d="M 3786.420006 -0.602841 L 31.725972 -0.66321 L 30.876399 -0.655256 L 27.297137 -0.932528 L 26.614751 -0.948295 L 24.578245 -1.309801 L 23.125262 -1.364915 L 23.015177 -1.37017 L 22.09458 -1.37017 L 21.588899 -1.373011 L 20.827961 -1.425142 L 20.256086 -1.450852 L 19.645006 -1.492756 L 19.076541 -1.531676 L 17.22995 -1.650426 L 16.896001 -1.633949 L 15.378103 -1.548295 L 14.68066 -1.564773 L -0.000021922 0.00923295 " transform="matrix(27.5,0,0,27.5,-186.327522,275)"/>
<path style="fill:none;stroke-width:0.1;stroke-linecap:round;stroke-linejoin:bevel;stroke:rgb(60%,60%,60%);stroke-opacity:1;stroke-miterlimit:10;" d="M 3786.419296 -0.633097 L 31.725262 -0.696449 L 30.872137 -0.688068 L 27.294154 -0.979545 L 26.604097 -0.996307 L 24.567734 -1.378551 L 23.127109 -1.43608 L 23.009353 -1.441903 L 22.09941 -1.442045 L 21.583217 -1.445028 L 20.827961 -1.499574 L 20.256086 -1.526705 L 19.645006 -1.570881 L 19.081086 -1.611648 L 17.255518 -1.735369 L 16.890035 -1.716193 L 15.406512 -1.627841 L 14.695291 -1.645739 L -0.000021922 0.00994318 " transform="matrix(27.5,0,0,27.5,-186.327522,275)"/>
<path style="fill:none;stroke-width:0.1;stroke-linecap:round;stroke-linejoin:bevel;stroke:rgb(60%,60%,60%);stroke-opacity:1;stroke-miterlimit:10;" d="M 3786.418444 -0.663494 L 31.72441 -0.729545 L 30.86745 -0.720739 L 27.290887 -1.026705 L 26.592876 -1.044318 L 24.556654 -1.447727 L 23.128955 -1.50767 L 23.003245 -1.514205 L 22.104524 -1.514347 L 21.577109 -1.517614 L 20.827961 -1.574574 L 20.256086 -1.603125 L 19.645006 -1.649574 L 19.086058 -1.692188 L 17.282649 -1.820739 L 16.883785 -1.79858 L 15.436626 -1.70767 L 14.710631 -1.726989 L -0.000021922 0.0105114 " transform="matrix(27.5,0,0,27.5,-186.327522,275)"/>
<path style="fill:none;stroke-width:0.1;stroke-linecap:round;stroke-linejoin:bevel;stroke:rgb(60%,60%,60%);stroke-opacity:1;stroke-miterlimit:10;" d="M 3786.417592 -0.693892 L 31.723558 -0.762784 L 30.862762 -0.753409 L 27.287478 -1.073722 L 26.581086 -1.092614 L 24.544864 -1.517472 L 23.131086 -1.579688 L 22.996853 -1.587216 L 22.109779 -1.587358 L 21.570575 -1.590909 L 20.827961 -1.650284 L 20.256086 -1.680256 L 19.645006 -1.728977 L 19.091171 -1.773295 L 17.311342 -1.906392 L 16.877251 -1.880966 L 15.468586 -1.787784 L 14.726825 -1.808665 L -0.000021922 0.0110795 " transform="matrix(27.5,0,0,27.5,-186.327522,275)"/>
<path style="fill:none;stroke-width:0.1;stroke-linecap:round;stroke-linejoin:bevel;stroke:rgb(60%,60%,60%);stroke-opacity:1;stroke-miterlimit:10;" d="M 3786.416739 -0.723438 L 31.722705 -0.795881 L 30.857649 -0.78608 L 27.283927 -1.121023 L 26.568728 -1.140909 L 24.532364 -1.587784 L 23.133217 -1.652415 L 22.989893 -1.660795 L 22.115461 -1.660938 L 21.563756 -1.664773 L 20.827961 -1.72642 L 20.256086 -1.757812 L 19.645006 -1.809091 L 19.096569 -1.854972 L 17.341739 -1.992472 L 16.870291 -1.963352 L 15.502535 -1.868182 L 14.744012 -1.890909 L -0.000021922 0.0115057 " transform="matrix(27.5,0,0,27.5,-186.327522,275)"/>
<path style="fill:none;stroke-width:0.1;stroke-linecap:round;stroke-linejoin:bevel;stroke:rgb(60%,60%,60%);stroke-opacity:1;stroke-miterlimit:10;" d="M 3786.415745 -0.754119 L 31.721711 -0.829119 L 30.852535 -0.818892 L 27.280234 -1.168324 L 26.55566 -1.189347 L 24.519154 -1.658949 L 23.135489 -1.725852 L 22.982649 -1.735085 L 22.121427 -1.735369 L 21.556512 -1.739489 L 20.827961 -1.803409 L 20.256086 -1.836222 L 19.645006 -1.889773 L 19.102251 -1.937358 L 17.3737 -2.079119 L 16.863188 -2.045881 L 15.538188 -1.949006 L 14.76191 -1.97358 L -0.000021922 0.0117898 " transform="matrix(27.5,0,0,27.5,-186.327522,275)"/>
<path style="fill:none;stroke-width:0.1;stroke-linecap:round;stroke-linejoin:bevel;stroke:rgb(60%,60%,60%);stroke-opacity:1;stroke-miterlimit:10;" d="M 3786.414893 -0.783807 L 31.720859 -0.862216 L 30.846995 -0.851562 L 27.276256 -1.215625 L 26.542024 -1.237926 L 24.505234 -1.730824 L 23.137904 -1.799858 L 22.974978 -1.810227 L 22.127819 -1.810511 L 21.548842 -1.814915 L 20.827819 -1.880966 L 20.256086 -1.915483 L 19.645006 -1.971449 L 19.108217 -2.020597 L 17.407506 -2.166335 L 16.85566 -2.128267 L 15.575972 -2.030256 L 14.780944 -2.056818 L -0.000021922 0.0120739 " transform="matrix(27.5,0,0,27.5,-186.327522,275)"/>
<path style="fill:none;stroke-width:0.1;stroke-linecap:round;stroke-linejoin:bevel;stroke:rgb(60%,60%,60%);stroke-opacity:1;stroke-miterlimit:10;" d="M 3786.413899 -0.813494 L 31.719864 -0.895455 L 30.841313 -0.884233 L 27.272279 -1.263068 L 26.527819 -1.286506 L 24.490461 -1.803693 L 23.140319 -1.874716 L 22.966881 -1.886222 L 22.134495 -1.886506 L 21.540745 -1.891335 L 20.827819 -1.959517 L 20.256086 -1.995455 L 19.645006 -2.053835 L 19.114609 -2.104545 L 17.44316 -2.253977 L 16.847989 -2.210795 L 15.615887 -2.11179 L 14.80083 -2.140625 L -0.000021922 0.0120739 " transform="matrix(27.5,0,0,27.5,-186.327522,275)"/>
<path style="fill:none;stroke-width:0.1;stroke-linecap:round;stroke-linejoin:bevel;stroke:rgb(60%,60%,60%);stroke-opacity:1;stroke-miterlimit:10;" d="M 3786.412762 -0.843324 L 31.718728 -0.928551 L 30.835489 -0.916903 L 27.26816 -1.310653 L 26.512904 -1.335369 L 24.474836 -1.877273 L 23.143018 -1.950426 L 22.958359 -1.963068 L 22.141455 -1.963494 L 21.532222 -1.968608 L 20.827819 -2.03892 L 20.256086 -2.076278 L 19.645006 -2.137216 L 19.121285 -2.189489 L 17.480802 -2.34233 L 16.839893 -2.293324 L 15.657933 -2.19375 L 14.821711 -2.225 L -0.000021922 0.0119318 " transform="matrix(27.5,0,0,27.5,-186.327522,275)"/>
<path style="fill:none;stroke-width:0.1;stroke-linecap:round;stroke-linejoin:bevel;stroke:rgb(60%,60%,60%);stroke-opacity:1;stroke-miterlimit:10;" d="M 3786.411768 -0.874858 L 31.717734 -0.96179 L 30.829381 -0.949574 L 27.263756 -1.358239 L 26.497421 -1.384375 L 24.458359 -1.952131 L 23.145717 -2.026989 L 22.94941 -2.041193 L 22.148984 -2.041477 L 21.523274 -2.047017 L 20.827819 -2.119176 L 20.256086 -2.158239 L 19.644864 -2.221733 L 19.128245 -2.275426 L 17.520433 -2.43125 L 16.831512 -2.37571 L 15.702251 -2.276136 L 14.843586 -2.309943 L -0.000021922 0.0115057 " transform="matrix(27.5,0,0,27.5,-186.327522,275)"/>
<path style="fill:none;stroke-width:0.1;stroke-linecap:round;stroke-linejoin:bevel;stroke:rgb(60%,60%,60%);stroke-opacity:1;stroke-miterlimit:10;" d="M 3786.410631 -0.905114 L 31.716597 -0.994886 L 30.822989 -0.982244 L 27.259211 -1.405824 L 26.481228 -1.433381 L 24.441029 -2.027983 L 23.1487 -2.104688 L 22.939893 -2.120313 L 22.156796 -2.120739 L 21.513756 -2.126563 L 20.827819 -2.20071 L 20.256086 -2.241193 L 19.644864 -2.307244 L 19.135631 -2.362216 L 17.562052 -2.520881 L 16.822847 -2.457955 L 15.748984 -2.358949 L 14.866597 -2.395597 L -0.000021922 0.0109375 " transform="matrix(27.5,0,0,27.5,-186.327522,275)"/>
<path style="fill:none;stroke-width:0.1;stroke-linecap:round;stroke-linejoin:bevel;stroke:rgb(60%,60%,60%);stroke-opacity:1;stroke-miterlimit:10;" d="M 3786.409495 -0.933807 L 31.715461 -1.028125 L 30.816455 -1.014915 L 27.254524 -1.453693 L 26.464325 -1.48267 L 24.422563 -2.105256 L 23.151825 -2.183523 L 22.92995 -2.20071 L 22.165035 -2.201136 L 21.503671 -2.207386 L 20.827819 -2.283239 L 20.256086 -2.325284 L 19.644864 -2.393892 L 19.143302 -2.450284 L 17.606086 -2.611364 L 16.813899 -2.540199 L 15.798131 -2.442045 L 14.890603 -2.481818 L -0.000021922 0.0100852 " transform="matrix(27.5,0,0,27.5,-186.327522,275)"/>
<path style="fill:none;stroke-width:0.1;stroke-linecap:round;stroke-linejoin:bevel;stroke:rgb(60%,60%,60%);stroke-opacity:1;stroke-miterlimit:10;" d="M 3786.408359 -0.964347 L 31.714325 -1.061222 L 30.809779 -1.047585 L 27.249694 -1.501563 L 26.446711 -1.532102 L 24.403103 -2.183807 L 23.155092 -2.263636 L 22.919296 -2.282528 L 22.1737 -2.282955 L 21.49316 -2.289489 L 20.827819 -2.367045 L 20.256086 -2.410795 L 19.644864 -2.482102 L 19.151399 -2.539631 L 17.652393 -2.702557 L 16.804666 -2.622159 L 15.849836 -2.52571 L 14.915745 -2.56875 L -0.000021922 0.00894886 " transform="matrix(27.5,0,0,27.5,-186.327522,275)"/>
<path style="fill:none;stroke-width:0.1;stroke-linecap:round;stroke-linejoin:bevel;stroke:rgb(60%,60%,60%);stroke-opacity:1;stroke-miterlimit:10;" d="M 3786.40708 -0.995028 L 31.713046 -1.09446 L 30.802819 -1.080256 L 27.24458 -1.549574 L 26.428529 -1.581676 L 24.382364 -2.264205 L 23.158501 -2.34517 L 22.908217 -2.366051 L 22.182933 -2.366335 L 21.481938 -2.373295 L 20.827819 -2.452415 L 20.256086 -2.497727 L 19.644864 -2.571591 L 19.160063 -2.630256 L 17.701114 -2.794602 L 16.795291 -2.703977 L 15.904381 -2.609517 L 14.942024 -2.65625 L -0.000021922 0.00752841 " transform="matrix(27.5,0,0,27.5,-186.327522,275)"/>
<path style="fill:none;stroke-width:0.1;stroke-linecap:round;stroke-linejoin:bevel;stroke:rgb(60%,60%,60%);stroke-opacity:1;stroke-miterlimit:10;" d="M 3786.405802 -1.024148 L 31.711768 -1.127557 L 30.795575 -1.112926 L 27.239467 -1.597727 L 26.409495 -1.631392 L 24.360347 -2.346307 L 23.162052 -2.428409 L 22.896285 -2.451278 L 22.192734 -2.45142 L 21.470149 -2.458807 L 20.827819 -2.539347 L 20.256086 -2.586222 L 19.644864 -2.662784 L 19.169012 -2.722301 L 17.752677 -2.887642 L 16.785489 -2.785227 L 15.961626 -2.69375 L 14.96958 -2.74446 L -0.000021922 0.00610795 " transform="matrix(27.5,0,0,27.5,-186.327522,275)"/>
<path style="fill:none;stroke-width:0.1;stroke-linecap:round;stroke-linejoin:bevel;stroke:rgb(60%,60%,60%);stroke-opacity:1;stroke-miterlimit:10;" d="M 3786.404524 -1.055256 L 31.710489 -1.160653 L 30.788188 -1.145455 L 27.234069 -1.645881 L 26.389609 -1.681392 L 24.33691 -2.43054 L 23.165887 -2.513494 L 22.883785 -2.538494 L 22.203103 -2.538636 L 21.457506 -2.546307 L 20.827819 -2.627983 L 20.256086 -2.67642 L 19.644864 -2.755682 L 19.178529 -2.816193 L 17.806938 -2.981818 L 16.775546 -2.866051 L 16.021853 -2.778267 L 14.998131 -2.833239 L -0.000021922 0.00482955 " transform="matrix(27.5,0,0,27.5,-186.327522,275)"/>
<path style="fill-rule:nonzero;fill:rgb(50%,50%,50%);fill-opacity:0.85;stroke-width:0.0777778;stroke-linecap:round;stroke-linejoin:bevel;stroke:rgb(82.499999%,82.499999%,82.499999%);stroke-opacity:1;stroke-miterlimit:10;" d="M 30.303387 -9.051562 L 30.361342 -8.870455 L 30.41816 -8.689489 L 30.473558 -8.508523 L 30.527819 -8.327415 L 30.58066 -8.146449 L 30.632364 -7.965341 L 30.682791 -7.784375 L 30.731938 -7.603267 L 30.779808 -7.422301 L 30.826541 -7.241193 L 30.871995 -7.060227 L 30.916171 -6.879119 L 30.959211 -6.698153 L 31.000972 -6.517045 L 31.041597 -6.33608 L 31.081086 -6.155114 L 31.119296 -5.974006 L 31.156228 -5.79304 L 31.192166 -5.611932 L 31.226825 -5.430966 L 31.260347 -5.249858 L 31.292592 -5.068892 L 31.3237 -4.887784 L 31.353671 -4.706818 L 31.382506 -4.52571 L 31.410205 -4.344744 L 31.436768 -4.163778 L 31.462052 -3.98267 L 31.486342 -3.801705 L 31.509353 -3.620597 L 31.531228 -3.439631 L 31.552109 -3.258523 L 31.571711 -3.077557 L 31.590177 -2.896449 L 31.607649 -2.715483 L 31.623842 -2.534375 L 31.639041 -2.353409 L 31.652961 -2.172301 L 31.665887 -1.991335 L 31.677535 -1.810369 L 31.688188 -1.629261 L 31.697705 -1.448295 L 31.706086 -1.267188 L 31.71333 -1.086222 L 31.71958 -0.905114 L 31.724552 -0.724148 L 31.728387 -0.54304 L 31.731228 -0.362074 L 31.732933 -0.180966 L 31.733501 0 L 31.732933 0.180966 L 31.731228 0.362074 L 31.728387 0.54304 L 31.724552 0.724148 L 31.71958 0.905114 L 31.71333 1.086222 L 31.706086 1.267187 L 31.697705 1.448295 L 31.688188 1.629261 L 31.677535 1.810369 L 31.665887 1.991335 L 31.652961 2.172301 L 31.639041 2.353409 L 31.623842 2.534375 L 31.607649 2.715483 L 31.590177 2.896449 L 31.571711 3.077557 L 31.552109 3.258523 L 31.531228 3.439631 L 31.509353 3.620597 L 31.486342 3.801705 L 31.462052 3.98267 L 31.436768 4.163778 L 31.410205 4.344744 L 31.382506 4.52571 L 31.353671 4.706818 L 31.3237 4.887784 L 31.292592 5.068892 L 31.260347 5.249858 L 31.226825 5.430966 L 31.192166 5.611932 L 31.156228 5.79304 L 31.119296 5.974006 L 31.081086 6.155114 L 31.041597 6.33608 L 31.000972 6.517045 L 30.959211 6.698153 L 30.916171 6.879119 L 30.871995 7.060227 L 30.826541 7.241193 L 30.779808 7.422301 L 30.731938 7.603267 L 30.682791 7.784375 L 30.632364 7.965341 L 30.58066 8.146449 L 30.527819 8.327415 L 30.473558 8.508523 L 30.41816 8.689489 L 30.361342 8.870455 L 30.303387 9.051562 L 25.766029 5.11875 L 26.666597 5.016477 L 27.141455 4.914062 L 27.478671 4.811648 L 27.752251 4.709233 L 27.986484 4.60696 L 28.193302 4.504545 L 28.379097 4.402131 L 28.548558 4.299858 L 28.704239 4.197443 L 28.848558 4.095028 L 28.982791 3.992614 L 29.108501 3.890341 L 29.226399 3.787926 L 29.337336 3.685511 L 29.441881 3.583097 L 29.540745 3.480824 L 29.634353 3.378409 L 29.722989 3.275994 L 29.806938 3.173722 L 29.886626 3.071307 L 29.962194 2.968892 L 30.033927 2.866477 L 30.101967 2.764205 L 30.166597 2.66179 L 30.227819 2.559375 L 30.285774 2.45696 L 30.340887 2.354687 L 30.392876 2.252273 L 30.442024 2.149858 L 30.48833 2.047585 L 30.53208 1.94517 L 30.573131 1.842756 L 30.611768 1.740341 L 30.647847 1.638068 L 30.68137 1.535653 L 30.71262 1.433239 L 30.741597 1.330824 L 30.76816 1.228551 L 30.792592 1.126136 L 30.814751 1.023722 L 30.834637 0.921449 L 30.852393 0.819034 L 30.868018 0.716619 L 30.881654 0.614205 L 30.893018 0.511932 L 30.902251 0.409517 L 30.909495 0.307102 L 30.914751 0.204688 L 30.917734 0.102415 L 30.91887 0 L 30.917734 -0.102415 L 30.914751 -0.204688 L 30.909495 -0.307102 L 30.902251 -0.409517 L 30.893018 -0.511932 L 30.881654 -0.614205 L 30.868018 -0.716619 L 30.852393 -0.819034 L 30.834637 -0.921449 L 30.814751 -1.023722 L 30.792592 -1.126136 L 30.76816 -1.228551 L 30.741597 -1.330824 L 30.71262 -1.433239 L 30.68137 -1.535653 L 30.647847 -1.638068 L 30.611768 -1.740341 L 30.573131 -1.842756 L 30.53208 -1.94517 L 30.48833 -2.047585 L 30.442024 -2.149858 L 30.392876 -2.252273 L 30.340887 -2.354688 L 30.285774 -2.45696 L 30.227819 -2.559375 L 30.166597 -2.66179 L 30.101967 -2.764205 L 30.033927 -2.866477 L 29.962194 -2.968892 L 29.886626 -3.071307 L 29.806938 -3.173722 L 29.722989 -3.275994 L 29.634353 -3.378409 L 29.540745 -3.480824 L 29.441881 -3.583097 L 29.337336 -3.685511 L 29.226399 -3.787926 L 29.108501 -3.890341 L 28.982791 -3.992614 L 28.848558 -4.095028 L 28.704239 -4.197443 L 28.548558 -4.299858 L 28.379097 -4.402131 L 28.193302 -4.504545 L 27.986484 -4.60696 L 27.752251 -4.709233 L 27.478671 -4.811648 L 27.141455 -4.914062 L 26.666597 -5.016477 L 25.766029 -5.11875 Z M 30.303387 -9.051562 " transform="matrix(27.5,0,0,27.5,-186.327522,275)"/>
<g clip-path="url(#clip1)" clip-rule="nonzero">
<path style="fill:none;stroke-width:0.0777778;stroke-linecap:round;stroke-linejoin:bevel;stroke:rgb(82.499999%,82.499999%,82.499999%);stroke-opacity:1;stroke-miterlimit:10;" d="M 25.766029 -5.11875 L 26.666597 -5.016477 L 27.141455 -4.914062 L 27.478671 -4.811648 L 27.752251 -4.709233 L 27.986484 -4.60696 L 28.193302 -4.504545 L 28.379097 -4.402131 L 28.548558 -4.299858 L 28.704239 -4.197443 L 28.848558 -4.095028 L 28.982791 -3.992614 L 29.108501 -3.890341 L 29.226399 -3.787926 L 29.337336 -3.685511 L 29.441881 -3.583097 L 29.540745 -3.480824 L 29.634353 -3.378409 L 29.722989 -3.275994 L 29.806938 -3.173722 L 29.886626 -3.071307 L 29.962194 -2.968892 L 30.033927 -2.866477 L 30.101967 -2.764205 L 30.166597 -2.66179 L 30.227819 -2.559375 L 30.285774 -2.45696 L 30.340887 -2.354688 L 30.392876 -2.252273 L 30.442024 -2.149858 L 30.48833 -2.047585 L 30.53208 -1.94517 L 30.573131 -1.842756 L 30.611768 -1.740341 L 30.647847 -1.638068 L 30.68137 -1.535653 L 30.71262 -1.433239 L 30.741597 -1.330824 L 30.76816 -1.228551 L 30.792592 -1.126136 L 30.814751 -1.023722 L 30.834637 -0.921449 L 30.852393 -0.819034 L 30.868018 -0.716619 L 30.881654 -0.614205 L 30.893018 -0.511932 L 30.902251 -0.409517 L 30.909495 -0.307102 L 30.914751 -0.204688 L 30.917734 -0.102415 L 30.91887 0 L 30.917734 0.102415 L 30.914751 0.204688 L 30.909495 0.307102 L 30.902251 0.409517 L 30.893018 0.511932 L 30.881654 0.614205 L 30.868018 0.716619 L 30.852393 0.819034 L 30.834637 0.921449 L 30.814751 1.023722 L 30.792592 1.126136 L 30.76816 1.228551 L 30.741597 1.330824 L 30.71262 1.433239 L 30.68137 1.535653 L 30.647847 1.638068 L 30.611768 1.740341 L 30.573131 1.842756 L 30.53208 1.94517 L 30.48833 2.047585 L 30.442024 2.149858 L 30.392876 2.252273 L 30.340887 2.354687 L 30.285774 2.45696 L 30.227819 2.559375 L 30.166597 2.66179 L 30.101967 2.764205 L 30.033927 2.866477 L 29.962194 2.968892 L 29.886626 3.071307 L 29.806938 3.173722 L 29.722989 3.275994 L 29.634353 3.378409 L 29.540745 3.480824 L 29.441881 3.583097 L 29.337336 3.685511 L 29.226399 3.787926 L 29.108501 3.890341 L 28.982791 3.992614 L 28.848558 4.095028 L 28.704239 4.197443 L 28.548558 4.299858 L 28.379097 4.402131 L 28.193302 4.504545 L 27.986484 4.60696 L 27.752251 4.709233 L 27.478671 4.811648 L 27.141455 4.914062 L 26.666597 5.016477 L 25.766029 5.11875 " transform="matrix(27.5,0,0,27.5,-186.327522,275)"/>
</g>
<path style="fill-rule:nonzero;fill:rgb(50%,50%,50%);fill-opacity:0.85;stroke-width:0.0777778;stroke-linecap:round;stroke-linejoin:bevel;stroke:rgb(82.499999%,82.499999%,82.499999%);stroke-opacity:1;stroke-miterlimit:10;" d="M 26.447989 -4.993892 L 26.483927 -4.894034 L 26.519012 -4.794176 L 26.553245 -4.694318 L 26.586626 -4.59446 L 26.619296 -4.494602 L 26.651114 -4.394744 L 26.682222 -4.294744 L 26.712478 -4.194886 L 26.742024 -4.095028 L 26.770717 -3.99517 L 26.7987 -3.895313 L 26.825972 -3.795455 L 26.852393 -3.695597 L 26.878103 -3.595597 L 26.903103 -3.495739 L 26.927251 -3.395881 L 26.950688 -3.296023 L 26.973558 -3.196165 L 26.995433 -3.096307 L 27.016739 -2.996307 L 27.037336 -2.896449 L 27.05708 -2.796591 L 27.076256 -2.696733 L 27.09458 -2.596875 L 27.112194 -2.497017 L 27.129239 -2.397159 L 27.145433 -2.297159 L 27.160916 -2.197301 L 27.17583 -2.097443 L 27.189893 -1.997585 L 27.203245 -1.897727 L 27.216029 -1.797869 L 27.228103 -1.698011 L 27.239325 -1.598011 L 27.249978 -1.498153 L 27.259921 -1.398295 L 27.269154 -1.298438 L 27.277677 -1.19858 L 27.285631 -1.098722 L 27.292734 -0.998722 L 27.299268 -0.898864 L 27.305092 -0.799006 L 27.310205 -0.699148 L 27.314609 -0.59929 L 27.318444 -0.499432 L 27.321427 -0.399574 L 27.323842 -0.299574 L 27.325546 -0.199716 L 27.326541 -0.099858 L 27.326967 0 L 27.326541 0.099858 L 27.325546 0.199716 L 27.323842 0.299574 L 27.321427 0.399574 L 27.318444 0.499432 L 27.314609 0.59929 L 27.310205 0.699148 L 27.305092 0.799006 L 27.299268 0.898864 L 27.292734 0.998722 L 27.285631 1.098722 L 27.277677 1.19858 L 27.269154 1.298437 L 27.259921 1.398295 L 27.249978 1.498153 L 27.239325 1.598011 L 27.228103 1.698011 L 27.216029 1.797869 L 27.203245 1.897727 L 27.189893 1.997585 L 27.17583 2.097443 L 27.160916 2.197301 L 27.145433 2.297159 L 27.129239 2.397159 L 27.112194 2.497017 L 27.09458 2.596875 L 27.076256 2.696733 L 27.05708 2.796591 L 27.037336 2.896449 L 27.016739 2.996307 L 26.995433 3.096307 L 26.973558 3.196165 L 26.950688 3.296023 L 26.927251 3.395881 L 26.903103 3.495739 L 26.878103 3.595597 L 26.852393 3.695597 L 26.825972 3.795455 L 26.7987 3.895312 L 26.770717 3.99517 L 26.742024 4.095028 L 26.712478 4.194886 L 26.682222 4.294744 L 26.651114 4.394744 L 26.619296 4.494602 L 26.586626 4.59446 L 26.553245 4.694318 L 26.519012 4.794176 L 26.483927 4.894034 L 26.447989 4.993892 L 24.707649 3.745455 L 24.816881 3.670597 L 24.91958 3.595597 L 25.016597 3.520739 L 25.108359 3.445881 L 25.195433 3.370881 L 25.278103 3.296023 L 25.356938 3.221165 L 25.431938 3.146165 L 25.503671 3.071307 L 25.572137 2.996307 L 25.63762 2.921449 L 25.700262 2.846591 L 25.760063 2.771591 L 25.81745 2.696733 L 25.872421 2.621875 L 25.924978 2.546875 L 25.975404 2.472017 L 26.0237 2.397159 L 26.069864 2.322159 L 26.114041 2.247301 L 26.156228 2.172301 L 26.196711 2.097443 L 26.235347 2.022585 L 26.272137 1.947585 L 26.307364 1.872727 L 26.340745 1.797869 L 26.372705 1.722869 L 26.402961 1.648011 L 26.431654 1.573153 L 26.458927 1.498153 L 26.484637 1.423295 L 26.508927 1.348437 L 26.531654 1.273438 L 26.553103 1.19858 L 26.573131 1.12358 L 26.591739 1.048722 L 26.609069 0.973864 L 26.624978 0.898864 L 26.639609 0.824006 L 26.652961 0.749148 L 26.665035 0.674148 L 26.675688 0.59929 L 26.685063 0.524432 L 26.693302 0.449432 L 26.70012 0.374574 L 26.705802 0.299574 L 26.710205 0.224716 L 26.71333 0.149858 L 26.715177 0.074858 L 26.715745 0 L 26.715177 -0.074858 L 26.71333 -0.149858 L 26.710205 -0.224716 L 26.705802 -0.299574 L 26.70012 -0.374574 L 26.693302 -0.449432 L 26.685063 -0.524432 L 26.675688 -0.59929 L 26.665035 -0.674148 L 26.652961 -0.749148 L 26.639609 -0.824006 L 26.624978 -0.898864 L 26.609069 -0.973864 L 26.591739 -1.048722 L 26.573131 -1.12358 L 26.553103 -1.19858 L 26.531654 -1.273438 L 26.508927 -1.348438 L 26.484637 -1.423295 L 26.458927 -1.498153 L 26.431654 -1.573153 L 26.402961 -1.648011 L 26.372705 -1.722869 L 26.340745 -1.797869 L 26.307364 -1.872727 L 26.272137 -1.947585 L 26.235347 -2.022585 L 26.196711 -2.097443 L 26.156228 -2.172301 L 26.114041 -2.247301 L 26.069864 -2.322159 L 26.0237 -2.397159 L 25.975404 -2.472017 L 25.924978 -2.546875 L 25.872421 -2.621875 L 25.81745 -2.696733 L 25.760063 -2.771591 L 25.700262 -2.846591 L 25.63762 -2.921449 L 25.572137 -2.996307 L 25.503671 -3.071307 L 25.431938 -3.146165 L 25.356938 -3.221165 L 25.278103 -3.296023 L 25.195433 -3.370881 L 25.108359 -3.445881 L 25.016597 -3.520739 L 24.91958 -3.595597 L 24.816881 -3.670597 L 24.707649 -3.745455 Z M 26.447989 -4.993892 " transform="matrix(27.5,0,0,27.5,-186.327522,275)"/>
<g clip-path="url(#clip2)" clip-rule="nonzero">
<path style="fill:none;stroke-width:0.0777778;stroke-linecap:round;stroke-linejoin:bevel;stroke:rgb(82.499999%,82.499999%,82.499999%);stroke-opacity:1;stroke-miterlimit:10;" d="M 24.707649 -3.745455 L 24.816881 -3.670597 L 24.91958 -3.595597 L 25.016597 -3.520739 L 25.108359 -3.445881 L 25.195433 -3.370881 L 25.278103 -3.296023 L 25.356938 -3.221165 L 25.431938 -3.146165 L 25.503671 -3.071307 L 25.572137 -2.996307 L 25.63762 -2.921449 L 25.700262 -2.846591 L 25.760063 -2.771591 L 25.81745 -2.696733 L 25.872421 -2.621875 L 25.924978 -2.546875 L 25.975404 -2.472017 L 26.0237 -2.397159 L 26.069864 -2.322159 L 26.114041 -2.247301 L 26.156228 -2.172301 L 26.196711 -2.097443 L 26.235347 -2.022585 L 26.272137 -1.947585 L 26.307364 -1.872727 L 26.340745 -1.797869 L 26.372705 -1.722869 L 26.402961 -1.648011 L 26.431654 -1.573153 L 26.458927 -1.498153 L 26.484637 -1.423295 L 26.508927 -1.348438 L 26.531654 -1.273438 L 26.553103 -1.19858 L 26.573131 -1.12358 L 26.591739 -1.048722 L 26.609069 -0.973864 L 26.624978 -0.898864 L 26.639609 -0.824006 L 26.652961 -0.749148 L 26.665035 -0.674148 L 26.675688 -0.59929 L 26.685063 -0.524432 L 26.693302 -0.449432 L 26.70012 -0.374574 L 26.705802 -0.299574 L 26.710205 -0.224716 L 26.71333 -0.149858 L 26.715177 -0.074858 L 26.715745 0 L 26.715177 0.074858 L 26.71333 0.149858 L 26.710205 0.224716 L 26.705802 0.299574 L 26.70012 0.374574 L 26.693302 0.449432 L 26.685063 0.524432 L 26.675688 0.59929 L 26.665035 0.674148 L 26.652961 0.749148 L 26.639609 0.824006 L 26.624978 0.898864 L 26.609069 0.973864 L 26.591739 1.048722 L 26.573131 1.12358 L 26.553103 1.19858 L 26.531654 1.273438 L 26.508927 1.348437 L 26.484637 1.423295 L 26.458927 1.498153 L 26.431654 1.573153 L 26.402961 1.648011 L 26.372705 1.722869 L 26.340745 1.797869 L 26.307364 1.872727 L 26.272137 1.947585 L 26.235347 2.022585 L 26.196711 2.097443 L 26.156228 2.172301 L 26.114041 2.247301 L 26.069864 2.322159 L 26.0237 2.397159 L 25.975404 2.472017 L 25.924978 2.546875 L 25.872421 2.621875 L 25.81745 2.696733 L 25.760063 2.771591 L 25.700262 2.846591 L 25.63762 2.921449 L 25.572137 2.996307 L 25.503671 3.071307 L 25.431938 3.146165 L 25.356938 3.221165 L 25.278103 3.296023 L 25.195433 3.370881 L 25.108359 3.445881 L 25.016597 3.520739 L 24.91958 3.595597 L 24.816881 3.670597 L 24.707649 3.745455 " transform="matrix(27.5,0,0,27.5,-186.327522,275)"/>
</g>
<path style="fill-rule:nonzero;fill:rgb(50%,50%,50%);fill-opacity:0.85;stroke-width:0.0777778;stroke-linecap:round;stroke-linejoin:bevel;stroke:rgb(82.499999%,82.499999%,82.499999%);stroke-opacity:1;stroke-miterlimit:10;" d="M 23.8487 -3.745455 L 23.883075 -3.670597 L 23.916455 -3.595597 L 23.949126 -3.520739 L 23.981086 -3.445881 L 24.012052 -3.370881 L 24.042308 -3.296023 L 24.071853 -3.221165 L 24.100546 -3.146165 L 24.128387 -3.071307 L 24.15566 -2.996307 L 24.18208 -2.921449 L 24.207649 -2.846591 L 24.232649 -2.771591 L 24.256796 -2.696733 L 24.280234 -2.621875 L 24.302961 -2.546875 L 24.324978 -2.472017 L 24.346285 -2.397159 L 24.366881 -2.322159 L 24.386768 -2.247301 L 24.405944 -2.172301 L 24.42441 -2.097443 L 24.442308 -2.022585 L 24.459495 -1.947585 L 24.47583 -1.872727 L 24.491739 -1.797869 L 24.506796 -1.722869 L 24.521285 -1.648011 L 24.535063 -1.573153 L 24.548131 -1.498153 L 24.560631 -1.423295 L 24.572421 -1.348438 L 24.583501 -1.273438 L 24.594012 -1.19858 L 24.603955 -1.12358 L 24.613188 -1.048722 L 24.621711 -0.973864 L 24.629666 -0.898864 L 24.63691 -0.824006 L 24.643586 -0.749148 L 24.649552 -0.674148 L 24.65495 -0.59929 L 24.659637 -0.524432 L 24.663756 -0.449432 L 24.667308 -0.374574 L 24.670149 -0.299574 L 24.672279 -0.224716 L 24.673842 -0.149858 L 24.674836 -0.074858 L 24.67512 0 L 24.674836 0.074858 L 24.673842 0.149858 L 24.672279 0.224716 L 24.670149 0.299574 L 24.667308 0.374574 L 24.663756 0.449432 L 24.659637 0.524432 L 24.65495 0.59929 L 24.649552 0.674148 L 24.643586 0.749148 L 24.63691 0.824006 L 24.629666 0.898864 L 24.621711 0.973864 L 24.613188 1.048722 L 24.603955 1.12358 L 24.594012 1.19858 L 24.583501 1.273438 L 24.572421 1.348437 L 24.560631 1.423295 L 24.548131 1.498153 L 24.535063 1.573153 L 24.521285 1.648011 L 24.506796 1.722869 L 24.491739 1.797869 L 24.47583 1.872727 L 24.459495 1.947585 L 24.442308 2.022585 L 24.42441 2.097443 L 24.405944 2.172301 L 24.386768 2.247301 L 24.366881 2.322159 L 24.346285 2.397159 L 24.324978 2.472017 L 24.302961 2.546875 L 24.280234 2.621875 L 24.256796 2.696733 L 24.232649 2.771591 L 24.207649 2.846591 L 24.18208 2.921449 L 24.15566 2.996307 L 24.128387 3.071307 L 24.100546 3.146165 L 24.071853 3.221165 L 24.042308 3.296023 L 24.012052 3.370881 L 23.981086 3.445881 L 23.949126 3.520739 L 23.916455 3.595597 L 23.883075 3.670597 L 23.8487 3.745455 L 23.236342 3.745455 L 23.231228 3.670597 L 23.226256 3.595597 L 23.221427 3.520739 L 23.216739 3.445881 L 23.212052 3.370881 L 23.202961 3.221165 L 23.198558 3.146165 L 23.194438 3.071307 L 23.190177 2.996307 L 23.182222 2.846591 L 23.178387 2.771591 L 23.171001 2.621875 L 23.16745 2.546875 L 23.164041 2.472017 L 23.160774 2.397159 L 23.157506 2.322159 L 23.154381 2.247301 L 23.151399 2.172301 L 23.148416 2.097443 L 23.145575 2.022585 L 23.142876 1.947585 L 23.137762 1.797869 L 23.135347 1.722869 L 23.130802 1.573153 L 23.128813 1.498153 L 23.124836 1.348437 L 23.123131 1.273438 L 23.121427 1.19858 L 23.119864 1.12358 L 23.118302 1.048722 L 23.116881 0.973864 L 23.115603 0.898864 L 23.11333 0.749148 L 23.112478 0.674148 L 23.110774 0.524432 L 23.110063 0.449432 L 23.109495 0.374574 L 23.109069 0.299574 L 23.108501 0.149858 L 23.108359 0.074858 L 23.108217 0 L 23.108359 -0.074858 L 23.108501 -0.149858 L 23.109069 -0.299574 L 23.109495 -0.374574 L 23.110063 -0.449432 L 23.110774 -0.524432 L 23.112478 -0.674148 L 23.11333 -0.749148 L 23.115603 -0.898864 L 23.116881 -0.973864 L 23.118302 -1.048722 L 23.119864 -1.12358 L 23.121427 -1.19858 L 23.123131 -1.273438 L 23.124836 -1.348438 L 23.128813 -1.498153 L 23.130802 -1.573153 L 23.135347 -1.722869 L 23.137762 -1.797869 L 23.142876 -1.947585 L 23.145575 -2.022585 L 23.148416 -2.097443 L 23.151399 -2.172301 L 23.154381 -2.247301 L 23.157506 -2.322159 L 23.160774 -2.397159 L 23.164041 -2.472017 L 23.16745 -2.546875 L 23.171001 -2.621875 L 23.178387 -2.771591 L 23.182222 -2.846591 L 23.190177 -2.996307 L 23.194438 -3.071307 L 23.198558 -3.146165 L 23.202961 -3.221165 L 23.212052 -3.370881 L 23.216739 -3.445881 L 23.221427 -3.520739 L 23.226256 -3.595597 L 23.231228 -3.670597 L 23.236342 -3.745455 Z M 23.8487 -3.745455 " transform="matrix(27.5,0,0,27.5,-186.327522,275)"/>
<g clip-path="url(#clip3)" clip-rule="nonzero">
<path style="fill:none;stroke-width:0.0777778;stroke-linecap:round;stroke-linejoin:bevel;stroke:rgb(82.499999%,82.499999%,82.499999%);stroke-opacity:1;stroke-miterlimit:10;" d="M 23.236342 -3.745455 L 23.231228 -3.670597 L 23.226256 -3.595597 L 23.221427 -3.520739 L 23.216739 -3.445881 L 23.212052 -3.370881 L 23.202961 -3.221165 L 23.198558 -3.146165 L 23.194438 -3.071307 L 23.190177 -2.996307 L 23.182222 -2.846591 L 23.178387 -2.771591 L 23.171001 -2.621875 L 23.16745 -2.546875 L 23.164041 -2.472017 L 23.160774 -2.397159 L 23.157506 -2.322159 L 23.154381 -2.247301 L 23.151399 -2.172301 L 23.148416 -2.097443 L 23.145575 -2.022585 L 23.142876 -1.947585 L 23.137762 -1.797869 L 23.135347 -1.722869 L 23.130802 -1.573153 L 23.128813 -1.498153 L 23.124836 -1.348438 L 23.123131 -1.273438 L 23.121427 -1.19858 L 23.119864 -1.12358 L 23.118302 -1.048722 L 23.116881 -0.973864 L 23.115603 -0.898864 L 23.11333 -0.749148 L 23.112478 -0.674148 L 23.110774 -0.524432 L 23.110063 -0.449432 L 23.109495 -0.374574 L 23.109069 -0.299574 L 23.108501 -0.149858 L 23.108359 -0.074858 L 23.108217 0 L 23.108359 0.074858 L 23.108501 0.149858 L 23.109069 0.299574 L 23.109495 0.374574 L 23.110063 0.449432 L 23.110774 0.524432 L 23.112478 0.674148 L 23.11333 0.749148 L 23.115603 0.898864 L 23.116881 0.973864 L 23.118302 1.048722 L 23.119864 1.12358 L 23.121427 1.19858 L 23.123131 1.273438 L 23.124836 1.348437 L 23.128813 1.498153 L 23.130802 1.573153 L 23.135347 1.722869 L 23.137762 1.797869 L 23.142876 1.947585 L 23.145575 2.022585 L 23.148416 2.097443 L 23.151399 2.172301 L 23.154381 2.247301 L 23.157506 2.322159 L 23.160774 2.397159 L 23.164041 2.472017 L 23.16745 2.546875 L 23.171001 2.621875 L 23.178387 2.771591 L 23.182222 2.846591 L 23.190177 2.996307 L 23.194438 3.071307 L 23.198558 3.146165 L 23.202961 3.221165 L 23.212052 3.370881 L 23.216739 3.445881 L 23.221427 3.520739 L 23.226256 3.595597 L 23.231228 3.670597 L 23.236342 3.745455 " transform="matrix(27.5,0,0,27.5,-186.327522,275)"/>
</g>
<path style="fill-rule:nonzero;fill:rgb(50%,50%,50%);fill-opacity:0.85;stroke-width:0.0777778;stroke-linecap:round;stroke-linejoin:bevel;stroke:rgb(82.499999%,82.499999%,82.499999%);stroke-opacity:1;stroke-miterlimit:10;" d="M 22.728671 -3.433381 L 22.742308 -3.364631 L 22.755518 -3.296023 L 22.768586 -3.227415 L 22.78137 -3.158665 L 22.79387 -3.090057 L 22.805944 -3.021307 L 22.817876 -2.952699 L 22.829524 -2.883949 L 22.840887 -2.815341 L 22.851967 -2.746733 L 22.862762 -2.677983 L 22.873131 -2.609375 L 22.883359 -2.540625 L 22.893302 -2.472017 L 22.903103 -2.403409 L 22.912478 -2.334659 L 22.921569 -2.266051 L 22.930376 -2.197301 L 22.938899 -2.128693 L 22.947137 -2.059943 L 22.955234 -1.991335 L 22.962904 -1.922727 L 22.970433 -1.853977 L 22.977535 -1.785369 L 22.984495 -1.716619 L 22.991171 -1.648011 L 22.997563 -1.579403 L 23.003529 -1.510653 L 23.009353 -1.442045 L 23.014893 -1.373295 L 23.020291 -1.304688 L 23.025262 -1.235938 L 23.02995 -1.16733 L 23.034353 -1.098722 L 23.038614 -1.029972 L 23.04245 -0.961364 L 23.046143 -0.892614 L 23.049552 -0.824006 L 23.052677 -0.755398 L 23.055518 -0.686648 L 23.058075 -0.61804 L 23.060347 -0.54929 L 23.062336 -0.480682 L 23.064041 -0.411932 L 23.065603 -0.343324 L 23.066739 -0.274716 L 23.067734 -0.205966 L 23.068444 -0.137358 L 23.06887 -0.068608 L 23.069012 0 L 23.06887 0.068608 L 23.068444 0.137358 L 23.067734 0.205966 L 23.066739 0.274716 L 23.065603 0.343324 L 23.064041 0.411932 L 23.062336 0.480682 L 23.060347 0.54929 L 23.058075 0.61804 L 23.055518 0.686648 L 23.052677 0.755398 L 23.049552 0.824006 L 23.046143 0.892614 L 23.04245 0.961364 L 23.038614 1.029972 L 23.034353 1.098722 L 23.02995 1.16733 L 23.025262 1.235937 L 23.020291 1.304688 L 23.014893 1.373295 L 23.009353 1.442045 L 23.003529 1.510653 L 22.997563 1.579403 L 22.991171 1.648011 L 22.984495 1.716619 L 22.977535 1.785369 L 22.970433 1.853977 L 22.962904 1.922727 L 22.955234 1.991335 L 22.947137 2.059943 L 22.938899 2.128693 L 22.930376 2.197301 L 22.921569 2.266051 L 22.912478 2.334659 L 22.903103 2.403409 L 22.893302 2.472017 L 22.883359 2.540625 L 22.873131 2.609375 L 22.862762 2.677983 L 22.851967 2.746733 L 22.840887 2.815341 L 22.829524 2.883949 L 22.817876 2.952699 L 22.805944 3.021307 L 22.79387 3.090057 L 22.78137 3.158665 L 22.768586 3.227415 L 22.755518 3.296023 L 22.742308 3.364631 L 22.728671 3.433381 L 22.33066 3.433381 L 22.319438 3.364631 L 22.308501 3.296023 L 22.297847 3.227415 L 22.287336 3.158665 L 22.277109 3.090057 L 22.267024 3.021307 L 22.257222 2.952699 L 22.247705 2.883949 L 22.23833 2.815341 L 22.229239 2.746733 L 22.220433 2.677983 L 22.211768 2.609375 L 22.203387 2.540625 L 22.195149 2.472017 L 22.187194 2.403409 L 22.179381 2.334659 L 22.171853 2.266051 L 22.164609 2.197301 L 22.157506 2.128693 L 22.150688 2.059943 L 22.144154 1.991335 L 22.137762 1.922727 L 22.131654 1.853977 L 22.125688 1.785369 L 22.120006 1.716619 L 22.114467 1.648011 L 22.109211 1.579403 L 22.104239 1.510653 L 22.09941 1.442045 L 22.094864 1.373295 L 22.090461 1.304688 L 22.086342 1.235937 L 22.082364 1.16733 L 22.078671 1.098722 L 22.075262 1.029972 L 22.071995 0.961364 L 22.069012 0.892614 L 22.063614 0.755398 L 22.061342 0.686648 L 22.059211 0.61804 L 22.057364 0.54929 L 22.05566 0.480682 L 22.054239 0.411932 L 22.052961 0.343324 L 22.051967 0.274716 L 22.051256 0.205966 L 22.050688 0.137358 L 22.050262 0.068608 L 22.05012 0 L 22.050262 -0.068608 L 22.050688 -0.137358 L 22.051256 -0.205966 L 22.051967 -0.274716 L 22.052961 -0.343324 L 22.054239 -0.411932 L 22.05566 -0.480682 L 22.057364 -0.54929 L 22.059211 -0.61804 L 22.061342 -0.686648 L 22.063614 -0.755398 L 22.069012 -0.892614 L 22.071995 -0.961364 L 22.075262 -1.029972 L 22.078671 -1.098722 L 22.082364 -1.16733 L 22.086342 -1.235938 L 22.090461 -1.304688 L 22.094864 -1.373295 L 22.09941 -1.442045 L 22.104239 -1.510653 L 22.109211 -1.579403 L 22.114467 -1.648011 L 22.120006 -1.716619 L 22.125688 -1.785369 L 22.131654 -1.853977 L 22.137762 -1.922727 L 22.144154 -1.991335 L 22.150688 -2.059943 L 22.157506 -2.128693 L 22.164609 -2.197301 L 22.171853 -2.266051 L 22.179381 -2.334659 L 22.187194 -2.403409 L 22.195149 -2.472017 L 22.203387 -2.540625 L 22.211768 -2.609375 L 22.220433 -2.677983 L 22.229239 -2.746733 L 22.23833 -2.815341 L 22.247705 -2.883949 L 22.257222 -2.952699 L 22.267024 -3.021307 L 22.277109 -3.090057 L 22.287336 -3.158665 L 22.297847 -3.227415 L 22.308501 -3.296023 L 22.319438 -3.364631 L 22.33066 -3.433381 Z M 22.728671 -3.433381 " transform="matrix(27.5,0,0,27.5,-186.327522,275)"/>
<path style="fill-rule:nonzero;fill:rgb(50%,50%,50%);fill-opacity:0.85;stroke-width:0.0777778;stroke-linecap:round;stroke-linejoin:bevel;stroke:rgb(82.499999%,82.499999%,82.499999%);stroke-opacity:1;stroke-miterlimit:10;" d="M 22.33066 -3.433381 L 22.319438 -3.364631 L 22.308501 -3.296023 L 22.297847 -3.227415 L 22.287336 -3.158665 L 22.277109 -3.090057 L 22.267024 -3.021307 L 22.257222 -2.952699 L 22.247705 -2.883949 L 22.23833 -2.815341 L 22.229239 -2.746733 L 22.220433 -2.677983 L 22.211768 -2.609375 L 22.203387 -2.540625 L 22.195149 -2.472017 L 22.187194 -2.403409 L 22.179381 -2.334659 L 22.171853 -2.266051 L 22.164609 -2.197301 L 22.157506 -2.128693 L 22.150688 -2.059943 L 22.144154 -1.991335 L 22.137762 -1.922727 L 22.131654 -1.853977 L 22.125688 -1.785369 L 22.120006 -1.716619 L 22.114467 -1.648011 L 22.109211 -1.579403 L 22.104239 -1.510653 L 22.09941 -1.442045 L 22.094864 -1.373295 L 22.090461 -1.304688 L 22.086342 -1.235938 L 22.082364 -1.16733 L 22.078671 -1.098722 L 22.075262 -1.029972 L 22.071995 -0.961364 L 22.069012 -0.892614 L 22.063614 -0.755398 L 22.061342 -0.686648 L 22.059211 -0.61804 L 22.057364 -0.54929 L 22.05566 -0.480682 L 22.054239 -0.411932 L 22.052961 -0.343324 L 22.051967 -0.274716 L 22.051256 -0.205966 L 22.050688 -0.137358 L 22.050262 -0.068608 L 22.05012 0 L 22.050262 0.068608 L 22.050688 0.137358 L 22.051256 0.205966 L 22.051967 0.274716 L 22.052961 0.343324 L 22.054239 0.411932 L 22.05566 0.480682 L 22.057364 0.54929 L 22.059211 0.61804 L 22.061342 0.686648 L 22.063614 0.755398 L 22.069012 0.892614 L 22.071995 0.961364 L 22.075262 1.029972 L 22.078671 1.098722 L 22.082364 1.16733 L 22.086342 1.235937 L 22.090461 1.304688 L 22.094864 1.373295 L 22.09941 1.442045 L 22.104239 1.510653 L 22.109211 1.579403 L 22.114467 1.648011 L 22.120006 1.716619 L 22.125688 1.785369 L 22.131654 1.853977 L 22.137762 1.922727 L 22.144154 1.991335 L 22.150688 2.059943 L 22.157506 2.128693 L 22.164609 2.197301 L 22.171853 2.266051 L 22.179381 2.334659 L 22.187194 2.403409 L 22.195149 2.472017 L 22.203387 2.540625 L 22.211768 2.609375 L 22.220433 2.677983 L 22.229239 2.746733 L 22.23833 2.815341 L 22.247705 2.883949 L 22.257222 2.952699 L 22.267024 3.021307 L 22.277109 3.090057 L 22.287336 3.158665 L 22.297847 3.227415 L 22.308501 3.296023 L 22.319438 3.364631 L 22.33066 3.433381 L 21.304666 3.433381 L 21.31816 3.364631 L 21.33137 3.296023 L 21.344438 3.227415 L 21.35708 3.158665 L 21.369438 3.090057 L 21.381512 3.021307 L 21.393302 2.952699 L 21.404808 2.883949 L 21.416171 2.815341 L 21.427109 2.746733 L 21.437762 2.677983 L 21.448274 2.609375 L 21.458359 2.540625 L 21.468302 2.472017 L 21.477819 2.403409 L 21.487194 2.334659 L 21.496143 2.266051 L 21.50495 2.197301 L 21.513472 2.128693 L 21.521711 2.059943 L 21.529666 1.991335 L 21.537336 1.922727 L 21.544722 1.853977 L 21.551825 1.785369 L 21.558643 1.716619 L 21.565319 1.648011 L 21.571569 1.579403 L 21.577677 1.510653 L 21.583501 1.442045 L 21.588899 1.373295 L 21.594154 1.304688 L 21.599126 1.235937 L 21.603813 1.16733 L 21.608217 1.098722 L 21.612478 1.029972 L 21.616313 0.961364 L 21.619864 0.892614 L 21.623274 0.824006 L 21.626399 0.755398 L 21.629097 0.686648 L 21.631654 0.61804 L 21.633927 0.54929 L 21.636058 0.480682 L 21.637762 0.411932 L 21.639183 0.343324 L 21.640461 0.274716 L 21.641313 0.205966 L 21.642024 0.137358 L 21.64245 0.068608 L 21.642592 0 L 21.64245 -0.068608 L 21.642024 -0.137358 L 21.641313 -0.205966 L 21.640461 -0.274716 L 21.639183 -0.343324 L 21.637762 -0.411932 L 21.636058 -0.480682 L 21.633927 -0.54929 L 21.631654 -0.61804 L 21.629097 -0.686648 L 21.626399 -0.755398 L 21.623274 -0.824006 L 21.619864 -0.892614 L 21.616313 -0.961364 L 21.612478 -1.029972 L 21.608217 -1.098722 L 21.603813 -1.16733 L 21.599126 -1.235938 L 21.594154 -1.304688 L 21.588899 -1.373295 L 21.583501 -1.442045 L 21.577677 -1.510653 L 21.571569 -1.579403 L 21.565319 -1.648011 L 21.558643 -1.716619 L 21.551825 -1.785369 L 21.544722 -1.853977 L 21.537336 -1.922727 L 21.529666 -1.991335 L 21.521711 -2.059943 L 21.513472 -2.128693 L 21.50495 -2.197301 L 21.496143 -2.266051 L 21.487194 -2.334659 L 21.477819 -2.403409 L 21.468302 -2.472017 L 21.458359 -2.540625 L 21.448274 -2.609375 L 21.437762 -2.677983 L 21.427109 -2.746733 L 21.416171 -2.815341 L 21.404808 -2.883949 L 21.393302 -2.952699 L 21.381512 -3.021307 L 21.369438 -3.090057 L 21.35708 -3.158665 L 21.344438 -3.227415 L 21.33137 -3.296023 L 21.31816 -3.364631 L 21.304666 -3.433381 Z M 22.33066 -3.433381 " transform="matrix(27.5,0,0,27.5,-186.327522,275)"/>
<g clip-path="url(#clip4)" clip-rule="nonzero">
<path style="fill:none;stroke-width:0.0777778;stroke-linecap:round;stroke-linejoin:bevel;stroke:rgb(82.499999%,82.499999%,82.499999%);stroke-opacity:1;stroke-miterlimit:10;" d="M 21.304666 -3.433381 L 21.31816 -3.364631 L 21.33137 -3.296023 L 21.344438 -3.227415 L 21.35708 -3.158665 L 21.369438 -3.090057 L 21.381512 -3.021307 L 21.393302 -2.952699 L 21.404808 -2.883949 L 21.416171 -2.815341 L 21.427109 -2.746733 L 21.437762 -2.677983 L 21.448274 -2.609375 L 21.458359 -2.540625 L 21.468302 -2.472017 L 21.477819 -2.403409 L 21.487194 -2.334659 L 21.496143 -2.266051 L 21.50495 -2.197301 L 21.513472 -2.128693 L 21.521711 -2.059943 L 21.529666 -1.991335 L 21.537336 -1.922727 L 21.544722 -1.853977 L 21.551825 -1.785369 L 21.558643 -1.716619 L 21.565319 -1.648011 L 21.571569 -1.579403 L 21.577677 -1.510653 L 21.583501 -1.442045 L 21.588899 -1.373295 L 21.594154 -1.304688 L 21.599126 -1.235938 L 21.603813 -1.16733 L 21.608217 -1.098722 L 21.612478 -1.029972 L 21.616313 -0.961364 L 21.619864 -0.892614 L 21.623274 -0.824006 L 21.626399 -0.755398 L 21.629097 -0.686648 L 21.631654 -0.61804 L 21.633927 -0.54929 L 21.636058 -0.480682 L 21.637762 -0.411932 L 21.639183 -0.343324 L 21.640461 -0.274716 L 21.641313 -0.205966 L 21.642024 -0.137358 L 21.64245 -0.068608 L 21.642592 0 L 21.64245 0.068608 L 21.642024 0.137358 L 21.641313 0.205966 L 21.640461 0.274716 L 21.639183 0.343324 L 21.637762 0.411932 L 21.636058 0.480682 L 21.633927 0.54929 L 21.631654 0.61804 L 21.629097 0.686648 L 21.626399 0.755398 L 21.623274 0.824006 L 21.619864 0.892614 L 21.616313 0.961364 L 21.612478 1.029972 L 21.608217 1.098722 L 21.603813 1.16733 L 21.599126 1.235937 L 21.594154 1.304688 L 21.588899 1.373295 L 21.583501 1.442045 L 21.577677 1.510653 L 21.571569 1.579403 L 21.565319 1.648011 L 21.558643 1.716619 L 21.551825 1.785369 L 21.544722 1.853977 L 21.537336 1.922727 L 21.529666 1.991335 L 21.521711 2.059943 L 21.513472 2.128693 L 21.50495 2.197301 L 21.496143 2.266051 L 21.487194 2.334659 L 21.477819 2.403409 L 21.468302 2.472017 L 21.458359 2.540625 L 21.448274 2.609375 L 21.437762 2.677983 L 21.427109 2.746733 L 21.416171 2.815341 L 21.404808 2.883949 L 21.393302 2.952699 L 21.381512 3.021307 L 21.369438 3.090057 L 21.35708 3.158665 L 21.344438 3.227415 L 21.33137 3.296023 L 21.31816 3.364631 L 21.304666 3.433381 " transform="matrix(27.5,0,0,27.5,-186.327522,275)"/>
</g>
<path style="fill-rule:nonzero;fill:rgb(50%,50%,50%);fill-opacity:0.85;stroke-width:0.0777778;stroke-linecap:round;stroke-linejoin:bevel;stroke:rgb(82.499999%,82.499999%,82.499999%);stroke-opacity:1;stroke-miterlimit:10;" d="M 20.827819 -2.809091 L 20.827819 -1.853977 L 20.827961 -1.797869 L 20.827961 1.797869 L 20.827819 1.853977 L 20.827819 2.809091 L 20.256086 2.809091 L 20.256086 -2.809091 Z M 20.827819 -2.809091 " transform="matrix(27.5,0,0,27.5,-186.327522,275)"/>
<g clip-path="url(#clip5)" clip-rule="nonzero">
<path style="fill:none;stroke-width:0.0777778;stroke-linecap:round;stroke-linejoin:bevel;stroke:rgb(82.499999%,82.499999%,82.499999%);stroke-opacity:1;stroke-miterlimit:10;" d="M 20.256086 -2.809091 L 20.256086 2.809091 " transform="matrix(27.5,0,0,27.5,-186.327522,275)"/>
</g>
<path style="fill-rule:nonzero;fill:rgb(50%,50%,50%);fill-opacity:0.85;stroke-width:0.0777778;stroke-linecap:round;stroke-linejoin:bevel;stroke:rgb(82.499999%,82.499999%,82.499999%);stroke-opacity:1;stroke-miterlimit:10;" d="M 19.249268 -3.433381 L 19.240603 -3.364631 L 19.232222 -3.296023 L 19.223984 -3.227415 L 19.216029 -3.158665 L 19.208217 -3.090057 L 19.200404 -3.021307 L 19.193018 -2.952699 L 19.185631 -2.883949 L 19.171427 -2.746733 L 19.164609 -2.677983 L 19.158075 -2.609375 L 19.151541 -2.540625 L 19.145291 -2.472017 L 19.139183 -2.403409 L 19.133217 -2.334659 L 19.127393 -2.266051 L 19.121853 -2.197301 L 19.116455 -2.128693 L 19.1112 -2.059943 L 19.106086 -1.991335 L 19.101256 -1.922727 L 19.096427 -1.853977 L 19.091881 -1.785369 L 19.087478 -1.716619 L 19.079239 -1.579403 L 19.075404 -1.510653 L 19.071711 -1.442045 L 19.06816 -1.373295 L 19.064893 -1.304688 L 19.061626 -1.235938 L 19.058643 -1.16733 L 19.055802 -1.098722 L 19.053103 -1.029972 L 19.050688 -0.961364 L 19.048274 -0.892614 L 19.046143 -0.824006 L 19.044154 -0.755398 L 19.04245 -0.686648 L 19.040745 -0.61804 L 19.039325 -0.54929 L 19.038046 -0.480682 L 19.03691 -0.411932 L 19.035916 -0.343324 L 19.035205 -0.274716 L 19.034637 -0.205966 L 19.034211 -0.137358 L 19.033927 -0.068608 L 19.033785 0 L 19.033927 0.068608 L 19.034211 0.137358 L 19.034637 0.205966 L 19.035205 0.274716 L 19.035916 0.343324 L 19.03691 0.411932 L 19.038046 0.480682 L 19.039325 0.54929 L 19.040745 0.61804 L 19.04245 0.686648 L 19.044154 0.755398 L 19.046143 0.824006 L 19.048274 0.892614 L 19.050688 0.961364 L 19.053103 1.029972 L 19.055802 1.098722 L 19.058643 1.16733 L 19.061626 1.235937 L 19.064893 1.304688 L 19.06816 1.373295 L 19.071711 1.442045 L 19.075404 1.510653 L 19.079239 1.579403 L 19.087478 1.716619 L 19.091881 1.785369 L 19.096427 1.853977 L 19.101256 1.922727 L 19.106086 1.991335 L 19.1112 2.059943 L 19.116455 2.128693 L 19.121853 2.197301 L 19.127393 2.266051 L 19.133217 2.334659 L 19.139183 2.403409 L 19.145291 2.472017 L 19.151541 2.540625 L 19.158075 2.609375 L 19.164609 2.677983 L 19.171427 2.746733 L 19.185631 2.883949 L 19.193018 2.952699 L 19.200404 3.021307 L 19.208217 3.090057 L 19.216029 3.158665 L 19.223984 3.227415 L 19.232222 3.296023 L 19.240603 3.364631 L 19.249268 3.433381 L 18.101967 3.433381 L 18.053245 3.364631 L 18.005944 3.296023 L 17.960063 3.227415 L 17.915603 3.158665 L 17.872421 3.090057 L 17.830518 3.021307 L 17.789893 2.952699 L 17.750546 2.883949 L 17.712478 2.815341 L 17.675404 2.746733 L 17.639751 2.677983 L 17.605092 2.609375 L 17.571569 2.540625 L 17.539041 2.472017 L 17.507791 2.403409 L 17.477535 2.334659 L 17.448274 2.266051 L 17.420006 2.197301 L 17.392734 2.128693 L 17.366597 2.059943 L 17.341313 1.991335 L 17.317024 1.922727 L 17.293728 1.853977 L 17.271285 1.785369 L 17.249836 1.716619 L 17.229239 1.648011 L 17.209637 1.579403 L 17.190887 1.510653 L 17.173131 1.442045 L 17.156086 1.373295 L 17.140035 1.304688 L 17.124836 1.235937 L 17.110489 1.16733 L 17.096853 1.098722 L 17.084211 1.029972 L 17.072421 0.961364 L 17.061484 0.892614 L 17.051256 0.824006 L 17.042024 0.755398 L 17.033501 0.686648 L 17.02583 0.61804 L 17.019012 0.54929 L 17.012904 0.480682 L 17.007649 0.411932 L 17.003245 0.343324 L 16.999552 0.274716 L 16.996853 0.205966 L 16.994722 0.137358 L 16.993586 0.068608 L 16.99316 0 L 16.993586 -0.068608 L 16.994722 -0.137358 L 16.996853 -0.205966 L 16.999552 -0.274716 L 17.003245 -0.343324 L 17.007649 -0.411932 L 17.012904 -0.480682 L 17.019012 -0.54929 L 17.02583 -0.61804 L 17.033501 -0.686648 L 17.042024 -0.755398 L 17.051256 -0.824006 L 17.061484 -0.892614 L 17.072421 -0.961364 L 17.084211 -1.029972 L 17.096853 -1.098722 L 17.110489 -1.16733 L 17.124836 -1.235938 L 17.140035 -1.304688 L 17.156086 -1.373295 L 17.173131 -1.442045 L 17.190887 -1.510653 L 17.209637 -1.579403 L 17.229239 -1.648011 L 17.249836 -1.716619 L 17.271285 -1.785369 L 17.293728 -1.853977 L 17.317024 -1.922727 L 17.341313 -1.991335 L 17.366597 -2.059943 L 17.392734 -2.128693 L 17.420006 -2.197301 L 17.448274 -2.266051 L 17.477535 -2.334659 L 17.507791 -2.403409 L 17.539041 -2.472017 L 17.571569 -2.540625 L 17.605092 -2.609375 L 17.639751 -2.677983 L 17.675404 -2.746733 L 17.712478 -2.815341 L 17.750546 -2.883949 L 17.789893 -2.952699 L 17.830518 -3.021307 L 17.872421 -3.090057 L 17.915603 -3.158665 L 17.960063 -3.227415 L 18.005944 -3.296023 L 18.053245 -3.364631 L 18.101967 -3.433381 Z M 19.249268 -3.433381 " transform="matrix(27.5,0,0,27.5,-186.327522,275)"/>
<g clip-path="url(#clip6)" clip-rule="nonzero">
<path style="fill:none;stroke-width:0.0777778;stroke-linecap:round;stroke-linejoin:bevel;stroke:rgb(82.499999%,82.499999%,82.499999%);stroke-opacity:1;stroke-miterlimit:10;" d="M 18.101967 -3.433381 L 18.053245 -3.364631 L 18.005944 -3.296023 L 17.960063 -3.227415 L 17.915603 -3.158665 L 17.872421 -3.090057 L 17.830518 -3.021307 L 17.789893 -2.952699 L 17.750546 -2.883949 L 17.712478 -2.815341 L 17.675404 -2.746733 L 17.639751 -2.677983 L 17.605092 -2.609375 L 17.571569 -2.540625 L 17.539041 -2.472017 L 17.507791 -2.403409 L 17.477535 -2.334659 L 17.448274 -2.266051 L 17.420006 -2.197301 L 17.392734 -2.128693 L 17.366597 -2.059943 L 17.341313 -1.991335 L 17.317024 -1.922727 L 17.293728 -1.853977 L 17.271285 -1.785369 L 17.249836 -1.716619 L 17.229239 -1.648011 L 17.209637 -1.579403 L 17.190887 -1.510653 L 17.173131 -1.442045 L 17.156086 -1.373295 L 17.140035 -1.304688 L 17.124836 -1.235938 L 17.110489 -1.16733 L 17.096853 -1.098722 L 17.084211 -1.029972 L 17.072421 -0.961364 L 17.061484 -0.892614 L 17.051256 -0.824006 L 17.042024 -0.755398 L 17.033501 -0.686648 L 17.02583 -0.61804 L 17.019012 -0.54929 L 17.012904 -0.480682 L 17.007649 -0.411932 L 17.003245 -0.343324 L 16.999552 -0.274716 L 16.996853 -0.205966 L 16.994722 -0.137358 L 16.993586 -0.068608 L 16.99316 0 L 16.993586 0.068608 L 16.994722 0.137358 L 16.996853 0.205966 L 16.999552 0.274716 L 17.003245 0.343324 L 17.007649 0.411932 L 17.012904 0.480682 L 17.019012 0.54929 L 17.02583 0.61804 L 17.033501 0.686648 L 17.042024 0.755398 L 17.051256 0.824006 L 17.061484 0.892614 L 17.072421 0.961364 L 17.084211 1.029972 L 17.096853 1.098722 L 17.110489 1.16733 L 17.124836 1.235937 L 17.140035 1.304688 L 17.156086 1.373295 L 17.173131 1.442045 L 17.190887 1.510653 L 17.209637 1.579403 L 17.229239 1.648011 L 17.249836 1.716619 L 17.271285 1.785369 L 17.293728 1.853977 L 17.317024 1.922727 L 17.341313 1.991335 L 17.366597 2.059943 L 17.392734 2.128693 L 17.420006 2.197301 L 17.448274 2.266051 L 17.477535 2.334659 L 17.507791 2.403409 L 17.539041 2.472017 L 17.571569 2.540625 L 17.605092 2.609375 L 17.639751 2.677983 L 17.675404 2.746733 L 17.712478 2.815341 L 17.750546 2.883949 L 17.789893 2.952699 L 17.830518 3.021307 L 17.872421 3.090057 L 17.915603 3.158665 L 17.960063 3.227415 L 18.005944 3.296023 L 18.053245 3.364631 L 18.101967 3.433381 " transform="matrix(27.5,0,0,27.5,-186.327522,275)"/>
</g>
<path style="fill-rule:nonzero;fill:rgb(50%,50%,50%);fill-opacity:0.85;stroke-width:0.0777778;stroke-linecap:round;stroke-linejoin:bevel;stroke:rgb(82.499999%,82.499999%,82.499999%);stroke-opacity:1;stroke-miterlimit:10;" d="M 16.697563 -3.433381 L 16.707791 -3.364631 L 16.717734 -3.296023 L 16.727535 -3.227415 L 16.737052 -3.158665 L 16.746427 -3.090057 L 16.75566 -3.021307 L 16.764609 -2.952699 L 16.773274 -2.883949 L 16.781796 -2.815341 L 16.790177 -2.746733 L 16.798274 -2.677983 L 16.806228 -2.609375 L 16.813899 -2.540625 L 16.828671 -2.403409 L 16.835631 -2.334659 L 16.842592 -2.266051 L 16.849268 -2.197301 L 16.85566 -2.128693 L 16.86191 -2.059943 L 16.868018 -1.991335 L 16.873842 -1.922727 L 16.879381 -1.853977 L 16.884779 -1.785369 L 16.890035 -1.716619 L 16.895006 -1.648011 L 16.899836 -1.579403 L 16.904524 -1.510653 L 16.908785 -1.442045 L 16.913046 -1.373295 L 16.917024 -1.304688 L 16.920859 -1.235938 L 16.92441 -1.16733 L 16.927677 -1.098722 L 16.930944 -1.029972 L 16.933927 -0.961364 L 16.936626 -0.892614 L 16.939183 -0.824006 L 16.941455 -0.755398 L 16.943728 -0.686648 L 16.945575 -0.61804 L 16.947279 -0.54929 L 16.948842 -0.480682 L 16.95012 -0.411932 L 16.951256 -0.343324 L 16.952251 -0.274716 L 16.952961 -0.205966 L 16.953387 -0.137358 L 16.953813 -0.068608 L 16.953813 0.068608 L 16.953387 0.137358 L 16.952961 0.205966 L 16.952251 0.274716 L 16.951256 0.343324 L 16.95012 0.411932 L 16.948842 0.480682 L 16.947279 0.54929 L 16.945575 0.61804 L 16.943728 0.686648 L 16.941455 0.755398 L 16.939183 0.824006 L 16.936626 0.892614 L 16.933927 0.961364 L 16.930944 1.029972 L 16.927677 1.098722 L 16.92441 1.16733 L 16.920859 1.235937 L 16.917024 1.304688 L 16.913046 1.373295 L 16.908785 1.442045 L 16.904524 1.510653 L 16.899836 1.579403 L 16.895006 1.648011 L 16.890035 1.716619 L 16.884779 1.785369 L 16.879381 1.853977 L 16.873842 1.922727 L 16.868018 1.991335 L 16.86191 2.059943 L 16.85566 2.128693 L 16.849268 2.197301 L 16.842592 2.266051 L 16.835631 2.334659 L 16.828671 2.403409 L 16.813899 2.540625 L 16.806228 2.609375 L 16.798274 2.677983 L 16.790177 2.746733 L 16.781796 2.815341 L 16.773274 2.883949 L 16.764609 2.952699 L 16.75566 3.021307 L 16.746427 3.090057 L 16.737052 3.158665 L 16.727535 3.227415 L 16.717734 3.296023 L 16.707791 3.364631 L 16.697563 3.433381 L 16.599268 3.433381 L 16.527819 3.364631 L 16.459353 3.296023 L 16.393728 3.227415 L 16.330518 3.158665 L 16.269864 3.090057 L 16.211342 3.021307 L 16.155234 2.952699 L 16.101114 2.883949 L 16.049126 2.815341 L 15.998984 2.746733 L 15.950688 2.677983 L 15.904239 2.609375 L 15.859495 2.540625 L 15.816313 2.472017 L 15.774978 2.403409 L 15.735063 2.334659 L 15.696711 2.266051 L 15.659779 2.197301 L 15.62441 2.128693 L 15.590319 2.059943 L 15.557649 1.991335 L 15.526399 1.922727 L 15.496427 1.853977 L 15.467592 1.785369 L 15.440177 1.716619 L 15.414041 1.648011 L 15.389041 1.579403 L 15.365177 1.510653 L 15.342592 1.442045 L 15.321001 1.373295 L 15.300688 1.304688 L 15.281512 1.235937 L 15.263472 1.16733 L 15.246427 1.098722 L 15.230518 1.029972 L 15.215745 0.961364 L 15.201967 0.892614 L 15.189183 0.824006 L 15.177535 0.755398 L 15.167024 0.686648 L 15.157364 0.61804 L 15.148842 0.54929 L 15.141313 0.480682 L 15.134779 0.411932 L 15.129239 0.343324 L 15.124694 0.274716 L 15.121143 0.205966 L 15.118728 0.137358 L 15.117166 0.068608 L 15.116739 0 L 15.117166 -0.068608 L 15.118728 -0.137358 L 15.121143 -0.205966 L 15.124694 -0.274716 L 15.129239 -0.343324 L 15.134779 -0.411932 L 15.141313 -0.480682 L 15.148842 -0.54929 L 15.157364 -0.61804 L 15.167024 -0.686648 L 15.177535 -0.755398 L 15.189183 -0.824006 L 15.201967 -0.892614 L 15.215745 -0.961364 L 15.230518 -1.029972 L 15.246427 -1.098722 L 15.263472 -1.16733 L 15.281512 -1.235938 L 15.300688 -1.304688 L 15.321001 -1.373295 L 15.342592 -1.442045 L 15.365177 -1.510653 L 15.389041 -1.579403 L 15.414041 -1.648011 L 15.440177 -1.716619 L 15.467592 -1.785369 L 15.496427 -1.853977 L 15.526399 -1.922727 L 15.557649 -1.991335 L 15.590319 -2.059943 L 15.62441 -2.128693 L 15.659779 -2.197301 L 15.696711 -2.266051 L 15.735063 -2.334659 L 15.774978 -2.403409 L 15.816313 -2.472017 L 15.859495 -2.540625 L 15.904239 -2.609375 L 15.950688 -2.677983 L 15.998984 -2.746733 L 16.049126 -2.815341 L 16.101114 -2.883949 L 16.155234 -2.952699 L 16.211342 -3.021307 L 16.269864 -3.090057 L 16.330518 -3.158665 L 16.393728 -3.227415 L 16.459353 -3.296023 L 16.527819 -3.364631 L 16.599268 -3.433381 Z M 16.697563 -3.433381 " transform="matrix(27.5,0,0,27.5,-186.327522,275)"/>
<path style="fill-rule:nonzero;fill:rgb(50%,50%,50%);fill-opacity:0.85;stroke-width:0.0777778;stroke-linecap:round;stroke-linejoin:bevel;stroke:rgb(82.499999%,82.499999%,82.499999%);stroke-opacity:1;stroke-miterlimit:10;" d="M 16.599268 -3.433381 L 16.527819 -3.364631 L 16.459353 -3.296023 L 16.393728 -3.227415 L 16.330518 -3.158665 L 16.269864 -3.090057 L 16.211342 -3.021307 L 16.155234 -2.952699 L 16.101114 -2.883949 L 16.049126 -2.815341 L 15.998984 -2.746733 L 15.950688 -2.677983 L 15.904239 -2.609375 L 15.859495 -2.540625 L 15.816313 -2.472017 L 15.774978 -2.403409 L 15.735063 -2.334659 L 15.696711 -2.266051 L 15.659779 -2.197301 L 15.62441 -2.128693 L 15.590319 -2.059943 L 15.557649 -1.991335 L 15.526399 -1.922727 L 15.496427 -1.853977 L 15.467592 -1.785369 L 15.440177 -1.716619 L 15.414041 -1.648011 L 15.389041 -1.579403 L 15.365177 -1.510653 L 15.342592 -1.442045 L 15.321001 -1.373295 L 15.300688 -1.304688 L 15.281512 -1.235938 L 15.263472 -1.16733 L 15.246427 -1.098722 L 15.230518 -1.029972 L 15.215745 -0.961364 L 15.201967 -0.892614 L 15.189183 -0.824006 L 15.177535 -0.755398 L 15.167024 -0.686648 L 15.157364 -0.61804 L 15.148842 -0.54929 L 15.141313 -0.480682 L 15.134779 -0.411932 L 15.129239 -0.343324 L 15.124694 -0.274716 L 15.121143 -0.205966 L 15.118728 -0.137358 L 15.117166 -0.068608 L 15.116739 0 L 15.117166 0.068608 L 15.118728 0.137358 L 15.121143 0.205966 L 15.124694 0.274716 L 15.129239 0.343324 L 15.134779 0.411932 L 15.141313 0.480682 L 15.148842 0.54929 L 15.157364 0.61804 L 15.167024 0.686648 L 15.177535 0.755398 L 15.189183 0.824006 L 15.201967 0.892614 L 15.215745 0.961364 L 15.230518 1.029972 L 15.246427 1.098722 L 15.263472 1.16733 L 15.281512 1.235937 L 15.300688 1.304688 L 15.321001 1.373295 L 15.342592 1.442045 L 15.365177 1.510653 L 15.389041 1.579403 L 15.414041 1.648011 L 15.440177 1.716619 L 15.467592 1.785369 L 15.496427 1.853977 L 15.526399 1.922727 L 15.557649 1.991335 L 15.590319 2.059943 L 15.62441 2.128693 L 15.659779 2.197301 L 15.696711 2.266051 L 15.735063 2.334659 L 15.774978 2.403409 L 15.816313 2.472017 L 15.859495 2.540625 L 15.904239 2.609375 L 15.950688 2.677983 L 15.998984 2.746733 L 16.049126 2.815341 L 16.101114 2.883949 L 16.155234 2.952699 L 16.211342 3.021307 L 16.269864 3.090057 L 16.330518 3.158665 L 16.393728 3.227415 L 16.459353 3.296023 L 16.527819 3.364631 L 16.599268 3.433381 L 15.353245 3.745455 L 15.319722 3.670597 L 15.287052 3.595597 L 15.255092 3.520739 L 15.223984 3.445881 L 15.193728 3.370881 L 15.164183 3.296023 L 15.135347 3.221165 L 15.107222 3.146165 L 15.07995 3.071307 L 15.053387 2.996307 L 15.027677 2.921449 L 15.002535 2.846591 L 14.978245 2.771591 L 14.954524 2.696733 L 14.931654 2.621875 L 14.909353 2.546875 L 14.887762 2.472017 L 14.867024 2.397159 L 14.846853 2.322159 L 14.827393 2.247301 L 14.808501 2.172301 L 14.790461 2.097443 L 14.772989 2.022585 L 14.756228 1.947585 L 14.740035 1.872727 L 14.724694 1.797869 L 14.709779 1.722869 L 14.695717 1.648011 L 14.682222 1.573153 L 14.669296 1.498153 L 14.65708 1.423295 L 14.645575 1.348437 L 14.634637 1.273438 L 14.624268 1.19858 L 14.614609 1.12358 L 14.60566 1.048722 L 14.597279 0.973864 L 14.589467 0.898864 L 14.582364 0.824006 L 14.57583 0.749148 L 14.570006 0.674148 L 14.564751 0.59929 L 14.560063 0.524432 L 14.556086 0.449432 L 14.552677 0.374574 L 14.549836 0.299574 L 14.547705 0.224716 L 14.546143 0.149858 L 14.545149 0.074858 L 14.544864 0 L 14.545149 -0.074858 L 14.546143 -0.149858 L 14.547705 -0.224716 L 14.549836 -0.299574 L 14.552677 -0.374574 L 14.556086 -0.449432 L 14.560063 -0.524432 L 14.564751 -0.59929 L 14.570006 -0.674148 L 14.57583 -0.749148 L 14.582364 -0.824006 L 14.589467 -0.898864 L 14.597279 -0.973864 L 14.60566 -1.048722 L 14.614609 -1.12358 L 14.624268 -1.19858 L 14.634637 -1.273438 L 14.645575 -1.348438 L 14.65708 -1.423295 L 14.669296 -1.498153 L 14.682222 -1.573153 L 14.695717 -1.648011 L 14.709779 -1.722869 L 14.724694 -1.797869 L 14.740035 -1.872727 L 14.756228 -1.947585 L 14.772989 -2.022585 L 14.790461 -2.097443 L 14.808501 -2.172301 L 14.827393 -2.247301 L 14.846853 -2.322159 L 14.867024 -2.397159 L 14.887762 -2.472017 L 14.909353 -2.546875 L 14.931654 -2.621875 L 14.954524 -2.696733 L 14.978245 -2.771591 L 15.002535 -2.846591 L 15.027677 -2.921449 L 15.053387 -2.996307 L 15.07995 -3.071307 L 15.107222 -3.146165 L 15.135347 -3.221165 L 15.164183 -3.296023 L 15.193728 -3.370881 L 15.223984 -3.445881 L 15.255092 -3.520739 L 15.287052 -3.595597 L 15.319722 -3.670597 L 15.353245 -3.745455 Z M 16.599268 -3.433381 " transform="matrix(27.5,0,0,27.5,-186.327522,275)"/>
<g clip-path="url(#clip7)" clip-rule="nonzero">
<path style="fill:none;stroke-width:0.0777778;stroke-linecap:round;stroke-linejoin:bevel;stroke:rgb(82.499999%,82.499999%,82.499999%);stroke-opacity:1;stroke-miterlimit:10;" d="M 15.353245 -3.745455 L 15.319722 -3.670597 L 15.287052 -3.595597 L 15.255092 -3.520739 L 15.223984 -3.445881 L 15.193728 -3.370881 L 15.164183 -3.296023 L 15.135347 -3.221165 L 15.107222 -3.146165 L 15.07995 -3.071307 L 15.053387 -2.996307 L 15.027677 -2.921449 L 15.002535 -2.846591 L 14.978245 -2.771591 L 14.954524 -2.696733 L 14.931654 -2.621875 L 14.909353 -2.546875 L 14.887762 -2.472017 L 14.867024 -2.397159 L 14.846853 -2.322159 L 14.827393 -2.247301 L 14.808501 -2.172301 L 14.790461 -2.097443 L 14.772989 -2.022585 L 14.756228 -1.947585 L 14.740035 -1.872727 L 14.724694 -1.797869 L 14.709779 -1.722869 L 14.695717 -1.648011 L 14.682222 -1.573153 L 14.669296 -1.498153 L 14.65708 -1.423295 L 14.645575 -1.348438 L 14.634637 -1.273438 L 14.624268 -1.19858 L 14.614609 -1.12358 L 14.60566 -1.048722 L 14.597279 -0.973864 L 14.589467 -0.898864 L 14.582364 -0.824006 L 14.57583 -0.749148 L 14.570006 -0.674148 L 14.564751 -0.59929 L 14.560063 -0.524432 L 14.556086 -0.449432 L 14.552677 -0.374574 L 14.549836 -0.299574 L 14.547705 -0.224716 L 14.546143 -0.149858 L 14.545149 -0.074858 L 14.544864 0 L 14.545149 0.074858 L 14.546143 0.149858 L 14.547705 0.224716 L 14.549836 0.299574 L 14.552677 0.374574 L 14.556086 0.449432 L 14.560063 0.524432 L 14.564751 0.59929 L 14.570006 0.674148 L 14.57583 0.749148 L 14.582364 0.824006 L 14.589467 0.898864 L 14.597279 0.973864 L 14.60566 1.048722 L 14.614609 1.12358 L 14.624268 1.19858 L 14.634637 1.273438 L 14.645575 1.348437 L 14.65708 1.423295 L 14.669296 1.498153 L 14.682222 1.573153 L 14.695717 1.648011 L 14.709779 1.722869 L 14.724694 1.797869 L 14.740035 1.872727 L 14.756228 1.947585 L 14.772989 2.022585 L 14.790461 2.097443 L 14.808501 2.172301 L 14.827393 2.247301 L 14.846853 2.322159 L 14.867024 2.397159 L 14.887762 2.472017 L 14.909353 2.546875 L 14.931654 2.621875 L 14.954524 2.696733 L 14.978245 2.771591 L 15.002535 2.846591 L 15.027677 2.921449 L 15.053387 2.996307 L 15.07995 3.071307 L 15.107222 3.146165 L 15.135347 3.221165 L 15.164183 3.296023 L 15.193728 3.370881 L 15.223984 3.445881 L 15.255092 3.520739 L 15.287052 3.595597 L 15.319722 3.670597 L 15.353245 3.745455 " transform="matrix(27.5,0,0,27.5,-186.327522,275)"/>
</g>
<path style="fill:none;stroke-width:0.555556;stroke-linecap:round;stroke-linejoin:bevel;stroke:rgb(82.499999%,82.499999%,82.499999%);stroke-opacity:1;stroke-miterlimit:10;" d="M 52.315959 17.480913 L 52.315959 7.480796 " transform="matrix(10.326441,0,0,10.326441,-186.327522,275)"/>
<path style="fill:none;stroke-width:0.555556;stroke-linecap:round;stroke-linejoin:bevel;stroke:rgb(82.499999%,82.499999%,82.499999%);stroke-opacity:1;stroke-miterlimit:10;" d="M 52.315959 -17.480913 L 52.315959 -7.480796 " transform="matrix(10.326441,0,0,10.326441,-186.327522,275)"/>
</g>
</svg>
