<?xml version="1.0" encoding="UTF-8"?>
<svg xmlns="http://www.w3.org/2000/svg" xmlns:xlink="http://www.w3.org/1999/xlink" width="900pt" height="550pt" viewBox="0 0 900 550" version="1.2">
<defs>
<clipPath id="clip1">
  <path d="M 614 173.164062 L 700 173.164062 L 700 376.839844 L 614 376.839844 Z M 614 173.164062 "/>
</clipPath>
<clipPath id="clip2">
  <path d="M 555 173.164062 L 589 173.164062 L 589 376.839844 L 555 376.839844 Z M 555 173.164062 "/>
</clipPath>
<clipPath id="clip3">
  <path d="M 518 173.164062 L 539 173.164062 L 539 376.839844 L 518 376.839844 Z M 518 173.164062 "/>
</clipPath>
<clipPath id="clip4">
  <path d="M 393 202.832031 L 415 202.832031 L 415 347.167969 L 393 347.167969 Z M 393 202.832031 "/>
</clipPath>
<clipPath id="clip5">
  <path d="M 308 194.8125 L 339 194.8125 L 339 355.1875 L 308 355.1875 Z M 308 194.8125 "/>
</clipPath>
<clipPath id="clip6">
  <path d="M 273 194.8125 L 289 194.8125 L 289 355.1875 L 273 355.1875 Z M 273 194.8125 "/>
</clipPath>
<clipPath id="clip7">
  <path d="M 240 194.8125 L 257 194.8125 L 257 355.1875 L 240 355.1875 Z M 240 194.8125 "/>
</clipPath>
<clipPath id="clip8">
  <path d="M 208 178.777344 L 219 178.777344 L 219 371.226562 L 208 371.226562 Z M 208 178.777344 "/>
</clipPath>
<clipPath id="clip9">
  <path d="M 184 171.558594 L 187 171.558594 L 187 378.441406 L 184 378.441406 Z M 184 171.558594 "/>
</clipPath>
</defs>
<g id="surface196">
<rect x="0" y="0" width="900" height="550" style="fill:rgb(15.000001%,15.000001%,15.000001%);fill-opacity:1;stroke:none;"/>
<path style="fill:none;stroke-width:4;stroke-linecap:round;stroke-linejoin:bevel;stroke:rgb(82.499999%,82.499999%,82.499999%);stroke-opacity:0.5;stroke-miterlimit:10;" d="M 0 275 L 900 275 "/>
<path style="fill:none;stroke-width:0.1;stroke-linecap:round;stroke-linejoin:bevel;stroke:rgb(60%,60%,60%);stroke-opacity:0.554875;stroke-miterlimit:10;" d="M 2938.912434 0.0285511 L 23.326923 0.031392 L 22.743684 0.0306818 L 19.155616 0.0480114 L 18.717974 0.05 L 17.432747 0.0701705 L 16.232036 0.077983 L 13.10448 0.0960227 L 11.69823 -0.309801 L 10.231752 -0.925426 L 9.858031 -1.082386 L 9.463286 -1.136932 L 8.434877 -1.907528 L 8.027775 -1.955256 L 7.561866 -2.112926 L 7.409877 -2.236222 L 6.897093 -2.424716 L 6.515559 -2.569318 L 5.52394 -3.017188 L 5.040417 -3.034943 L 4.956894 -3.05142 L 4.082036 -3.164205 L -0.0000658153 -3.972443 " transform="matrix(27.5,0,0,27.5,73.122904,275)"/>
<path style="fill:none;stroke-width:0.1;stroke-linecap:round;stroke-linejoin:bevel;stroke:rgb(60%,60%,60%);stroke-opacity:0.639672;stroke-miterlimit:10;" d="M 2938.912434 0.0142045 L 23.327065 0.015625 L 22.743826 0.0153409 L 19.155616 0.0240057 L 18.718116 0.025 L 17.432889 0.0350852 L 16.231894 0.0389205 L 13.119821 0.0478693 L 11.689849 0.0328125 L 10.231752 0.00539773 L 9.911014 -0.000568182 L 9.619536 -0.00369318 L 8.720531 -0.0210227 L 8.428911 -0.0232955 L 7.804622 -0.031108 L 7.608883 -0.0349432 L 6.417122 -0.049858 L 6.125502 -0.053267 L 6.037718 -0.0546875 L 5.248514 -0.059375 L 4.957036 -0.0633523 L 4.082179 -0.0711648 L -0.0000658153 -0.126705 " transform="matrix(27.5,0,0,27.5,73.122904,275)"/>
<path style="fill:none;stroke-width:0.1;stroke-linecap:round;stroke-linejoin:bevel;stroke:rgb(60%,60%,60%);stroke-opacity:0.639672;stroke-miterlimit:10;" d="M 2938.912434 -0.0142045 L 23.327065 -0.015625 L 22.743826 -0.0153409 L 19.155616 -0.0240057 L 18.718116 -0.025 L 17.432889 -0.0350852 L 16.231894 -0.0389205 L 13.119821 -0.0478693 L 11.689849 -0.0328125 L 10.231752 -0.00539773 L 9.911014 0.000568182 L 9.619536 0.00369318 L 8.720531 0.0210227 L 8.428911 0.0232955 L 7.804622 0.031108 L 7.608883 0.0349432 L 6.417122 0.049858 L 6.125502 0.053267 L 6.037718 0.0546875 L 5.248514 0.059375 L 4.957036 0.0633523 L 4.082179 0.0711648 L -0.0000658153 0.126705 " transform="matrix(27.5,0,0,27.5,73.122904,275)"/>
<path style="fill:none;stroke-width:0.1;stroke-linecap:round;stroke-linejoin:bevel;stroke:rgb(60%,60%,60%);stroke-opacity:0.554875;stroke-miterlimit:10;" d="M 2938.912434 -0.0285511 L 23.326923 -0.031392 L 22.743684 -0.0306818 L 19.155616 -0.0480114 L 18.717974 -0.05 L 17.432747 -0.0701705 L 16.232036 -0.077983 L 13.10448 -0.0960227 L 11.69823 0.309801 L 10.231752 0.925426 L 9.858031 1.082386 L 9.463286 1.136932 L 8.434877 1.907528 L 8.027775 1.955256 L 7.561866 2.112926 L 7.409877 2.236222 L 6.897093 2.424716 L 6.515559 2.569318 L 5.52394 3.017187 L 5.040417 3.034943 L 4.956894 3.05142 L 4.082036 3.164205 L -0.0000658153 3.972443 " transform="matrix(27.5,0,0,27.5,73.122904,275)"/>
<path style="fill-rule:nonzero;fill:rgb(50%,50%,50%);fill-opacity:0.85;stroke-width:0.0777778;stroke-linecap:round;stroke-linejoin:bevel;stroke:rgb(82.499999%,82.499999%,82.499999%);stroke-opacity:1;stroke-miterlimit:10;" d="M 21.45036 -6.414915 L 21.610019 -6.158381 L 21.760872 -5.901705 L 21.903201 -5.64517 L 22.037434 -5.388494 L 22.163855 -5.13196 L 22.282747 -4.875284 L 22.394394 -4.61875 L 22.49894 -4.362216 L 22.596525 -4.10554 L 22.687576 -3.849006 L 22.771951 -3.59233 L 22.850076 -3.335795 L 22.921809 -3.079119 L 22.987434 -2.822585 L 23.047093 -2.565909 L 23.100786 -2.309375 L 23.148656 -2.052841 L 23.190701 -1.796165 L 23.227065 -1.539631 L 23.257605 -1.282955 L 23.282747 -1.02642 L 23.302065 -0.769744 L 23.315985 -0.51321 L 23.324224 -0.256534 L 23.327065 0 L 23.324224 0.256534 L 23.315985 0.51321 L 23.302065 0.769744 L 23.282747 1.02642 L 23.257605 1.282955 L 23.227065 1.539631 L 23.190701 1.796165 L 23.148656 2.052841 L 23.100786 2.309375 L 23.047093 2.565909 L 22.987434 2.822585 L 22.921809 3.079119 L 22.850076 3.335795 L 22.771951 3.59233 L 22.687576 3.849006 L 22.596525 4.10554 L 22.49894 4.362216 L 22.394394 4.61875 L 22.282747 4.875284 L 22.163855 5.13196 L 22.037434 5.388494 L 21.903201 5.64517 L 21.760872 5.901705 L 21.610019 6.158381 L 21.45036 6.414915 L 19.728485 3.703125 L 20.251497 3.554972 L 20.603485 3.40696 L 20.880758 3.258807 L 21.112718 3.110653 L 21.312576 2.9625 L 21.488002 2.814347 L 21.643968 2.666335 L 21.783457 2.518182 L 21.909025 2.370028 L 22.022235 2.221875 L 22.124508 2.073722 L 22.216838 1.92571 L 22.300076 1.777557 L 22.374792 1.629403 L 22.441696 1.48125 L 22.501071 1.333097 L 22.553343 1.184943 L 22.59894 1.036932 L 22.63786 0.888778 L 22.670673 0.740625 L 22.697093 0.592472 L 22.71769 0.444318 L 22.732179 0.296307 L 22.740985 0.148153 L 22.743826 0 L 22.740985 -0.148153 L 22.732179 -0.296307 L 22.71769 -0.444318 L 22.697093 -0.592472 L 22.670673 -0.740625 L 22.63786 -0.888778 L 22.59894 -1.036932 L 22.553343 -1.184943 L 22.501071 -1.333097 L 22.441696 -1.48125 L 22.374792 -1.629403 L 22.300076 -1.777557 L 22.216838 -1.92571 L 22.124508 -2.073722 L 22.022235 -2.221875 L 21.909025 -2.370028 L 21.783457 -2.518182 L 21.643968 -2.666335 L 21.488002 -2.814347 L 21.312576 -2.9625 L 21.112718 -3.110653 L 20.880758 -3.258807 L 20.603485 -3.40696 L 20.251497 -3.554972 L 19.728485 -3.703125 Z M 21.45036 -6.414915 " transform="matrix(27.5,0,0,27.5,73.122904,275)"/>
<g clip-path="url(#clip1)" clip-rule="nonzero">
<path style="fill:none;stroke-width:0.0777778;stroke-linecap:round;stroke-linejoin:bevel;stroke:rgb(82.499999%,82.499999%,82.499999%);stroke-opacity:1;stroke-miterlimit:10;" d="M 19.728485 -3.703125 L 20.251497 -3.554972 L 20.603485 -3.40696 L 20.880758 -3.258807 L 21.112718 -3.110653 L 21.312576 -2.9625 L 21.488002 -2.814347 L 21.643968 -2.666335 L 21.783457 -2.518182 L 21.909025 -2.370028 L 22.022235 -2.221875 L 22.124508 -2.073722 L 22.216838 -1.92571 L 22.300076 -1.777557 L 22.374792 -1.629403 L 22.441696 -1.48125 L 22.501071 -1.333097 L 22.553343 -1.184943 L 22.59894 -1.036932 L 22.63786 -0.888778 L 22.670673 -0.740625 L 22.697093 -0.592472 L 22.71769 -0.444318 L 22.732179 -0.296307 L 22.740985 -0.148153 L 22.743826 0 L 22.740985 0.148153 L 22.732179 0.296307 L 22.71769 0.444318 L 22.697093 0.592472 L 22.670673 0.740625 L 22.63786 0.888778 L 22.59894 1.036932 L 22.553343 1.184943 L 22.501071 1.333097 L 22.441696 1.48125 L 22.374792 1.629403 L 22.300076 1.777557 L 22.216838 1.92571 L 22.124508 2.073722 L 22.022235 2.221875 L 21.909025 2.370028 L 21.783457 2.518182 L 21.643968 2.666335 L 21.488002 2.814347 L 21.312576 2.9625 L 21.112718 3.110653 L 20.880758 3.258807 L 20.603485 3.40696 L 20.251497 3.554972 L 19.728485 3.703125 " transform="matrix(27.5,0,0,27.5,73.122904,275)"/>
</g>
<path style="fill-rule:nonzero;fill:rgb(50%,50%,50%);fill-opacity:0.85;stroke-width:0.0777778;stroke-linecap:round;stroke-linejoin:bevel;stroke:rgb(82.499999%,82.499999%,82.499999%);stroke-opacity:1;stroke-miterlimit:10;" d="M 19.814565 -3.703125 L 19.76144 -3.554972 L 19.710588 -3.40696 L 19.66215 -3.258807 L 19.616127 -3.110653 L 19.572519 -2.9625 L 19.531042 -2.814347 L 19.49198 -2.666335 L 19.45519 -2.518182 L 19.420531 -2.370028 L 19.388002 -2.221875 L 19.357747 -2.073722 L 19.329764 -1.92571 L 19.303769 -1.777557 L 19.279906 -1.629403 L 19.258315 -1.48125 L 19.238713 -1.333097 L 19.221241 -1.184943 L 19.205758 -1.036932 L 19.192406 -0.888778 L 19.181184 -0.740625 L 19.171951 -0.592472 L 19.164707 -0.444318 L 19.159593 -0.296307 L 19.15661 -0.148153 L 19.155616 0 L 19.15661 0.148153 L 19.159593 0.296307 L 19.164707 0.444318 L 19.171951 0.592472 L 19.181184 0.740625 L 19.192406 0.888778 L 19.205758 1.036932 L 19.221241 1.184943 L 19.238713 1.333097 L 19.258315 1.48125 L 19.279906 1.629403 L 19.303769 1.777557 L 19.329764 1.92571 L 19.357747 2.073722 L 19.388002 2.221875 L 19.420531 2.370028 L 19.45519 2.518182 L 19.49198 2.666335 L 19.531042 2.814347 L 19.572519 2.9625 L 19.616127 3.110653 L 19.66215 3.258807 L 19.710588 3.40696 L 19.76144 3.554972 L 19.814565 3.703125 L 17.563713 3.703125 L 17.663144 3.554972 L 17.756752 3.40696 L 17.844821 3.258807 L 17.927775 3.110653 L 18.0059 2.9625 L 18.079054 2.814347 L 18.147804 2.666335 L 18.212008 2.518182 L 18.271951 2.370028 L 18.327633 2.221875 L 18.37948 2.073722 L 18.427207 1.92571 L 18.471099 1.777557 L 18.511156 1.629403 L 18.547661 1.48125 L 18.580332 1.333097 L 18.609593 1.184943 L 18.635161 1.036932 L 18.657321 0.888778 L 18.675929 0.740625 L 18.691127 0.592472 L 18.703059 0.444318 L 18.71144 0.296307 L 18.716554 0.148153 L 18.718116 0 L 18.716554 -0.148153 L 18.71144 -0.296307 L 18.703059 -0.444318 L 18.691127 -0.592472 L 18.675929 -0.740625 L 18.657321 -0.888778 L 18.635161 -1.036932 L 18.609593 -1.184943 L 18.580332 -1.333097 L 18.547661 -1.48125 L 18.511156 -1.629403 L 18.471099 -1.777557 L 18.427207 -1.92571 L 18.37948 -2.073722 L 18.327633 -2.221875 L 18.271951 -2.370028 L 18.212008 -2.518182 L 18.147804 -2.666335 L 18.079054 -2.814347 L 18.0059 -2.9625 L 17.927775 -3.110653 L 17.844821 -3.258807 L 17.756752 -3.40696 L 17.663144 -3.554972 L 17.563713 -3.703125 Z M 19.814565 -3.703125 " transform="matrix(27.5,0,0,27.5,73.122904,275)"/>
<g clip-path="url(#clip2)" clip-rule="nonzero">
<path style="fill:none;stroke-width:0.0777778;stroke-linecap:round;stroke-linejoin:bevel;stroke:rgb(82.499999%,82.499999%,82.499999%);stroke-opacity:1;stroke-miterlimit:10;" d="M 17.563713 -3.703125 L 17.663144 -3.554972 L 17.756752 -3.40696 L 17.844821 -3.258807 L 17.927775 -3.110653 L 18.0059 -2.9625 L 18.079054 -2.814347 L 18.147804 -2.666335 L 18.212008 -2.518182 L 18.271951 -2.370028 L 18.327633 -2.221875 L 18.37948 -2.073722 L 18.427207 -1.92571 L 18.471099 -1.777557 L 18.511156 -1.629403 L 18.547661 -1.48125 L 18.580332 -1.333097 L 18.609593 -1.184943 L 18.635161 -1.036932 L 18.657321 -0.888778 L 18.675929 -0.740625 L 18.691127 -0.592472 L 18.703059 -0.444318 L 18.71144 -0.296307 L 18.716554 -0.148153 L 18.718116 0 L 18.716554 0.148153 L 18.71144 0.296307 L 18.703059 0.444318 L 18.691127 0.592472 L 18.675929 0.740625 L 18.657321 0.888778 L 18.635161 1.036932 L 18.609593 1.184943 L 18.580332 1.333097 L 18.547661 1.48125 L 18.511156 1.629403 L 18.471099 1.777557 L 18.427207 1.92571 L 18.37948 2.073722 L 18.327633 2.221875 L 18.271951 2.370028 L 18.212008 2.518182 L 18.147804 2.666335 L 18.079054 2.814347 L 18.0059 2.9625 L 17.927775 3.110653 L 17.844821 3.258807 L 17.756752 3.40696 L 17.663144 3.554972 L 17.563713 3.703125 " transform="matrix(27.5,0,0,27.5,73.122904,275)"/>
</g>
<path style="fill-rule:nonzero;fill:rgb(50%,50%,50%);fill-opacity:0.85;stroke-width:0.0777778;stroke-linecap:round;stroke-linejoin:bevel;stroke:rgb(82.499999%,82.499999%,82.499999%);stroke-opacity:1;stroke-miterlimit:10;" d="M 17.172804 -3.703125 L 17.1934 -3.554972 L 17.213002 -3.40696 L 17.231752 -3.258807 L 17.24965 -3.110653 L 17.266696 -2.9625 L 17.283031 -2.814347 L 17.298372 -2.666335 L 17.313002 -2.518182 L 17.326639 -2.370028 L 17.339565 -2.221875 L 17.351639 -2.073722 L 17.36286 -1.92571 L 17.37323 -1.777557 L 17.382747 -1.629403 L 17.391411 -1.48125 L 17.399366 -1.333097 L 17.406326 -1.184943 L 17.412576 -1.036932 L 17.417974 -0.888778 L 17.422519 -0.740625 L 17.426213 -0.592472 L 17.429196 -0.444318 L 17.431184 -0.296307 L 17.432463 -0.148153 L 17.432889 0 L 17.432463 0.148153 L 17.431184 0.296307 L 17.429196 0.444318 L 17.426213 0.592472 L 17.422519 0.740625 L 17.417974 0.888778 L 17.412576 1.036932 L 17.406326 1.184943 L 17.399366 1.333097 L 17.391411 1.48125 L 17.382747 1.629403 L 17.37323 1.777557 L 17.36286 1.92571 L 17.351639 2.073722 L 17.339565 2.221875 L 17.326639 2.370028 L 17.313002 2.518182 L 17.298372 2.666335 L 17.283031 2.814347 L 17.266696 2.9625 L 17.24965 3.110653 L 17.231752 3.258807 L 17.213002 3.40696 L 17.1934 3.554972 L 17.172804 3.703125 L 16.878627 3.703125 L 16.826497 3.554972 L 16.776639 3.40696 L 16.729196 3.258807 L 16.684025 3.110653 L 16.641269 2.9625 L 16.600644 2.814347 L 16.56215 2.666335 L 16.526071 2.518182 L 16.49198 2.370028 L 16.460161 2.221875 L 16.430474 2.073722 L 16.402917 1.92571 L 16.377349 1.777557 L 16.354054 1.629403 L 16.332747 1.48125 L 16.313429 1.333097 L 16.296241 1.184943 L 16.281184 1.036932 L 16.267974 0.888778 L 16.256894 0.740625 L 16.247946 0.592472 L 16.240843 0.444318 L 16.235872 0.296307 L 16.232747 0.148153 L 16.231752 0 L 16.232747 -0.148153 L 16.235872 -0.296307 L 16.240843 -0.444318 L 16.247946 -0.592472 L 16.256894 -0.740625 L 16.267974 -0.888778 L 16.281184 -1.036932 L 16.296241 -1.184943 L 16.313429 -1.333097 L 16.332747 -1.48125 L 16.354054 -1.629403 L 16.377349 -1.777557 L 16.402917 -1.92571 L 16.430474 -2.073722 L 16.460161 -2.221875 L 16.49198 -2.370028 L 16.526071 -2.518182 L 16.56215 -2.666335 L 16.600644 -2.814347 L 16.641269 -2.9625 L 16.684025 -3.110653 L 16.729196 -3.258807 L 16.776639 -3.40696 L 16.826497 -3.554972 L 16.878627 -3.703125 Z M 17.172804 -3.703125 " transform="matrix(27.5,0,0,27.5,73.122904,275)"/>
<g clip-path="url(#clip3)" clip-rule="nonzero">
<path style="fill:none;stroke-width:0.0777778;stroke-linecap:round;stroke-linejoin:bevel;stroke:rgb(82.499999%,82.499999%,82.499999%);stroke-opacity:1;stroke-miterlimit:10;" d="M 16.878627 -3.703125 L 16.826497 -3.554972 L 16.776639 -3.40696 L 16.729196 -3.258807 L 16.684025 -3.110653 L 16.641269 -2.9625 L 16.600644 -2.814347 L 16.56215 -2.666335 L 16.526071 -2.518182 L 16.49198 -2.370028 L 16.460161 -2.221875 L 16.430474 -2.073722 L 16.402917 -1.92571 L 16.377349 -1.777557 L 16.354054 -1.629403 L 16.332747 -1.48125 L 16.313429 -1.333097 L 16.296241 -1.184943 L 16.281184 -1.036932 L 16.267974 -0.888778 L 16.256894 -0.740625 L 16.247946 -0.592472 L 16.240843 -0.444318 L 16.235872 -0.296307 L 16.232747 -0.148153 L 16.231752 0 L 16.232747 0.148153 L 16.235872 0.296307 L 16.240843 0.444318 L 16.247946 0.592472 L 16.256894 0.740625 L 16.267974 0.888778 L 16.281184 1.036932 L 16.296241 1.184943 L 16.313429 1.333097 L 16.332747 1.48125 L 16.354054 1.629403 L 16.377349 1.777557 L 16.402917 1.92571 L 16.430474 2.073722 L 16.460161 2.221875 L 16.49198 2.370028 L 16.526071 2.518182 L 16.56215 2.666335 L 16.600644 2.814347 L 16.641269 2.9625 L 16.684025 3.110653 L 16.729196 3.258807 L 16.776639 3.40696 L 16.826497 3.554972 L 16.878627 3.703125 " transform="matrix(27.5,0,0,27.5,73.122904,275)"/>
</g>
<path style="fill-rule:nonzero;fill:rgb(74.900001%,94.9%,87.400001%);fill-opacity:0.85;stroke-width:0.0777778;stroke-linecap:round;stroke-linejoin:bevel;stroke:rgb(82.499999%,82.499999%,82.499999%);stroke-opacity:1;stroke-miterlimit:10;" d="M 12.447661 -2.62429 L 12.507605 -2.519318 L 12.563571 -2.414347 L 12.615985 -2.309375 L 12.664991 -2.204403 L 12.710872 -2.099432 L 12.753769 -1.99446 L 12.793684 -1.889489 L 12.8309 -1.784517 L 12.865559 -1.679545 L 12.897661 -1.574574 L 12.927491 -1.469602 L 12.954764 -1.364631 L 12.979906 -1.259659 L 13.002775 -1.154687 L 13.023514 -1.049716 L 13.042122 -0.944744 L 13.058741 -0.839773 L 13.07323 -0.734801 L 13.085872 -0.62983 L 13.096383 -0.524858 L 13.105048 -0.419886 L 13.111724 -0.314915 L 13.116411 -0.209943 L 13.119394 -0.104972 L 13.120247 0 L 13.119394 0.104972 L 13.116411 0.209943 L 13.111724 0.314915 L 13.105048 0.419886 L 13.096383 0.524858 L 13.085872 0.62983 L 13.07323 0.734801 L 13.058741 0.839773 L 13.042122 0.944744 L 13.023514 1.049716 L 13.002775 1.154687 L 12.979906 1.259659 L 12.954764 1.364631 L 12.927491 1.469602 L 12.897661 1.574574 L 12.865559 1.679545 L 12.8309 1.784517 L 12.793684 1.889489 L 12.753769 1.99446 L 12.710872 2.099432 L 12.664991 2.204403 L 12.615985 2.309375 L 12.563571 2.414347 L 12.507605 2.519318 L 12.447661 2.62429 L 12.384309 2.62429 L 12.321809 2.519318 L 12.263571 2.414347 L 12.209167 2.309375 L 12.158457 2.204403 L 12.111014 2.099432 L 12.066696 1.99446 L 12.025502 1.889489 L 11.987008 1.784517 L 11.951355 1.679545 L 11.918258 1.574574 L 11.887718 1.469602 L 11.859593 1.364631 L 11.833741 1.259659 L 11.810304 1.154687 L 11.788997 1.049716 L 11.769821 0.944744 L 11.752775 0.839773 L 11.73786 0.734801 L 11.725076 0.62983 L 11.714281 0.524858 L 11.705332 0.419886 L 11.698514 0.314915 L 11.693684 0.209943 L 11.690701 0.104972 L 11.689707 0 L 11.690701 -0.104972 L 11.693684 -0.209943 L 11.698514 -0.314915 L 11.705332 -0.419886 L 11.714281 -0.524858 L 11.725076 -0.62983 L 11.73786 -0.734801 L 11.752775 -0.839773 L 11.769821 -0.944744 L 11.788997 -1.049716 L 11.810304 -1.154687 L 11.833741 -1.259659 L 11.859593 -1.364631 L 11.887718 -1.469602 L 11.918258 -1.574574 L 11.951355 -1.679545 L 11.987008 -1.784517 L 12.025502 -1.889489 L 12.066696 -1.99446 L 12.111014 -2.099432 L 12.158457 -2.204403 L 12.209167 -2.309375 L 12.263571 -2.414347 L 12.321809 -2.519318 L 12.384309 -2.62429 Z M 12.447661 -2.62429 " transform="matrix(27.5,0,0,27.5,73.122904,275)"/>
<g clip-path="url(#clip4)" clip-rule="nonzero">
<path style="fill:none;stroke-width:0.0777778;stroke-linecap:round;stroke-linejoin:bevel;stroke:rgb(82.499999%,82.499999%,82.499999%);stroke-opacity:1;stroke-miterlimit:10;" d="M 12.384309 -2.62429 L 12.321809 -2.519318 L 12.263571 -2.414347 L 12.209167 -2.309375 L 12.158457 -2.204403 L 12.111014 -2.099432 L 12.066696 -1.99446 L 12.025502 -1.889489 L 11.987008 -1.784517 L 11.951355 -1.679545 L 11.918258 -1.574574 L 11.887718 -1.469602 L 11.859593 -1.364631 L 11.833741 -1.259659 L 11.810304 -1.154687 L 11.788997 -1.049716 L 11.769821 -0.944744 L 11.752775 -0.839773 L 11.73786 -0.734801 L 11.725076 -0.62983 L 11.714281 -0.524858 L 11.705332 -0.419886 L 11.698514 -0.314915 L 11.693684 -0.209943 L 11.690701 -0.104972 L 11.689707 0 L 11.690701 0.104972 L 11.693684 0.209943 L 11.698514 0.314915 L 11.705332 0.419886 L 11.714281 0.524858 L 11.725076 0.62983 L 11.73786 0.734801 L 11.752775 0.839773 L 11.769821 0.944744 L 11.788997 1.049716 L 11.810304 1.154687 L 11.833741 1.259659 L 11.859593 1.364631 L 11.887718 1.469602 L 11.918258 1.574574 L 11.951355 1.679545 L 11.987008 1.784517 L 12.025502 1.889489 L 12.066696 1.99446 L 12.111014 2.099432 L 12.158457 2.204403 L 12.209167 2.309375 L 12.263571 2.414347 L 12.321809 2.519318 L 12.384309 2.62429 " transform="matrix(27.5,0,0,27.5,73.122904,275)"/>
</g>
<path style="fill-rule:nonzero;fill:rgb(74.900001%,94.9%,87.400001%);fill-opacity:0.85;stroke-width:0.0777778;stroke-linecap:round;stroke-linejoin:bevel;stroke:rgb(82.499999%,82.499999%,82.499999%);stroke-opacity:1;stroke-miterlimit:10;" d="M 9.833315 -1.749574 L 9.839423 -1.679545 L 9.845247 -1.609517 L 9.850929 -1.539631 L 9.856326 -1.469602 L 9.86144 -1.399574 L 9.866269 -1.329688 L 9.870815 -1.259659 L 9.875218 -1.189631 L 9.879338 -1.119744 L 9.883173 -1.049716 L 9.886724 -0.979688 L 9.890133 -0.909801 L 9.893258 -0.839773 L 9.896099 -0.769744 L 9.898656 -0.699858 L 9.901071 -0.62983 L 9.903201 -0.559801 L 9.905048 -0.489915 L 9.90661 -0.419886 L 9.908031 -0.349858 L 9.909025 -0.279972 L 9.910019 -0.209943 L 9.910588 -0.139915 L 9.910872 -0.0700284 L 9.911014 0 L 9.910872 0.0700284 L 9.910588 0.139915 L 9.910019 0.209943 L 9.909025 0.279972 L 9.908031 0.349858 L 9.90661 0.419886 L 9.905048 0.489915 L 9.903201 0.559801 L 9.901071 0.62983 L 9.898656 0.699858 L 9.896099 0.769744 L 9.893258 0.839773 L 9.890133 0.909801 L 9.886724 0.979687 L 9.883173 1.049716 L 9.879338 1.119744 L 9.875218 1.189631 L 9.870815 1.259659 L 9.866269 1.329687 L 9.86144 1.399574 L 9.856326 1.469602 L 9.850929 1.539631 L 9.845247 1.609517 L 9.839423 1.679545 L 9.833315 1.749574 L 8.595105 2.915909 L 8.698372 2.79929 L 8.791696 2.68267 L 8.876639 2.565909 L 8.954338 2.44929 L 9.025502 2.33267 L 9.090985 2.216051 L 9.151213 2.099432 L 9.20661 1.982812 L 9.257605 1.866193 L 9.30448 1.749574 L 9.347519 1.632955 L 9.386866 1.516193 L 9.422661 1.399574 L 9.45519 1.282955 L 9.484451 1.166335 L 9.51073 1.049716 L 9.533883 0.933097 L 9.554196 0.816477 L 9.571667 0.699858 L 9.58644 0.583239 L 9.598372 0.466477 L 9.607605 0.349858 L 9.614281 0.233239 L 9.618116 0.116619 L 9.619536 0 L 9.618116 -0.116619 L 9.614281 -0.233239 L 9.607605 -0.349858 L 9.598372 -0.466477 L 9.58644 -0.583239 L 9.571667 -0.699858 L 9.554196 -0.816477 L 9.533883 -0.933097 L 9.51073 -1.049716 L 9.484451 -1.166335 L 9.45519 -1.282955 L 9.422661 -1.399574 L 9.386866 -1.516193 L 9.347519 -1.632955 L 9.30448 -1.749574 L 9.257605 -1.866193 L 9.20661 -1.982812 L 9.151213 -2.099432 L 9.090985 -2.216051 L 9.025502 -2.33267 L 8.954338 -2.44929 L 8.876639 -2.565909 L 8.791696 -2.68267 L 8.698372 -2.79929 L 8.595105 -2.915909 Z M 9.833315 -1.749574 " transform="matrix(27.5,0,0,27.5,73.122904,275)"/>
<g clip-path="url(#clip5)" clip-rule="nonzero">
<path style="fill:none;stroke-width:0.0777778;stroke-linecap:round;stroke-linejoin:bevel;stroke:rgb(82.499999%,82.499999%,82.499999%);stroke-opacity:1;stroke-miterlimit:10;" d="M 8.595105 -2.915909 L 8.698372 -2.79929 L 8.791696 -2.68267 L 8.876639 -2.565909 L 8.954338 -2.44929 L 9.025502 -2.33267 L 9.090985 -2.216051 L 9.151213 -2.099432 L 9.20661 -1.982812 L 9.257605 -1.866193 L 9.30448 -1.749574 L 9.347519 -1.632955 L 9.386866 -1.516193 L 9.422661 -1.399574 L 9.45519 -1.282955 L 9.484451 -1.166335 L 9.51073 -1.049716 L 9.533883 -0.933097 L 9.554196 -0.816477 L 9.571667 -0.699858 L 9.58644 -0.583239 L 9.598372 -0.466477 L 9.607605 -0.349858 L 9.614281 -0.233239 L 9.618116 -0.116619 L 9.619536 0 L 9.618116 0.116619 L 9.614281 0.233239 L 9.607605 0.349858 L 9.598372 0.466477 L 9.58644 0.583239 L 9.571667 0.699858 L 9.554196 0.816477 L 9.533883 0.933097 L 9.51073 1.049716 L 9.484451 1.166335 L 9.45519 1.282955 L 9.422661 1.399574 L 9.386866 1.516193 L 9.347519 1.632955 L 9.30448 1.749574 L 9.257605 1.866193 L 9.20661 1.982812 L 9.151213 2.099432 L 9.090985 2.216051 L 9.025502 2.33267 L 8.954338 2.44929 L 8.876639 2.565909 L 8.791696 2.68267 L 8.698372 2.79929 L 8.595105 2.915909 " transform="matrix(27.5,0,0,27.5,73.122904,275)"/>
</g>
<path style="fill-rule:nonzero;fill:rgb(50%,50%,50%);fill-opacity:0.85;stroke-width:0.0777778;stroke-linecap:round;stroke-linejoin:bevel;stroke:rgb(82.499999%,82.499999%,82.499999%);stroke-opacity:1;stroke-miterlimit:10;" d="M 8.031184 -2.915909 L 8.088144 -2.79929 L 8.142264 -2.68267 L 8.193684 -2.565909 L 8.242406 -2.44929 L 8.288429 -2.33267 L 8.331894 -2.216051 L 8.372804 -2.099432 L 8.411298 -1.982812 L 8.447377 -1.866193 L 8.481042 -1.749574 L 8.512434 -1.632955 L 8.541554 -1.516193 L 8.5684 -1.399574 L 8.592832 -1.282955 L 8.615275 -1.166335 L 8.635304 -1.049716 L 8.653343 -0.933097 L 8.66911 -0.816477 L 8.682747 -0.699858 L 8.694394 -0.583239 L 8.703769 -0.466477 L 8.711156 -0.349858 L 8.716269 -0.233239 L 8.719536 -0.116619 L 8.720531 0 L 8.719536 0.116619 L 8.716269 0.233239 L 8.711156 0.349858 L 8.703769 0.466477 L 8.694394 0.583239 L 8.682747 0.699858 L 8.66911 0.816477 L 8.653343 0.933097 L 8.635304 1.049716 L 8.615275 1.166335 L 8.592832 1.282955 L 8.5684 1.399574 L 8.541554 1.516193 L 8.512434 1.632955 L 8.481042 1.749574 L 8.447377 1.866193 L 8.411298 1.982812 L 8.372804 2.099432 L 8.331894 2.216051 L 8.288429 2.33267 L 8.242406 2.44929 L 8.193684 2.565909 L 8.142264 2.68267 L 8.088144 2.79929 L 8.031184 2.915909 L 7.482463 2.915909 L 7.564565 2.79929 L 7.641838 2.68267 L 7.714423 2.565909 L 7.782747 2.44929 L 7.846809 2.33267 L 7.906894 2.216051 L 7.963144 2.099432 L 8.015843 1.982812 L 8.064849 1.866193 L 8.110446 1.749574 L 8.152775 1.632955 L 8.191696 1.516193 L 8.227491 1.399574 L 8.260304 1.282955 L 8.289991 1.166335 L 8.316696 1.049716 L 8.340417 0.933097 L 8.361298 0.816477 L 8.379338 0.699858 L 8.394536 0.583239 L 8.406894 0.466477 L 8.416554 0.349858 L 8.423372 0.233239 L 8.427491 0.116619 L 8.428911 0 L 8.427491 -0.116619 L 8.423372 -0.233239 L 8.416554 -0.349858 L 8.406894 -0.466477 L 8.394536 -0.583239 L 8.379338 -0.699858 L 8.361298 -0.816477 L 8.340417 -0.933097 L 8.316696 -1.049716 L 8.289991 -1.166335 L 8.260304 -1.282955 L 8.227491 -1.399574 L 8.191696 -1.516193 L 8.152775 -1.632955 L 8.110446 -1.749574 L 8.064849 -1.866193 L 8.015843 -1.982812 L 7.963144 -2.099432 L 7.906894 -2.216051 L 7.846809 -2.33267 L 7.782747 -2.44929 L 7.714423 -2.565909 L 7.641838 -2.68267 L 7.564565 -2.79929 L 7.482463 -2.915909 Z M 8.031184 -2.915909 " transform="matrix(27.5,0,0,27.5,73.122904,275)"/>
<path style="fill-rule:nonzero;fill:rgb(50%,50%,50%);fill-opacity:0.85;stroke-width:0.0777778;stroke-linecap:round;stroke-linejoin:bevel;stroke:rgb(82.499999%,82.499999%,82.499999%);stroke-opacity:1;stroke-miterlimit:10;" d="M 7.482463 -2.915909 L 7.564565 -2.79929 L 7.641838 -2.68267 L 7.714423 -2.565909 L 7.782747 -2.44929 L 7.846809 -2.33267 L 7.906894 -2.216051 L 7.963144 -2.099432 L 8.015843 -1.982812 L 8.064849 -1.866193 L 8.110446 -1.749574 L 8.152775 -1.632955 L 8.191696 -1.516193 L 8.227491 -1.399574 L 8.260304 -1.282955 L 8.289991 -1.166335 L 8.316696 -1.049716 L 8.340417 -0.933097 L 8.361298 -0.816477 L 8.379338 -0.699858 L 8.394536 -0.583239 L 8.406894 -0.466477 L 8.416554 -0.349858 L 8.423372 -0.233239 L 8.427491 -0.116619 L 8.428911 0 L 8.427491 0.116619 L 8.423372 0.233239 L 8.416554 0.349858 L 8.406894 0.466477 L 8.394536 0.583239 L 8.379338 0.699858 L 8.361298 0.816477 L 8.340417 0.933097 L 8.316696 1.049716 L 8.289991 1.166335 L 8.260304 1.282955 L 8.227491 1.399574 L 8.191696 1.516193 L 8.152775 1.632955 L 8.110446 1.749574 L 8.064849 1.866193 L 8.015843 1.982812 L 7.963144 2.099432 L 7.906894 2.216051 L 7.846809 2.33267 L 7.782747 2.44929 L 7.714423 2.565909 L 7.641838 2.68267 L 7.564565 2.79929 L 7.482463 2.915909 L 7.336582 2.915909 L 7.374224 2.79929 L 7.410019 2.68267 L 7.444252 2.565909 L 7.476923 2.44929 L 7.507889 2.33267 L 7.537292 2.216051 L 7.564991 2.099432 L 7.591269 1.982812 L 7.615843 1.866193 L 7.638855 1.749574 L 7.660446 1.632955 L 7.680474 1.516193 L 7.69894 1.399574 L 7.715843 1.282955 L 7.731326 1.166335 L 7.745247 1.049716 L 7.757747 0.933097 L 7.768826 0.816477 L 7.778343 0.699858 L 7.786298 0.583239 L 7.792974 0.466477 L 7.798088 0.349858 L 7.801781 0.233239 L 7.803911 0.116619 L 7.804622 0 L 7.803911 -0.116619 L 7.801781 -0.233239 L 7.798088 -0.349858 L 7.792974 -0.466477 L 7.786298 -0.583239 L 7.778343 -0.699858 L 7.768826 -0.816477 L 7.757747 -0.933097 L 7.745247 -1.049716 L 7.731326 -1.166335 L 7.715843 -1.282955 L 7.69894 -1.399574 L 7.680474 -1.516193 L 7.660446 -1.632955 L 7.638855 -1.749574 L 7.615843 -1.866193 L 7.591269 -1.982812 L 7.564991 -2.099432 L 7.537292 -2.216051 L 7.507889 -2.33267 L 7.476923 -2.44929 L 7.444252 -2.565909 L 7.410019 -2.68267 L 7.374224 -2.79929 L 7.336582 -2.915909 Z M 7.482463 -2.915909 " transform="matrix(27.5,0,0,27.5,73.122904,275)"/>
<g clip-path="url(#clip6)" clip-rule="nonzero">
<path style="fill:none;stroke-width:0.0777778;stroke-linecap:round;stroke-linejoin:bevel;stroke:rgb(82.499999%,82.499999%,82.499999%);stroke-opacity:1;stroke-miterlimit:10;" d="M 7.336582 -2.915909 L 7.374224 -2.79929 L 7.410019 -2.68267 L 7.444252 -2.565909 L 7.476923 -2.44929 L 7.507889 -2.33267 L 7.537292 -2.216051 L 7.564991 -2.099432 L 7.591269 -1.982812 L 7.615843 -1.866193 L 7.638855 -1.749574 L 7.660446 -1.632955 L 7.680474 -1.516193 L 7.69894 -1.399574 L 7.715843 -1.282955 L 7.731326 -1.166335 L 7.745247 -1.049716 L 7.757747 -0.933097 L 7.768826 -0.816477 L 7.778343 -0.699858 L 7.786298 -0.583239 L 7.792974 -0.466477 L 7.798088 -0.349858 L 7.801781 -0.233239 L 7.803911 -0.116619 L 7.804622 0 L 7.803911 0.116619 L 7.801781 0.233239 L 7.798088 0.349858 L 7.792974 0.466477 L 7.786298 0.583239 L 7.778343 0.699858 L 7.768826 0.816477 L 7.757747 0.933097 L 7.745247 1.049716 L 7.731326 1.166335 L 7.715843 1.282955 L 7.69894 1.399574 L 7.680474 1.516193 L 7.660446 1.632955 L 7.638855 1.749574 L 7.615843 1.866193 L 7.591269 1.982812 L 7.564991 2.099432 L 7.537292 2.216051 L 7.507889 2.33267 L 7.476923 2.44929 L 7.444252 2.565909 L 7.410019 2.68267 L 7.374224 2.79929 L 7.336582 2.915909 " transform="matrix(27.5,0,0,27.5,73.122904,275)"/>
</g>
<path style="fill-rule:nonzero;fill:rgb(50%,50%,50%);fill-opacity:0.85;stroke-width:0.0777778;stroke-linecap:round;stroke-linejoin:bevel;stroke:rgb(82.499999%,82.499999%,82.499999%);stroke-opacity:1;stroke-miterlimit:10;" d="M 7.268542 -2.915909 L 7.295531 -2.79929 L 7.321383 -2.68267 L 7.346099 -2.565909 L 7.369679 -2.44929 L 7.392122 -2.33267 L 7.413429 -2.216051 L 7.433599 -2.099432 L 7.452633 -1.982812 L 7.470673 -1.866193 L 7.487434 -1.749574 L 7.503201 -1.632955 L 7.517832 -1.516193 L 7.531326 -1.399574 L 7.543826 -1.282955 L 7.55519 -1.166335 L 7.565417 -1.049716 L 7.574508 -0.933097 L 7.582605 -0.816477 L 7.589565 -0.699858 L 7.595531 -0.583239 L 7.60036 -0.466477 L 7.604196 -0.349858 L 7.606894 -0.233239 L 7.608457 -0.116619 L 7.609025 0 L 7.608457 0.116619 L 7.606894 0.233239 L 7.604196 0.349858 L 7.60036 0.466477 L 7.595531 0.583239 L 7.589565 0.699858 L 7.582605 0.816477 L 7.574508 0.933097 L 7.565417 1.049716 L 7.55519 1.166335 L 7.543826 1.282955 L 7.531326 1.399574 L 7.517832 1.516193 L 7.503201 1.632955 L 7.487434 1.749574 L 7.470673 1.866193 L 7.452633 1.982812 L 7.433599 2.099432 L 7.413429 2.216051 L 7.392122 2.33267 L 7.369679 2.44929 L 7.346099 2.565909 L 7.321383 2.68267 L 7.295531 2.79929 L 7.268542 2.915909 L 7.124508 2.915909 L 7.065843 2.79929 L 7.010161 2.68267 L 6.957321 2.565909 L 6.907321 2.44929 L 6.860019 2.33267 L 6.815417 2.216051 L 6.773372 2.099432 L 6.733883 1.982812 L 6.696809 1.866193 L 6.662292 1.749574 L 6.630048 1.632955 L 6.600218 1.516193 L 6.572804 1.399574 L 6.547661 1.282955 L 6.524792 1.166335 L 6.504196 1.049716 L 6.48573 0.933097 L 6.469536 0.816477 L 6.455616 0.699858 L 6.443684 0.583239 L 6.434167 0.466477 L 6.426639 0.349858 L 6.421241 0.233239 L 6.417974 0.116619 L 6.41698 0 L 6.417974 -0.116619 L 6.421241 -0.233239 L 6.426639 -0.349858 L 6.434167 -0.466477 L 6.443684 -0.583239 L 6.455616 -0.699858 L 6.469536 -0.816477 L 6.48573 -0.933097 L 6.504196 -1.049716 L 6.524792 -1.166335 L 6.547661 -1.282955 L 6.572804 -1.399574 L 6.600218 -1.516193 L 6.630048 -1.632955 L 6.662292 -1.749574 L 6.696809 -1.866193 L 6.733883 -1.982812 L 6.773372 -2.099432 L 6.815417 -2.216051 L 6.860019 -2.33267 L 6.907321 -2.44929 L 6.957321 -2.565909 L 7.010161 -2.68267 L 7.065843 -2.79929 L 7.124508 -2.915909 Z M 7.268542 -2.915909 " transform="matrix(27.5,0,0,27.5,73.122904,275)"/>
<path style="fill-rule:nonzero;fill:rgb(50%,50%,50%);fill-opacity:0.85;stroke-width:0.0777778;stroke-linecap:round;stroke-linejoin:bevel;stroke:rgb(82.499999%,82.499999%,82.499999%);stroke-opacity:1;stroke-miterlimit:10;" d="M 7.124508 -2.915909 L 7.065843 -2.79929 L 7.010161 -2.68267 L 6.957321 -2.565909 L 6.907321 -2.44929 L 6.860019 -2.33267 L 6.815417 -2.216051 L 6.773372 -2.099432 L 6.733883 -1.982812 L 6.696809 -1.866193 L 6.662292 -1.749574 L 6.630048 -1.632955 L 6.600218 -1.516193 L 6.572804 -1.399574 L 6.547661 -1.282955 L 6.524792 -1.166335 L 6.504196 -1.049716 L 6.48573 -0.933097 L 6.469536 -0.816477 L 6.455616 -0.699858 L 6.443684 -0.583239 L 6.434167 -0.466477 L 6.426639 -0.349858 L 6.421241 -0.233239 L 6.417974 -0.116619 L 6.41698 0 L 6.417974 0.116619 L 6.421241 0.233239 L 6.426639 0.349858 L 6.434167 0.466477 L 6.443684 0.583239 L 6.455616 0.699858 L 6.469536 0.816477 L 6.48573 0.933097 L 6.504196 1.049716 L 6.524792 1.166335 L 6.547661 1.282955 L 6.572804 1.399574 L 6.600218 1.516193 L 6.630048 1.632955 L 6.662292 1.749574 L 6.696809 1.866193 L 6.733883 1.982812 L 6.773372 2.099432 L 6.815417 2.216051 L 6.860019 2.33267 L 6.907321 2.44929 L 6.957321 2.565909 L 7.010161 2.68267 L 7.065843 2.79929 L 7.124508 2.915909 L 6.631326 2.915909 L 6.590559 2.79929 L 6.551639 2.68267 L 6.514565 2.565909 L 6.479196 2.44929 L 6.445673 2.33267 L 6.413855 2.216051 L 6.383883 2.099432 L 6.355616 1.982812 L 6.328911 1.866193 L 6.304054 1.749574 L 6.280758 1.632955 L 6.259309 1.516193 L 6.239281 1.399574 L 6.220957 1.282955 L 6.204338 1.166335 L 6.189281 1.049716 L 6.175786 0.933097 L 6.163997 0.816477 L 6.153769 0.699858 L 6.145105 0.583239 L 6.138002 0.466477 L 6.132463 0.349858 L 6.128485 0.233239 L 6.126213 0.116619 L 6.12536 0 L 6.126213 -0.116619 L 6.128485 -0.233239 L 6.132463 -0.349858 L 6.138002 -0.466477 L 6.145105 -0.583239 L 6.153769 -0.699858 L 6.163997 -0.816477 L 6.175786 -0.933097 L 6.189281 -1.049716 L 6.204338 -1.166335 L 6.220957 -1.282955 L 6.239281 -1.399574 L 6.259309 -1.516193 L 6.280758 -1.632955 L 6.304054 -1.749574 L 6.328911 -1.866193 L 6.355616 -1.982812 L 6.383883 -2.099432 L 6.413855 -2.216051 L 6.445673 -2.33267 L 6.479196 -2.44929 L 6.514565 -2.565909 L 6.551639 -2.68267 L 6.590559 -2.79929 L 6.631326 -2.915909 Z M 7.124508 -2.915909 " transform="matrix(27.5,0,0,27.5,73.122904,275)"/>
<g clip-path="url(#clip7)" clip-rule="nonzero">
<path style="fill:none;stroke-width:0.0777778;stroke-linecap:round;stroke-linejoin:bevel;stroke:rgb(82.499999%,82.499999%,82.499999%);stroke-opacity:1;stroke-miterlimit:10;" d="M 6.631326 -2.915909 L 6.590559 -2.79929 L 6.551639 -2.68267 L 6.514565 -2.565909 L 6.479196 -2.44929 L 6.445673 -2.33267 L 6.413855 -2.216051 L 6.383883 -2.099432 L 6.355616 -1.982812 L 6.328911 -1.866193 L 6.304054 -1.749574 L 6.280758 -1.632955 L 6.259309 -1.516193 L 6.239281 -1.399574 L 6.220957 -1.282955 L 6.204338 -1.166335 L 6.189281 -1.049716 L 6.175786 -0.933097 L 6.163997 -0.816477 L 6.153769 -0.699858 L 6.145105 -0.583239 L 6.138002 -0.466477 L 6.132463 -0.349858 L 6.128485 -0.233239 L 6.126213 -0.116619 L 6.12536 0 L 6.126213 0.116619 L 6.128485 0.233239 L 6.132463 0.349858 L 6.138002 0.466477 L 6.145105 0.583239 L 6.153769 0.699858 L 6.163997 0.816477 L 6.175786 0.933097 L 6.189281 1.049716 L 6.204338 1.166335 L 6.220957 1.282955 L 6.239281 1.399574 L 6.259309 1.516193 L 6.280758 1.632955 L 6.304054 1.749574 L 6.328911 1.866193 L 6.355616 1.982812 L 6.383883 2.099432 L 6.413855 2.216051 L 6.445673 2.33267 L 6.479196 2.44929 L 6.514565 2.565909 L 6.551639 2.68267 L 6.590559 2.79929 L 6.631326 2.915909 " transform="matrix(27.5,0,0,27.5,73.122904,275)"/>
</g>
<path style="fill-rule:nonzero;fill:rgb(50%,50%,50%);fill-opacity:0.85;stroke-width:0.0777778;stroke-linecap:round;stroke-linejoin:bevel;stroke:rgb(82.499999%,82.499999%,82.499999%);stroke-opacity:1;stroke-miterlimit:10;" d="M 5.339281 -3.499006 L 5.396241 -3.359091 L 5.45036 -3.219176 L 5.501923 -3.079119 L 5.550929 -2.939205 L 5.597235 -2.79929 L 5.641269 -2.659233 L 5.682747 -2.519318 L 5.721809 -2.379403 L 5.758457 -2.239347 L 5.792832 -2.099432 L 5.824792 -1.959517 L 5.854338 -1.81946 L 5.881752 -1.679545 L 5.906894 -1.539631 L 5.929764 -1.399574 L 5.95036 -1.259659 L 5.968826 -1.119744 L 5.985019 -0.979688 L 5.999082 -0.839773 L 6.011014 -0.699858 L 6.020673 -0.559801 L 6.028201 -0.419886 L 6.033599 -0.279972 L 6.036866 -0.139915 L 6.03786 0 L 6.036866 0.139915 L 6.033599 0.279972 L 6.028201 0.419886 L 6.020673 0.559801 L 6.011014 0.699858 L 5.999082 0.839773 L 5.985019 0.979687 L 5.968826 1.119744 L 5.95036 1.259659 L 5.929764 1.399574 L 5.906894 1.539631 L 5.881752 1.679545 L 5.854338 1.81946 L 5.824792 1.959517 L 5.792832 2.099432 L 5.758457 2.239347 L 5.721809 2.379403 L 5.682747 2.519318 L 5.641269 2.659233 L 5.597235 2.79929 L 5.550929 2.939205 L 5.501923 3.079119 L 5.45036 3.219176 L 5.396241 3.359091 L 5.339281 3.499006 L 4.971383 3.499006 L 4.993258 3.359091 L 5.014139 3.219176 L 5.034167 3.079119 L 5.053343 2.939205 L 5.071525 2.79929 L 5.088855 2.659233 L 5.105332 2.519318 L 5.120815 2.379403 L 5.135446 2.239347 L 5.149224 2.099432 L 5.162008 1.959517 L 5.17394 1.81946 L 5.185019 1.679545 L 5.195247 1.539631 L 5.20448 1.399574 L 5.21286 1.259659 L 5.220389 1.119744 L 5.226923 0.979687 L 5.232747 0.839773 L 5.237576 0.699858 L 5.241554 0.559801 L 5.244679 0.419886 L 5.246809 0.279972 L 5.248088 0.139915 L 5.248514 0 L 5.248088 -0.139915 L 5.246809 -0.279972 L 5.244679 -0.419886 L 5.241554 -0.559801 L 5.237576 -0.699858 L 5.232747 -0.839773 L 5.226923 -0.979688 L 5.220389 -1.119744 L 5.21286 -1.259659 L 5.20448 -1.399574 L 5.195247 -1.539631 L 5.185019 -1.679545 L 5.17394 -1.81946 L 5.162008 -1.959517 L 5.149224 -2.099432 L 5.135446 -2.239347 L 5.120815 -2.379403 L 5.105332 -2.519318 L 5.088855 -2.659233 L 5.071525 -2.79929 L 5.053343 -2.939205 L 5.034167 -3.079119 L 5.014139 -3.219176 L 4.993258 -3.359091 L 4.971383 -3.499006 Z M 5.339281 -3.499006 " transform="matrix(27.5,0,0,27.5,73.122904,275)"/>
<g clip-path="url(#clip8)" clip-rule="nonzero">
<path style="fill:none;stroke-width:0.0777778;stroke-linecap:round;stroke-linejoin:bevel;stroke:rgb(82.499999%,82.499999%,82.499999%);stroke-opacity:1;stroke-miterlimit:10;" d="M 4.971383 -3.499006 L 4.993258 -3.359091 L 5.014139 -3.219176 L 5.034167 -3.079119 L 5.053343 -2.939205 L 5.071525 -2.79929 L 5.088855 -2.659233 L 5.105332 -2.519318 L 5.120815 -2.379403 L 5.135446 -2.239347 L 5.149224 -2.099432 L 5.162008 -1.959517 L 5.17394 -1.81946 L 5.185019 -1.679545 L 5.195247 -1.539631 L 5.20448 -1.399574 L 5.21286 -1.259659 L 5.220389 -1.119744 L 5.226923 -0.979688 L 5.232747 -0.839773 L 5.237576 -0.699858 L 5.241554 -0.559801 L 5.244679 -0.419886 L 5.246809 -0.279972 L 5.248088 -0.139915 L 5.248514 0 L 5.248088 0.139915 L 5.246809 0.279972 L 5.244679 0.419886 L 5.241554 0.559801 L 5.237576 0.699858 L 5.232747 0.839773 L 5.226923 0.979687 L 5.220389 1.119744 L 5.21286 1.259659 L 5.20448 1.399574 L 5.195247 1.539631 L 5.185019 1.679545 L 5.17394 1.81946 L 5.162008 1.959517 L 5.149224 2.099432 L 5.135446 2.239347 L 5.120815 2.379403 L 5.105332 2.519318 L 5.088855 2.659233 L 5.071525 2.79929 L 5.053343 2.939205 L 5.034167 3.079119 L 5.014139 3.219176 L 4.993258 3.359091 L 4.971383 3.499006 " transform="matrix(27.5,0,0,27.5,73.122904,275)"/>
</g>
<path style="fill-rule:nonzero;fill:rgb(50%,50%,50%);fill-opacity:0.85;stroke-width:0.0777778;stroke-linecap:round;stroke-linejoin:bevel;stroke:rgb(82.499999%,82.499999%,82.499999%);stroke-opacity:1;stroke-miterlimit:10;" d="M 4.956752 -3.761506 L 4.956752 -3.159659 L 4.956894 -3.009233 L 4.956894 -1.354119 L 4.957036 -1.203693 L 4.957036 1.203693 L 4.956894 1.354119 L 4.956894 3.009233 L 4.956752 3.159659 L 4.956752 3.761506 L 4.082036 3.761506 L 4.082036 2.708239 L 4.082179 2.557812 L 4.082179 -2.557813 L 4.082036 -2.708239 L 4.082036 -3.761506 Z M 4.956752 -3.761506 " transform="matrix(27.5,0,0,27.5,73.122904,275)"/>
<g clip-path="url(#clip9)" clip-rule="nonzero">
<path style="fill:none;stroke-width:0.0777778;stroke-linecap:round;stroke-linejoin:bevel;stroke:rgb(82.499999%,82.499999%,82.499999%);stroke-opacity:1;stroke-miterlimit:10;" d="M 4.082036 -3.761506 L 4.082036 -2.708239 L 4.082179 -2.557813 L 4.082179 2.557812 L 4.082036 2.708239 L 4.082036 3.761506 " transform="matrix(27.5,0,0,27.5,73.122904,275)"/>
</g>
<path style=" stroke:none;fill-rule:nonzero;fill:rgb(50%,50%,50%);fill-opacity:1;" d="M 65.105469 134.671875 L 65.105469 415.328125 L 73.121094 415.328125 L 73.121094 134.671875 Z M 65.105469 134.671875 "/>
<path style="fill:none;stroke-width:0.555556;stroke-linecap:round;stroke-linejoin:bevel;stroke:rgb(82.499999%,82.499999%,82.499999%);stroke-opacity:1;stroke-miterlimit:10;" d="M 35.089794 15.999786 L 35.089794 6.000164 " transform="matrix(8.018662,0,0,8.018662,73.122904,275)"/>
<path style="fill:none;stroke-width:0.555556;stroke-linecap:round;stroke-linejoin:bevel;stroke:rgb(82.499999%,82.499999%,82.499999%);stroke-opacity:1;stroke-miterlimit:10;" d="M 35.089794 -15.999786 L 35.089794 -6.000164 " transform="matrix(8.018662,0,0,8.018662,73.122904,275)"/>
</g>
</svg>
