<?xml version="1.0" encoding="UTF-8"?>
<svg xmlns="http://www.w3.org/2000/svg" xmlns:xlink="http://www.w3.org/1999/xlink" width="900pt" height="550pt" viewBox="0 0 900 550" version="1.2">
<defs>
<clipPath id="clip1">
  <path d="M 590 187.6875 L 665 187.6875 L 665 362.3125 L 590 362.3125 Z M 590 187.6875 "/>
</clipPath>
<clipPath id="clip2">
  <path d="M 539 187.6875 L 570 187.6875 L 570 362.3125 L 539 362.3125 Z M 539 187.6875 "/>
</clipPath>
<clipPath id="clip3">
  <path d="M 508 187.6875 L 526 187.6875 L 526 362.3125 L 508 362.3125 Z M 508 187.6875 "/>
</clipPath>
<clipPath id="clip4">
  <path d="M 401 213.125 L 420 213.125 L 420 336.875 L 401 336.875 Z M 401 213.125 "/>
</clipPath>
<clipPath id="clip5">
  <path d="M 345 233.75 L 355 233.75 L 355 316.25 L 345 316.25 Z M 345 233.75 "/>
</clipPath>
<clipPath id="clip6">
  <path d="M 298 206.25 L 312 206.25 L 312 343.75 L 298 343.75 Z M 298 206.25 "/>
</clipPath>
<clipPath id="clip7">
  <path d="M 270 206.25 L 285 206.25 L 285 343.75 L 270 343.75 Z M 270 206.25 "/>
</clipPath>
<clipPath id="clip8">
  <path d="M 243 192.5 L 252 192.5 L 252 357.5 L 243 357.5 Z M 243 192.5 "/>
</clipPath>
<clipPath id="clip9">
  <path d="M 222 186.3125 L 225 186.3125 L 225 363.6875 L 222 363.6875 Z M 222 186.3125 "/>
</clipPath>
</defs>
<g id="surface7">
<rect x="0" y="0" width="900" height="550" style="fill:rgb(15.000001%,15.000001%,15.000001%);fill-opacity:1;stroke:none;"/>
<path style="fill:none;stroke-width:4;stroke-linecap:round;stroke-linejoin:bevel;stroke:rgb(82.499999%,82.499999%,82.499999%);stroke-opacity:0.5;stroke-miterlimit:10;" d="M 0 275 L 900 275 "/>
<path style="fill:none;stroke-width:0.1;stroke-linecap:round;stroke-linejoin:bevel;stroke:rgb(60%,60%,60%);stroke-opacity:0.634587;stroke-miterlimit:10;" d="M 2519.734801 0.505966 L 19.984801 0.55625 L 19.454261 0.542614 L 16.463068 0.852557 L 15.975426 0.90071 L 14.910227 1.283807 L 14.023153 1.408097 L 10.908523 1.807812 L 10.309801 1.780682 L 8.772443 1.454403 L 8.286932 1.351278 L 7.975142 1.221023 L 7.372017 1.076278 L 7.103267 1.017614 L 6.63821 0.920739 L 6.487784 0.882102 L 5.546449 0.697159 L 5.281818 0.66804 L 5.151705 0.624716 L 4.49375 0.486648 L 4.25 0.391193 L 3.5 0.205966 L 0.0000000169501 -1.163352 " transform="matrix(27.5,0,0,27.5,126.875,275)"/>
<path style="fill:none;stroke-width:0.1;stroke-linecap:round;stroke-linejoin:bevel;stroke:rgb(60%,60%,60%);stroke-opacity:0.635998;stroke-miterlimit:10;" d="M 2519.73608 0.483097 L 19.98608 0.53196 L 19.458239 0.519034 L 16.459659 0.815483 L 15.981818 0.860511 L 14.913494 1.22429 L 14.013778 1.34446 L 10.941903 1.719176 L 10.285511 1.691193 L 8.772443 1.378693 L 8.33196 1.287642 L 8.011648 1.174432 L 7.376278 1.054403 L 7.106818 1.002983 L 6.638068 0.921875 L 6.487074 0.891335 L 5.552273 0.740199 L 5.286648 0.718182 L 5.147159 0.679261 L 4.491903 0.557102 L 4.25 0.475426 L 3.5 0.314063 L 0.0000000169501 -0.866477 " transform="matrix(27.5,0,0,27.5,126.875,275)"/>
<path style="fill:none;stroke-width:0.1;stroke-linecap:round;stroke-linejoin:bevel;stroke:rgb(60%,60%,60%);stroke-opacity:0.636869;stroke-miterlimit:10;" d="M 2519.737358 0.46108 L 19.987358 0.507812 L 19.461932 0.495597 L 16.456534 0.778409 L 15.987926 0.820455 L 14.916619 1.165483 L 14.00483 1.28125 L 10.973011 1.632102 L 10.262216 1.603693 L 8.772443 1.306534 L 8.365483 1.225284 L 8.041193 1.127273 L 7.380966 1.029687 L 7.111364 0.984517 L 6.638778 0.916335 L 6.487074 0.892188 L 5.556108 0.768324 L 5.289915 0.751989 L 5.14375 0.717614 L 4.490341 0.608665 L 4.25 0.538068 L 3.5 0.396449 L 0.0000000169501 -0.631392 " transform="matrix(27.5,0,0,27.5,126.875,275)"/>
<path style="fill:none;stroke-width:0.1;stroke-linecap:round;stroke-linejoin:bevel;stroke:rgb(60%,60%,60%);stroke-opacity:0.63748;stroke-miterlimit:10;" d="M 2519.738494 0.439631 L 19.988494 0.483665 L 19.465483 0.472017 L 16.453409 0.741335 L 15.99375 0.78054 L 14.91946 1.107102 L 13.996307 1.218324 L 11.001847 1.546449 L 10.239773 1.51804 L 8.772443 1.237074 L 8.391193 1.164062 L 8.066477 1.079261 L 7.386506 1.000142 L 7.117045 0.959943 L 6.640341 0.902131 L 6.487784 0.882955 L 5.557813 0.779972 L 5.291619 0.76804 L 5.141761 0.737926 L 4.489205 0.639773 L 4.25 0.577841 L 3.5 0.452273 L 0.0000000169501 -0.454261 " transform="matrix(27.5,0,0,27.5,126.875,275)"/>
<path style="fill:none;stroke-width:0.1;stroke-linecap:round;stroke-linejoin:bevel;stroke:rgb(60%,60%,60%);stroke-opacity:0.637947;stroke-miterlimit:10;" d="M 2519.739631 0.41875 L 19.989631 0.459517 L 19.468892 0.448437 L 16.450426 0.704119 L 15.999148 0.740767 L 14.922301 1.04929 L 13.988352 1.155682 L 11.028551 1.462216 L 10.218466 1.434091 L 8.772443 1.169602 L 8.411222 1.103551 L 8.088636 1.030114 L 7.392614 0.965767 L 7.124006 0.92983 L 6.642898 0.87983 L 6.489205 0.864347 L 5.557386 0.777131 L 5.291619 0.768608 L 5.141335 0.742472 L 4.488778 0.653125 L 4.25 0.597869 L 3.5 0.485369 L 0.0000000169501 -0.324432 " transform="matrix(27.5,0,0,27.5,126.875,275)"/>
<path style="fill:none;stroke-width:0.1;stroke-linecap:round;stroke-linejoin:bevel;stroke:rgb(60%,60%,60%);stroke-opacity:0.638319;stroke-miterlimit:10;" d="M 2519.740767 0.395739 L 19.990767 0.435227 L 19.472017 0.424858 L 16.447727 0.667045 L 16.004403 0.701136 L 14.924858 0.991903 L 13.980824 1.093466 L 11.053409 1.379119 L 10.198295 1.351562 L 8.772443 1.103693 L 8.427131 1.04375 L 8.108523 0.980114 L 7.39929 0.926989 L 7.131676 0.89446 L 6.646023 0.85071 L 6.491335 0.838068 L 5.555398 0.762926 L 5.290483 0.756818 L 5.142188 0.734091 L 4.488778 0.652131 L 4.25 0.602273 L 3.5 0.500426 L 0.0000000169501 -0.23054 " transform="matrix(27.5,0,0,27.5,126.875,275)"/>
<path style="fill:none;stroke-width:0.1;stroke-linecap:round;stroke-linejoin:bevel;stroke:rgb(60%,60%,60%);stroke-opacity:0.638619;stroke-miterlimit:10;" d="M 2519.741761 0.37358 L 19.991761 0.41108 L 19.475 0.401278 L 16.445028 0.629972 L 16.009233 0.661506 L 14.927273 0.934801 L 13.973722 1.031392 L 11.07642 1.297301 L 10.179119 1.270455 L 8.772443 1.039062 L 8.440057 0.984375 L 8.126278 0.928977 L 7.40625 0.884801 L 7.139915 0.855256 L 6.649716 0.816335 L 6.49375 0.805824 L 5.552131 0.739915 L 5.288352 0.735511 L 5.143892 0.715909 L 4.489205 0.640199 L 4.25 0.594744 L 3.5 0.501847 L 0.0000000169501 -0.16321 " transform="matrix(27.5,0,0,27.5,126.875,275)"/>
<path style="fill:none;stroke-width:0.1;stroke-linecap:round;stroke-linejoin:bevel;stroke:rgb(60%,60%,60%);stroke-opacity:0.638861;stroke-miterlimit:10;" d="M 2519.742756 0.351847 L 19.992614 0.386932 L 19.477983 0.377699 L 16.442614 0.592898 L 16.013778 0.622159 L 14.929545 0.878267 L 13.967045 0.969744 L 11.097585 1.216335 L 10.16108 1.190483 L 8.772443 0.975284 L 8.450568 0.925426 L 8.14233 0.877131 L 7.41321 0.839631 L 7.148438 0.812642 L 6.653551 0.777699 L 6.496449 0.768892 L 5.548153 0.710369 L 5.285511 0.707244 L 5.146165 0.690057 L 4.489915 0.620028 L 4.25 0.578409 L 3.5 0.493182 L 0.0000000169501 -0.115199 " transform="matrix(27.5,0,0,27.5,126.875,275)"/>
<path style="fill:none;stroke-width:0.1;stroke-linecap:round;stroke-linejoin:bevel;stroke:rgb(60%,60%,60%);stroke-opacity:0.639056;stroke-miterlimit:10;" d="M 2519.743608 0.330682 L 19.993608 0.362784 L 19.48054 0.354119 L 16.440341 0.555824 L 16.01804 0.582812 L 14.931676 0.821875 L 13.960938 0.908097 L 11.117188 1.136364 L 10.144176 1.111648 L 8.772443 0.912216 L 8.459233 0.866619 L 8.156818 0.824574 L 7.420313 0.79233 L 7.15696 0.767756 L 6.657528 0.73608 L 6.49929 0.728409 L 5.54375 0.675852 L 5.282386 0.673722 L 5.148864 0.658807 L 4.490767 0.593892 L 4.25 0.55554 L 3.5 0.477273 L 0.0000000169501 -0.081108 " transform="matrix(27.5,0,0,27.5,126.875,275)"/>
<path style="fill:none;stroke-width:0.1;stroke-linecap:round;stroke-linejoin:bevel;stroke:rgb(60%,60%,60%);stroke-opacity:0.639212;stroke-miterlimit:10;" d="M 2519.74446 0.307812 L 19.994318 0.338494 L 19.483097 0.33054 L 16.438068 0.518892 L 16.022017 0.543466 L 14.933523 0.765909 L 13.955114 0.846733 L 11.135085 1.057102 L 10.128409 1.033665 L 8.772443 0.849716 L 8.466335 0.808239 L 8.169886 0.771449 L 7.426989 0.743324 L 7.165341 0.720881 L 6.661506 0.692045 L 6.502131 0.685369 L 5.539205 0.637926 L 5.279119 0.636222 L 5.151847 0.623437 L 4.491619 0.563352 L 4.25 0.527841 L 3.5 0.455966 L 0.0000000169501 -0.0568182 " transform="matrix(27.5,0,0,27.5,126.875,275)"/>
<path style="fill:none;stroke-width:0.1;stroke-linecap:round;stroke-linejoin:bevel;stroke:rgb(60%,60%,60%);stroke-opacity:0.639334;stroke-miterlimit:10;" d="M 2519.74517 0.285511 L 19.99517 0.314347 L 19.485369 0.30696 L 16.43608 0.481818 L 16.02571 0.504403 L 14.935369 0.710085 L 13.949716 0.785653 L 11.151563 0.978835 L 10.113778 0.956676 L 8.772443 0.787784 L 8.472301 0.749858 L 8.181676 0.717756 L 7.433523 0.693182 L 7.173295 0.672585 L 6.665341 0.646307 L 6.50483 0.640341 L 5.534517 0.597301 L 5.27571 0.596165 L 5.15483 0.585085 L 4.492614 0.529403 L 4.25 0.496875 L 3.5 0.430824 L 0.0000000169501 -0.0396307 " transform="matrix(27.5,0,0,27.5,126.875,275)"/>
<path style="fill:none;stroke-width:0.1;stroke-linecap:round;stroke-linejoin:bevel;stroke:rgb(60%,60%,60%);stroke-opacity:0.63943;stroke-miterlimit:10;" d="M 2519.745881 0.263636 L 19.995881 0.290199 L 19.487642 0.283381 L 16.434233 0.444744 L 16.029119 0.465199 L 14.937074 0.654545 L 13.944886 0.724574 L 11.166477 0.900994 L 10.100142 0.880398 L 8.772443 0.726136 L 8.477273 0.691761 L 8.19233 0.663636 L 7.439773 0.641903 L 7.180824 0.623153 L 6.669034 0.59929 L 6.507528 0.594034 L 5.530114 0.554972 L 5.272443 0.553977 L 5.157813 0.54446 L 4.493608 0.493324 L 4.25 0.463352 L 3.5 0.402841 L 0.0000000169501 -0.0274148 " transform="matrix(27.5,0,0,27.5,126.875,275)"/>
<path style="fill:none;stroke-width:0.1;stroke-linecap:round;stroke-linejoin:bevel;stroke:rgb(60%,60%,60%);stroke-opacity:0.639503;stroke-miterlimit:10;" d="M 2519.746591 0.242188 L 19.996591 0.266051 L 19.489631 0.259801 L 16.432528 0.40767 L 16.032244 0.426278 L 14.938636 0.59929 L 13.940341 0.663778 L 11.180114 0.823864 L 10.087784 0.80483 L 8.772443 0.664773 L 8.481392 0.633807 L 8.201705 0.609233 L 7.445455 0.590057 L 7.188068 0.573011 L 6.672443 0.551278 L 6.509943 0.546591 L 5.52571 0.51108 L 5.269318 0.510511 L 5.160653 0.502273 L 4.494602 0.455398 L 4.25 0.427983 L 3.5 0.372869 L 0.0000000169501 -0.01875 " transform="matrix(27.5,0,0,27.5,126.875,275)"/>
<path style="fill:none;stroke-width:0.1;stroke-linecap:round;stroke-linejoin:bevel;stroke:rgb(60%,60%,60%);stroke-opacity:0.639557;stroke-miterlimit:10;" d="M 2519.747159 0.21946 L 19.997159 0.241761 L 19.491335 0.236222 L 16.430966 0.370597 L 16.035085 0.387216 L 14.939915 0.544176 L 13.936222 0.602983 L 11.192472 0.747443 L 10.07642 0.72983 L 8.772443 0.603693 L 8.484801 0.575852 L 8.210227 0.554545 L 7.450852 0.5375 L 7.194602 0.522301 L 6.67571 0.502557 L 6.512358 0.498437 L 5.521733 0.466335 L 5.266335 0.465909 L 5.16321 0.458807 L 4.495455 0.416193 L 4.25 0.391335 L 3.5 0.341619 L 0.0000000169501 -0.012642 " transform="matrix(27.5,0,0,27.5,126.875,275)"/>
<path style="fill:none;stroke-width:0.1;stroke-linecap:round;stroke-linejoin:bevel;stroke:rgb(60%,60%,60%);stroke-opacity:0.639597;stroke-miterlimit:10;" d="M 2519.747727 0.197159 L 19.997727 0.217614 L 19.49304 0.212642 L 16.429545 0.333523 L 16.037642 0.348437 L 14.941193 0.489347 L 13.932528 0.542472 L 11.203409 0.671307 L 10.066051 0.655398 L 8.772443 0.542756 L 8.487642 0.51804 L 8.217614 0.499574 L 7.455682 0.484659 L 7.200568 0.471023 L 6.678693 0.453267 L 6.514489 0.449574 L 5.51804 0.420881 L 5.263636 0.420455 L 5.165767 0.414489 L 4.496307 0.376278 L 4.25 0.353835 L 3.5 0.309091 L 0.0000000169501 -0.00838068 " transform="matrix(27.5,0,0,27.5,126.875,275)"/>
<path style="fill:none;stroke-width:0.1;stroke-linecap:round;stroke-linejoin:bevel;stroke:rgb(60%,60%,60%);stroke-opacity:0.639626;stroke-miterlimit:10;" d="M 2519.748153 0.175284 L 19.998153 0.193466 L 19.49446 0.18892 L 16.428267 0.296449 L 16.039915 0.309517 L 14.94233 0.434517 L 13.929119 0.48196 L 11.21321 0.595739 L 10.05696 0.581392 L 8.772443 0.482102 L 8.490057 0.460227 L 8.224148 0.44446 L 7.460085 0.431392 L 7.206108 0.419318 L 6.68125 0.403551 L 6.516335 0.400426 L 5.514631 0.375 L 5.261222 0.374574 L 5.16804 0.369602 L 4.497017 0.335511 L 4.25 0.315625 L 3.5 0.275994 L 0.0000000169501 -0.00539773 " transform="matrix(27.5,0,0,27.5,126.875,275)"/>
<path style="fill:none;stroke-width:0.1;stroke-linecap:round;stroke-linejoin:bevel;stroke:rgb(60%,60%,60%);stroke-opacity:0.639645;stroke-miterlimit:10;" d="M 2519.74858 0.153693 L 19.99858 0.169318 L 19.495739 0.165341 L 16.427131 0.259375 L 16.041903 0.270739 L 14.943324 0.379972 L 13.926278 0.421449 L 11.221591 0.520455 L 10.048864 0.507812 L 8.772443 0.421591 L 8.492045 0.402557 L 8.22983 0.389205 L 7.46392 0.377841 L 7.210938 0.36733 L 6.683665 0.353693 L 6.51804 0.350852 L 5.511648 0.328551 L 5.258949 0.328409 L 5.170028 0.324148 L 4.497727 0.294318 L 4.25 0.276989 L 3.5 0.24233 L 0.0000000169501 -0.00340909 " transform="matrix(27.5,0,0,27.5,126.875,275)"/>
<path style="fill:none;stroke-width:0.1;stroke-linecap:round;stroke-linejoin:bevel;stroke:rgb(60%,60%,60%);stroke-opacity:0.639658;stroke-miterlimit:10;" d="M 2519.749006 0.132102 L 19.999006 0.145028 L 19.496875 0.141761 L 16.426136 0.222301 L 16.04375 0.23196 L 14.944176 0.325426 L 13.923722 0.36108 L 11.228977 0.445455 L 10.041903 0.434659 L 8.772443 0.36108 L 8.493608 0.344886 L 8.234659 0.333807 L 7.46733 0.324148 L 7.215057 0.315199 L 6.685795 0.303409 L 6.519602 0.300994 L 5.509091 0.28196 L 5.257102 0.281818 L 5.171733 0.278409 L 4.498295 0.252841 L 4.25 0.237926 L 3.5 0.208239 L 0.0000000169501 -0.00198864 " transform="matrix(27.5,0,0,27.5,126.875,275)"/>
<path style="fill:none;stroke-width:0.1;stroke-linecap:round;stroke-linejoin:bevel;stroke:rgb(60%,60%,60%);stroke-opacity:0.639665;stroke-miterlimit:10;" d="M 2519.74929 0.109801 L 19.99929 0.120881 L 19.497869 0.118182 L 16.425426 0.185227 L 16.04517 0.193324 L 14.944886 0.271023 L 13.921591 0.300852 L 11.235085 0.370881 L 10.035938 0.36179 L 8.772443 0.30071 L 8.494886 0.287358 L 8.238636 0.278409 L 7.47017 0.270312 L 7.218608 0.262926 L 6.6875 0.253125 L 6.520881 0.251136 L 5.506818 0.235227 L 5.25554 0.235085 L 5.173295 0.232386 L 4.498864 0.210938 L 4.25 0.19858 L 3.5 0.173864 L 0.0000000169501 -0.000994318 " transform="matrix(27.5,0,0,27.5,126.875,275)"/>
<path style="fill:none;stroke-width:0.1;stroke-linecap:round;stroke-linejoin:bevel;stroke:rgb(60%,60%,60%);stroke-opacity:0.639669;stroke-miterlimit:10;" d="M 2519.749574 0.0879261 L 19.999574 0.096733 L 19.49858 0.0944602 L 16.424716 0.148153 L 16.046307 0.154545 L 14.945455 0.216761 L 13.919886 0.240625 L 11.240199 0.296449 L 10.031108 0.289062 L 8.772443 0.240483 L 8.495881 0.22983 L 8.241903 0.222727 L 7.472585 0.216335 L 7.221591 0.210511 L 6.68892 0.202557 L 6.521875 0.200994 L 5.504972 0.188352 L 5.254119 0.18821 L 5.174574 0.18608 L 4.49929 0.169034 L 4.25 0.158949 L 3.5 0.139347 L 0.0000000169501 -0.000426136 " transform="matrix(27.5,0,0,27.5,126.875,275)"/>
<path style="fill:none;stroke-width:0.1;stroke-linecap:round;stroke-linejoin:bevel;stroke:rgb(60%,60%,60%);stroke-opacity:0.639671;stroke-miterlimit:10;" d="M 2519.749716 0.0659091 L 19.999716 0.0725852 L 19.49929 0.0708807 L 16.424148 0.111222 L 16.047301 0.115909 L 14.945881 0.1625 L 13.918466 0.180398 L 11.244034 0.222159 L 10.027273 0.216619 L 8.772443 0.180398 L 8.496591 0.172301 L 8.244318 0.167187 L 7.474432 0.162358 L 7.223864 0.157955 L 6.690057 0.151989 L 6.522727 0.150852 L 5.503551 0.141335 L 5.253125 0.141193 L 5.175568 0.139631 L 4.499574 0.126847 L 4.25 0.119318 L 3.5 0.104545 L 0.0000000169501 -0.000142045 " transform="matrix(27.5,0,0,27.5,126.875,275)"/>
<path style="fill:none;stroke-width:0.1;stroke-linecap:round;stroke-linejoin:bevel;stroke:rgb(60%,60%,60%);stroke-opacity:0.639672;stroke-miterlimit:10;" d="M 2519.749858 0.0440341 L 19.999858 0.0482955 L 19.499716 0.0473011 L 16.423864 0.0741477 L 16.048011 0.0772727 L 14.946307 0.108381 L 13.917472 0.120312 L 11.246733 0.148011 L 10.024716 0.144318 L 8.772443 0.12017 L 8.497159 0.114915 L 8.246165 0.111506 L 7.47571 0.108239 L 7.225426 0.105256 L 6.690909 0.10142 L 6.523295 0.100568 L 5.502557 0.0941761 L 5.252415 0.0941761 L 5.176136 0.0931818 L 4.499858 0.0846591 L 4.25 0.0796875 L 3.5 0.0697443 L 0.0000000169501 0 " transform="matrix(27.5,0,0,27.5,126.875,275)"/>
<path style="fill:none;stroke-width:0.1;stroke-linecap:round;stroke-linejoin:bevel;stroke:rgb(60%,60%,60%);stroke-opacity:0.639672;stroke-miterlimit:10;" d="M 2519.75 0.022017 L 20 0.0241477 L 19.499858 0.0235795 L 16.42358 0.0370739 L 16.048295 0.0386364 L 14.946449 0.0541193 L 13.916903 0.0600852 L 11.248438 0.0740057 L 10.023011 0.0721591 L 8.772443 0.0600852 L 8.497443 0.0573864 L 8.247159 0.0556818 L 7.47642 0.0541193 L 7.22642 0.0526989 L 6.691335 0.0507102 L 6.52358 0.0502841 L 5.501989 0.0471591 L 5.251847 0.0471591 L 5.176563 0.0465909 L 4.5 0.0423295 L 4.25 0.0397727 L 3.5 0.0349432 L 0.0000000169501 0 " transform="matrix(27.5,0,0,27.5,126.875,275)"/>
<path style="fill:none;stroke-width:0.1;stroke-linecap:round;stroke-linejoin:bevel;stroke:rgb(60%,60%,60%);stroke-opacity:0.639672;stroke-miterlimit:10;" d="M 2519.75 -0.022017 L 20 -0.0241477 L 19.499858 -0.0235795 L 16.42358 -0.0370739 L 16.048295 -0.0386364 L 14.946449 -0.0541193 L 13.916903 -0.0600852 L 11.248438 -0.0740057 L 10.023011 -0.0721591 L 8.772443 -0.0600852 L 8.497443 -0.0573864 L 8.247159 -0.0556818 L 7.47642 -0.0541193 L 7.22642 -0.0526989 L 6.691335 -0.0507102 L 6.52358 -0.0502841 L 5.501989 -0.0471591 L 5.251847 -0.0471591 L 5.176563 -0.0465909 L 4.5 -0.0423295 L 4.25 -0.0397727 L 3.5 -0.0349432 L 0.0000000169501 0 " transform="matrix(27.5,0,0,27.5,126.875,275)"/>
<path style="fill:none;stroke-width:0.1;stroke-linecap:round;stroke-linejoin:bevel;stroke:rgb(60%,60%,60%);stroke-opacity:0.639672;stroke-miterlimit:10;" d="M 2519.749858 -0.0440341 L 19.999858 -0.0482955 L 19.499716 -0.0473011 L 16.423864 -0.0741477 L 16.048011 -0.0772727 L 14.946307 -0.108381 L 13.917472 -0.120313 L 11.246733 -0.148011 L 10.024716 -0.144318 L 8.772443 -0.12017 L 8.497159 -0.114915 L 8.246165 -0.111506 L 7.47571 -0.108239 L 7.225426 -0.105256 L 6.690909 -0.10142 L 6.523295 -0.100568 L 5.502557 -0.0941761 L 5.252415 -0.0941761 L 5.176136 -0.0931818 L 4.499858 -0.0846591 L 4.25 -0.0796875 L 3.5 -0.0697443 L 0.0000000169501 0 " transform="matrix(27.5,0,0,27.5,126.875,275)"/>
<path style="fill:none;stroke-width:0.1;stroke-linecap:round;stroke-linejoin:bevel;stroke:rgb(60%,60%,60%);stroke-opacity:0.639671;stroke-miterlimit:10;" d="M 2519.749716 -0.0659091 L 19.999716 -0.0725852 L 19.49929 -0.0708807 L 16.424148 -0.111222 L 16.047301 -0.115909 L 14.945881 -0.1625 L 13.918466 -0.180398 L 11.244034 -0.222159 L 10.027273 -0.216619 L 8.772443 -0.180398 L 8.496591 -0.172301 L 8.244318 -0.167188 L 7.474432 -0.162358 L 7.223864 -0.157955 L 6.690057 -0.151989 L 6.522727 -0.150852 L 5.503551 -0.141335 L 5.253125 -0.141193 L 5.175568 -0.139631 L 4.499574 -0.126847 L 4.25 -0.119318 L 3.5 -0.104545 L 0.0000000169501 0.000142045 " transform="matrix(27.5,0,0,27.5,126.875,275)"/>
<path style="fill:none;stroke-width:0.1;stroke-linecap:round;stroke-linejoin:bevel;stroke:rgb(60%,60%,60%);stroke-opacity:0.639669;stroke-miterlimit:10;" d="M 2519.749574 -0.0879261 L 19.999574 -0.096733 L 19.49858 -0.0944602 L 16.424716 -0.148153 L 16.046307 -0.154545 L 14.945455 -0.216761 L 13.919886 -0.240625 L 11.240199 -0.296449 L 10.031108 -0.289062 L 8.772443 -0.240483 L 8.495881 -0.22983 L 8.241903 -0.222727 L 7.472585 -0.216335 L 7.221591 -0.210511 L 6.68892 -0.202557 L 6.521875 -0.200994 L 5.504972 -0.188352 L 5.254119 -0.18821 L 5.174574 -0.18608 L 4.49929 -0.169034 L 4.25 -0.158949 L 3.5 -0.139347 L 0.0000000169501 0.000426136 " transform="matrix(27.5,0,0,27.5,126.875,275)"/>
<path style="fill:none;stroke-width:0.1;stroke-linecap:round;stroke-linejoin:bevel;stroke:rgb(60%,60%,60%);stroke-opacity:0.639665;stroke-miterlimit:10;" d="M 2519.74929 -0.109801 L 19.99929 -0.120881 L 19.497869 -0.118182 L 16.425426 -0.185227 L 16.04517 -0.193324 L 14.944886 -0.271023 L 13.921591 -0.300852 L 11.235085 -0.370881 L 10.035938 -0.36179 L 8.772443 -0.30071 L 8.494886 -0.287358 L 8.238636 -0.278409 L 7.47017 -0.270313 L 7.218608 -0.262926 L 6.6875 -0.253125 L 6.520881 -0.251136 L 5.506818 -0.235227 L 5.25554 -0.235085 L 5.173295 -0.232386 L 4.498864 -0.210938 L 4.25 -0.19858 L 3.5 -0.173864 L 0.0000000169501 0.000994318 " transform="matrix(27.5,0,0,27.5,126.875,275)"/>
<path style="fill:none;stroke-width:0.1;stroke-linecap:round;stroke-linejoin:bevel;stroke:rgb(60%,60%,60%);stroke-opacity:0.639658;stroke-miterlimit:10;" d="M 2519.749006 -0.132102 L 19.999006 -0.145028 L 19.496875 -0.141761 L 16.426136 -0.222301 L 16.04375 -0.23196 L 14.944176 -0.325426 L 13.923722 -0.36108 L 11.228977 -0.445455 L 10.041903 -0.434659 L 8.772443 -0.36108 L 8.493608 -0.344886 L 8.234659 -0.333807 L 7.46733 -0.324148 L 7.215057 -0.315199 L 6.685795 -0.303409 L 6.519602 -0.300994 L 5.509091 -0.28196 L 5.257102 -0.281818 L 5.171733 -0.278409 L 4.498295 -0.252841 L 4.25 -0.237926 L 3.5 -0.208239 L 0.0000000169501 0.00198864 " transform="matrix(27.5,0,0,27.5,126.875,275)"/>
<path style="fill:none;stroke-width:0.1;stroke-linecap:round;stroke-linejoin:bevel;stroke:rgb(60%,60%,60%);stroke-opacity:0.639645;stroke-miterlimit:10;" d="M 2519.74858 -0.153693 L 19.99858 -0.169318 L 19.495739 -0.165341 L 16.427131 -0.259375 L 16.041903 -0.270739 L 14.943324 -0.379972 L 13.926278 -0.421449 L 11.221591 -0.520455 L 10.048864 -0.507812 L 8.772443 -0.421591 L 8.492045 -0.402557 L 8.22983 -0.389205 L 7.46392 -0.377841 L 7.210938 -0.36733 L 6.683665 -0.353693 L 6.51804 -0.350852 L 5.511648 -0.328551 L 5.258949 -0.328409 L 5.170028 -0.324148 L 4.497727 -0.294318 L 4.25 -0.276989 L 3.5 -0.24233 L 0.0000000169501 0.00340909 " transform="matrix(27.5,0,0,27.5,126.875,275)"/>
<path style="fill:none;stroke-width:0.1;stroke-linecap:round;stroke-linejoin:bevel;stroke:rgb(60%,60%,60%);stroke-opacity:0.639626;stroke-miterlimit:10;" d="M 2519.748153 -0.175284 L 19.998153 -0.193466 L 19.49446 -0.18892 L 16.428267 -0.296449 L 16.039915 -0.309517 L 14.94233 -0.434517 L 13.929119 -0.48196 L 11.21321 -0.595739 L 10.05696 -0.581392 L 8.772443 -0.482102 L 8.490057 -0.460227 L 8.224148 -0.44446 L 7.460085 -0.431392 L 7.206108 -0.419318 L 6.68125 -0.403551 L 6.516335 -0.400426 L 5.514631 -0.375 L 5.261222 -0.374574 L 5.16804 -0.369602 L 4.497017 -0.335511 L 4.25 -0.315625 L 3.5 -0.275994 L 0.0000000169501 0.00539773 " transform="matrix(27.5,0,0,27.5,126.875,275)"/>
<path style="fill:none;stroke-width:0.1;stroke-linecap:round;stroke-linejoin:bevel;stroke:rgb(60%,60%,60%);stroke-opacity:0.639597;stroke-miterlimit:10;" d="M 2519.747727 -0.197159 L 19.997727 -0.217614 L 19.49304 -0.212642 L 16.429545 -0.333523 L 16.037642 -0.348438 L 14.941193 -0.489347 L 13.932528 -0.542472 L 11.203409 -0.671307 L 10.066051 -0.655398 L 8.772443 -0.542756 L 8.487642 -0.51804 L 8.217614 -0.499574 L 7.455682 -0.484659 L 7.200568 -0.471023 L 6.678693 -0.453267 L 6.514489 -0.449574 L 5.51804 -0.420881 L 5.263636 -0.420455 L 5.165767 -0.414489 L 4.496307 -0.376278 L 4.25 -0.353835 L 3.5 -0.309091 L 0.0000000169501 0.00838068 " transform="matrix(27.5,0,0,27.5,126.875,275)"/>
<path style="fill:none;stroke-width:0.1;stroke-linecap:round;stroke-linejoin:bevel;stroke:rgb(60%,60%,60%);stroke-opacity:0.639557;stroke-miterlimit:10;" d="M 2519.747159 -0.21946 L 19.997159 -0.241761 L 19.491335 -0.236222 L 16.430966 -0.370597 L 16.035085 -0.387216 L 14.939915 -0.544176 L 13.936222 -0.602983 L 11.192472 -0.747443 L 10.07642 -0.72983 L 8.772443 -0.603693 L 8.484801 -0.575852 L 8.210227 -0.554545 L 7.450852 -0.5375 L 7.194602 -0.522301 L 6.67571 -0.502557 L 6.512358 -0.498437 L 5.521733 -0.466335 L 5.266335 -0.465909 L 5.16321 -0.458807 L 4.495455 -0.416193 L 4.25 -0.391335 L 3.5 -0.341619 L 0.0000000169501 0.012642 " transform="matrix(27.5,0,0,27.5,126.875,275)"/>
<path style="fill:none;stroke-width:0.1;stroke-linecap:round;stroke-linejoin:bevel;stroke:rgb(60%,60%,60%);stroke-opacity:0.639503;stroke-miterlimit:10;" d="M 2519.746591 -0.242188 L 19.996591 -0.266051 L 19.489631 -0.259801 L 16.432528 -0.40767 L 16.032244 -0.426278 L 14.938636 -0.59929 L 13.940341 -0.663778 L 11.180114 -0.823864 L 10.087784 -0.80483 L 8.772443 -0.664773 L 8.481392 -0.633807 L 8.201705 -0.609233 L 7.445455 -0.590057 L 7.188068 -0.573011 L 6.672443 -0.551278 L 6.509943 -0.546591 L 5.52571 -0.51108 L 5.269318 -0.510511 L 5.160653 -0.502273 L 4.494602 -0.455398 L 4.25 -0.427983 L 3.5 -0.372869 L 0.0000000169501 0.01875 " transform="matrix(27.5,0,0,27.5,126.875,275)"/>
<path style="fill:none;stroke-width:0.1;stroke-linecap:round;stroke-linejoin:bevel;stroke:rgb(60%,60%,60%);stroke-opacity:0.63943;stroke-miterlimit:10;" d="M 2519.745881 -0.263636 L 19.995881 -0.290199 L 19.487642 -0.283381 L 16.434233 -0.444744 L 16.029119 -0.465199 L 14.937074 -0.654545 L 13.944886 -0.724574 L 11.166477 -0.900994 L 10.100142 -0.880398 L 8.772443 -0.726136 L 8.477273 -0.691761 L 8.19233 -0.663636 L 7.439773 -0.641903 L 7.180824 -0.623153 L 6.669034 -0.59929 L 6.507528 -0.594034 L 5.530114 -0.554972 L 5.272443 -0.553977 L 5.157813 -0.54446 L 4.493608 -0.493324 L 4.25 -0.463352 L 3.5 -0.402841 L 0.0000000169501 0.0274148 " transform="matrix(27.5,0,0,27.5,126.875,275)"/>
<path style="fill:none;stroke-width:0.1;stroke-linecap:round;stroke-linejoin:bevel;stroke:rgb(60%,60%,60%);stroke-opacity:0.639334;stroke-miterlimit:10;" d="M 2519.74517 -0.285511 L 19.99517 -0.314347 L 19.485369 -0.30696 L 16.43608 -0.481818 L 16.02571 -0.504403 L 14.935369 -0.710085 L 13.949716 -0.785653 L 11.151563 -0.978835 L 10.113778 -0.956676 L 8.772443 -0.787784 L 8.472301 -0.749858 L 8.181676 -0.717756 L 7.433523 -0.693182 L 7.173295 -0.672585 L 6.665341 -0.646307 L 6.50483 -0.640341 L 5.534517 -0.597301 L 5.27571 -0.596165 L 5.15483 -0.585085 L 4.492614 -0.529403 L 4.25 -0.496875 L 3.5 -0.430824 L 0.0000000169501 0.0396307 " transform="matrix(27.5,0,0,27.5,126.875,275)"/>
<path style="fill:none;stroke-width:0.1;stroke-linecap:round;stroke-linejoin:bevel;stroke:rgb(60%,60%,60%);stroke-opacity:0.639212;stroke-miterlimit:10;" d="M 2519.74446 -0.307813 L 19.994318 -0.338494 L 19.483097 -0.33054 L 16.438068 -0.518892 L 16.022017 -0.543466 L 14.933523 -0.765909 L 13.955114 -0.846733 L 11.135085 -1.057102 L 10.128409 -1.033665 L 8.772443 -0.849716 L 8.466335 -0.808239 L 8.169886 -0.771449 L 7.426989 -0.743324 L 7.165341 -0.720881 L 6.661506 -0.692045 L 6.502131 -0.685369 L 5.539205 -0.637926 L 5.279119 -0.636222 L 5.151847 -0.623437 L 4.491619 -0.563352 L 4.25 -0.527841 L 3.5 -0.455966 L 0.0000000169501 0.0568182 " transform="matrix(27.5,0,0,27.5,126.875,275)"/>
<path style="fill:none;stroke-width:0.1;stroke-linecap:round;stroke-linejoin:bevel;stroke:rgb(60%,60%,60%);stroke-opacity:0.639056;stroke-miterlimit:10;" d="M 2519.743608 -0.330682 L 19.993608 -0.362784 L 19.48054 -0.354119 L 16.440341 -0.555824 L 16.01804 -0.582813 L 14.931676 -0.821875 L 13.960938 -0.908097 L 11.117188 -1.136364 L 10.144176 -1.111648 L 8.772443 -0.912216 L 8.459233 -0.866619 L 8.156818 -0.824574 L 7.420313 -0.79233 L 7.15696 -0.767756 L 6.657528 -0.73608 L 6.49929 -0.728409 L 5.54375 -0.675852 L 5.282386 -0.673722 L 5.148864 -0.658807 L 4.490767 -0.593892 L 4.25 -0.55554 L 3.5 -0.477273 L 0.0000000169501 0.081108 " transform="matrix(27.5,0,0,27.5,126.875,275)"/>
<path style="fill:none;stroke-width:0.1;stroke-linecap:round;stroke-linejoin:bevel;stroke:rgb(60%,60%,60%);stroke-opacity:0.638861;stroke-miterlimit:10;" d="M 2519.742756 -0.351847 L 19.992614 -0.386932 L 19.477983 -0.377699 L 16.442614 -0.592898 L 16.013778 -0.622159 L 14.929545 -0.878267 L 13.967045 -0.969744 L 11.097585 -1.216335 L 10.16108 -1.190483 L 8.772443 -0.975284 L 8.450568 -0.925426 L 8.14233 -0.877131 L 7.41321 -0.839631 L 7.148438 -0.812642 L 6.653551 -0.777699 L 6.496449 -0.768892 L 5.548153 -0.710369 L 5.285511 -0.707244 L 5.146165 -0.690057 L 4.489915 -0.620028 L 4.25 -0.578409 L 3.5 -0.493182 L 0.0000000169501 0.115199 " transform="matrix(27.5,0,0,27.5,126.875,275)"/>
<path style="fill:none;stroke-width:0.1;stroke-linecap:round;stroke-linejoin:bevel;stroke:rgb(60%,60%,60%);stroke-opacity:0.638619;stroke-miterlimit:10;" d="M 2519.741761 -0.37358 L 19.991761 -0.41108 L 19.475 -0.401278 L 16.445028 -0.629972 L 16.009233 -0.661506 L 14.927273 -0.934801 L 13.973722 -1.031392 L 11.07642 -1.297301 L 10.179119 -1.270455 L 8.772443 -1.039062 L 8.440057 -0.984375 L 8.126278 -0.928977 L 7.40625 -0.884801 L 7.139915 -0.855256 L 6.649716 -0.816335 L 6.49375 -0.805824 L 5.552131 -0.739915 L 5.288352 -0.735511 L 5.143892 -0.715909 L 4.489205 -0.640199 L 4.25 -0.594744 L 3.5 -0.501847 L 0.0000000169501 0.16321 " transform="matrix(27.5,0,0,27.5,126.875,275)"/>
<path style="fill:none;stroke-width:0.1;stroke-linecap:round;stroke-linejoin:bevel;stroke:rgb(60%,60%,60%);stroke-opacity:0.638319;stroke-miterlimit:10;" d="M 2519.740767 -0.395739 L 19.990767 -0.435227 L 19.472017 -0.424858 L 16.447727 -0.667045 L 16.004403 -0.701136 L 14.924858 -0.991903 L 13.980824 -1.093466 L 11.053409 -1.379119 L 10.198295 -1.351562 L 8.772443 -1.103693 L 8.427131 -1.04375 L 8.108523 -0.980114 L 7.39929 -0.926989 L 7.131676 -0.89446 L 6.646023 -0.85071 L 6.491335 -0.838068 L 5.555398 -0.762926 L 5.290483 -0.756818 L 5.142188 -0.734091 L 4.488778 -0.652131 L 4.25 -0.602273 L 3.5 -0.500426 L 0.0000000169501 0.23054 " transform="matrix(27.5,0,0,27.5,126.875,275)"/>
<path style="fill:none;stroke-width:0.1;stroke-linecap:round;stroke-linejoin:bevel;stroke:rgb(60%,60%,60%);stroke-opacity:0.637947;stroke-miterlimit:10;" d="M 2519.739631 -0.41875 L 19.989631 -0.459517 L 19.468892 -0.448438 L 16.450426 -0.704119 L 15.999148 -0.740767 L 14.922301 -1.04929 L 13.988352 -1.155682 L 11.028551 -1.462216 L 10.218466 -1.434091 L 8.772443 -1.169602 L 8.411222 -1.103551 L 8.088636 -1.030114 L 7.392614 -0.965767 L 7.124006 -0.92983 L 6.642898 -0.87983 L 6.489205 -0.864347 L 5.557386 -0.777131 L 5.291619 -0.768608 L 5.141335 -0.742472 L 4.488778 -0.653125 L 4.25 -0.597869 L 3.5 -0.485369 L 0.0000000169501 0.324432 " transform="matrix(27.5,0,0,27.5,126.875,275)"/>
<path style="fill:none;stroke-width:0.1;stroke-linecap:round;stroke-linejoin:bevel;stroke:rgb(60%,60%,60%);stroke-opacity:0.63748;stroke-miterlimit:10;" d="M 2519.738494 -0.439631 L 19.988494 -0.483665 L 19.465483 -0.472017 L 16.453409 -0.741335 L 15.99375 -0.78054 L 14.91946 -1.107102 L 13.996307 -1.218324 L 11.001847 -1.546449 L 10.239773 -1.51804 L 8.772443 -1.237074 L 8.391193 -1.164062 L 8.066477 -1.079261 L 7.386506 -1.000142 L 7.117045 -0.959943 L 6.640341 -0.902131 L 6.487784 -0.882955 L 5.557813 -0.779972 L 5.291619 -0.76804 L 5.141761 -0.737926 L 4.489205 -0.639773 L 4.25 -0.577841 L 3.5 -0.452273 L 0.0000000169501 0.454261 " transform="matrix(27.5,0,0,27.5,126.875,275)"/>
<path style="fill:none;stroke-width:0.1;stroke-linecap:round;stroke-linejoin:bevel;stroke:rgb(60%,60%,60%);stroke-opacity:0.636869;stroke-miterlimit:10;" d="M 2519.737358 -0.46108 L 19.987358 -0.507812 L 19.461932 -0.495597 L 16.456534 -0.778409 L 15.987926 -0.820455 L 14.916619 -1.165483 L 14.00483 -1.28125 L 10.973011 -1.632102 L 10.262216 -1.603693 L 8.772443 -1.306534 L 8.365483 -1.225284 L 8.041193 -1.127273 L 7.380966 -1.029687 L 7.111364 -0.984517 L 6.638778 -0.916335 L 6.487074 -0.892188 L 5.556108 -0.768324 L 5.289915 -0.751989 L 5.14375 -0.717614 L 4.490341 -0.608665 L 4.25 -0.538068 L 3.5 -0.396449 L 0.0000000169501 0.631392 " transform="matrix(27.5,0,0,27.5,126.875,275)"/>
<path style="fill:none;stroke-width:0.1;stroke-linecap:round;stroke-linejoin:bevel;stroke:rgb(60%,60%,60%);stroke-opacity:0.635998;stroke-miterlimit:10;" d="M 2519.73608 -0.483097 L 19.98608 -0.53196 L 19.458239 -0.519034 L 16.459659 -0.815483 L 15.981818 -0.860511 L 14.913494 -1.22429 L 14.013778 -1.34446 L 10.941903 -1.719176 L 10.285511 -1.691193 L 8.772443 -1.378693 L 8.33196 -1.287642 L 8.011648 -1.174432 L 7.376278 -1.054403 L 7.106818 -1.002983 L 6.638068 -0.921875 L 6.487074 -0.891335 L 5.552273 -0.740199 L 5.286648 -0.718182 L 5.147159 -0.679261 L 4.491903 -0.557102 L 4.25 -0.475426 L 3.5 -0.314063 L 0.0000000169501 0.866477 " transform="matrix(27.5,0,0,27.5,126.875,275)"/>
<path style="fill:none;stroke-width:0.1;stroke-linecap:round;stroke-linejoin:bevel;stroke:rgb(60%,60%,60%);stroke-opacity:0.634587;stroke-miterlimit:10;" d="M 2519.734801 -0.505966 L 19.984801 -0.55625 L 19.454261 -0.542614 L 16.463068 -0.852557 L 15.975426 -0.90071 L 14.910227 -1.283807 L 14.023153 -1.408097 L 10.908523 -1.807813 L 10.309801 -1.780682 L 8.772443 -1.454403 L 8.286932 -1.351278 L 7.975142 -1.221023 L 7.372017 -1.076278 L 7.103267 -1.017614 L 6.63821 -0.920739 L 6.487784 -0.882102 L 5.546449 -0.697159 L 5.281818 -0.66804 L 5.151705 -0.624716 L 4.49375 -0.486648 L 4.25 -0.391193 L 3.5 -0.205966 L 0.0000000169501 1.163352 " transform="matrix(27.5,0,0,27.5,126.875,275)"/>
<path style="fill-rule:nonzero;fill:rgb(50%,50%,50%);fill-opacity:0.85;stroke-width:0.0777778;stroke-linecap:round;stroke-linejoin:bevel;stroke:rgb(82.499999%,82.499999%,82.499999%);stroke-opacity:1;stroke-miterlimit:10;" d="M 18.391051 -5.5 L 18.460511 -5.390057 L 18.527841 -5.279972 L 18.593466 -5.170028 L 18.657244 -5.059943 L 18.719034 -4.95 L 18.779261 -4.840057 L 18.837642 -4.729972 L 18.894318 -4.620028 L 18.94929 -4.509943 L 19.002699 -4.4 L 19.054545 -4.290057 L 19.104688 -4.179972 L 19.153267 -4.070028 L 19.200284 -3.959943 L 19.245881 -3.85 L 19.289915 -3.740057 L 19.332528 -3.629972 L 19.373722 -3.520028 L 19.413352 -3.409943 L 19.451705 -3.3 L 19.488636 -3.190057 L 19.524148 -3.079972 L 19.558239 -2.970028 L 19.591051 -2.859943 L 19.622443 -2.75 L 19.652557 -2.640057 L 19.681392 -2.529972 L 19.708949 -2.420028 L 19.735085 -2.309943 L 19.760085 -2.2 L 19.783665 -2.090057 L 19.806108 -1.979972 L 19.827273 -1.870028 L 19.847017 -1.759943 L 19.865767 -1.65 L 19.883097 -1.540057 L 19.89929 -1.429972 L 19.914205 -1.320028 L 19.927983 -1.209943 L 19.940483 -1.1 L 19.951847 -0.990057 L 19.961932 -0.879972 L 19.970881 -0.770028 L 19.978693 -0.659943 L 19.985227 -0.55 L 19.990483 -0.440057 L 19.994602 -0.329972 L 19.997585 -0.220028 L 19.999432 -0.109943 L 20 0 L 19.999432 0.109943 L 19.997585 0.220028 L 19.994602 0.329972 L 19.990483 0.440057 L 19.985227 0.55 L 19.978693 0.659943 L 19.970881 0.770028 L 19.961932 0.879972 L 19.951847 0.990057 L 19.940483 1.1 L 19.927983 1.209943 L 19.914205 1.320028 L 19.89929 1.429972 L 19.883097 1.540057 L 19.865767 1.65 L 19.847017 1.759943 L 19.827273 1.870028 L 19.806108 1.979972 L 19.783665 2.090057 L 19.760085 2.2 L 19.735085 2.309943 L 19.708949 2.420028 L 19.681392 2.529972 L 19.652557 2.640057 L 19.622443 2.75 L 19.591051 2.859943 L 19.558239 2.970028 L 19.524148 3.079972 L 19.488636 3.190057 L 19.451705 3.3 L 19.413352 3.409943 L 19.373722 3.520028 L 19.332528 3.629972 L 19.289915 3.740057 L 19.245881 3.85 L 19.200284 3.959943 L 19.153267 4.070028 L 19.104688 4.179972 L 19.054545 4.290057 L 19.002699 4.4 L 18.94929 4.509943 L 18.894318 4.620028 L 18.837642 4.729972 L 18.779261 4.840057 L 18.719034 4.95 L 18.657244 5.059943 L 18.593466 5.170028 L 18.527841 5.279972 L 18.460511 5.390057 L 18.391051 5.5 L 16.914631 3.175 L 17.169176 3.111506 L 17.363068 3.048011 L 17.524574 2.984517 L 17.664915 2.921023 L 17.789773 2.857528 L 17.902699 2.794034 L 18.006108 2.73054 L 18.10142 2.667045 L 18.190057 2.603551 L 18.272869 2.540057 L 18.350426 2.476562 L 18.423295 2.413068 L 18.492045 2.349432 L 18.55696 2.285937 L 18.618466 2.222443 L 18.676563 2.158949 L 18.731818 2.095455 L 18.784233 2.03196 L 18.834091 1.968466 L 18.881392 1.904972 L 18.926278 1.841477 L 18.969034 1.777983 L 19.009659 1.714489 L 19.048153 1.650994 L 19.084801 1.5875 L 19.11946 1.524006 L 19.152415 1.460511 L 19.183665 1.397017 L 19.213068 1.333523 L 19.240909 1.270028 L 19.267188 1.206534 L 19.291903 1.14304 L 19.315057 1.079545 L 19.336648 1.016051 L 19.35696 0.952557 L 19.37571 0.889062 L 19.393182 0.825568 L 19.409233 0.761932 L 19.423864 0.698437 L 19.437216 0.634943 L 19.44929 0.571449 L 19.459943 0.507955 L 19.469318 0.44446 L 19.477557 0.380966 L 19.484375 0.317472 L 19.490057 0.253977 L 19.49446 0.190483 L 19.497443 0.126989 L 19.499432 0.0634943 L 19.5 0 L 19.499432 -0.0634943 L 19.497443 -0.126989 L 19.49446 -0.190483 L 19.490057 -0.253977 L 19.484375 -0.317472 L 19.477557 -0.380966 L 19.469318 -0.44446 L 19.459943 -0.507955 L 19.44929 -0.571449 L 19.437216 -0.634943 L 19.423864 -0.698438 L 19.409233 -0.761932 L 19.393182 -0.825568 L 19.37571 -0.889062 L 19.35696 -0.952557 L 19.336648 -1.016051 L 19.315057 -1.079545 L 19.291903 -1.14304 L 19.267188 -1.206534 L 19.240909 -1.270028 L 19.213068 -1.333523 L 19.183665 -1.397017 L 19.152415 -1.460511 L 19.11946 -1.524006 L 19.084801 -1.5875 L 19.048153 -1.650994 L 19.009659 -1.714489 L 18.969034 -1.777983 L 18.926278 -1.841477 L 18.881392 -1.904972 L 18.834091 -1.968466 L 18.784233 -2.03196 L 18.731818 -2.095455 L 18.676563 -2.158949 L 18.618466 -2.222443 L 18.55696 -2.285938 L 18.492045 -2.349432 L 18.423295 -2.413068 L 18.350426 -2.476562 L 18.272869 -2.540057 L 18.190057 -2.603551 L 18.10142 -2.667045 L 18.006108 -2.73054 L 17.902699 -2.794034 L 17.789773 -2.857528 L 17.664915 -2.921023 L 17.524574 -2.984517 L 17.363068 -3.048011 L 17.169176 -3.111506 L 16.914631 -3.175 Z M 18.391051 -5.5 " transform="matrix(27.5,0,0,27.5,126.875,275)"/>
<g clip-path="url(#clip1)" clip-rule="nonzero">
<path style="fill:none;stroke-width:0.0777778;stroke-linecap:round;stroke-linejoin:bevel;stroke:rgb(82.499999%,82.499999%,82.499999%);stroke-opacity:1;stroke-miterlimit:10;" d="M 16.914631 -3.175 L 17.169176 -3.111506 L 17.363068 -3.048011 L 17.524574 -2.984517 L 17.664915 -2.921023 L 17.789773 -2.857528 L 17.902699 -2.794034 L 18.006108 -2.73054 L 18.10142 -2.667045 L 18.190057 -2.603551 L 18.272869 -2.540057 L 18.350426 -2.476562 L 18.423295 -2.413068 L 18.492045 -2.349432 L 18.55696 -2.285938 L 18.618466 -2.222443 L 18.676563 -2.158949 L 18.731818 -2.095455 L 18.784233 -2.03196 L 18.834091 -1.968466 L 18.881392 -1.904972 L 18.926278 -1.841477 L 18.969034 -1.777983 L 19.009659 -1.714489 L 19.048153 -1.650994 L 19.084801 -1.5875 L 19.11946 -1.524006 L 19.152415 -1.460511 L 19.183665 -1.397017 L 19.213068 -1.333523 L 19.240909 -1.270028 L 19.267188 -1.206534 L 19.291903 -1.14304 L 19.315057 -1.079545 L 19.336648 -1.016051 L 19.35696 -0.952557 L 19.37571 -0.889062 L 19.393182 -0.825568 L 19.409233 -0.761932 L 19.423864 -0.698438 L 19.437216 -0.634943 L 19.44929 -0.571449 L 19.459943 -0.507955 L 19.469318 -0.44446 L 19.477557 -0.380966 L 19.484375 -0.317472 L 19.490057 -0.253977 L 19.49446 -0.190483 L 19.497443 -0.126989 L 19.499432 -0.0634943 L 19.5 0 L 19.499432 0.0634943 L 19.497443 0.126989 L 19.49446 0.190483 L 19.490057 0.253977 L 19.484375 0.317472 L 19.477557 0.380966 L 19.469318 0.44446 L 19.459943 0.507955 L 19.44929 0.571449 L 19.437216 0.634943 L 19.423864 0.698437 L 19.409233 0.761932 L 19.393182 0.825568 L 19.37571 0.889062 L 19.35696 0.952557 L 19.336648 1.016051 L 19.315057 1.079545 L 19.291903 1.14304 L 19.267188 1.206534 L 19.240909 1.270028 L 19.213068 1.333523 L 19.183665 1.397017 L 19.152415 1.460511 L 19.11946 1.524006 L 19.084801 1.5875 L 19.048153 1.650994 L 19.009659 1.714489 L 18.969034 1.777983 L 18.926278 1.841477 L 18.881392 1.904972 L 18.834091 1.968466 L 18.784233 2.03196 L 18.731818 2.095455 L 18.676563 2.158949 L 18.618466 2.222443 L 18.55696 2.285937 L 18.492045 2.349432 L 18.423295 2.413068 L 18.350426 2.476562 L 18.272869 2.540057 L 18.190057 2.603551 L 18.10142 2.667045 L 18.006108 2.73054 L 17.902699 2.794034 L 17.789773 2.857528 L 17.664915 2.921023 L 17.524574 2.984517 L 17.363068 3.048011 L 17.169176 3.111506 L 16.914631 3.175 " transform="matrix(27.5,0,0,27.5,126.875,275)"/>
</g>
<path style="fill-rule:nonzero;fill:rgb(50%,50%,50%);fill-opacity:0.85;stroke-width:0.0777778;stroke-linecap:round;stroke-linejoin:bevel;stroke:rgb(82.499999%,82.499999%,82.499999%);stroke-opacity:1;stroke-miterlimit:10;" d="M 16.988494 -3.175 L 16.965483 -3.111506 L 16.942898 -3.048011 L 16.920881 -2.984517 L 16.899432 -2.921023 L 16.878409 -2.857528 L 16.857955 -2.794034 L 16.837926 -2.73054 L 16.818466 -2.667045 L 16.799432 -2.603551 L 16.780966 -2.540057 L 16.762926 -2.476562 L 16.745455 -2.413068 L 16.728409 -2.349432 L 16.711932 -2.285938 L 16.695881 -2.222443 L 16.680398 -2.158949 L 16.665199 -2.095455 L 16.65071 -2.03196 L 16.636506 -1.968466 L 16.622869 -1.904972 L 16.609659 -1.841477 L 16.596875 -1.777983 L 16.584659 -1.714489 L 16.572869 -1.650994 L 16.561506 -1.5875 L 16.550568 -1.524006 L 16.540199 -1.460511 L 16.530114 -1.397017 L 16.520597 -1.333523 L 16.511506 -1.270028 L 16.502983 -1.206534 L 16.494744 -1.14304 L 16.487074 -1.079545 L 16.479688 -1.016051 L 16.472869 -0.952557 L 16.466477 -0.889062 L 16.460653 -0.825568 L 16.455114 -0.761932 L 16.45 -0.698438 L 16.445455 -0.634943 L 16.441193 -0.571449 L 16.4375 -0.507955 L 16.434233 -0.44446 L 16.431392 -0.380966 L 16.428977 -0.317472 L 16.426989 -0.253977 L 16.425426 -0.190483 L 16.424432 -0.126989 L 16.423722 -0.0634943 L 16.423438 0 L 16.423722 0.0634943 L 16.424432 0.126989 L 16.425426 0.190483 L 16.426989 0.253977 L 16.428977 0.317472 L 16.431392 0.380966 L 16.434233 0.44446 L 16.4375 0.507955 L 16.441193 0.571449 L 16.445455 0.634943 L 16.45 0.698437 L 16.455114 0.761932 L 16.460653 0.825568 L 16.466477 0.889062 L 16.472869 0.952557 L 16.479688 1.016051 L 16.487074 1.079545 L 16.494744 1.14304 L 16.502983 1.206534 L 16.511506 1.270028 L 16.520597 1.333523 L 16.530114 1.397017 L 16.540199 1.460511 L 16.550568 1.524006 L 16.561506 1.5875 L 16.572869 1.650994 L 16.584659 1.714489 L 16.596875 1.777983 L 16.609659 1.841477 L 16.622869 1.904972 L 16.636506 1.968466 L 16.65071 2.03196 L 16.665199 2.095455 L 16.680398 2.158949 L 16.695881 2.222443 L 16.711932 2.285937 L 16.728409 2.349432 L 16.745455 2.413068 L 16.762926 2.476562 L 16.780966 2.540057 L 16.799432 2.603551 L 16.818466 2.667045 L 16.837926 2.73054 L 16.857955 2.794034 L 16.878409 2.857528 L 16.899432 2.921023 L 16.920881 2.984517 L 16.942898 3.048011 L 16.965483 3.111506 L 16.988494 3.175 L 15.058665 3.175 L 15.101989 3.111506 L 15.143892 3.048011 L 15.184659 2.984517 L 15.224148 2.921023 L 15.2625 2.857528 L 15.299716 2.794034 L 15.335795 2.73054 L 15.370881 2.667045 L 15.40483 2.603551 L 15.437784 2.540057 L 15.469744 2.476562 L 15.500568 2.413068 L 15.53054 2.349432 L 15.559375 2.285937 L 15.5875 2.222443 L 15.614489 2.158949 L 15.640625 2.095455 L 15.665909 2.03196 L 15.690199 1.968466 L 15.713778 1.904972 L 15.736364 1.841477 L 15.758097 1.777983 L 15.778977 1.714489 L 15.799006 1.650994 L 15.818182 1.5875 L 15.836648 1.524006 L 15.854261 1.460511 L 15.871023 1.397017 L 15.887074 1.333523 L 15.902273 1.270028 L 15.916619 1.206534 L 15.930398 1.14304 L 15.943182 1.079545 L 15.955398 1.016051 L 15.966761 0.952557 L 15.977273 0.889062 L 15.987216 0.825568 L 15.996307 0.761932 L 16.004688 0.698437 L 16.012358 0.634943 L 16.019176 0.571449 L 16.025426 0.507955 L 16.030824 0.44446 L 16.035511 0.380966 L 16.039489 0.317472 L 16.042756 0.253977 L 16.045313 0.190483 L 16.047017 0.126989 L 16.048153 0.0634943 L 16.048438 0 L 16.048153 -0.0634943 L 16.047017 -0.126989 L 16.045313 -0.190483 L 16.042756 -0.253977 L 16.039489 -0.317472 L 16.035511 -0.380966 L 16.030824 -0.44446 L 16.025426 -0.507955 L 16.019176 -0.571449 L 16.012358 -0.634943 L 16.004688 -0.698438 L 15.996307 -0.761932 L 15.987216 -0.825568 L 15.977273 -0.889062 L 15.966761 -0.952557 L 15.955398 -1.016051 L 15.943182 -1.079545 L 15.930398 -1.14304 L 15.916619 -1.206534 L 15.902273 -1.270028 L 15.887074 -1.333523 L 15.871023 -1.397017 L 15.854261 -1.460511 L 15.836648 -1.524006 L 15.818182 -1.5875 L 15.799006 -1.650994 L 15.778977 -1.714489 L 15.758097 -1.777983 L 15.736364 -1.841477 L 15.713778 -1.904972 L 15.690199 -1.968466 L 15.665909 -2.03196 L 15.640625 -2.095455 L 15.614489 -2.158949 L 15.5875 -2.222443 L 15.559375 -2.285938 L 15.53054 -2.349432 L 15.500568 -2.413068 L 15.469744 -2.476562 L 15.437784 -2.540057 L 15.40483 -2.603551 L 15.370881 -2.667045 L 15.335795 -2.73054 L 15.299716 -2.794034 L 15.2625 -2.857528 L 15.224148 -2.921023 L 15.184659 -2.984517 L 15.143892 -3.048011 L 15.101989 -3.111506 L 15.058665 -3.175 Z M 16.988494 -3.175 " transform="matrix(27.5,0,0,27.5,126.875,275)"/>
<g clip-path="url(#clip2)" clip-rule="nonzero">
<path style="fill:none;stroke-width:0.0777778;stroke-linecap:round;stroke-linejoin:bevel;stroke:rgb(82.499999%,82.499999%,82.499999%);stroke-opacity:1;stroke-miterlimit:10;" d="M 15.058665 -3.175 L 15.101989 -3.111506 L 15.143892 -3.048011 L 15.184659 -2.984517 L 15.224148 -2.921023 L 15.2625 -2.857528 L 15.299716 -2.794034 L 15.335795 -2.73054 L 15.370881 -2.667045 L 15.40483 -2.603551 L 15.437784 -2.540057 L 15.469744 -2.476562 L 15.500568 -2.413068 L 15.53054 -2.349432 L 15.559375 -2.285938 L 15.5875 -2.222443 L 15.614489 -2.158949 L 15.640625 -2.095455 L 15.665909 -2.03196 L 15.690199 -1.968466 L 15.713778 -1.904972 L 15.736364 -1.841477 L 15.758097 -1.777983 L 15.778977 -1.714489 L 15.799006 -1.650994 L 15.818182 -1.5875 L 15.836648 -1.524006 L 15.854261 -1.460511 L 15.871023 -1.397017 L 15.887074 -1.333523 L 15.902273 -1.270028 L 15.916619 -1.206534 L 15.930398 -1.14304 L 15.943182 -1.079545 L 15.955398 -1.016051 L 15.966761 -0.952557 L 15.977273 -0.889062 L 15.987216 -0.825568 L 15.996307 -0.761932 L 16.004688 -0.698438 L 16.012358 -0.634943 L 16.019176 -0.571449 L 16.025426 -0.507955 L 16.030824 -0.44446 L 16.035511 -0.380966 L 16.039489 -0.317472 L 16.042756 -0.253977 L 16.045313 -0.190483 L 16.047017 -0.126989 L 16.048153 -0.0634943 L 16.048438 0 L 16.048153 0.0634943 L 16.047017 0.126989 L 16.045313 0.190483 L 16.042756 0.253977 L 16.039489 0.317472 L 16.035511 0.380966 L 16.030824 0.44446 L 16.025426 0.507955 L 16.019176 0.571449 L 16.012358 0.634943 L 16.004688 0.698437 L 15.996307 0.761932 L 15.987216 0.825568 L 15.977273 0.889062 L 15.966761 0.952557 L 15.955398 1.016051 L 15.943182 1.079545 L 15.930398 1.14304 L 15.916619 1.206534 L 15.902273 1.270028 L 15.887074 1.333523 L 15.871023 1.397017 L 15.854261 1.460511 L 15.836648 1.524006 L 15.818182 1.5875 L 15.799006 1.650994 L 15.778977 1.714489 L 15.758097 1.777983 L 15.736364 1.841477 L 15.713778 1.904972 L 15.690199 1.968466 L 15.665909 2.03196 L 15.640625 2.095455 L 15.614489 2.158949 L 15.5875 2.222443 L 15.559375 2.285937 L 15.53054 2.349432 L 15.500568 2.413068 L 15.469744 2.476562 L 15.437784 2.540057 L 15.40483 2.603551 L 15.370881 2.667045 L 15.335795 2.73054 L 15.299716 2.794034 L 15.2625 2.857528 L 15.224148 2.921023 L 15.184659 2.984517 L 15.143892 3.048011 L 15.101989 3.111506 L 15.058665 3.175 " transform="matrix(27.5,0,0,27.5,126.875,275)"/>
</g>
<path style="fill-rule:nonzero;fill:rgb(50%,50%,50%);fill-opacity:0.85;stroke-width:0.0777778;stroke-linecap:round;stroke-linejoin:bevel;stroke:rgb(82.499999%,82.499999%,82.499999%);stroke-opacity:1;stroke-miterlimit:10;" d="M 14.72358 -3.175 L 14.741193 -3.048011 L 14.757955 -2.921023 L 14.766051 -2.857528 L 14.774006 -2.794034 L 14.781818 -2.73054 L 14.789489 -2.667045 L 14.796875 -2.603551 L 14.804119 -2.540057 L 14.81804 -2.413068 L 14.824716 -2.349432 L 14.83125 -2.285938 L 14.84375 -2.158949 L 14.849716 -2.095455 L 14.86108 -1.968466 L 14.866477 -1.904972 L 14.871733 -1.841477 L 14.876847 -1.777983 L 14.886506 -1.650994 L 14.895313 -1.524006 L 14.899574 -1.460511 L 14.903551 -1.397017 L 14.907386 -1.333523 L 14.914489 -1.206534 L 14.917756 -1.14304 L 14.920881 -1.079545 L 14.926563 -0.952557 L 14.929119 -0.889062 L 14.931534 -0.825568 L 14.933665 -0.761932 L 14.935795 -0.698438 L 14.937642 -0.634943 L 14.939347 -0.571449 L 14.942188 -0.44446 L 14.943324 -0.380966 L 14.944318 -0.317472 L 14.945739 -0.190483 L 14.946165 -0.126989 L 14.946449 -0.0634943 L 14.946449 0.0634943 L 14.946165 0.126989 L 14.945739 0.190483 L 14.944318 0.317472 L 14.943324 0.380966 L 14.942188 0.44446 L 14.939347 0.571449 L 14.937642 0.634943 L 14.935795 0.698437 L 14.933665 0.761932 L 14.931534 0.825568 L 14.929119 0.889062 L 14.926563 0.952557 L 14.920881 1.079545 L 14.917756 1.14304 L 14.914489 1.206534 L 14.907386 1.333523 L 14.903551 1.397017 L 14.899574 1.460511 L 14.895313 1.524006 L 14.886506 1.650994 L 14.876847 1.777983 L 14.871733 1.841477 L 14.866477 1.904972 L 14.86108 1.968466 L 14.849716 2.095455 L 14.84375 2.158949 L 14.83125 2.285937 L 14.824716 2.349432 L 14.81804 2.413068 L 14.804119 2.540057 L 14.796875 2.603551 L 14.789489 2.667045 L 14.781818 2.73054 L 14.774006 2.794034 L 14.766051 2.857528 L 14.757955 2.921023 L 14.741193 3.048011 L 14.72358 3.175 L 14.471307 3.175 L 14.448722 3.111506 L 14.426563 3.048011 L 14.404972 2.984517 L 14.383949 2.921023 L 14.363352 2.857528 L 14.343182 2.794034 L 14.32358 2.73054 L 14.304545 2.667045 L 14.285938 2.603551 L 14.267756 2.540057 L 14.250142 2.476562 L 14.232955 2.413068 L 14.216193 2.349432 L 14.2 2.285937 L 14.184233 2.222443 L 14.169034 2.158949 L 14.154119 2.095455 L 14.139773 2.03196 L 14.125994 1.968466 L 14.1125 1.904972 L 14.099574 1.841477 L 14.087074 1.777983 L 14.075 1.714489 L 14.063352 1.650994 L 14.052273 1.5875 L 14.041619 1.524006 L 14.031392 1.460511 L 14.021591 1.397017 L 14.012216 1.333523 L 14.003267 1.270028 L 13.994744 1.206534 L 13.98679 1.14304 L 13.979119 1.079545 L 13.972017 1.016051 L 13.965341 0.952557 L 13.959091 0.889062 L 13.953267 0.825568 L 13.947869 0.761932 L 13.942898 0.698437 L 13.938352 0.634943 L 13.934233 0.571449 L 13.93054 0.507955 L 13.927273 0.44446 L 13.924432 0.380966 L 13.922159 0.317472 L 13.92017 0.253977 L 13.91875 0.190483 L 13.917614 0.126989 L 13.916903 0.0634943 L 13.916761 0 L 13.916903 -0.0634943 L 13.917614 -0.126989 L 13.91875 -0.190483 L 13.92017 -0.253977 L 13.922159 -0.317472 L 13.924432 -0.380966 L 13.927273 -0.44446 L 13.93054 -0.507955 L 13.934233 -0.571449 L 13.938352 -0.634943 L 13.942898 -0.698438 L 13.947869 -0.761932 L 13.953267 -0.825568 L 13.959091 -0.889062 L 13.965341 -0.952557 L 13.972017 -1.016051 L 13.979119 -1.079545 L 13.98679 -1.14304 L 13.994744 -1.206534 L 14.003267 -1.270028 L 14.012216 -1.333523 L 14.021591 -1.397017 L 14.031392 -1.460511 L 14.041619 -1.524006 L 14.052273 -1.5875 L 14.063352 -1.650994 L 14.075 -1.714489 L 14.087074 -1.777983 L 14.099574 -1.841477 L 14.1125 -1.904972 L 14.125994 -1.968466 L 14.139773 -2.03196 L 14.154119 -2.095455 L 14.169034 -2.158949 L 14.184233 -2.222443 L 14.2 -2.285938 L 14.216193 -2.349432 L 14.232955 -2.413068 L 14.250142 -2.476562 L 14.267756 -2.540057 L 14.285938 -2.603551 L 14.304545 -2.667045 L 14.32358 -2.73054 L 14.343182 -2.794034 L 14.363352 -2.857528 L 14.383949 -2.921023 L 14.404972 -2.984517 L 14.426563 -3.048011 L 14.448722 -3.111506 L 14.471307 -3.175 Z M 14.72358 -3.175 " transform="matrix(27.5,0,0,27.5,126.875,275)"/>
<g clip-path="url(#clip3)" clip-rule="nonzero">
<path style="fill:none;stroke-width:0.0777778;stroke-linecap:round;stroke-linejoin:bevel;stroke:rgb(82.499999%,82.499999%,82.499999%);stroke-opacity:1;stroke-miterlimit:10;" d="M 14.471307 -3.175 L 14.448722 -3.111506 L 14.426563 -3.048011 L 14.404972 -2.984517 L 14.383949 -2.921023 L 14.363352 -2.857528 L 14.343182 -2.794034 L 14.32358 -2.73054 L 14.304545 -2.667045 L 14.285938 -2.603551 L 14.267756 -2.540057 L 14.250142 -2.476562 L 14.232955 -2.413068 L 14.216193 -2.349432 L 14.2 -2.285938 L 14.184233 -2.222443 L 14.169034 -2.158949 L 14.154119 -2.095455 L 14.139773 -2.03196 L 14.125994 -1.968466 L 14.1125 -1.904972 L 14.099574 -1.841477 L 14.087074 -1.777983 L 14.075 -1.714489 L 14.063352 -1.650994 L 14.052273 -1.5875 L 14.041619 -1.524006 L 14.031392 -1.460511 L 14.021591 -1.397017 L 14.012216 -1.333523 L 14.003267 -1.270028 L 13.994744 -1.206534 L 13.98679 -1.14304 L 13.979119 -1.079545 L 13.972017 -1.016051 L 13.965341 -0.952557 L 13.959091 -0.889062 L 13.953267 -0.825568 L 13.947869 -0.761932 L 13.942898 -0.698438 L 13.938352 -0.634943 L 13.934233 -0.571449 L 13.93054 -0.507955 L 13.927273 -0.44446 L 13.924432 -0.380966 L 13.922159 -0.317472 L 13.92017 -0.253977 L 13.91875 -0.190483 L 13.917614 -0.126989 L 13.916903 -0.0634943 L 13.916761 0 L 13.916903 0.0634943 L 13.917614 0.126989 L 13.91875 0.190483 L 13.92017 0.253977 L 13.922159 0.317472 L 13.924432 0.380966 L 13.927273 0.44446 L 13.93054 0.507955 L 13.934233 0.571449 L 13.938352 0.634943 L 13.942898 0.698437 L 13.947869 0.761932 L 13.953267 0.825568 L 13.959091 0.889062 L 13.965341 0.952557 L 13.972017 1.016051 L 13.979119 1.079545 L 13.98679 1.14304 L 13.994744 1.206534 L 14.003267 1.270028 L 14.012216 1.333523 L 14.021591 1.397017 L 14.031392 1.460511 L 14.041619 1.524006 L 14.052273 1.5875 L 14.063352 1.650994 L 14.075 1.714489 L 14.087074 1.777983 L 14.099574 1.841477 L 14.1125 1.904972 L 14.125994 1.968466 L 14.139773 2.03196 L 14.154119 2.095455 L 14.169034 2.158949 L 14.184233 2.222443 L 14.2 2.285937 L 14.216193 2.349432 L 14.232955 2.413068 L 14.250142 2.476562 L 14.267756 2.540057 L 14.285938 2.603551 L 14.304545 2.667045 L 14.32358 2.73054 L 14.343182 2.794034 L 14.363352 2.857528 L 14.383949 2.921023 L 14.404972 2.984517 L 14.426563 3.048011 L 14.448722 3.111506 L 14.471307 3.175 " transform="matrix(27.5,0,0,27.5,126.875,275)"/>
</g>
<path style="fill-rule:nonzero;fill:rgb(74.900001%,94.9%,87.400001%);fill-opacity:0.85;stroke-width:0.0777778;stroke-linecap:round;stroke-linejoin:bevel;stroke:rgb(82.499999%,82.499999%,82.499999%);stroke-opacity:1;stroke-miterlimit:10;" d="M 10.672301 -2.25 L 10.698438 -2.204972 L 10.723722 -2.159943 L 10.748153 -2.115057 L 10.771733 -2.070028 L 10.794602 -2.025 L 10.816619 -1.979972 L 10.838068 -1.934943 L 10.858665 -1.890057 L 10.878693 -1.845028 L 10.898011 -1.8 L 10.916619 -1.754972 L 10.934659 -1.709943 L 10.952131 -1.665057 L 10.969034 -1.620028 L 10.985227 -1.575 L 11.000994 -1.529972 L 11.016051 -1.484943 L 11.030682 -1.440057 L 11.044602 -1.395028 L 11.058239 -1.35 L 11.071165 -1.304972 L 11.083665 -1.259943 L 11.095597 -1.215057 L 11.107102 -1.170028 L 11.118182 -1.125 L 11.128693 -1.079972 L 11.138636 -1.034943 L 11.148295 -0.990057 L 11.157386 -0.945028 L 11.166051 -0.9 L 11.17429 -0.854972 L 11.182102 -0.809943 L 11.189347 -0.765057 L 11.196307 -0.720028 L 11.202699 -0.675 L 11.208665 -0.629972 L 11.214347 -0.584943 L 11.21946 -0.540057 L 11.224148 -0.495028 L 11.228551 -0.45 L 11.232386 -0.404972 L 11.235938 -0.359943 L 11.23892 -0.315057 L 11.241619 -0.270028 L 11.243892 -0.225 L 11.245739 -0.179972 L 11.247159 -0.134943 L 11.248153 -0.0900568 L 11.248864 -0.0450284 L 11.249006 0 L 11.248864 0.0450284 L 11.248153 0.0900568 L 11.247159 0.134943 L 11.245739 0.179972 L 11.243892 0.225 L 11.241619 0.270028 L 11.23892 0.315057 L 11.235938 0.359943 L 11.232386 0.404972 L 11.228551 0.45 L 11.224148 0.495028 L 11.21946 0.540057 L 11.214347 0.584943 L 11.208665 0.629972 L 11.202699 0.675 L 11.196307 0.720028 L 11.189347 0.765057 L 11.182102 0.809943 L 11.17429 0.854972 L 11.166051 0.9 L 11.157386 0.945028 L 11.148295 0.990057 L 11.138636 1.034943 L 11.128693 1.079972 L 11.118182 1.125 L 11.107102 1.170028 L 11.095597 1.215057 L 11.083665 1.259943 L 11.071165 1.304972 L 11.058239 1.35 L 11.044602 1.395028 L 11.030682 1.440057 L 11.016051 1.484943 L 11.000994 1.529972 L 10.985227 1.575 L 10.969034 1.620028 L 10.952131 1.665057 L 10.934659 1.709943 L 10.916619 1.754972 L 10.898011 1.8 L 10.878693 1.845028 L 10.858665 1.890057 L 10.838068 1.934943 L 10.816619 1.979972 L 10.794602 2.025 L 10.771733 2.070028 L 10.748153 2.115057 L 10.723722 2.159943 L 10.698438 2.204972 L 10.672301 2.25 L 10.617898 2.25 L 10.590767 2.204972 L 10.564489 2.159943 L 10.539063 2.115057 L 10.514489 2.070028 L 10.490767 2.025 L 10.467898 1.979972 L 10.445739 1.934943 L 10.42429 1.890057 L 10.403693 1.845028 L 10.383665 1.8 L 10.364347 1.754972 L 10.345739 1.709943 L 10.327699 1.665057 L 10.310369 1.620028 L 10.293608 1.575 L 10.277415 1.529972 L 10.26179 1.484943 L 10.246875 1.440057 L 10.232386 1.395028 L 10.218466 1.35 L 10.205114 1.304972 L 10.192188 1.259943 L 10.179972 1.215057 L 10.16804 1.170028 L 10.156818 1.125 L 10.146023 1.079972 L 10.135653 1.034943 L 10.125852 0.990057 L 10.116477 0.945028 L 10.107528 0.9 L 10.099148 0.854972 L 10.091193 0.809943 L 10.083665 0.765057 L 10.076563 0.720028 L 10.070028 0.675 L 10.063778 0.629972 L 10.058097 0.584943 L 10.052841 0.540057 L 10.047869 0.495028 L 10.043466 0.45 L 10.039489 0.404972 L 10.035938 0.359943 L 10.032813 0.315057 L 10.029972 0.270028 L 10.027699 0.225 L 10.025852 0.179972 L 10.024432 0.134943 L 10.023295 0.0900568 L 10.022727 0.0450284 L 10.022443 0 L 10.022727 -0.0450284 L 10.023295 -0.0900568 L 10.024432 -0.134943 L 10.025852 -0.179972 L 10.027699 -0.225 L 10.029972 -0.270028 L 10.032813 -0.315057 L 10.035938 -0.359943 L 10.039489 -0.404972 L 10.043466 -0.45 L 10.047869 -0.495028 L 10.052841 -0.540057 L 10.058097 -0.584943 L 10.063778 -0.629972 L 10.070028 -0.675 L 10.076563 -0.720028 L 10.083665 -0.765057 L 10.091193 -0.809943 L 10.099148 -0.854972 L 10.107528 -0.9 L 10.116477 -0.945028 L 10.125852 -0.990057 L 10.135653 -1.034943 L 10.146023 -1.079972 L 10.156818 -1.125 L 10.16804 -1.170028 L 10.179972 -1.215057 L 10.192188 -1.259943 L 10.205114 -1.304972 L 10.218466 -1.35 L 10.232386 -1.395028 L 10.246875 -1.440057 L 10.26179 -1.484943 L 10.277415 -1.529972 L 10.293608 -1.575 L 10.310369 -1.620028 L 10.327699 -1.665057 L 10.345739 -1.709943 L 10.364347 -1.754972 L 10.383665 -1.8 L 10.403693 -1.845028 L 10.42429 -1.890057 L 10.445739 -1.934943 L 10.467898 -1.979972 L 10.490767 -2.025 L 10.514489 -2.070028 L 10.539063 -2.115057 L 10.564489 -2.159943 L 10.590767 -2.204972 L 10.617898 -2.25 Z M 10.672301 -2.25 " transform="matrix(27.5,0,0,27.5,126.875,275)"/>
<g clip-path="url(#clip4)" clip-rule="nonzero">
<path style="fill:none;stroke-width:0.0777778;stroke-linecap:round;stroke-linejoin:bevel;stroke:rgb(82.499999%,82.499999%,82.499999%);stroke-opacity:1;stroke-miterlimit:10;" d="M 10.617898 -2.25 L 10.590767 -2.204972 L 10.564489 -2.159943 L 10.539063 -2.115057 L 10.514489 -2.070028 L 10.490767 -2.025 L 10.467898 -1.979972 L 10.445739 -1.934943 L 10.42429 -1.890057 L 10.403693 -1.845028 L 10.383665 -1.8 L 10.364347 -1.754972 L 10.345739 -1.709943 L 10.327699 -1.665057 L 10.310369 -1.620028 L 10.293608 -1.575 L 10.277415 -1.529972 L 10.26179 -1.484943 L 10.246875 -1.440057 L 10.232386 -1.395028 L 10.218466 -1.35 L 10.205114 -1.304972 L 10.192188 -1.259943 L 10.179972 -1.215057 L 10.16804 -1.170028 L 10.156818 -1.125 L 10.146023 -1.079972 L 10.135653 -1.034943 L 10.125852 -0.990057 L 10.116477 -0.945028 L 10.107528 -0.9 L 10.099148 -0.854972 L 10.091193 -0.809943 L 10.083665 -0.765057 L 10.076563 -0.720028 L 10.070028 -0.675 L 10.063778 -0.629972 L 10.058097 -0.584943 L 10.052841 -0.540057 L 10.047869 -0.495028 L 10.043466 -0.45 L 10.039489 -0.404972 L 10.035938 -0.359943 L 10.032813 -0.315057 L 10.029972 -0.270028 L 10.027699 -0.225 L 10.025852 -0.179972 L 10.024432 -0.134943 L 10.023295 -0.0900568 L 10.022727 -0.0450284 L 10.022443 0 L 10.022727 0.0450284 L 10.023295 0.0900568 L 10.024432 0.134943 L 10.025852 0.179972 L 10.027699 0.225 L 10.029972 0.270028 L 10.032813 0.315057 L 10.035938 0.359943 L 10.039489 0.404972 L 10.043466 0.45 L 10.047869 0.495028 L 10.052841 0.540057 L 10.058097 0.584943 L 10.063778 0.629972 L 10.070028 0.675 L 10.076563 0.720028 L 10.083665 0.765057 L 10.091193 0.809943 L 10.099148 0.854972 L 10.107528 0.9 L 10.116477 0.945028 L 10.125852 0.990057 L 10.135653 1.034943 L 10.146023 1.079972 L 10.156818 1.125 L 10.16804 1.170028 L 10.179972 1.215057 L 10.192188 1.259943 L 10.205114 1.304972 L 10.218466 1.35 L 10.232386 1.395028 L 10.246875 1.440057 L 10.26179 1.484943 L 10.277415 1.529972 L 10.293608 1.575 L 10.310369 1.620028 L 10.327699 1.665057 L 10.345739 1.709943 L 10.364347 1.754972 L 10.383665 1.8 L 10.403693 1.845028 L 10.42429 1.890057 L 10.445739 1.934943 L 10.467898 1.979972 L 10.490767 2.025 L 10.514489 2.070028 L 10.539063 2.115057 L 10.564489 2.159943 L 10.590767 2.204972 L 10.617898 2.25 " transform="matrix(27.5,0,0,27.5,126.875,275)"/>
</g>
<path style="fill-rule:nonzero;fill:rgb(74.900001%,94.9%,87.400001%);fill-opacity:0.85;stroke-width:0.0777778;stroke-linecap:round;stroke-linejoin:bevel;stroke:rgb(82.499999%,82.499999%,82.499999%);stroke-opacity:1;stroke-miterlimit:10;" d="M 8.430824 -1.5 L 8.433523 -1.470028 L 8.43608 -1.440057 L 8.438636 -1.409943 L 8.441051 -1.379972 L 8.443608 -1.35 L 8.445881 -1.320028 L 8.448295 -1.290057 L 8.450568 -1.259943 L 8.459091 -1.140057 L 8.46108 -1.109943 L 8.463068 -1.079972 L 8.466761 -1.020028 L 8.468466 -0.990057 L 8.470313 -0.959943 L 8.471875 -0.929972 L 8.47358 -0.9 L 8.476705 -0.840057 L 8.478125 -0.809943 L 8.479545 -0.779972 L 8.480824 -0.75 L 8.482244 -0.720028 L 8.483381 -0.690057 L 8.484659 -0.659943 L 8.486932 -0.6 L 8.48892 -0.540057 L 8.489773 -0.509943 L 8.490767 -0.479972 L 8.491477 -0.45 L 8.49233 -0.420028 L 8.49304 -0.390057 L 8.493608 -0.359943 L 8.494318 -0.329972 L 8.494886 -0.3 L 8.495739 -0.240057 L 8.496165 -0.209943 L 8.496591 -0.179972 L 8.496875 -0.15 L 8.497017 -0.120028 L 8.497301 -0.0900568 L 8.497443 -0.0599432 L 8.497443 0.0599432 L 8.497301 0.0900568 L 8.497017 0.120028 L 8.496875 0.15 L 8.496591 0.179972 L 8.496165 0.209943 L 8.495739 0.240057 L 8.494886 0.3 L 8.494318 0.329972 L 8.493608 0.359943 L 8.49304 0.390057 L 8.49233 0.420028 L 8.491477 0.45 L 8.490767 0.479972 L 8.489773 0.509943 L 8.48892 0.540057 L 8.486932 0.6 L 8.484659 0.659943 L 8.483381 0.690057 L 8.482244 0.720028 L 8.480824 0.75 L 8.479545 0.779972 L 8.478125 0.809943 L 8.476705 0.840057 L 8.47358 0.9 L 8.471875 0.929972 L 8.470313 0.959943 L 8.468466 0.990057 L 8.466761 1.020028 L 8.463068 1.079972 L 8.46108 1.109943 L 8.459091 1.140057 L 8.450568 1.259943 L 8.448295 1.290057 L 8.445881 1.320028 L 8.443608 1.35 L 8.441051 1.379972 L 8.438636 1.409943 L 8.43608 1.440057 L 8.433523 1.470028 L 8.430824 1.5 L 7.977557 1.5 L 7.98892 1.470028 L 8 1.440057 L 8.010795 1.409943 L 8.021307 1.379972 L 8.031534 1.35 L 8.041619 1.320028 L 8.051278 1.290057 L 8.060653 1.259943 L 8.069886 1.229972 L 8.078835 1.2 L 8.0875 1.170028 L 8.095881 1.140057 L 8.103977 1.109943 L 8.111932 1.079972 L 8.119602 1.05 L 8.126989 1.020028 L 8.134091 0.990057 L 8.141051 0.959943 L 8.147727 0.929972 L 8.154261 0.9 L 8.160511 0.870028 L 8.166477 0.840057 L 8.172301 0.809943 L 8.177841 0.779972 L 8.183239 0.75 L 8.188352 0.720028 L 8.193182 0.690057 L 8.197869 0.659943 L 8.202273 0.629972 L 8.206534 0.6 L 8.210511 0.570028 L 8.214347 0.540057 L 8.21804 0.509943 L 8.221449 0.479972 L 8.224574 0.45 L 8.227557 0.420028 L 8.230256 0.390057 L 8.232813 0.359943 L 8.235227 0.329972 L 8.237358 0.3 L 8.241051 0.240057 L 8.242472 0.209943 L 8.243892 0.179972 L 8.245028 0.15 L 8.245881 0.120028 L 8.246591 0.0900568 L 8.247159 0.0599432 L 8.247443 0.0299716 L 8.247443 -0.0299716 L 8.247159 -0.0599432 L 8.246591 -0.0900568 L 8.245881 -0.120028 L 8.245028 -0.15 L 8.243892 -0.179972 L 8.242472 -0.209943 L 8.241051 -0.240057 L 8.237358 -0.3 L 8.235227 -0.329972 L 8.232813 -0.359943 L 8.230256 -0.390057 L 8.227557 -0.420028 L 8.224574 -0.45 L 8.221449 -0.479972 L 8.21804 -0.509943 L 8.214347 -0.540057 L 8.210511 -0.570028 L 8.206534 -0.6 L 8.202273 -0.629972 L 8.197869 -0.659943 L 8.193182 -0.690057 L 8.188352 -0.720028 L 8.183239 -0.75 L 8.177841 -0.779972 L 8.172301 -0.809943 L 8.166477 -0.840057 L 8.160511 -0.870028 L 8.154261 -0.9 L 8.147727 -0.929972 L 8.141051 -0.959943 L 8.134091 -0.990057 L 8.126989 -1.020028 L 8.119602 -1.05 L 8.111932 -1.079972 L 8.103977 -1.109943 L 8.095881 -1.140057 L 8.0875 -1.170028 L 8.078835 -1.2 L 8.069886 -1.229972 L 8.060653 -1.259943 L 8.051278 -1.290057 L 8.041619 -1.320028 L 8.031534 -1.35 L 8.021307 -1.379972 L 8.010795 -1.409943 L 8 -1.440057 L 7.98892 -1.470028 L 7.977557 -1.5 Z M 8.430824 -1.5 " transform="matrix(27.5,0,0,27.5,126.875,275)"/>
<g clip-path="url(#clip5)" clip-rule="nonzero">
<path style="fill:none;stroke-width:0.0777778;stroke-linecap:round;stroke-linejoin:bevel;stroke:rgb(82.499999%,82.499999%,82.499999%);stroke-opacity:1;stroke-miterlimit:10;" d="M 7.977557 -1.5 L 7.98892 -1.470028 L 8 -1.440057 L 8.010795 -1.409943 L 8.021307 -1.379972 L 8.031534 -1.35 L 8.041619 -1.320028 L 8.051278 -1.290057 L 8.060653 -1.259943 L 8.069886 -1.229972 L 8.078835 -1.2 L 8.0875 -1.170028 L 8.095881 -1.140057 L 8.103977 -1.109943 L 8.111932 -1.079972 L 8.119602 -1.05 L 8.126989 -1.020028 L 8.134091 -0.990057 L 8.141051 -0.959943 L 8.147727 -0.929972 L 8.154261 -0.9 L 8.160511 -0.870028 L 8.166477 -0.840057 L 8.172301 -0.809943 L 8.177841 -0.779972 L 8.183239 -0.75 L 8.188352 -0.720028 L 8.193182 -0.690057 L 8.197869 -0.659943 L 8.202273 -0.629972 L 8.206534 -0.6 L 8.210511 -0.570028 L 8.214347 -0.540057 L 8.21804 -0.509943 L 8.221449 -0.479972 L 8.224574 -0.45 L 8.227557 -0.420028 L 8.230256 -0.390057 L 8.232813 -0.359943 L 8.235227 -0.329972 L 8.237358 -0.3 L 8.241051 -0.240057 L 8.242472 -0.209943 L 8.243892 -0.179972 L 8.245028 -0.15 L 8.245881 -0.120028 L 8.246591 -0.0900568 L 8.247159 -0.0599432 L 8.247443 -0.0299716 L 8.247443 0.0299716 L 8.247159 0.0599432 L 8.246591 0.0900568 L 8.245881 0.120028 L 8.245028 0.15 L 8.243892 0.179972 L 8.242472 0.209943 L 8.241051 0.240057 L 8.237358 0.3 L 8.235227 0.329972 L 8.232813 0.359943 L 8.230256 0.390057 L 8.227557 0.420028 L 8.224574 0.45 L 8.221449 0.479972 L 8.21804 0.509943 L 8.214347 0.540057 L 8.210511 0.570028 L 8.206534 0.6 L 8.202273 0.629972 L 8.197869 0.659943 L 8.193182 0.690057 L 8.188352 0.720028 L 8.183239 0.75 L 8.177841 0.779972 L 8.172301 0.809943 L 8.166477 0.840057 L 8.160511 0.870028 L 8.154261 0.9 L 8.147727 0.929972 L 8.141051 0.959943 L 8.134091 0.990057 L 8.126989 1.020028 L 8.119602 1.05 L 8.111932 1.079972 L 8.103977 1.109943 L 8.095881 1.140057 L 8.0875 1.170028 L 8.078835 1.2 L 8.069886 1.229972 L 8.060653 1.259943 L 8.051278 1.290057 L 8.041619 1.320028 L 8.031534 1.35 L 8.021307 1.379972 L 8.010795 1.409943 L 8 1.440057 L 7.98892 1.470028 L 7.977557 1.5 " transform="matrix(27.5,0,0,27.5,126.875,275)"/>
</g>
<path style="fill-rule:nonzero;fill:rgb(50%,50%,50%);fill-opacity:0.85;stroke-width:0.0777778;stroke-linecap:round;stroke-linejoin:bevel;stroke:rgb(82.499999%,82.499999%,82.499999%);stroke-opacity:1;stroke-miterlimit:10;" d="M 6.885795 -2.5 L 6.910511 -2.45 L 6.934659 -2.4 L 6.958097 -2.35 L 6.980966 -2.3 L 7.003267 -2.25 L 7.025 -2.2 L 7.046165 -2.15 L 7.066761 -2.1 L 7.08679 -2.05 L 7.10625 -2 L 7.125142 -1.95 L 7.143466 -1.9 L 7.161364 -1.85 L 7.178693 -1.8 L 7.195455 -1.75 L 7.211648 -1.7 L 7.227415 -1.65 L 7.242614 -1.6 L 7.257244 -1.55 L 7.271449 -1.5 L 7.285227 -1.45 L 7.298438 -1.4 L 7.31108 -1.35 L 7.323295 -1.3 L 7.335085 -1.25 L 7.346307 -1.2 L 7.357102 -1.15 L 7.36733 -1.1 L 7.377131 -1.05 L 7.386506 -1 L 7.395313 -0.95 L 7.403693 -0.9 L 7.411648 -0.85 L 7.419176 -0.8 L 7.426136 -0.75 L 7.43267 -0.7 L 7.438778 -0.65 L 7.44446 -0.6 L 7.449574 -0.55 L 7.454261 -0.5 L 7.458523 -0.45 L 7.462358 -0.4 L 7.465767 -0.35 L 7.46875 -0.3 L 7.471165 -0.25 L 7.473153 -0.2 L 7.474716 -0.15 L 7.475852 -0.1 L 7.476563 -0.05 L 7.476705 0 L 7.476563 0.05 L 7.475852 0.1 L 7.474716 0.15 L 7.473153 0.2 L 7.471165 0.25 L 7.46875 0.3 L 7.465767 0.35 L 7.462358 0.4 L 7.458523 0.45 L 7.454261 0.5 L 7.449574 0.55 L 7.44446 0.6 L 7.438778 0.65 L 7.43267 0.7 L 7.426136 0.75 L 7.419176 0.8 L 7.411648 0.85 L 7.403693 0.9 L 7.395313 0.95 L 7.386506 1 L 7.377131 1.05 L 7.36733 1.1 L 7.357102 1.15 L 7.346307 1.2 L 7.335085 1.25 L 7.323295 1.3 L 7.31108 1.35 L 7.298438 1.4 L 7.285227 1.45 L 7.271449 1.5 L 7.257244 1.55 L 7.242614 1.6 L 7.227415 1.65 L 7.211648 1.7 L 7.195455 1.75 L 7.178693 1.8 L 7.161364 1.85 L 7.143466 1.9 L 7.125142 1.95 L 7.10625 2 L 7.08679 2.05 L 7.066761 2.1 L 7.046165 2.15 L 7.025 2.2 L 7.003267 2.25 L 6.980966 2.3 L 6.958097 2.35 L 6.934659 2.4 L 6.910511 2.45 L 6.885795 2.5 L 6.415341 2.5 L 6.450994 2.45 L 6.485653 2.4 L 6.519318 2.35 L 6.551847 2.3 L 6.583523 2.25 L 6.614205 2.2 L 6.643892 2.15 L 6.672727 2.1 L 6.700568 2.05 L 6.727699 2 L 6.753835 1.95 L 6.779119 1.9 L 6.803693 1.85 L 6.827415 1.8 L 6.850426 1.75 L 6.872585 1.7 L 6.893892 1.65 L 6.914631 1.6 L 6.934517 1.55 L 6.953693 1.5 L 6.972159 1.45 L 6.989915 1.4 L 7.00696 1.35 L 7.023438 1.3 L 7.039063 1.25 L 7.054119 1.2 L 7.068466 1.15 L 7.082102 1.1 L 7.09517 1.05 L 7.10767 1 L 7.119318 0.95 L 7.13054 0.9 L 7.141051 0.85 L 7.150852 0.8 L 7.160227 0.75 L 7.16875 0.7 L 7.176847 0.65 L 7.184233 0.6 L 7.191051 0.55 L 7.197301 0.5 L 7.202841 0.45 L 7.207955 0.4 L 7.212358 0.35 L 7.216193 0.3 L 7.21946 0.25 L 7.222017 0.2 L 7.224148 0.15 L 7.225568 0.1 L 7.22642 0.05 L 7.226705 0 L 7.22642 -0.05 L 7.225568 -0.1 L 7.224148 -0.15 L 7.222017 -0.2 L 7.21946 -0.25 L 7.216193 -0.3 L 7.212358 -0.35 L 7.207955 -0.4 L 7.202841 -0.45 L 7.197301 -0.5 L 7.191051 -0.55 L 7.184233 -0.6 L 7.176847 -0.65 L 7.16875 -0.7 L 7.160227 -0.75 L 7.150852 -0.8 L 7.141051 -0.85 L 7.13054 -0.9 L 7.119318 -0.95 L 7.10767 -1 L 7.09517 -1.05 L 7.082102 -1.1 L 7.068466 -1.15 L 7.054119 -1.2 L 7.039063 -1.25 L 7.023438 -1.3 L 7.00696 -1.35 L 6.989915 -1.4 L 6.972159 -1.45 L 6.953693 -1.5 L 6.934517 -1.55 L 6.914631 -1.6 L 6.893892 -1.65 L 6.872585 -1.7 L 6.850426 -1.75 L 6.827415 -1.8 L 6.803693 -1.85 L 6.779119 -1.9 L 6.753835 -1.95 L 6.727699 -2 L 6.700568 -2.05 L 6.672727 -2.1 L 6.643892 -2.15 L 6.614205 -2.2 L 6.583523 -2.25 L 6.551847 -2.3 L 6.519318 -2.35 L 6.485653 -2.4 L 6.450994 -2.45 L 6.415341 -2.5 Z M 6.885795 -2.5 " transform="matrix(27.5,0,0,27.5,126.875,275)"/>
<path style="fill-rule:nonzero;fill:rgb(50%,50%,50%);fill-opacity:0.85;stroke-width:0.0777778;stroke-linecap:round;stroke-linejoin:bevel;stroke:rgb(82.499999%,82.499999%,82.499999%);stroke-opacity:1;stroke-miterlimit:10;" d="M 6.415341 -2.5 L 6.450994 -2.45 L 6.485653 -2.4 L 6.519318 -2.35 L 6.551847 -2.3 L 6.583523 -2.25 L 6.614205 -2.2 L 6.643892 -2.15 L 6.672727 -2.1 L 6.700568 -2.05 L 6.727699 -2 L 6.753835 -1.95 L 6.779119 -1.9 L 6.803693 -1.85 L 6.827415 -1.8 L 6.850426 -1.75 L 6.872585 -1.7 L 6.893892 -1.65 L 6.914631 -1.6 L 6.934517 -1.55 L 6.953693 -1.5 L 6.972159 -1.45 L 6.989915 -1.4 L 7.00696 -1.35 L 7.023438 -1.3 L 7.039063 -1.25 L 7.054119 -1.2 L 7.068466 -1.15 L 7.082102 -1.1 L 7.09517 -1.05 L 7.10767 -1 L 7.119318 -0.95 L 7.13054 -0.9 L 7.141051 -0.85 L 7.150852 -0.8 L 7.160227 -0.75 L 7.16875 -0.7 L 7.176847 -0.65 L 7.184233 -0.6 L 7.191051 -0.55 L 7.197301 -0.5 L 7.202841 -0.45 L 7.207955 -0.4 L 7.212358 -0.35 L 7.216193 -0.3 L 7.21946 -0.25 L 7.222017 -0.2 L 7.224148 -0.15 L 7.225568 -0.1 L 7.22642 -0.05 L 7.226705 0 L 7.22642 0.05 L 7.225568 0.1 L 7.224148 0.15 L 7.222017 0.2 L 7.21946 0.25 L 7.216193 0.3 L 7.212358 0.35 L 7.207955 0.4 L 7.202841 0.45 L 7.197301 0.5 L 7.191051 0.55 L 7.184233 0.6 L 7.176847 0.65 L 7.16875 0.7 L 7.160227 0.75 L 7.150852 0.8 L 7.141051 0.85 L 7.13054 0.9 L 7.119318 0.95 L 7.10767 1 L 7.09517 1.05 L 7.082102 1.1 L 7.068466 1.15 L 7.054119 1.2 L 7.039063 1.25 L 7.023438 1.3 L 7.00696 1.35 L 6.989915 1.4 L 6.972159 1.45 L 6.953693 1.5 L 6.934517 1.55 L 6.914631 1.6 L 6.893892 1.65 L 6.872585 1.7 L 6.850426 1.75 L 6.827415 1.8 L 6.803693 1.85 L 6.779119 1.9 L 6.753835 1.95 L 6.727699 2 L 6.700568 2.05 L 6.672727 2.1 L 6.643892 2.15 L 6.614205 2.2 L 6.583523 2.25 L 6.551847 2.3 L 6.519318 2.35 L 6.485653 2.4 L 6.450994 2.45 L 6.415341 2.5 L 6.290199 2.5 L 6.306534 2.45 L 6.322443 2.4 L 6.338068 2.35 L 6.353267 2.3 L 6.36804 2.25 L 6.382528 2.2 L 6.396733 2.15 L 6.410511 2.1 L 6.424006 2.05 L 6.437074 2 L 6.449858 1.95 L 6.462216 1.9 L 6.47429 1.85 L 6.48608 1.8 L 6.497443 1.75 L 6.508523 1.7 L 6.519176 1.65 L 6.529688 1.6 L 6.539631 1.55 L 6.549432 1.5 L 6.558807 1.45 L 6.567898 1.4 L 6.576563 1.35 L 6.584943 1.3 L 6.59304 1.25 L 6.600852 1.2 L 6.608239 1.15 L 6.615341 1.1 L 6.622159 1.05 L 6.628693 1 L 6.634801 0.95 L 6.640625 0.9 L 6.646165 0.85 L 6.651278 0.8 L 6.65625 0.75 L 6.660795 0.7 L 6.665057 0.65 L 6.668892 0.6 L 6.672585 0.55 L 6.675852 0.5 L 6.678835 0.45 L 6.681534 0.4 L 6.683807 0.35 L 6.685795 0.3 L 6.687642 0.25 L 6.689063 0.2 L 6.690057 0.15 L 6.690909 0.1 L 6.691335 0.05 L 6.691477 0 L 6.691335 -0.05 L 6.690909 -0.1 L 6.690057 -0.15 L 6.689063 -0.2 L 6.687642 -0.25 L 6.685795 -0.3 L 6.683807 -0.35 L 6.681534 -0.4 L 6.678835 -0.45 L 6.675852 -0.5 L 6.672585 -0.55 L 6.668892 -0.6 L 6.665057 -0.65 L 6.660795 -0.7 L 6.65625 -0.75 L 6.651278 -0.8 L 6.646165 -0.85 L 6.640625 -0.9 L 6.634801 -0.95 L 6.628693 -1 L 6.622159 -1.05 L 6.615341 -1.1 L 6.608239 -1.15 L 6.600852 -1.2 L 6.59304 -1.25 L 6.584943 -1.3 L 6.576563 -1.35 L 6.567898 -1.4 L 6.558807 -1.45 L 6.549432 -1.5 L 6.539631 -1.55 L 6.529688 -1.6 L 6.519176 -1.65 L 6.508523 -1.7 L 6.497443 -1.75 L 6.48608 -1.8 L 6.47429 -1.85 L 6.462216 -1.9 L 6.449858 -1.95 L 6.437074 -2 L 6.424006 -2.05 L 6.410511 -2.1 L 6.396733 -2.15 L 6.382528 -2.2 L 6.36804 -2.25 L 6.353267 -2.3 L 6.338068 -2.35 L 6.322443 -2.4 L 6.306534 -2.45 L 6.290199 -2.5 Z M 6.415341 -2.5 " transform="matrix(27.5,0,0,27.5,126.875,275)"/>
<g clip-path="url(#clip6)" clip-rule="nonzero">
<path style="fill:none;stroke-width:0.0777778;stroke-linecap:round;stroke-linejoin:bevel;stroke:rgb(82.499999%,82.499999%,82.499999%);stroke-opacity:1;stroke-miterlimit:10;" d="M 6.290199 -2.5 L 6.306534 -2.45 L 6.322443 -2.4 L 6.338068 -2.35 L 6.353267 -2.3 L 6.36804 -2.25 L 6.382528 -2.2 L 6.396733 -2.15 L 6.410511 -2.1 L 6.424006 -2.05 L 6.437074 -2 L 6.449858 -1.95 L 6.462216 -1.9 L 6.47429 -1.85 L 6.48608 -1.8 L 6.497443 -1.75 L 6.508523 -1.7 L 6.519176 -1.65 L 6.529688 -1.6 L 6.539631 -1.55 L 6.549432 -1.5 L 6.558807 -1.45 L 6.567898 -1.4 L 6.576563 -1.35 L 6.584943 -1.3 L 6.59304 -1.25 L 6.600852 -1.2 L 6.608239 -1.15 L 6.615341 -1.1 L 6.622159 -1.05 L 6.628693 -1 L 6.634801 -0.95 L 6.640625 -0.9 L 6.646165 -0.85 L 6.651278 -0.8 L 6.65625 -0.75 L 6.660795 -0.7 L 6.665057 -0.65 L 6.668892 -0.6 L 6.672585 -0.55 L 6.675852 -0.5 L 6.678835 -0.45 L 6.681534 -0.4 L 6.683807 -0.35 L 6.685795 -0.3 L 6.687642 -0.25 L 6.689063 -0.2 L 6.690057 -0.15 L 6.690909 -0.1 L 6.691335 -0.05 L 6.691477 0 L 6.691335 0.05 L 6.690909 0.1 L 6.690057 0.15 L 6.689063 0.2 L 6.687642 0.25 L 6.685795 0.3 L 6.683807 0.35 L 6.681534 0.4 L 6.678835 0.45 L 6.675852 0.5 L 6.672585 0.55 L 6.668892 0.6 L 6.665057 0.65 L 6.660795 0.7 L 6.65625 0.75 L 6.651278 0.8 L 6.646165 0.85 L 6.640625 0.9 L 6.634801 0.95 L 6.628693 1 L 6.622159 1.05 L 6.615341 1.1 L 6.608239 1.15 L 6.600852 1.2 L 6.59304 1.25 L 6.584943 1.3 L 6.576563 1.35 L 6.567898 1.4 L 6.558807 1.45 L 6.549432 1.5 L 6.539631 1.55 L 6.529688 1.6 L 6.519176 1.65 L 6.508523 1.7 L 6.497443 1.75 L 6.48608 1.8 L 6.47429 1.85 L 6.462216 1.9 L 6.449858 1.95 L 6.437074 2 L 6.424006 2.05 L 6.410511 2.1 L 6.396733 2.15 L 6.382528 2.2 L 6.36804 2.25 L 6.353267 2.3 L 6.338068 2.35 L 6.322443 2.4 L 6.306534 2.45 L 6.290199 2.5 " transform="matrix(27.5,0,0,27.5,126.875,275)"/>
</g>
<path style="fill-rule:nonzero;fill:rgb(50%,50%,50%);fill-opacity:0.85;stroke-width:0.0777778;stroke-linecap:round;stroke-linejoin:bevel;stroke:rgb(82.499999%,82.499999%,82.499999%);stroke-opacity:1;stroke-miterlimit:10;" d="M 6.231818 -2.5 L 6.243466 -2.45 L 6.254972 -2.4 L 6.266193 -2.35 L 6.277131 -2.3 L 6.287926 -2.25 L 6.298438 -2.2 L 6.308665 -2.15 L 6.318608 -2.1 L 6.328267 -2.05 L 6.337784 -2 L 6.347159 -1.95 L 6.356108 -1.9 L 6.364915 -1.85 L 6.373438 -1.8 L 6.381676 -1.75 L 6.389773 -1.7 L 6.397585 -1.65 L 6.405114 -1.6 L 6.4125 -1.55 L 6.419602 -1.5 L 6.42642 -1.45 L 6.433097 -1.4 L 6.439489 -1.35 L 6.445597 -1.3 L 6.451563 -1.25 L 6.457244 -1.2 L 6.462642 -1.15 L 6.467898 -1.1 L 6.472869 -1.05 L 6.477557 -1 L 6.482102 -0.95 L 6.486364 -0.9 L 6.490341 -0.85 L 6.494176 -0.8 L 6.497869 -0.75 L 6.501136 -0.7 L 6.504261 -0.65 L 6.507102 -0.6 L 6.509801 -0.55 L 6.512216 -0.5 L 6.514347 -0.45 L 6.516335 -0.4 L 6.51804 -0.35 L 6.519602 -0.3 L 6.520881 -0.25 L 6.521875 -0.2 L 6.522727 -0.15 L 6.523295 -0.1 L 6.52358 -0.05 L 6.523722 0 L 6.52358 0.05 L 6.523295 0.1 L 6.522727 0.15 L 6.521875 0.2 L 6.520881 0.25 L 6.519602 0.3 L 6.51804 0.35 L 6.516335 0.4 L 6.514347 0.45 L 6.512216 0.5 L 6.509801 0.55 L 6.507102 0.6 L 6.504261 0.65 L 6.501136 0.7 L 6.497869 0.75 L 6.494176 0.8 L 6.490341 0.85 L 6.486364 0.9 L 6.482102 0.95 L 6.477557 1 L 6.472869 1.05 L 6.467898 1.1 L 6.462642 1.15 L 6.457244 1.2 L 6.451563 1.25 L 6.445597 1.3 L 6.439489 1.35 L 6.433097 1.4 L 6.42642 1.45 L 6.419602 1.5 L 6.4125 1.55 L 6.405114 1.6 L 6.397585 1.65 L 6.389773 1.7 L 6.381676 1.75 L 6.373438 1.8 L 6.364915 1.85 L 6.356108 1.9 L 6.347159 1.95 L 6.337784 2 L 6.328267 2.05 L 6.318608 2.1 L 6.308665 2.15 L 6.298438 2.2 L 6.287926 2.25 L 6.277131 2.3 L 6.266193 2.35 L 6.254972 2.4 L 6.243466 2.45 L 6.231818 2.5 L 6.108381 2.5 L 6.082955 2.45 L 6.058097 2.4 L 6.033949 2.35 L 6.010369 2.3 L 5.987358 2.25 L 5.965057 2.2 L 5.943324 2.15 L 5.922159 2.1 L 5.901563 2.05 L 5.881676 2 L 5.862216 1.95 L 5.843324 1.9 L 5.825 1.85 L 5.807244 1.8 L 5.790057 1.75 L 5.773438 1.7 L 5.757244 1.65 L 5.741619 1.6 L 5.726563 1.55 L 5.712074 1.5 L 5.698011 1.45 L 5.684517 1.4 L 5.671449 1.35 L 5.658949 1.3 L 5.646875 1.25 L 5.635369 1.2 L 5.62429 1.15 L 5.613778 1.1 L 5.603693 1.05 L 5.594176 1 L 5.585085 0.95 L 5.576563 0.9 L 5.568324 0.85 L 5.560795 0.8 L 5.553551 0.75 L 5.546875 0.7 L 5.540625 0.65 L 5.534801 0.6 L 5.529545 0.55 L 5.524716 0.5 L 5.520313 0.45 L 5.516477 0.4 L 5.512926 0.35 L 5.509943 0.3 L 5.507528 0.25 L 5.505398 0.2 L 5.503835 0.15 L 5.502699 0.1 L 5.501989 0.05 L 5.501705 0 L 5.501989 -0.05 L 5.502699 -0.1 L 5.503835 -0.15 L 5.505398 -0.2 L 5.507528 -0.25 L 5.509943 -0.3 L 5.512926 -0.35 L 5.516477 -0.4 L 5.520313 -0.45 L 5.524716 -0.5 L 5.529545 -0.55 L 5.534801 -0.6 L 5.540625 -0.65 L 5.546875 -0.7 L 5.553551 -0.75 L 5.560795 -0.8 L 5.568324 -0.85 L 5.576563 -0.9 L 5.585085 -0.95 L 5.594176 -1 L 5.603693 -1.05 L 5.613778 -1.1 L 5.62429 -1.15 L 5.635369 -1.2 L 5.646875 -1.25 L 5.658949 -1.3 L 5.671449 -1.35 L 5.684517 -1.4 L 5.698011 -1.45 L 5.712074 -1.5 L 5.726563 -1.55 L 5.741619 -1.6 L 5.757244 -1.65 L 5.773438 -1.7 L 5.790057 -1.75 L 5.807244 -1.8 L 5.825 -1.85 L 5.843324 -1.9 L 5.862216 -1.95 L 5.881676 -2 L 5.901563 -2.05 L 5.922159 -2.1 L 5.943324 -2.15 L 5.965057 -2.2 L 5.987358 -2.25 L 6.010369 -2.3 L 6.033949 -2.35 L 6.058097 -2.4 L 6.082955 -2.45 L 6.108381 -2.5 Z M 6.231818 -2.5 " transform="matrix(27.5,0,0,27.5,126.875,275)"/>
<path style="fill-rule:nonzero;fill:rgb(50%,50%,50%);fill-opacity:0.85;stroke-width:0.0777778;stroke-linecap:round;stroke-linejoin:bevel;stroke:rgb(82.499999%,82.499999%,82.499999%);stroke-opacity:1;stroke-miterlimit:10;" d="M 6.108381 -2.5 L 6.082955 -2.45 L 6.058097 -2.4 L 6.033949 -2.35 L 6.010369 -2.3 L 5.987358 -2.25 L 5.965057 -2.2 L 5.943324 -2.15 L 5.922159 -2.1 L 5.901563 -2.05 L 5.881676 -2 L 5.862216 -1.95 L 5.843324 -1.9 L 5.825 -1.85 L 5.807244 -1.8 L 5.790057 -1.75 L 5.773438 -1.7 L 5.757244 -1.65 L 5.741619 -1.6 L 5.726563 -1.55 L 5.712074 -1.5 L 5.698011 -1.45 L 5.684517 -1.4 L 5.671449 -1.35 L 5.658949 -1.3 L 5.646875 -1.25 L 5.635369 -1.2 L 5.62429 -1.15 L 5.613778 -1.1 L 5.603693 -1.05 L 5.594176 -1 L 5.585085 -0.95 L 5.576563 -0.9 L 5.568324 -0.85 L 5.560795 -0.8 L 5.553551 -0.75 L 5.546875 -0.7 L 5.540625 -0.65 L 5.534801 -0.6 L 5.529545 -0.55 L 5.524716 -0.5 L 5.520313 -0.45 L 5.516477 -0.4 L 5.512926 -0.35 L 5.509943 -0.3 L 5.507528 -0.25 L 5.505398 -0.2 L 5.503835 -0.15 L 5.502699 -0.1 L 5.501989 -0.05 L 5.501705 0 L 5.501989 0.05 L 5.502699 0.1 L 5.503835 0.15 L 5.505398 0.2 L 5.507528 0.25 L 5.509943 0.3 L 5.512926 0.35 L 5.516477 0.4 L 5.520313 0.45 L 5.524716 0.5 L 5.529545 0.55 L 5.534801 0.6 L 5.540625 0.65 L 5.546875 0.7 L 5.553551 0.75 L 5.560795 0.8 L 5.568324 0.85 L 5.576563 0.9 L 5.585085 0.95 L 5.594176 1 L 5.603693 1.05 L 5.613778 1.1 L 5.62429 1.15 L 5.635369 1.2 L 5.646875 1.25 L 5.658949 1.3 L 5.671449 1.35 L 5.684517 1.4 L 5.698011 1.45 L 5.712074 1.5 L 5.726563 1.55 L 5.741619 1.6 L 5.757244 1.65 L 5.773438 1.7 L 5.790057 1.75 L 5.807244 1.8 L 5.825 1.85 L 5.843324 1.9 L 5.862216 1.95 L 5.881676 2 L 5.901563 2.05 L 5.922159 2.1 L 5.943324 2.15 L 5.965057 2.2 L 5.987358 2.25 L 6.010369 2.3 L 6.033949 2.35 L 6.058097 2.4 L 6.082955 2.45 L 6.108381 2.5 L 5.685653 2.5 L 5.667898 2.45 L 5.650568 2.4 L 5.633665 2.35 L 5.617188 2.3 L 5.601136 2.25 L 5.585369 2.2 L 5.570028 2.15 L 5.555114 2.1 L 5.540625 2.05 L 5.52642 2 L 5.5125 1.95 L 5.499148 1.9 L 5.48608 1.85 L 5.473438 1.8 L 5.46108 1.75 L 5.449148 1.7 L 5.4375 1.65 L 5.426278 1.6 L 5.415483 1.55 L 5.404972 1.5 L 5.394744 1.45 L 5.385085 1.4 L 5.375568 1.35 L 5.366477 1.3 L 5.357813 1.25 L 5.349432 1.2 L 5.341477 1.15 L 5.333807 1.1 L 5.32642 1.05 L 5.31946 1 L 5.312784 0.95 L 5.306534 0.9 L 5.300568 0.85 L 5.295028 0.8 L 5.289773 0.75 L 5.284801 0.7 L 5.280256 0.65 L 5.275994 0.6 L 5.272159 0.55 L 5.268608 0.5 L 5.265341 0.45 L 5.2625 0.4 L 5.259943 0.35 L 5.257813 0.3 L 5.255966 0.25 L 5.254403 0.2 L 5.253267 0.15 L 5.252415 0.1 L 5.251989 0.05 L 5.251705 0 L 5.251989 -0.05 L 5.252415 -0.1 L 5.253267 -0.15 L 5.254403 -0.2 L 5.255966 -0.25 L 5.257813 -0.3 L 5.259943 -0.35 L 5.2625 -0.4 L 5.265341 -0.45 L 5.268608 -0.5 L 5.272159 -0.55 L 5.275994 -0.6 L 5.280256 -0.65 L 5.284801 -0.7 L 5.289773 -0.75 L 5.295028 -0.8 L 5.300568 -0.85 L 5.306534 -0.9 L 5.312784 -0.95 L 5.31946 -1 L 5.32642 -1.05 L 5.333807 -1.1 L 5.341477 -1.15 L 5.349432 -1.2 L 5.357813 -1.25 L 5.366477 -1.3 L 5.375568 -1.35 L 5.385085 -1.4 L 5.394744 -1.45 L 5.404972 -1.5 L 5.415483 -1.55 L 5.426278 -1.6 L 5.4375 -1.65 L 5.449148 -1.7 L 5.46108 -1.75 L 5.473438 -1.8 L 5.48608 -1.85 L 5.499148 -1.9 L 5.5125 -1.95 L 5.52642 -2 L 5.540625 -2.05 L 5.555114 -2.1 L 5.570028 -2.15 L 5.585369 -2.2 L 5.601136 -2.25 L 5.617188 -2.3 L 5.633665 -2.35 L 5.650568 -2.4 L 5.667898 -2.45 L 5.685653 -2.5 Z M 6.108381 -2.5 " transform="matrix(27.5,0,0,27.5,126.875,275)"/>
<g clip-path="url(#clip7)" clip-rule="nonzero">
<path style="fill:none;stroke-width:0.0777778;stroke-linecap:round;stroke-linejoin:bevel;stroke:rgb(82.499999%,82.499999%,82.499999%);stroke-opacity:1;stroke-miterlimit:10;" d="M 5.685653 -2.5 L 5.667898 -2.45 L 5.650568 -2.4 L 5.633665 -2.35 L 5.617188 -2.3 L 5.601136 -2.25 L 5.585369 -2.2 L 5.570028 -2.15 L 5.555114 -2.1 L 5.540625 -2.05 L 5.52642 -2 L 5.5125 -1.95 L 5.499148 -1.9 L 5.48608 -1.85 L 5.473438 -1.8 L 5.46108 -1.75 L 5.449148 -1.7 L 5.4375 -1.65 L 5.426278 -1.6 L 5.415483 -1.55 L 5.404972 -1.5 L 5.394744 -1.45 L 5.385085 -1.4 L 5.375568 -1.35 L 5.366477 -1.3 L 5.357813 -1.25 L 5.349432 -1.2 L 5.341477 -1.15 L 5.333807 -1.1 L 5.32642 -1.05 L 5.31946 -1 L 5.312784 -0.95 L 5.306534 -0.9 L 5.300568 -0.85 L 5.295028 -0.8 L 5.289773 -0.75 L 5.284801 -0.7 L 5.280256 -0.65 L 5.275994 -0.6 L 5.272159 -0.55 L 5.268608 -0.5 L 5.265341 -0.45 L 5.2625 -0.4 L 5.259943 -0.35 L 5.257813 -0.3 L 5.255966 -0.25 L 5.254403 -0.2 L 5.253267 -0.15 L 5.252415 -0.1 L 5.251989 -0.05 L 5.251705 0 L 5.251989 0.05 L 5.252415 0.1 L 5.253267 0.15 L 5.254403 0.2 L 5.255966 0.25 L 5.257813 0.3 L 5.259943 0.35 L 5.2625 0.4 L 5.265341 0.45 L 5.268608 0.5 L 5.272159 0.55 L 5.275994 0.6 L 5.280256 0.65 L 5.284801 0.7 L 5.289773 0.75 L 5.295028 0.8 L 5.300568 0.85 L 5.306534 0.9 L 5.312784 0.95 L 5.31946 1 L 5.32642 1.05 L 5.333807 1.1 L 5.341477 1.15 L 5.349432 1.2 L 5.357813 1.25 L 5.366477 1.3 L 5.375568 1.35 L 5.385085 1.4 L 5.394744 1.45 L 5.404972 1.5 L 5.415483 1.55 L 5.426278 1.6 L 5.4375 1.65 L 5.449148 1.7 L 5.46108 1.75 L 5.473438 1.8 L 5.48608 1.85 L 5.499148 1.9 L 5.5125 1.95 L 5.52642 2 L 5.540625 2.05 L 5.555114 2.1 L 5.570028 2.15 L 5.585369 2.2 L 5.601136 2.25 L 5.617188 2.3 L 5.633665 2.35 L 5.650568 2.4 L 5.667898 2.45 L 5.685653 2.5 " transform="matrix(27.5,0,0,27.5,126.875,275)"/>
</g>
<path style="fill-rule:nonzero;fill:rgb(50%,50%,50%);fill-opacity:0.85;stroke-width:0.0777778;stroke-linecap:round;stroke-linejoin:bevel;stroke:rgb(82.499999%,82.499999%,82.499999%);stroke-opacity:1;stroke-miterlimit:10;" d="M 4.577841 -3 L 4.602415 -2.940057 L 4.626563 -2.879972 L 4.65 -2.820028 L 4.673011 -2.759943 L 4.695313 -2.7 L 4.717188 -2.640057 L 4.738494 -2.579972 L 4.759233 -2.520028 L 4.779403 -2.459943 L 4.799006 -2.4 L 4.81804 -2.340057 L 4.836648 -2.279972 L 4.854688 -2.220028 L 4.872159 -2.159943 L 4.889205 -2.1 L 4.905682 -2.040057 L 4.921733 -1.979972 L 4.937216 -1.920028 L 4.952131 -1.859943 L 4.966619 -1.8 L 4.98054 -1.740057 L 4.994034 -1.679972 L 5.00696 -1.620028 L 5.01946 -1.559943 L 5.031392 -1.5 L 5.042898 -1.440057 L 5.053977 -1.379972 L 5.064489 -1.320028 L 5.074432 -1.259943 L 5.084091 -1.2 L 5.093182 -1.140057 L 5.101705 -1.079972 L 5.109943 -1.020028 L 5.117614 -0.959943 L 5.124716 -0.9 L 5.131392 -0.840057 L 5.137784 -0.779972 L 5.143466 -0.720028 L 5.148864 -0.659943 L 5.153693 -0.6 L 5.158097 -0.540057 L 5.161932 -0.479972 L 5.165483 -0.420028 L 5.168466 -0.359943 L 5.171023 -0.3 L 5.173011 -0.240057 L 5.174716 -0.179972 L 5.175852 -0.120028 L 5.176563 -0.0599432 L 5.176705 0 L 5.176563 0.0599432 L 5.175852 0.120028 L 5.174716 0.179972 L 5.173011 0.240057 L 5.171023 0.3 L 5.168466 0.359943 L 5.165483 0.420028 L 5.161932 0.479972 L 5.158097 0.540057 L 5.153693 0.6 L 5.148864 0.659943 L 5.143466 0.720028 L 5.137784 0.779972 L 5.131392 0.840057 L 5.124716 0.9 L 5.117614 0.959943 L 5.109943 1.020028 L 5.101705 1.079972 L 5.093182 1.140057 L 5.084091 1.2 L 5.074432 1.259943 L 5.064489 1.320028 L 5.053977 1.379972 L 5.042898 1.440057 L 5.031392 1.5 L 5.01946 1.559943 L 5.00696 1.620028 L 4.994034 1.679972 L 4.98054 1.740057 L 4.966619 1.8 L 4.952131 1.859943 L 4.937216 1.920028 L 4.921733 1.979972 L 4.905682 2.040057 L 4.889205 2.1 L 4.872159 2.159943 L 4.854688 2.220028 L 4.836648 2.279972 L 4.81804 2.340057 L 4.799006 2.4 L 4.779403 2.459943 L 4.759233 2.520028 L 4.738494 2.579972 L 4.717188 2.640057 L 4.695313 2.7 L 4.673011 2.759943 L 4.65 2.820028 L 4.626563 2.879972 L 4.602415 2.940057 L 4.577841 3 L 4.262358 3 L 4.271875 2.940057 L 4.281108 2.879972 L 4.290199 2.820028 L 4.299006 2.759943 L 4.30767 2.7 L 4.316193 2.640057 L 4.324574 2.579972 L 4.33267 2.520028 L 4.340483 2.459943 L 4.348295 2.4 L 4.355824 2.340057 L 4.363068 2.279972 L 4.37017 2.220028 L 4.377131 2.159943 L 4.383949 2.1 L 4.390483 2.040057 L 4.396875 1.979972 L 4.402983 1.920028 L 4.408949 1.859943 L 4.414773 1.8 L 4.420313 1.740057 L 4.425852 1.679972 L 4.430966 1.620028 L 4.43608 1.559943 L 4.440909 1.5 L 4.445455 1.440057 L 4.45 1.379972 L 4.454261 1.320028 L 4.458239 1.259943 L 4.462216 1.2 L 4.465909 1.140057 L 4.469318 1.079972 L 4.472727 1.020028 L 4.475852 0.959943 L 4.481534 0.840057 L 4.484091 0.779972 L 4.486364 0.720028 L 4.488636 0.659943 L 4.49233 0.540057 L 4.493892 0.479972 L 4.495313 0.420028 L 4.496591 0.359943 L 4.497585 0.3 L 4.498438 0.240057 L 4.499148 0.179972 L 4.499574 0.120028 L 4.499858 0.0599432 L 4.5 0 L 4.499858 -0.0599432 L 4.499574 -0.120028 L 4.499148 -0.179972 L 4.498438 -0.240057 L 4.497585 -0.3 L 4.496591 -0.359943 L 4.495313 -0.420028 L 4.493892 -0.479972 L 4.49233 -0.540057 L 4.488636 -0.659943 L 4.486364 -0.720028 L 4.484091 -0.779972 L 4.481534 -0.840057 L 4.475852 -0.959943 L 4.472727 -1.020028 L 4.469318 -1.079972 L 4.465909 -1.140057 L 4.462216 -1.2 L 4.458239 -1.259943 L 4.454261 -1.320028 L 4.45 -1.379972 L 4.445455 -1.440057 L 4.440909 -1.5 L 4.43608 -1.559943 L 4.430966 -1.620028 L 4.425852 -1.679972 L 4.420313 -1.740057 L 4.414773 -1.8 L 4.408949 -1.859943 L 4.402983 -1.920028 L 4.396875 -1.979972 L 4.390483 -2.040057 L 4.383949 -2.1 L 4.377131 -2.159943 L 4.37017 -2.220028 L 4.363068 -2.279972 L 4.355824 -2.340057 L 4.348295 -2.4 L 4.340483 -2.459943 L 4.33267 -2.520028 L 4.324574 -2.579972 L 4.316193 -2.640057 L 4.30767 -2.7 L 4.299006 -2.759943 L 4.290199 -2.820028 L 4.281108 -2.879972 L 4.271875 -2.940057 L 4.262358 -3 Z M 4.577841 -3 " transform="matrix(27.5,0,0,27.5,126.875,275)"/>
<g clip-path="url(#clip8)" clip-rule="nonzero">
<path style="fill:none;stroke-width:0.0777778;stroke-linecap:round;stroke-linejoin:bevel;stroke:rgb(82.499999%,82.499999%,82.499999%);stroke-opacity:1;stroke-miterlimit:10;" d="M 4.262358 -3 L 4.271875 -2.940057 L 4.281108 -2.879972 L 4.290199 -2.820028 L 4.299006 -2.759943 L 4.30767 -2.7 L 4.316193 -2.640057 L 4.324574 -2.579972 L 4.33267 -2.520028 L 4.340483 -2.459943 L 4.348295 -2.4 L 4.355824 -2.340057 L 4.363068 -2.279972 L 4.37017 -2.220028 L 4.377131 -2.159943 L 4.383949 -2.1 L 4.390483 -2.040057 L 4.396875 -1.979972 L 4.402983 -1.920028 L 4.408949 -1.859943 L 4.414773 -1.8 L 4.420313 -1.740057 L 4.425852 -1.679972 L 4.430966 -1.620028 L 4.43608 -1.559943 L 4.440909 -1.5 L 4.445455 -1.440057 L 4.45 -1.379972 L 4.454261 -1.320028 L 4.458239 -1.259943 L 4.462216 -1.2 L 4.465909 -1.140057 L 4.469318 -1.079972 L 4.472727 -1.020028 L 4.475852 -0.959943 L 4.481534 -0.840057 L 4.484091 -0.779972 L 4.486364 -0.720028 L 4.488636 -0.659943 L 4.49233 -0.540057 L 4.493892 -0.479972 L 4.495313 -0.420028 L 4.496591 -0.359943 L 4.497585 -0.3 L 4.498438 -0.240057 L 4.499148 -0.179972 L 4.499574 -0.120028 L 4.499858 -0.0599432 L 4.5 0 L 4.499858 0.0599432 L 4.499574 0.120028 L 4.499148 0.179972 L 4.498438 0.240057 L 4.497585 0.3 L 4.496591 0.359943 L 4.495313 0.420028 L 4.493892 0.479972 L 4.49233 0.540057 L 4.488636 0.659943 L 4.486364 0.720028 L 4.484091 0.779972 L 4.481534 0.840057 L 4.475852 0.959943 L 4.472727 1.020028 L 4.469318 1.079972 L 4.465909 1.140057 L 4.462216 1.2 L 4.458239 1.259943 L 4.454261 1.320028 L 4.45 1.379972 L 4.445455 1.440057 L 4.440909 1.5 L 4.43608 1.559943 L 4.430966 1.620028 L 4.425852 1.679972 L 4.420313 1.740057 L 4.414773 1.8 L 4.408949 1.859943 L 4.402983 1.920028 L 4.396875 1.979972 L 4.390483 2.040057 L 4.383949 2.1 L 4.377131 2.159943 L 4.37017 2.220028 L 4.363068 2.279972 L 4.355824 2.340057 L 4.348295 2.4 L 4.340483 2.459943 L 4.33267 2.520028 L 4.324574 2.579972 L 4.316193 2.640057 L 4.30767 2.7 L 4.299006 2.759943 L 4.290199 2.820028 L 4.281108 2.879972 L 4.271875 2.940057 L 4.262358 3 " transform="matrix(27.5,0,0,27.5,126.875,275)"/>
</g>
<path style="fill-rule:nonzero;fill:rgb(50%,50%,50%);fill-opacity:0.85;stroke-width:0.0777778;stroke-linecap:round;stroke-linejoin:bevel;stroke:rgb(82.499999%,82.499999%,82.499999%);stroke-opacity:1;stroke-miterlimit:10;" d="M 4.249858 -3.225 L 4.249858 -1.934943 L 4.25 -1.870455 L 4.25 1.870455 L 4.249858 1.934943 L 4.249858 3.225 L 3.499858 3.225 L 3.499858 1.934943 L 3.5 1.870455 L 3.5 -1.870455 L 3.499858 -1.934943 L 3.499858 -3.225 Z M 4.249858 -3.225 " transform="matrix(27.5,0,0,27.5,126.875,275)"/>
<g clip-path="url(#clip9)" clip-rule="nonzero">
<path style="fill:none;stroke-width:0.0777778;stroke-linecap:round;stroke-linejoin:bevel;stroke:rgb(82.499999%,82.499999%,82.499999%);stroke-opacity:1;stroke-miterlimit:10;" d="M 3.499858 -3.225 L 3.499858 -1.934943 L 3.5 -1.870455 L 3.5 1.870455 L 3.499858 1.934943 L 3.499858 3.225 " transform="matrix(27.5,0,0,27.5,126.875,275)"/>
</g>
<path style=" stroke:none;fill-rule:nonzero;fill:rgb(50%,50%,50%);fill-opacity:1;" d="M 120 154.6875 L 120 395.3125 L 126.875 395.3125 L 126.875 154.6875 Z M 120 154.6875 "/>
<path style="fill:none;stroke-width:0.555556;stroke-linecap:round;stroke-linejoin:bevel;stroke:rgb(82.499999%,82.499999%,82.499999%);stroke-opacity:1;stroke-miterlimit:10;" d="M 35.089772 16 L 35.089772 6 " transform="matrix(6.875,0,0,6.875,126.875,275)"/>
<path style="fill:none;stroke-width:0.555556;stroke-linecap:round;stroke-linejoin:bevel;stroke:rgb(82.499999%,82.499999%,82.499999%);stroke-opacity:1;stroke-miterlimit:10;" d="M 35.089772 -16 L 35.089772 -6 " transform="matrix(6.875,0,0,6.875,126.875,275)"/>
</g>
</svg>
